# Blender 5.2.1 LTS
# www.blender.org
mtllib Floor_Spikes.mtl
o EXPORT_Floor_Spikes
v -1.053095 -0.102456 1.053095
v 1.053095 -0.102456 1.053095
v -1.053095 -0.102456 -1.053095
v 1.053095 -0.102456 -1.053095
v -0.847667 0.000000 -0.722334
v -0.847667 0.000000 -0.877667
v -0.692334 0.000000 -0.877667
v -0.692334 0.000000 -0.722334
v -0.891455 0.000000 -0.678545
v -0.891455 0.000000 -0.921455
v -0.648545 0.000000 -0.921455
v -0.648545 0.000000 -0.678545
v -0.891455 -0.102164 -0.678545
v -0.891455 -0.102164 -0.921455
v -0.648545 -0.102164 -0.921455
v -0.648545 -0.102164 -0.678545
v -0.847667 -0.102164 -0.722334
v -0.847667 -0.102164 -0.877667
v -0.692334 -0.102164 -0.877667
v -0.692334 -0.102164 -0.722334
v -0.459011 0.000000 -0.722334
v -0.459011 0.000000 -0.877667
v -0.303678 0.000000 -0.877667
v -0.303678 0.000000 -0.722334
v -0.502800 0.000000 -0.678545
v -0.502800 0.000000 -0.921455
v -0.259890 0.000000 -0.921455
v -0.259890 0.000000 -0.678545
v -0.502800 -0.102164 -0.678545
v -0.502800 -0.102164 -0.921455
v -0.259890 -0.102164 -0.921455
v -0.259890 -0.102164 -0.678545
v -0.459011 -0.102164 -0.722334
v -0.459011 -0.102164 -0.877667
v -0.303678 -0.102164 -0.877667
v -0.303678 -0.102164 -0.722334
v -0.070356 0.000000 -0.722334
v -0.070356 0.000000 -0.877667
v 0.084977 0.000000 -0.877667
v 0.084977 0.000000 -0.722334
v -0.114144 0.000000 -0.678545
v -0.114144 0.000000 -0.921455
v 0.128766 0.000000 -0.921455
v 0.128766 0.000000 -0.678545
v -0.114144 -0.102164 -0.678545
v -0.114144 -0.102164 -0.921455
v 0.128766 -0.102164 -0.921455
v 0.128766 -0.102164 -0.678545
v -0.070356 -0.102164 -0.722334
v -0.070356 -0.102164 -0.877667
v 0.084977 -0.102164 -0.877667
v 0.084977 -0.102164 -0.722334
v 0.318300 0.000000 -0.722334
v 0.318300 0.000000 -0.877667
v 0.473633 0.000000 -0.877667
v 0.473633 0.000000 -0.722334
v 0.274511 0.000000 -0.678545
v 0.274511 0.000000 -0.921455
v 0.517421 0.000000 -0.921455
v 0.517421 0.000000 -0.678545
v 0.274511 -0.102164 -0.678545
v 0.274511 -0.102164 -0.921455
v 0.517421 -0.102164 -0.921455
v 0.517421 -0.102164 -0.678545
v 0.318300 -0.102164 -0.722334
v 0.318300 -0.102164 -0.877667
v 0.473633 -0.102164 -0.877667
v 0.473633 -0.102164 -0.722334
v 0.706956 0.000000 -0.722334
v 0.706956 0.000000 -0.877667
v 0.862288 0.000000 -0.877667
v 0.862288 0.000000 -0.722334
v 0.663167 0.000000 -0.678545
v 0.663167 0.000000 -0.921455
v 0.906077 0.000000 -0.921455
v 0.906077 0.000000 -0.678545
v 0.663167 -0.102164 -0.678545
v 0.663167 -0.102164 -0.921455
v 0.906077 -0.102164 -0.921455
v 0.906077 -0.102164 -0.678545
v 0.706956 -0.102164 -0.722334
v 0.706956 -0.102164 -0.877667
v 0.862288 -0.102164 -0.877667
v 0.862288 -0.102164 -0.722334
v -0.847667 0.000000 -0.333678
v -0.847667 0.000000 -0.489011
v -0.692334 0.000000 -0.489011
v -0.692334 0.000000 -0.333678
v -0.891455 0.000000 -0.289890
v -0.891455 0.000000 -0.532799
v -0.648545 0.000000 -0.532799
v -0.648545 0.000000 -0.289890
v -0.891455 -0.102164 -0.289890
v -0.891455 -0.102164 -0.532799
v -0.648545 -0.102164 -0.532799
v -0.648545 -0.102164 -0.289890
v -0.847667 -0.102164 -0.333678
v -0.847667 -0.102164 -0.489011
v -0.692334 -0.102164 -0.489011
v -0.692334 -0.102164 -0.333678
v -0.459011 0.000000 -0.333678
v -0.459011 0.000000 -0.489011
v -0.303678 0.000000 -0.489011
v -0.303678 0.000000 -0.333678
v -0.502800 0.000000 -0.289890
v -0.502800 0.000000 -0.532799
v -0.259890 0.000000 -0.532799
v -0.259890 0.000000 -0.289890
v -0.502800 -0.102164 -0.289890
v -0.502800 -0.102164 -0.532799
v -0.259890 -0.102164 -0.532799
v -0.259890 -0.102164 -0.289890
v -0.459011 -0.102164 -0.333678
v -0.459011 -0.102164 -0.489011
v -0.303678 -0.102164 -0.489011
v -0.303678 -0.102164 -0.333678
v -0.070356 0.000000 -0.333678
v -0.070356 0.000000 -0.489011
v 0.084977 0.000000 -0.489011
v 0.084977 0.000000 -0.333678
v -0.114144 0.000000 -0.289890
v -0.114144 0.000000 -0.532799
v 0.128766 0.000000 -0.532799
v 0.128766 0.000000 -0.289890
v -0.114144 -0.102164 -0.289890
v -0.114144 -0.102164 -0.532799
v 0.128766 -0.102164 -0.532799
v 0.128766 -0.102164 -0.289890
v -0.070356 -0.102164 -0.333678
v -0.070356 -0.102164 -0.489011
v 0.084977 -0.102164 -0.489011
v 0.084977 -0.102164 -0.333678
v 0.318300 0.000000 -0.333678
v 0.318300 0.000000 -0.489011
v 0.473633 0.000000 -0.489011
v 0.473633 0.000000 -0.333678
v 0.274511 0.000000 -0.289890
v 0.274511 0.000000 -0.532799
v 0.517421 0.000000 -0.532799
v 0.517421 0.000000 -0.289890
v 0.274511 -0.102164 -0.289890
v 0.274511 -0.102164 -0.532799
v 0.517421 -0.102164 -0.532799
v 0.517421 -0.102164 -0.289890
v 0.318300 -0.102164 -0.333678
v 0.318300 -0.102164 -0.489011
v 0.473633 -0.102164 -0.489011
v 0.473633 -0.102164 -0.333678
v 0.706956 0.000000 -0.333678
v 0.706956 0.000000 -0.489011
v 0.862288 0.000000 -0.489011
v 0.862288 0.000000 -0.333678
v 0.663167 0.000000 -0.289890
v 0.663167 0.000000 -0.532799
v 0.906077 0.000000 -0.532799
v 0.906077 0.000000 -0.289890
v 0.663167 -0.102164 -0.289890
v 0.663167 -0.102164 -0.532799
v 0.906077 -0.102164 -0.532799
v 0.906077 -0.102164 -0.289890
v 0.706956 -0.102164 -0.333678
v 0.706956 -0.102164 -0.489011
v 0.862288 -0.102164 -0.489011
v 0.862288 -0.102164 -0.333678
v -0.847667 0.000000 0.054977
v -0.847667 0.000000 -0.100356
v -0.692334 0.000000 -0.100356
v -0.692334 0.000000 0.054977
v -0.891455 0.000000 0.098766
v -0.891455 0.000000 -0.144144
v -0.648545 0.000000 -0.144144
v -0.648545 0.000000 0.098766
v -0.891455 -0.102164 0.098766
v -0.891455 -0.102164 -0.144144
v -0.648545 -0.102164 -0.144144
v -0.648545 -0.102164 0.098766
v -0.847667 -0.102164 0.054977
v -0.847667 -0.102164 -0.100356
v -0.692334 -0.102164 -0.100356
v -0.692334 -0.102164 0.054977
v -0.459011 0.000000 0.054977
v -0.459011 0.000000 -0.100356
v -0.303678 0.000000 -0.100356
v -0.303678 0.000000 0.054977
v -0.502800 0.000000 0.098766
v -0.502800 0.000000 -0.144144
v -0.259890 0.000000 -0.144144
v -0.259890 0.000000 0.098766
v -0.502800 -0.102164 0.098766
v -0.502800 -0.102164 -0.144144
v -0.259890 -0.102164 -0.144144
v -0.259890 -0.102164 0.098766
v -0.459011 -0.102164 0.054977
v -0.459011 -0.102164 -0.100356
v -0.303678 -0.102164 -0.100356
v -0.303678 -0.102164 0.054977
v -0.070356 0.000000 0.054977
v -0.070356 0.000000 -0.100356
v 0.084977 0.000000 -0.100356
v 0.084977 0.000000 0.054977
v -0.114144 0.000000 0.098766
v -0.114144 0.000000 -0.144144
v 0.128766 0.000000 -0.144144
v 0.128766 0.000000 0.098766
v -0.114144 -0.102164 0.098766
v -0.114144 -0.102164 -0.144144
v 0.128766 -0.102164 -0.144144
v 0.128766 -0.102164 0.098766
v -0.070356 -0.102164 0.054977
v -0.070356 -0.102164 -0.100356
v 0.084977 -0.102164 -0.100356
v 0.084977 -0.102164 0.054977
v 0.318300 0.000000 0.054977
v 0.318300 0.000000 -0.100356
v 0.473633 0.000000 -0.100356
v 0.473633 0.000000 0.054977
v 0.274511 0.000000 0.098766
v 0.274511 0.000000 -0.144144
v 0.517421 0.000000 -0.144144
v 0.517421 0.000000 0.098766
v 0.274511 -0.102164 0.098766
v 0.274511 -0.102164 -0.144144
v 0.517421 -0.102164 -0.144144
v 0.517421 -0.102164 0.098766
v 0.318300 -0.102164 0.054977
v 0.318300 -0.102164 -0.100356
v 0.473633 -0.102164 -0.100356
v 0.473633 -0.102164 0.054977
v 0.706956 0.000000 0.054977
v 0.706956 0.000000 -0.100356
v 0.862288 0.000000 -0.100356
v 0.862288 0.000000 0.054977
v 0.663167 0.000000 0.098766
v 0.663167 0.000000 -0.144144
v 0.906077 0.000000 -0.144144
v 0.906077 0.000000 0.098766
v 0.663167 -0.102164 0.098766
v 0.663167 -0.102164 -0.144144
v 0.906077 -0.102164 -0.144144
v 0.906077 -0.102164 0.098766
v 0.706956 -0.102164 0.054977
v 0.706956 -0.102164 -0.100356
v 0.862288 -0.102164 -0.100356
v 0.862288 -0.102164 0.054977
v -0.847667 0.000000 0.443633
v -0.847667 0.000000 0.288300
v -0.692334 0.000000 0.288300
v -0.692334 0.000000 0.443633
v -0.891455 0.000000 0.487421
v -0.891455 0.000000 0.244511
v -0.648545 0.000000 0.244511
v -0.648545 0.000000 0.487421
v -0.891455 -0.102164 0.487421
v -0.891455 -0.102164 0.244511
v -0.648545 -0.102164 0.244511
v -0.648545 -0.102164 0.487421
v -0.847667 -0.102164 0.443633
v -0.847667 -0.102164 0.288300
v -0.692334 -0.102164 0.288300
v -0.692334 -0.102164 0.443633
v -0.459011 0.000000 0.443633
v -0.459011 0.000000 0.288300
v -0.303678 0.000000 0.288300
v -0.303678 0.000000 0.443633
v -0.502800 0.000000 0.487421
v -0.502800 0.000000 0.244511
v -0.259890 0.000000 0.244511
v -0.259890 0.000000 0.487421
v -0.502800 -0.102164 0.487421
v -0.502800 -0.102164 0.244511
v -0.259890 -0.102164 0.244511
v -0.259890 -0.102164 0.487421
v -0.459011 -0.102164 0.443633
v -0.459011 -0.102164 0.288300
v -0.303678 -0.102164 0.288300
v -0.303678 -0.102164 0.443633
v -0.070356 0.000000 0.443633
v -0.070356 0.000000 0.288300
v 0.084977 0.000000 0.288300
v 0.084977 0.000000 0.443633
v -0.114144 0.000000 0.487421
v -0.114144 0.000000 0.244511
v 0.128766 0.000000 0.244511
v 0.128766 0.000000 0.487421
v -0.114144 -0.102164 0.487421
v -0.114144 -0.102164 0.244511
v 0.128766 -0.102164 0.244511
v 0.128766 -0.102164 0.487421
v -0.070356 -0.102164 0.443633
v -0.070356 -0.102164 0.288300
v 0.084977 -0.102164 0.288300
v 0.084977 -0.102164 0.443633
v 0.318300 0.000000 0.443633
v 0.318300 0.000000 0.288300
v 0.473633 0.000000 0.288300
v 0.473633 0.000000 0.443633
v 0.274511 0.000000 0.487421
v 0.274511 0.000000 0.244511
v 0.517421 0.000000 0.244511
v 0.517421 0.000000 0.487421
v 0.274511 -0.102164 0.487421
v 0.274511 -0.102164 0.244511
v 0.517421 -0.102164 0.244511
v 0.517421 -0.102164 0.487421
v 0.318300 -0.102164 0.443633
v 0.318300 -0.102164 0.288300
v 0.473633 -0.102164 0.288300
v 0.473633 -0.102164 0.443633
v 0.706956 0.000000 0.443633
v 0.706956 0.000000 0.288300
v 0.862288 0.000000 0.288300
v 0.862288 0.000000 0.443633
v 0.663167 0.000000 0.487421
v 0.663167 0.000000 0.244511
v 0.906077 0.000000 0.244511
v 0.906077 0.000000 0.487421
v 0.663167 -0.102164 0.487421
v 0.663167 -0.102164 0.244511
v 0.906077 -0.102164 0.244511
v 0.906077 -0.102164 0.487421
v 0.706956 -0.102164 0.443633
v 0.706956 -0.102164 0.288300
v 0.862288 -0.102164 0.288300
v 0.862288 -0.102164 0.443633
v -0.847667 0.000000 0.832288
v -0.847667 0.000000 0.676955
v -0.692334 0.000000 0.676955
v -0.692334 0.000000 0.832288
v -0.891455 0.000000 0.876077
v -0.891455 0.000000 0.633167
v -0.648545 0.000000 0.633167
v -0.648545 0.000000 0.876077
v -0.891455 -0.102164 0.876077
v -0.891455 -0.102164 0.633167
v -0.648545 -0.102164 0.633167
v -0.648545 -0.102164 0.876077
v -0.847667 -0.102164 0.832288
v -0.847667 -0.102164 0.676955
v -0.692334 -0.102164 0.676955
v -0.692334 -0.102164 0.832288
v -0.459011 0.000000 0.832288
v -0.459011 0.000000 0.676955
v -0.303678 0.000000 0.676955
v -0.303678 0.000000 0.832288
v -0.502800 0.000000 0.876077
v -0.502800 0.000000 0.633167
v -0.259890 0.000000 0.633167
v -0.259890 0.000000 0.876077
v -0.502800 -0.102164 0.876077
v -0.502800 -0.102164 0.633167
v -0.259890 -0.102164 0.633167
v -0.259890 -0.102164 0.876077
v -0.459011 -0.102164 0.832288
v -0.459011 -0.102164 0.676955
v -0.303678 -0.102164 0.676955
v -0.303678 -0.102164 0.832288
v -0.070356 0.000000 0.832288
v -0.070356 0.000000 0.676955
v 0.084977 0.000000 0.676955
v 0.084977 0.000000 0.832288
v -0.114144 0.000000 0.876077
v -0.114144 0.000000 0.633167
v 0.128766 0.000000 0.633167
v 0.128766 0.000000 0.876077
v -0.114144 -0.102164 0.876077
v -0.114144 -0.102164 0.633167
v 0.128766 -0.102164 0.633167
v 0.128766 -0.102164 0.876077
v -0.070356 -0.102164 0.832288
v -0.070356 -0.102164 0.676955
v 0.084977 -0.102164 0.676955
v 0.084977 -0.102164 0.832288
v 0.318300 0.000000 0.832288
v 0.318300 0.000000 0.676955
v 0.473633 0.000000 0.676955
v 0.473633 0.000000 0.832288
v 0.274511 0.000000 0.876077
v 0.274511 0.000000 0.633167
v 0.517421 0.000000 0.633167
v 0.517421 0.000000 0.876077
v 0.274511 -0.102164 0.876077
v 0.274511 -0.102164 0.633167
v 0.517421 -0.102164 0.633167
v 0.517421 -0.102164 0.876077
v 0.318300 -0.102164 0.832288
v 0.318300 -0.102164 0.676955
v 0.473633 -0.102164 0.676955
v 0.473633 -0.102164 0.832288
v 0.706956 0.000000 0.832288
v 0.706956 0.000000 0.676955
v 0.862288 0.000000 0.676955
v 0.862288 0.000000 0.832288
v 0.663167 0.000000 0.876077
v 0.663167 0.000000 0.633167
v 0.906077 0.000000 0.633167
v 0.906077 0.000000 0.876077
v 0.663167 -0.102164 0.876077
v 0.663167 -0.102164 0.633167
v 0.906077 -0.102164 0.633167
v 0.906077 -0.102164 0.876077
v 0.706956 -0.102164 0.832288
v 0.706956 -0.102164 0.676955
v 0.862288 -0.102164 0.676955
v 0.862288 -0.102164 0.832288
v -1.053095 -0.302456 -1.053095
v -1.053095 -0.302456 1.053095
v 1.053095 -0.302456 1.053095
v 1.053095 -0.302456 -1.053095
vn -0.0000 1.0000 -0.0000
vn -0.0000 -1.0000 -0.0000
vn -0.0000 -0.0000 -1.0000
vn 1.0000 -0.0000 -0.0000
vn -0.0000 -0.0000 1.0000
vn -1.0000 -0.0000 -0.0000
vt 0.000000 0.000000
s 1
usemtl dark_grey.002
f 5/1/1 6/1/1 10/1/1 9/1/1
f 7/1/1 8/1/1 12/1/1 11/1/1
f 8/1/1 5/1/1 9/1/1 12/1/1
f 6/1/1 7/1/1 11/1/1 10/1/1
f 17/1/2 13/1/2 14/1/2 18/1/2
f 19/1/2 15/1/2 16/1/2 20/1/2
f 20/1/2 16/1/2 13/1/2 17/1/2
f 18/1/2 14/1/2 15/1/2 19/1/2
f 11/1/3 15/1/3 14/1/3 10/1/3
f 12/1/4 16/1/4 15/1/4 11/1/4
f 8/1/3 20/1/3 17/1/3 5/1/3
f 5/1/4 17/1/4 18/1/4 6/1/4
f 9/1/5 13/1/5 16/1/5 12/1/5
f 10/1/6 14/1/6 13/1/6 9/1/6
f 6/1/5 18/1/5 19/1/5 7/1/5
f 7/1/6 19/1/6 20/1/6 8/1/6
f 21/1/1 22/1/1 26/1/1 25/1/1
f 23/1/1 24/1/1 28/1/1 27/1/1
f 24/1/1 21/1/1 25/1/1 28/1/1
f 22/1/1 23/1/1 27/1/1 26/1/1
f 33/1/2 29/1/2 30/1/2 34/1/2
f 35/1/2 31/1/2 32/1/2 36/1/2
f 36/1/2 32/1/2 29/1/2 33/1/2
f 34/1/2 30/1/2 31/1/2 35/1/2
f 27/1/3 31/1/3 30/1/3 26/1/3
f 28/1/4 32/1/4 31/1/4 27/1/4
f 24/1/3 36/1/3 33/1/3 21/1/3
f 21/1/4 33/1/4 34/1/4 22/1/4
f 25/1/5 29/1/5 32/1/5 28/1/5
f 26/1/6 30/1/6 29/1/6 25/1/6
f 22/1/5 34/1/5 35/1/5 23/1/5
f 23/1/6 35/1/6 36/1/6 24/1/6
f 37/1/1 38/1/1 42/1/1 41/1/1
f 39/1/1 40/1/1 44/1/1 43/1/1
f 40/1/1 37/1/1 41/1/1 44/1/1
f 38/1/1 39/1/1 43/1/1 42/1/1
f 49/1/2 45/1/2 46/1/2 50/1/2
f 51/1/2 47/1/2 48/1/2 52/1/2
f 52/1/2 48/1/2 45/1/2 49/1/2
f 50/1/2 46/1/2 47/1/2 51/1/2
f 43/1/3 47/1/3 46/1/3 42/1/3
f 44/1/4 48/1/4 47/1/4 43/1/4
f 40/1/3 52/1/3 49/1/3 37/1/3
f 37/1/4 49/1/4 50/1/4 38/1/4
f 41/1/5 45/1/5 48/1/5 44/1/5
f 42/1/6 46/1/6 45/1/6 41/1/6
f 38/1/5 50/1/5 51/1/5 39/1/5
f 39/1/6 51/1/6 52/1/6 40/1/6
f 53/1/1 54/1/1 58/1/1 57/1/1
f 55/1/1 56/1/1 60/1/1 59/1/1
f 56/1/1 53/1/1 57/1/1 60/1/1
f 54/1/1 55/1/1 59/1/1 58/1/1
f 65/1/2 61/1/2 62/1/2 66/1/2
f 67/1/2 63/1/2 64/1/2 68/1/2
f 68/1/2 64/1/2 61/1/2 65/1/2
f 66/1/2 62/1/2 63/1/2 67/1/2
f 59/1/3 63/1/3 62/1/3 58/1/3
f 60/1/4 64/1/4 63/1/4 59/1/4
f 56/1/3 68/1/3 65/1/3 53/1/3
f 53/1/4 65/1/4 66/1/4 54/1/4
f 57/1/5 61/1/5 64/1/5 60/1/5
f 58/1/6 62/1/6 61/1/6 57/1/6
f 54/1/5 66/1/5 67/1/5 55/1/5
f 55/1/6 67/1/6 68/1/6 56/1/6
f 69/1/1 70/1/1 74/1/1 73/1/1
f 71/1/1 72/1/1 76/1/1 75/1/1
f 72/1/1 69/1/1 73/1/1 76/1/1
f 70/1/1 71/1/1 75/1/1 74/1/1
f 81/1/2 77/1/2 78/1/2 82/1/2
f 83/1/2 79/1/2 80/1/2 84/1/2
f 84/1/2 80/1/2 77/1/2 81/1/2
f 82/1/2 78/1/2 79/1/2 83/1/2
f 75/1/3 79/1/3 78/1/3 74/1/3
f 76/1/4 80/1/4 79/1/4 75/1/4
f 72/1/3 84/1/3 81/1/3 69/1/3
f 69/1/4 81/1/4 82/1/4 70/1/4
f 73/1/5 77/1/5 80/1/5 76/1/5
f 74/1/6 78/1/6 77/1/6 73/1/6
f 70/1/5 82/1/5 83/1/5 71/1/5
f 71/1/6 83/1/6 84/1/6 72/1/6
f 85/1/1 86/1/1 90/1/1 89/1/1
f 87/1/1 88/1/1 92/1/1 91/1/1
f 88/1/1 85/1/1 89/1/1 92/1/1
f 86/1/1 87/1/1 91/1/1 90/1/1
f 97/1/2 93/1/2 94/1/2 98/1/2
f 99/1/2 95/1/2 96/1/2 100/1/2
f 100/1/2 96/1/2 93/1/2 97/1/2
f 98/1/2 94/1/2 95/1/2 99/1/2
f 91/1/3 95/1/3 94/1/3 90/1/3
f 92/1/4 96/1/4 95/1/4 91/1/4
f 88/1/3 100/1/3 97/1/3 85/1/3
f 85/1/4 97/1/4 98/1/4 86/1/4
f 89/1/5 93/1/5 96/1/5 92/1/5
f 90/1/6 94/1/6 93/1/6 89/1/6
f 86/1/5 98/1/5 99/1/5 87/1/5
f 87/1/6 99/1/6 100/1/6 88/1/6
f 101/1/1 102/1/1 106/1/1 105/1/1
f 103/1/1 104/1/1 108/1/1 107/1/1
f 104/1/1 101/1/1 105/1/1 108/1/1
f 102/1/1 103/1/1 107/1/1 106/1/1
f 113/1/2 109/1/2 110/1/2 114/1/2
f 115/1/2 111/1/2 112/1/2 116/1/2
f 116/1/2 112/1/2 109/1/2 113/1/2
f 114/1/2 110/1/2 111/1/2 115/1/2
f 107/1/3 111/1/3 110/1/3 106/1/3
f 108/1/4 112/1/4 111/1/4 107/1/4
f 104/1/3 116/1/3 113/1/3 101/1/3
f 101/1/4 113/1/4 114/1/4 102/1/4
f 105/1/5 109/1/5 112/1/5 108/1/5
f 106/1/6 110/1/6 109/1/6 105/1/6
f 102/1/5 114/1/5 115/1/5 103/1/5
f 103/1/6 115/1/6 116/1/6 104/1/6
f 117/1/1 118/1/1 122/1/1 121/1/1
f 119/1/1 120/1/1 124/1/1 123/1/1
f 120/1/1 117/1/1 121/1/1 124/1/1
f 118/1/1 119/1/1 123/1/1 122/1/1
f 129/1/2 125/1/2 126/1/2 130/1/2
f 131/1/2 127/1/2 128/1/2 132/1/2
f 132/1/2 128/1/2 125/1/2 129/1/2
f 130/1/2 126/1/2 127/1/2 131/1/2
f 123/1/3 127/1/3 126/1/3 122/1/3
f 124/1/4 128/1/4 127/1/4 123/1/4
f 120/1/3 132/1/3 129/1/3 117/1/3
f 117/1/4 129/1/4 130/1/4 118/1/4
f 121/1/5 125/1/5 128/1/5 124/1/5
f 122/1/6 126/1/6 125/1/6 121/1/6
f 118/1/5 130/1/5 131/1/5 119/1/5
f 119/1/6 131/1/6 132/1/6 120/1/6
f 133/1/1 134/1/1 138/1/1 137/1/1
f 135/1/1 136/1/1 140/1/1 139/1/1
f 136/1/1 133/1/1 137/1/1 140/1/1
f 134/1/1 135/1/1 139/1/1 138/1/1
f 145/1/2 141/1/2 142/1/2 146/1/2
f 147/1/2 143/1/2 144/1/2 148/1/2
f 148/1/2 144/1/2 141/1/2 145/1/2
f 146/1/2 142/1/2 143/1/2 147/1/2
f 139/1/3 143/1/3 142/1/3 138/1/3
f 140/1/4 144/1/4 143/1/4 139/1/4
f 136/1/3 148/1/3 145/1/3 133/1/3
f 133/1/4 145/1/4 146/1/4 134/1/4
f 137/1/5 141/1/5 144/1/5 140/1/5
f 138/1/6 142/1/6 141/1/6 137/1/6
f 134/1/5 146/1/5 147/1/5 135/1/5
f 135/1/6 147/1/6 148/1/6 136/1/6
f 149/1/1 150/1/1 154/1/1 153/1/1
f 151/1/1 152/1/1 156/1/1 155/1/1
f 152/1/1 149/1/1 153/1/1 156/1/1
f 150/1/1 151/1/1 155/1/1 154/1/1
f 161/1/2 157/1/2 158/1/2 162/1/2
f 163/1/2 159/1/2 160/1/2 164/1/2
f 164/1/2 160/1/2 157/1/2 161/1/2
f 162/1/2 158/1/2 159/1/2 163/1/2
f 155/1/3 159/1/3 158/1/3 154/1/3
f 156/1/4 160/1/4 159/1/4 155/1/4
f 152/1/3 164/1/3 161/1/3 149/1/3
f 149/1/4 161/1/4 162/1/4 150/1/4
f 153/1/5 157/1/5 160/1/5 156/1/5
f 154/1/6 158/1/6 157/1/6 153/1/6
f 150/1/5 162/1/5 163/1/5 151/1/5
f 151/1/6 163/1/6 164/1/6 152/1/6
f 165/1/1 166/1/1 170/1/1 169/1/1
f 167/1/1 168/1/1 172/1/1 171/1/1
f 168/1/1 165/1/1 169/1/1 172/1/1
f 166/1/1 167/1/1 171/1/1 170/1/1
f 177/1/2 173/1/2 174/1/2 178/1/2
f 179/1/2 175/1/2 176/1/2 180/1/2
f 180/1/2 176/1/2 173/1/2 177/1/2
f 178/1/2 174/1/2 175/1/2 179/1/2
f 171/1/3 175/1/3 174/1/3 170/1/3
f 172/1/4 176/1/4 175/1/4 171/1/4
f 168/1/3 180/1/3 177/1/3 165/1/3
f 165/1/4 177/1/4 178/1/4 166/1/4
f 169/1/5 173/1/5 176/1/5 172/1/5
f 170/1/6 174/1/6 173/1/6 169/1/6
f 166/1/5 178/1/5 179/1/5 167/1/5
f 167/1/6 179/1/6 180/1/6 168/1/6
f 181/1/1 182/1/1 186/1/1 185/1/1
f 183/1/1 184/1/1 188/1/1 187/1/1
f 184/1/1 181/1/1 185/1/1 188/1/1
f 182/1/1 183/1/1 187/1/1 186/1/1
f 193/1/2 189/1/2 190/1/2 194/1/2
f 195/1/2 191/1/2 192/1/2 196/1/2
f 196/1/2 192/1/2 189/1/2 193/1/2
f 194/1/2 190/1/2 191/1/2 195/1/2
f 187/1/3 191/1/3 190/1/3 186/1/3
f 188/1/4 192/1/4 191/1/4 187/1/4
f 184/1/3 196/1/3 193/1/3 181/1/3
f 181/1/4 193/1/4 194/1/4 182/1/4
f 185/1/5 189/1/5 192/1/5 188/1/5
f 186/1/6 190/1/6 189/1/6 185/1/6
f 182/1/5 194/1/5 195/1/5 183/1/5
f 183/1/6 195/1/6 196/1/6 184/1/6
f 197/1/1 198/1/1 202/1/1 201/1/1
f 199/1/1 200/1/1 204/1/1 203/1/1
f 200/1/1 197/1/1 201/1/1 204/1/1
f 198/1/1 199/1/1 203/1/1 202/1/1
f 209/1/2 205/1/2 206/1/2 210/1/2
f 211/1/2 207/1/2 208/1/2 212/1/2
f 212/1/2 208/1/2 205/1/2 209/1/2
f 210/1/2 206/1/2 207/1/2 211/1/2
f 203/1/3 207/1/3 206/1/3 202/1/3
f 204/1/4 208/1/4 207/1/4 203/1/4
f 200/1/3 212/1/3 209/1/3 197/1/3
f 197/1/4 209/1/4 210/1/4 198/1/4
f 201/1/5 205/1/5 208/1/5 204/1/5
f 202/1/6 206/1/6 205/1/6 201/1/6
f 198/1/5 210/1/5 211/1/5 199/1/5
f 199/1/6 211/1/6 212/1/6 200/1/6
f 213/1/1 214/1/1 218/1/1 217/1/1
f 215/1/1 216/1/1 220/1/1 219/1/1
f 216/1/1 213/1/1 217/1/1 220/1/1
f 214/1/1 215/1/1 219/1/1 218/1/1
f 225/1/2 221/1/2 222/1/2 226/1/2
f 227/1/2 223/1/2 224/1/2 228/1/2
f 228/1/2 224/1/2 221/1/2 225/1/2
f 226/1/2 222/1/2 223/1/2 227/1/2
f 219/1/3 223/1/3 222/1/3 218/1/3
f 220/1/4 224/1/4 223/1/4 219/1/4
f 216/1/3 228/1/3 225/1/3 213/1/3
f 213/1/4 225/1/4 226/1/4 214/1/4
f 217/1/5 221/1/5 224/1/5 220/1/5
f 218/1/6 222/1/6 221/1/6 217/1/6
f 214/1/5 226/1/5 227/1/5 215/1/5
f 215/1/6 227/1/6 228/1/6 216/1/6
f 229/1/1 230/1/1 234/1/1 233/1/1
f 231/1/1 232/1/1 236/1/1 235/1/1
f 232/1/1 229/1/1 233/1/1 236/1/1
f 230/1/1 231/1/1 235/1/1 234/1/1
f 241/1/2 237/1/2 238/1/2 242/1/2
f 243/1/2 239/1/2 240/1/2 244/1/2
f 244/1/2 240/1/2 237/1/2 241/1/2
f 242/1/2 238/1/2 239/1/2 243/1/2
f 235/1/3 239/1/3 238/1/3 234/1/3
f 236/1/4 240/1/4 239/1/4 235/1/4
f 232/1/3 244/1/3 241/1/3 229/1/3
f 229/1/4 241/1/4 242/1/4 230/1/4
f 233/1/5 237/1/5 240/1/5 236/1/5
f 234/1/6 238/1/6 237/1/6 233/1/6
f 230/1/5 242/1/5 243/1/5 231/1/5
f 231/1/6 243/1/6 244/1/6 232/1/6
f 245/1/1 246/1/1 250/1/1 249/1/1
f 247/1/1 248/1/1 252/1/1 251/1/1
f 248/1/1 245/1/1 249/1/1 252/1/1
f 246/1/1 247/1/1 251/1/1 250/1/1
f 257/1/2 253/1/2 254/1/2 258/1/2
f 259/1/2 255/1/2 256/1/2 260/1/2
f 260/1/2 256/1/2 253/1/2 257/1/2
f 258/1/2 254/1/2 255/1/2 259/1/2
f 251/1/3 255/1/3 254/1/3 250/1/3
f 252/1/4 256/1/4 255/1/4 251/1/4
f 248/1/3 260/1/3 257/1/3 245/1/3
f 245/1/4 257/1/4 258/1/4 246/1/4
f 249/1/5 253/1/5 256/1/5 252/1/5
f 250/1/6 254/1/6 253/1/6 249/1/6
f 246/1/5 258/1/5 259/1/5 247/1/5
f 247/1/6 259/1/6 260/1/6 248/1/6
f 261/1/1 262/1/1 266/1/1 265/1/1
f 263/1/1 264/1/1 268/1/1 267/1/1
f 264/1/1 261/1/1 265/1/1 268/1/1
f 262/1/1 263/1/1 267/1/1 266/1/1
f 273/1/2 269/1/2 270/1/2 274/1/2
f 275/1/2 271/1/2 272/1/2 276/1/2
f 276/1/2 272/1/2 269/1/2 273/1/2
f 274/1/2 270/1/2 271/1/2 275/1/2
f 267/1/3 271/1/3 270/1/3 266/1/3
f 268/1/4 272/1/4 271/1/4 267/1/4
f 264/1/3 276/1/3 273/1/3 261/1/3
f 261/1/4 273/1/4 274/1/4 262/1/4
f 265/1/5 269/1/5 272/1/5 268/1/5
f 266/1/6 270/1/6 269/1/6 265/1/6
f 262/1/5 274/1/5 275/1/5 263/1/5
f 263/1/6 275/1/6 276/1/6 264/1/6
f 277/1/1 278/1/1 282/1/1 281/1/1
f 279/1/1 280/1/1 284/1/1 283/1/1
f 280/1/1 277/1/1 281/1/1 284/1/1
f 278/1/1 279/1/1 283/1/1 282/1/1
f 289/1/2 285/1/2 286/1/2 290/1/2
f 291/1/2 287/1/2 288/1/2 292/1/2
f 292/1/2 288/1/2 285/1/2 289/1/2
f 290/1/2 286/1/2 287/1/2 291/1/2
f 283/1/3 287/1/3 286/1/3 282/1/3
f 284/1/4 288/1/4 287/1/4 283/1/4
f 280/1/3 292/1/3 289/1/3 277/1/3
f 277/1/4 289/1/4 290/1/4 278/1/4
f 281/1/5 285/1/5 288/1/5 284/1/5
f 282/1/6 286/1/6 285/1/6 281/1/6
f 278/1/5 290/1/5 291/1/5 279/1/5
f 279/1/6 291/1/6 292/1/6 280/1/6
f 293/1/1 294/1/1 298/1/1 297/1/1
f 295/1/1 296/1/1 300/1/1 299/1/1
f 296/1/1 293/1/1 297/1/1 300/1/1
f 294/1/1 295/1/1 299/1/1 298/1/1
f 305/1/2 301/1/2 302/1/2 306/1/2
f 307/1/2 303/1/2 304/1/2 308/1/2
f 308/1/2 304/1/2 301/1/2 305/1/2
f 306/1/2 302/1/2 303/1/2 307/1/2
f 299/1/3 303/1/3 302/1/3 298/1/3
f 300/1/4 304/1/4 303/1/4 299/1/4
f 296/1/3 308/1/3 305/1/3 293/1/3
f 293/1/4 305/1/4 306/1/4 294/1/4
f 297/1/5 301/1/5 304/1/5 300/1/5
f 298/1/6 302/1/6 301/1/6 297/1/6
f 294/1/5 306/1/5 307/1/5 295/1/5
f 295/1/6 307/1/6 308/1/6 296/1/6
f 309/1/1 310/1/1 314/1/1 313/1/1
f 311/1/1 312/1/1 316/1/1 315/1/1
f 312/1/1 309/1/1 313/1/1 316/1/1
f 310/1/1 311/1/1 315/1/1 314/1/1
f 321/1/2 317/1/2 318/1/2 322/1/2
f 323/1/2 319/1/2 320/1/2 324/1/2
f 324/1/2 320/1/2 317/1/2 321/1/2
f 322/1/2 318/1/2 319/1/2 323/1/2
f 315/1/3 319/1/3 318/1/3 314/1/3
f 316/1/4 320/1/4 319/1/4 315/1/4
f 312/1/3 324/1/3 321/1/3 309/1/3
f 309/1/4 321/1/4 322/1/4 310/1/4
f 313/1/5 317/1/5 320/1/5 316/1/5
f 314/1/6 318/1/6 317/1/6 313/1/6
f 310/1/5 322/1/5 323/1/5 311/1/5
f 311/1/6 323/1/6 324/1/6 312/1/6
f 325/1/1 326/1/1 330/1/1 329/1/1
f 327/1/1 328/1/1 332/1/1 331/1/1
f 328/1/1 325/1/1 329/1/1 332/1/1
f 326/1/1 327/1/1 331/1/1 330/1/1
f 337/1/2 333/1/2 334/1/2 338/1/2
f 339/1/2 335/1/2 336/1/2 340/1/2
f 340/1/2 336/1/2 333/1/2 337/1/2
f 338/1/2 334/1/2 335/1/2 339/1/2
f 331/1/3 335/1/3 334/1/3 330/1/3
f 332/1/4 336/1/4 335/1/4 331/1/4
f 328/1/3 340/1/3 337/1/3 325/1/3
f 325/1/4 337/1/4 338/1/4 326/1/4
f 329/1/5 333/1/5 336/1/5 332/1/5
f 330/1/6 334/1/6 333/1/6 329/1/6
f 326/1/5 338/1/5 339/1/5 327/1/5
f 327/1/6 339/1/6 340/1/6 328/1/6
f 341/1/1 342/1/1 346/1/1 345/1/1
f 343/1/1 344/1/1 348/1/1 347/1/1
f 344/1/1 341/1/1 345/1/1 348/1/1
f 342/1/1 343/1/1 347/1/1 346/1/1
f 353/1/2 349/1/2 350/1/2 354/1/2
f 355/1/2 351/1/2 352/1/2 356/1/2
f 356/1/2 352/1/2 349/1/2 353/1/2
f 354/1/2 350/1/2 351/1/2 355/1/2
f 347/1/3 351/1/3 350/1/3 346/1/3
f 348/1/4 352/1/4 351/1/4 347/1/4
f 344/1/3 356/1/3 353/1/3 341/1/3
f 341/1/4 353/1/4 354/1/4 342/1/4
f 345/1/5 349/1/5 352/1/5 348/1/5
f 346/1/6 350/1/6 349/1/6 345/1/6
f 342/1/5 354/1/5 355/1/5 343/1/5
f 343/1/6 355/1/6 356/1/6 344/1/6
f 357/1/1 358/1/1 362/1/1 361/1/1
f 359/1/1 360/1/1 364/1/1 363/1/1
f 360/1/1 357/1/1 361/1/1 364/1/1
f 358/1/1 359/1/1 363/1/1 362/1/1
f 369/1/2 365/1/2 366/1/2 370/1/2
f 371/1/2 367/1/2 368/1/2 372/1/2
f 372/1/2 368/1/2 365/1/2 369/1/2
f 370/1/2 366/1/2 367/1/2 371/1/2
f 363/1/3 367/1/3 366/1/3 362/1/3
f 364/1/4 368/1/4 367/1/4 363/1/4
f 360/1/3 372/1/3 369/1/3 357/1/3
f 357/1/4 369/1/4 370/1/4 358/1/4
f 361/1/5 365/1/5 368/1/5 364/1/5
f 362/1/6 366/1/6 365/1/6 361/1/6
f 358/1/5 370/1/5 371/1/5 359/1/5
f 359/1/6 371/1/6 372/1/6 360/1/6
f 373/1/1 374/1/1 378/1/1 377/1/1
f 375/1/1 376/1/1 380/1/1 379/1/1
f 376/1/1 373/1/1 377/1/1 380/1/1
f 374/1/1 375/1/1 379/1/1 378/1/1
f 385/1/2 381/1/2 382/1/2 386/1/2
f 387/1/2 383/1/2 384/1/2 388/1/2
f 388/1/2 384/1/2 381/1/2 385/1/2
f 386/1/2 382/1/2 383/1/2 387/1/2
f 379/1/3 383/1/3 382/1/3 378/1/3
f 380/1/4 384/1/4 383/1/4 379/1/4
f 376/1/3 388/1/3 385/1/3 373/1/3
f 373/1/4 385/1/4 386/1/4 374/1/4
f 377/1/5 381/1/5 384/1/5 380/1/5
f 378/1/6 382/1/6 381/1/6 377/1/6
f 374/1/5 386/1/5 387/1/5 375/1/5
f 375/1/6 387/1/6 388/1/6 376/1/6
f 389/1/1 390/1/1 394/1/1 393/1/1
f 391/1/1 392/1/1 396/1/1 395/1/1
f 392/1/1 389/1/1 393/1/1 396/1/1
f 390/1/1 391/1/1 395/1/1 394/1/1
f 401/1/2 397/1/2 398/1/2 402/1/2
f 403/1/2 399/1/2 400/1/2 404/1/2
f 404/1/2 400/1/2 397/1/2 401/1/2
f 402/1/2 398/1/2 399/1/2 403/1/2
f 395/1/3 399/1/3 398/1/3 394/1/3
f 396/1/4 400/1/4 399/1/4 395/1/4
f 392/1/3 404/1/3 401/1/3 389/1/3
f 389/1/4 401/1/4 402/1/4 390/1/4
f 393/1/5 397/1/5 400/1/5 396/1/5
f 394/1/6 398/1/6 397/1/6 393/1/6
f 390/1/5 402/1/5 403/1/5 391/1/5
f 391/1/6 403/1/6 404/1/6 392/1/6
usemtl grey.002
f 1/1/1 2/1/1 4/1/1 3/1/1
f 406/1/2 405/1/2 408/1/2 407/1/2
f 4/1/3 408/1/3 405/1/3 3/1/3
f 2/1/4 407/1/4 408/1/4 4/1/4
f 1/1/5 406/1/5 407/1/5 2/1/5
f 3/1/6 405/1/6 406/1/6 1/1/6
