# Blender 5.2.1 LTS
# www.blender.org
mtllib Floor_SawBlade.mtl
o EXPORT_Floor_SawBlade
v -1.053095 -0.100000 -1.053095
v -1.053095 -0.100000 -0.205250
v -1.053095 -0.100000 0.205250
v -1.053095 0.000000 -0.094946
v -1.053095 0.000000 0.094946
v 1.053095 0.000000 0.094946
v 1.053095 0.000000 -0.094946
v -1.053095 0.000000 -0.161382
v -1.053095 0.000000 0.161382
v 1.053095 0.000000 0.161382
v 1.053095 0.000000 -0.161382
v -1.053095 -0.130467 -0.105250
v -1.053095 -0.130467 0.105250
v 1.053095 -0.130467 0.105250
v 1.053095 -0.130467 -0.105250
v -1.053095 -0.100000 1.053095
v 1.053095 -0.100000 -0.205250
v 1.053095 -0.100000 -1.053095
v 1.053095 -0.100000 1.053095
v 1.053095 -0.100000 0.205250
vn -0.0000 0.4017 0.9158
vn -0.0000 -0.0787 0.9969
vn -0.0000 0.4017 -0.9158
vn -0.0000 1.0000 -0.0000
vn -0.0000 -0.0787 -0.9969
vt 0.000000 0.000000
s 1
usemtl dark_grey.002
f 3/1/1 20/1/1 10/1/1 9/1/1
f 7/1/2 4/1/2 12/1/2 15/1/2
f 17/1/3 2/1/3 8/1/3 11/1/3
f 6/1/4 5/1/4 9/1/4 10/1/4
f 4/1/4 7/1/4 11/1/4 8/1/4
f 5/1/5 6/1/5 14/1/5 13/1/5
f 13/1/4 14/1/4 15/1/4 12/1/4
usemtl grey.002
f 2/1/4 17/1/4 18/1/4 1/1/4
f 16/1/4 19/1/4 20/1/4 3/1/4
