# Blender 5.2.1 LTS
# www.blender.org
mtllib Floor_1x1.mtl
o EXPORT_Floor_1x1
v -1.025398 -0.044380 -0.027861
v -0.027862 -0.044380 -0.027861
v -0.027862 -0.044380 -1.025397
v -1.025398 -0.044380 -1.025397
v -0.992548 0.000000 -0.992547
v -0.992548 0.000000 -0.060712
v -0.060713 0.000000 -0.060712
v -0.060713 0.000000 -0.992547
v -0.000164 -0.044380 -1.053095
v -1.053095 -0.044380 -1.053095
v -0.000164 -0.044380 -0.000164
v -1.053095 -0.044380 -0.000164
v 0.027861 -0.044380 1.025397
v 1.025397 -0.044380 1.025397
v 1.025397 -0.044380 0.027862
v 0.027861 -0.044380 0.027862
v 0.060711 0.000000 0.060712
v 0.060711 0.000000 0.992547
v 0.992546 0.000000 0.992547
v 0.992546 0.000000 0.060712
v 1.053095 -0.044380 0.000163
v 0.000164 -0.044380 0.000163
v 1.053095 -0.044380 1.053094
v 0.000164 -0.044380 1.053094
v 1.053095 -0.044380 -0.000163
v 0.000164 -0.044380 -0.000163
v 1.053095 -0.044380 -1.053095
v 0.000164 -0.044380 -1.053095
v 0.027862 -0.044380 -0.027860
v 1.025398 -0.044380 -0.027860
v 1.025398 -0.044380 -1.025397
v 0.027862 -0.044380 -1.025397
v 0.060712 0.000000 -0.992546
v 0.060712 0.000000 -0.060711
v 0.992547 0.000000 -0.060711
v 0.992547 0.000000 -0.992546
v -0.000164 -0.044380 1.053095
v -1.053095 -0.044380 1.053095
v -0.000164 -0.044380 0.000163
v -1.053095 -0.044380 0.000163
v -1.025396 -0.044380 1.025397
v -0.027861 -0.044380 1.025397
v -0.027861 -0.044380 0.027861
v -1.025396 -0.044380 0.027861
v -0.992546 0.000000 0.060712
v -0.992546 0.000000 0.992547
v -0.060712 0.000000 0.992547
v -0.060712 0.000000 0.060712
v -0.000164 -0.244380 -1.053095
v -1.053095 -0.244380 -1.053095
v 1.053095 -0.244380 1.053094
v 1.053095 -0.244380 0.000163
v 1.053095 -0.244380 -1.053095
v -1.053095 -0.244380 1.053095
v -0.000164 -0.244380 1.053095
v -0.000164 -0.244380 0.000163
v -1.053095 -0.244380 0.000163
vn -0.0000 1.0000 -0.0000
vn 0.8038 0.5949 -0.0000
vn -0.0000 0.5949 -0.8038
vn -0.0000 0.5949 0.8038
vn -0.8038 0.5949 -0.0000
vn -0.0000 -1.0000 -0.0000
vn -0.0000 0.0016 1.0000
vn -1.0000 0.0016 -0.0000
vn -0.0000 -0.0000 1.0000
vn 1.0000 -0.0000 -0.0000
vn -0.0000 -0.0000 -1.0000
vn -1.0000 -0.0000 -0.0000
vt 0.061981 0.207667
vt 0.061981 0.207667
vt 0.061981 0.207667
vt 0.000000 0.000000
s 1
usemtl dark_grey.008
f 6/1/1 7/2/1 8/3/1 5/1/1
f 2/2/2 3/3/2 8/3/2 7/2/2
f 3/3/3 4/1/3 5/1/3 8/3/3
f 1/1/4 2/2/4 7/2/4 6/1/4
f 4/1/5 1/1/5 6/1/5 5/1/5
f 18/1/1 19/2/1 20/3/1 17/1/1
f 14/2/2 15/3/2 20/3/2 19/2/2
f 15/3/3 16/1/3 17/1/3 20/3/3
f 13/1/4 14/2/4 19/2/4 18/1/4
f 16/1/5 13/1/5 18/1/5 17/1/5
usemtl grey.009
f 12/4/1 11/4/1 9/4/1 10/4/1
f 24/4/1 23/4/1 21/4/1 22/4/1
f 26/4/1 25/4/1 27/4/1 28/4/1
f 34/1/1 35/2/1 36/3/1 33/1/1
f 30/2/2 31/3/2 36/3/2 35/2/2
f 31/3/3 32/1/3 33/1/3 36/3/3
f 29/1/4 30/2/4 35/2/4 34/1/4
f 32/1/5 29/1/5 34/1/5 33/1/5
f 38/4/1 37/4/1 39/4/1 40/4/1
f 46/1/1 47/2/1 48/3/1 45/1/1
f 42/2/2 43/3/2 48/3/2 47/2/2
f 43/3/3 44/1/3 45/1/3 48/3/3
f 41/1/4 42/2/4 47/2/4 46/1/4
f 44/1/5 41/1/5 46/1/5 45/1/5
f 57/4/6 50/4/6 49/4/6 56/4/6
f 55/4/6 56/4/6 52/4/6 51/4/6
f 56/4/6 49/4/6 53/4/6 52/4/6
f 54/4/6 57/4/6 56/4/6 55/4/6
f 12/4/7 57/4/7 56/4/7 11/4/7
f 22/4/8 56/4/8 55/4/8 24/4/8
f 24/4/9 55/4/9 51/4/9 23/4/9
f 26/4/7 56/4/7 52/4/7 25/4/7
f 25/4/10 52/4/10 53/4/10 27/4/10
f 38/4/9 54/4/9 55/4/9 37/4/9
f 28/4/8 49/4/8 56/4/8 26/4/8
f 37/4/10 55/4/10 56/4/10 39/4/10
f 11/4/10 56/4/10 49/4/10 9/4/10
f 27/4/11 53/4/11 49/4/11 28/4/11
f 40/4/12 57/4/12 54/4/12 38/4/12
f 9/4/11 49/4/11 50/4/11 10/4/11
f 23/4/10 51/4/10 52/4/10 21/4/10
f 39/4/11 56/4/11 57/4/11 40/4/11
f 10/4/12 50/4/12 57/4/12 12/4/12
f 21/4/11 52/4/11 56/4/11 22/4/11
