# Blender 5.2.1 LTS
# www.blender.org
mtllib Floor_PatternB.mtl
o EXPORT_Floor_PatternB
v 0.000001 -0.122540 0.000000
v -1.052931 -0.122540 0.000000
v 0.000001 -0.122540 -1.052932
v -1.052931 -0.122540 -1.052932
v -1.025232 -0.122540 -0.027697
v -0.027697 -0.122540 -0.027697
v -0.027697 -0.122540 -1.025233
v -1.025232 -0.122540 -1.025233
v -0.992382 -0.078160 -0.992383
v -0.992382 -0.078160 -0.060548
v -0.060548 -0.078160 -0.060548
v -0.060548 -0.078160 -0.992383
v 1.052931 -0.122540 1.052932
v 0.000000 -0.122540 1.052932
v 1.052931 -0.122540 0.000000
v 0.000000 -0.122540 0.000000
v 0.027698 -0.122540 1.025234
v 1.025234 -0.122540 1.025234
v 1.025234 -0.122540 0.027698
v 0.027698 -0.122540 0.027698
v 0.060548 -0.078160 0.060549
v 0.060548 0.000000 0.992384
v 0.992383 0.000000 0.992384
v 0.992383 -0.078160 0.060549
v -1.025234 -0.122540 1.025233
v -0.027698 -0.122540 1.025233
v -0.027698 -0.122540 0.027698
v -1.025234 -0.122540 0.027698
v -0.992384 -0.078160 0.060548
v -0.992384 -0.078160 0.992383
v -0.060548 -0.078160 0.992383
v -0.060548 -0.078160 0.060548
v 0.000000 -0.122540 0.000000
v -1.052931 -0.122540 0.000000
v 0.000000 -0.122540 1.052931
v -1.052931 -0.122540 1.052931
v 0.027697 -0.122540 -0.027698
v 1.025232 -0.122540 -0.027698
v 1.025232 -0.122540 -1.025233
v 0.027697 -0.122540 -1.025233
v 0.060547 -0.078160 -0.992383
v 0.060547 -0.078160 -0.060548
v 0.992381 -0.078160 -0.060548
v 0.992381 -0.078160 -0.992383
v 1.052931 -0.122540 -1.052931
v 0.000000 -0.122540 -1.052931
v 1.052931 -0.122540 0.000000
v 0.000000 -0.122540 0.000000
v -1.052931 -0.322540 0.000000
v -1.052931 -0.322540 -1.052932
v 0.000000 -0.322540 1.052932
v 1.052931 -0.322540 1.052932
v -1.052931 -0.322540 1.052931
v 1.052931 -0.322540 0.000000
v 1.052931 -0.322540 -1.052931
v 0.000000 -0.322540 -1.052931
v 0.000000 -0.322540 0.000000
vn -0.0000 1.0000 -0.0000
vn 0.8038 0.5949 -0.0000
vn -0.0000 0.5949 -0.8038
vn -0.0000 0.5949 0.8038
vn -0.8038 0.5949 -0.0000
vn -0.0000 0.9965 -0.0836
vn 0.9304 0.3662 -0.0148
vn -0.0000 0.2589 0.9659
vn -0.9304 0.3662 -0.0148
vn -0.0000 -1.0000 -0.0000
vn -0.0000 -0.0000 -1.0000
vn -1.0000 -0.0000 -0.0000
vn -0.0000 -0.0000 1.0000
vn 1.0000 -0.0000 -0.0000
vt 0.000000 0.000000
vt 0.061981 0.207667
vt 0.061981 0.207667
vt 0.061981 0.207667
s 1
usemtl dark_grey.008
f 30/2/1 31/3/1 32/4/1 29/2/1
f 26/3/2 27/4/2 32/4/2 31/3/2
f 27/4/3 28/2/3 29/2/3 32/4/3
f 25/2/4 26/3/4 31/3/4 30/2/4
f 28/2/5 25/2/5 30/2/5 29/2/5
f 42/2/1 43/3/1 44/4/1 41/2/1
f 38/3/2 39/4/2 44/4/2 43/3/2
f 39/4/3 40/2/3 41/2/3 44/4/3
f 37/2/4 38/3/4 43/3/4 42/2/4
f 40/2/5 37/2/5 42/2/5 41/2/5
usemtl grey.009
f 2/1/1 1/1/1 3/1/1 4/1/1
f 10/2/1 11/3/1 12/4/1 9/2/1
f 6/3/2 7/4/2 12/4/2 11/3/2
f 7/4/3 8/2/3 9/2/3 12/4/3
f 5/2/4 6/3/4 11/3/4 10/2/4
f 8/2/5 5/2/5 10/2/5 9/2/5
f 14/1/1 13/1/1 15/1/1 16/1/1
f 22/2/6 23/3/6 24/4/6 21/2/6
f 18/3/7 19/4/7 24/4/7 23/3/7
f 19/4/3 20/2/3 21/2/3 24/4/3
f 17/2/8 18/3/8 23/3/8 22/2/8
f 20/2/9 17/2/9 22/2/9 21/2/9
f 36/1/1 35/1/1 33/1/1 34/1/1
f 48/1/1 47/1/1 45/1/1 46/1/1
f 49/1/10 50/1/10 56/1/10 57/1/10
f 51/1/10 57/1/10 54/1/10 52/1/10
f 53/1/10 49/1/10 57/1/10 51/1/10
f 57/1/10 56/1/10 55/1/10 54/1/10
f 3/1/11 56/1/11 50/1/11 4/1/11
f 16/1/12 57/1/12 51/1/12 14/1/12
f 48/1/13 57/1/13 54/1/13 47/1/13
f 15/1/11 54/1/11 57/1/11 16/1/11
f 35/1/14 51/1/14 57/1/14 33/1/14
f 2/1/13 49/1/13 57/1/13 1/1/13
f 33/1/11 57/1/11 49/1/11 34/1/11
f 47/1/14 54/1/14 55/1/14 45/1/14
f 1/1/14 57/1/14 56/1/14 3/1/14
f 14/1/13 51/1/13 52/1/13 13/1/13
f 34/1/12 49/1/12 53/1/12 36/1/12
f 45/1/11 55/1/11 56/1/11 46/1/11
f 4/1/12 50/1/12 49/1/12 2/1/12
f 13/1/14 52/1/14 54/1/14 15/1/14
f 36/1/13 53/1/13 51/1/13 35/1/13
f 46/1/12 56/1/12 57/1/12 48/1/12
