# Blender 5.2.1 LTS
# www.blender.org
mtllib GoalChest_Base.mtl
o EXPORT_GoalChest_Base
v -0.641406 0.000037 0.455208
v 0.641440 0.000037 0.455208
v -0.641406 0.000037 -0.477026
v 0.641440 0.000037 -0.477026
v 0.491685 0.061864 0.455208
v 0.491685 0.348843 0.455208
v -0.491651 0.348843 0.455208
v -0.491651 0.061864 0.455208
v 0.635234 0.061864 -0.384508
v 0.635234 0.348843 -0.384508
v 0.635234 0.348843 0.362691
v 0.635234 0.061864 0.362691
v -0.491651 0.061864 -0.477026
v -0.491651 0.348843 -0.477026
v 0.491685 0.348843 -0.477026
v 0.491685 0.061864 -0.477026
v -0.635200 0.061864 0.362691
v -0.635200 0.348843 0.362691
v -0.635200 0.348843 -0.384508
v -0.635200 0.061864 -0.384508
v 0.500644 0.062336 -0.384508
v -0.500611 0.062336 -0.384508
v -0.500611 0.062336 0.362691
v 0.500644 0.062336 0.362691
v 0.495895 0.348843 0.401876
v 0.495895 0.061864 0.401876
v -0.495862 0.061864 0.401876
v -0.495862 0.348843 0.401876
v 0.558926 0.348843 -0.384508
v 0.558926 0.061864 -0.384508
v 0.558926 0.061864 0.362691
v 0.558926 0.348843 0.362691
v -0.495862 0.348843 -0.423693
v -0.495862 0.061864 -0.423693
v 0.495895 0.061864 -0.423693
v 0.495895 0.348843 -0.423693
v -0.558892 0.061864 0.362691
v -0.558892 0.348843 0.362691
v -0.558892 0.061864 -0.384508
v -0.558892 0.348843 -0.384508
v -0.635489 0.205354 0.455208
v 0.635523 0.205354 0.455208
v 0.635523 0.205353 -0.477026
v -0.635489 0.205353 -0.477026
v -0.641406 0.410670 0.455208
v -0.641406 0.410670 -0.477026
v 0.641440 0.410670 -0.477026
v 0.641440 0.410670 0.455208
v 0.631997 0.205353 0.362691
v 0.631997 0.205353 -0.384508
v -0.489193 0.205354 0.455208
v 0.489226 0.205354 0.455208
v -0.489193 0.205353 -0.477026
v 0.489226 0.205353 -0.477026
v -0.631963 0.205353 0.362691
v -0.631963 0.205353 -0.384508
v 0.493622 0.205354 0.401876
v -0.493588 0.205354 0.401876
v 0.555587 0.205353 -0.384508
v 0.555587 0.205353 0.362691
v -0.493588 0.205353 -0.423693
v 0.493622 0.205353 -0.423693
v -0.555553 0.205353 0.362691
v -0.555553 0.205353 -0.384508
v 0.496201 0.220568 0.415042
v 0.497962 0.333628 0.415042
v -0.497929 0.333628 0.415042
v -0.496167 0.220568 0.415042
v 0.575406 0.220568 -0.380725
v 0.578055 0.333628 -0.380725
v 0.578055 0.333628 0.358907
v 0.575406 0.220568 0.358907
v -0.496167 0.220568 -0.436859
v -0.497929 0.333628 -0.436859
v 0.497962 0.333628 -0.436859
v 0.496201 0.220568 -0.436859
v -0.575373 0.220568 0.358907
v -0.578021 0.333628 0.358907
v -0.578021 0.333628 -0.380725
v -0.575373 0.220568 -0.380725
v -0.578021 0.077079 0.358907
v -0.575373 0.190139 0.358907
v -0.575373 0.190139 -0.380725
v -0.578021 0.077079 -0.380725
v -0.497929 0.077079 -0.436859
v -0.496167 0.190139 -0.436859
v 0.496201 0.190139 -0.436859
v 0.497962 0.077079 -0.436859
v 0.578055 0.077079 -0.380725
v 0.575406 0.190139 -0.380725
v 0.575406 0.190139 0.358907
v 0.578055 0.077079 0.358907
v 0.497962 0.077079 0.415042
v 0.496201 0.190139 0.415042
v -0.496167 0.190139 0.415042
v -0.497929 0.077079 0.415042
v 0.320728 0.412244 0.455208
v 0.000017 0.418528 0.455208
v -0.320695 0.412299 0.455208
v -0.320695 0.411881 -0.477026
v 0.000017 0.418528 -0.477026
v 0.320728 0.412299 -0.477026
v -0.245817 0.061864 0.455208
v 0.000017 0.061864 0.455208
v 0.245851 0.061864 0.455208
v 0.245851 0.349317 0.455208
v 0.000017 0.351352 0.455208
v -0.245817 0.349340 0.455208
v 0.245851 0.061864 -0.477026
v 0.000017 0.061864 -0.477026
v -0.245817 0.061864 -0.477026
v -0.245817 0.349170 -0.477026
v 0.000017 0.351352 -0.477026
v 0.245851 0.349340 -0.477026
v -0.247923 0.061864 0.401876
v 0.000017 0.061864 0.401876
v 0.247956 0.061864 0.401876
v 0.247956 0.348843 0.401876
v 0.000017 0.349064 0.401876
v -0.247923 0.348843 0.401876
v 0.247956 0.061864 -0.423693
v 0.000017 0.061864 -0.423693
v -0.247923 0.061864 -0.423693
v -0.247923 0.348843 -0.423693
v 0.000017 0.349064 -0.423693
v 0.247956 0.348843 -0.423693
v -0.246786 0.205353 -0.423693
v 0.000017 0.205353 -0.423693
v 0.246819 0.205353 -0.423693
v 0.246819 0.205354 0.401876
v 0.000017 0.205354 0.401876
v -0.246786 0.205354 0.401876
v 0.248109 0.220568 0.415042
v 0.000017 0.220568 0.415042
v -0.248075 0.220568 0.415042
v 0.248990 0.333628 0.415042
v 0.000017 0.333629 0.415042
v -0.248956 0.333628 0.415042
v -0.248075 0.220568 -0.436859
v 0.000017 0.220568 -0.436859
v 0.248109 0.220568 -0.436859
v -0.248956 0.333628 -0.436859
v 0.000017 0.333629 -0.436859
v 0.248990 0.333628 -0.436859
v 0.248990 0.077079 -0.436859
v 0.000017 0.077079 -0.436859
v -0.248956 0.077079 -0.436859
v -0.248075 0.190139 -0.436859
v 0.000017 0.190139 -0.436859
v 0.248109 0.190139 -0.436859
v -0.248956 0.077079 0.415042
v 0.000017 0.077079 0.415042
v 0.248990 0.077079 0.415042
v 0.248109 0.190139 0.415042
v 0.000017 0.190139 0.415042
v -0.248075 0.190139 0.415042
v -0.506472 0.411128 0.357152
v -0.506472 0.411128 -0.378970
v 0.506504 0.411128 -0.378970
v 0.506504 0.411128 0.357152
v 0.253260 0.412371 0.357152
v 0.000016 0.417333 0.357152
v -0.253228 0.412414 0.357152
v -0.253228 0.412084 -0.378970
v 0.000016 0.417333 -0.378970
v 0.253260 0.412414 -0.378970
v -0.506472 0.062336 0.357152
v -0.506472 0.062336 -0.378969
v 0.506504 0.062336 -0.378969
v 0.506504 0.062336 0.357152
v 0.253260 0.063579 0.357152
v 0.000016 0.068541 0.357152
v -0.253228 0.063623 0.357152
v -0.253228 0.063292 -0.378969
v 0.000016 0.068541 -0.378969
v 0.253260 0.063623 -0.378969
v 0.253260 0.334915 -0.378970
v 0.000016 0.339833 -0.378970
v -0.253228 0.334915 0.357152
v 0.000016 0.339833 0.357152
v -0.506472 0.333628 -0.378970
v -0.506472 0.333628 0.357152
v -0.253228 0.334584 -0.378970
v 0.253260 0.334871 0.357152
v 0.506504 0.333628 0.357152
v 0.506504 0.333628 -0.378970
v -0.506472 0.391847 0.357152
v -0.506472 0.391847 -0.378970
v 0.518013 0.374784 -0.391278
v 0.526586 0.386791 0.350358
v 0.255135 0.396003 0.354351
v 0.348426 0.397405 0.350910
v 0.443437 0.393039 0.348774
v 0.000016 0.406619 0.357152
v 0.084431 0.403756 0.357152
v 0.169087 0.397616 0.356791
v -0.085342 0.404309 0.357750
v -0.184174 0.401816 0.366266
v -0.278235 0.393470 0.371132
v -0.353584 0.387808 0.365385
v -0.424478 0.386397 0.357741
v -0.422057 0.391847 -0.378970
v -0.337643 0.395213 -0.378970
v -0.253228 0.391847 -0.378970
v -0.168813 0.391847 -0.378970
v -0.084399 0.391946 -0.378970
v 0.000016 0.392315 -0.378970
v 0.085199 0.393205 -0.379792
v 0.179405 0.403326 -0.390263
v 0.276364 0.392782 -0.403677
v 0.366655 0.383955 -0.409962
v 0.445940 0.379753 -0.404476
v 0.527785 0.375698 -0.319937
v 0.530463 0.371417 -0.241009
v 0.519939 0.389342 -0.150474
v 0.514934 0.390371 -0.052391
v 0.525601 0.360550 0.037401
v 0.518758 0.364195 0.102583
v 0.511644 0.388710 0.179923
v 0.522408 0.380266 0.261715
v -0.506472 0.391847 0.275361
v -0.506472 0.391847 0.193569
v -0.506406 0.392266 0.111436
v -0.505749 0.396441 0.026231
v -0.505355 0.398938 -0.057603
v -0.505735 0.396528 -0.137422
v -0.506398 0.392318 -0.215771
v -0.506472 0.391847 -0.297178
v -0.434766 0.399904 0.283443
v -0.447183 0.416418 0.204665
v -0.440456 0.416748 0.114441
v -0.420481 0.419794 0.010274
v -0.416777 0.425042 -0.078839
v -0.417173 0.423424 -0.159443
v -0.420134 0.404146 -0.225448
v -0.421942 0.394123 -0.297778
v -0.375406 0.426418 0.305356
v -0.378431 0.484537 0.223713
v -0.386549 0.481887 0.112323
v -0.338843 0.472089 -0.011643
v -0.325267 0.477370 -0.113016
v -0.326611 0.465797 -0.191146
v -0.332600 0.431026 -0.242039
v -0.336696 0.420974 -0.302095
v -0.309106 0.439039 0.321398
v -0.265782 0.515115 0.254933
v -0.309373 0.522153 0.110528
v -0.244340 0.521432 -0.034185
v -0.237652 0.519630 -0.125681
v -0.241000 0.488999 -0.194032
v -0.247305 0.437223 -0.245282
v -0.251808 0.402729 -0.304554
v -0.212468 0.448526 0.311347
v -0.185789 0.513193 0.239944
v -0.194275 0.540760 0.087825
v -0.155057 0.546697 -0.033151
v -0.154324 0.541800 -0.118035
v -0.157937 0.503583 -0.184868
v -0.163464 0.448467 -0.241421
v -0.167835 0.403545 -0.302247
v -0.096959 0.440613 0.288623
v -0.081199 0.494761 0.206168
v -0.080515 0.544550 0.072996
v -0.074179 0.550240 -0.014387
v -0.074707 0.537579 -0.093837
v -0.077299 0.500055 -0.165375
v -0.081461 0.447068 -0.228975
v -0.084266 0.404989 -0.297867
v 0.000024 0.434790 0.275363
v 0.004338 0.471060 0.191830
v 0.003184 0.512346 0.098332
v 0.003884 0.524590 0.015050
v 0.004885 0.519486 -0.072678
v 0.002691 0.481674 -0.144610
v 0.000488 0.437863 -0.217232
v 0.000016 0.407078 -0.297178
v 0.084576 0.429710 0.275145
v 0.085649 0.461739 0.191751
v 0.086333 0.488375 0.108227
v 0.087006 0.505606 0.019967
v 0.088226 0.503066 -0.071854
v 0.088173 0.469763 -0.143018
v 0.089463 0.438219 -0.220769
v 0.088454 0.410745 -0.301480
v 0.172596 0.424556 0.269156
v 0.184995 0.469625 0.177407
v 0.192273 0.490168 0.099352
v 0.187055 0.490515 0.020129
v 0.180876 0.481275 -0.067696
v 0.185385 0.466975 -0.151964
v 0.191636 0.453438 -0.239760
v 0.188885 0.426338 -0.318610
v 0.272256 0.434261 0.257063
v 0.312156 0.505447 0.157215
v 0.321621 0.514402 0.085356
v 0.310310 0.501154 0.010323
v 0.292429 0.481909 -0.077189
v 0.286644 0.470237 -0.170100
v 0.296771 0.463220 -0.266446
v 0.291074 0.422577 -0.338280
v 0.373076 0.423128 0.257165
v 0.401897 0.476122 0.165755
v 0.412643 0.497870 0.090282
v 0.405398 0.489760 0.009472
v 0.384429 0.469188 -0.081534
v 0.380118 0.469638 -0.183953
v 0.392959 0.475510 -0.288798
v 0.384205 0.429265 -0.351860
v 0.450935 0.402713 0.257467
v 0.459687 0.431257 0.173861
v 0.471644 0.439836 0.098780
v 0.473959 0.428117 0.022971
v 0.452643 0.438606 -0.070713
v 0.454174 0.424582 -0.169489
v 0.466213 0.423189 -0.267101
v 0.460902 0.404251 -0.339349
v -0.122286 0.582318 -0.211269
v -0.117194 0.611557 -0.168340
v -0.036199 0.546758 -0.197261
v -0.031108 0.575997 -0.154332
v -0.025284 0.468838 -0.145485
v -0.020193 0.498076 -0.102555
v -0.100456 0.426477 -0.107716
v -0.095364 0.455715 -0.064788
v -0.186542 0.462036 -0.121725
v -0.181450 0.491275 -0.078796
v -0.197457 0.539957 -0.173502
v -0.192365 0.569196 -0.130572
v -0.128513 0.626777 -0.240811
v 0.006691 0.570928 -0.218810
v 0.011783 0.600167 -0.175881
v -0.123422 0.656016 -0.197882
v 0.023834 0.448548 -0.137492
v 0.028926 0.477787 -0.094562
v -0.094228 0.382017 -0.078174
v -0.089136 0.411256 -0.035246
v -0.229432 0.437867 -0.100176
v -0.224341 0.467105 -0.057247
v -0.246575 0.560247 -0.181494
v -0.241483 0.589485 -0.138565
v -0.121161 0.588776 -0.201788
v -0.035075 0.553216 -0.187779
v -0.032232 0.569539 -0.163813
v -0.118318 0.605099 -0.177822
v -0.024160 0.475295 -0.136003
v -0.021317 0.491618 -0.112037
v -0.099331 0.432934 -0.098235
v -0.096488 0.449257 -0.074269
v -0.185417 0.468494 -0.112243
v -0.182575 0.484817 -0.088278
v -0.196332 0.546415 -0.164019
v -0.193490 0.562738 -0.140054
v 0.165970 0.513314 -0.000161
v 0.207074 0.541347 0.015597
v 0.219803 0.436084 -0.003187
v 0.260906 0.464117 0.012571
v 0.227932 0.381328 0.073019
v 0.269036 0.409362 0.088777
v 0.182229 0.403803 0.152251
v 0.223333 0.431836 0.168009
v 0.128396 0.481033 0.155277
v 0.169500 0.509066 0.171035
v 0.120267 0.535788 0.079071
v 0.161370 0.563822 0.094829
v 0.161331 0.544555 -0.043642
v 0.245880 0.423260 -0.048394
v 0.286983 0.451294 -0.032636
v 0.202435 0.572589 -0.027883
v 0.258648 0.337263 0.071292
v 0.299752 0.365297 0.087051
v 0.186868 0.372561 0.195731
v 0.227972 0.400595 0.211490
v 0.102320 0.493856 0.200484
v 0.143423 0.521890 0.216242
v 0.089551 0.579853 0.080798
v 0.130655 0.607887 0.096556
v 0.175048 0.519505 0.003320
v 0.228881 0.442275 0.000294
v 0.251828 0.457926 0.009091
v 0.197995 0.535156 0.012117
v 0.237011 0.387520 0.076499
v 0.259958 0.403170 0.085297
v 0.191308 0.409994 0.155731
v 0.214254 0.425645 0.164529
v 0.137475 0.487224 0.158757
v 0.160422 0.502875 0.167555
v 0.129345 0.541980 0.082551
v 0.152292 0.557630 0.091349
v -0.309636 0.581917 0.101116
v -0.276367 0.563172 0.065542
v -0.337032 0.494188 0.121722
v -0.303763 0.475443 0.086148
v -0.292533 0.445527 0.188979
v -0.259264 0.426782 0.153405
v -0.220637 0.484595 0.235630
v -0.187368 0.465850 0.200056
v -0.193241 0.572324 0.215024
v -0.159972 0.553579 0.179450
v -0.237740 0.620985 0.147767
v -0.204471 0.602240 0.112192
v -0.335025 0.609682 0.062741
v -0.378054 0.471897 0.095105
v -0.344784 0.453152 0.059531
v -0.301757 0.590937 0.027168
v -0.308164 0.395472 0.200737
v -0.274895 0.376726 0.165163
v -0.195247 0.456831 0.274005
v -0.161978 0.438086 0.238431
v -0.152219 0.594616 0.241641
v -0.118950 0.575870 0.206067
v -0.222108 0.671041 0.136009
v -0.188839 0.652296 0.100435
v -0.302287 0.577777 0.093259
v -0.329684 0.490048 0.113865
v -0.311111 0.479583 0.094006
v -0.283715 0.567312 0.073400
v -0.285185 0.441387 0.181123
v -0.266612 0.430922 0.161263
v -0.213289 0.480455 0.227773
v -0.194716 0.469990 0.207914
v -0.185892 0.568184 0.207167
v -0.167320 0.557719 0.187307
v -0.230392 0.616845 0.139910
v -0.211819 0.606380 0.120050
vn -0.4046 -0.9145 -0.0000
vn 0.9966 0.0164 0.0804
vn -0.0000 1.0000 -0.0000
vn -0.0000 -0.0000 1.0000
vn 0.4046 -0.9145 -0.0000
vn 0.9987 -0.0262 0.0438
vn 0.9950 -0.0999 -0.0000
vn 0.9987 0.0262 -0.0438
vn 0.9950 0.0999 -0.0000
vn -0.0000 -0.0000 -1.0000
vn -0.9987 -0.0262 -0.0438
vn -0.9950 -0.0999 -0.0000
vn -0.9987 0.0262 0.0438
vn -0.9950 0.0999 -0.0000
vn -0.0000 -1.0000 -0.0000
vn 0.9997 -0.0234 -0.0000
vn -0.9997 -0.0234 -0.0000
vn 0.0010 -1.0000 0.0046
vn -0.0000 -0.8295 -0.5585
vn 0.9966 -0.0164 -0.0804
vn -0.0010 -1.0000 -0.0046
vn -0.9966 -0.0164 0.0804
vn -0.0000 -0.8295 0.5585
vn -0.9966 0.0164 -0.0804
vn -0.9966 -0.0164 -0.0804
vn -0.9966 0.0164 0.0804
vn 0.9966 0.0164 -0.0804
vn -0.9997 0.0234 -0.0000
vn 0.9997 0.0234 -0.0000
vn -0.9987 -0.0262 0.0438
vn -0.9987 0.0262 -0.0438
vn 0.9987 -0.0262 -0.0438
vn 0.9987 0.0262 0.0438
vn 0.9966 -0.0164 0.0804
vn 0.9847 -0.0155 -0.1737
vn -0.0002 0.6530 0.7574
vn -0.0000 0.6544 0.7562
vn -0.0001 0.6531 0.7573
vn -0.9847 -0.0155 -0.1738
vn -0.0000 -0.6544 0.7562
vn 0.1907 -0.0045 -0.9816
vn 0.6225 0.7826 -0.0000
vn 0.1907 -0.0045 0.9816
vn 0.6089 -0.7932 -0.0000
vn -0.9847 -0.0155 0.1738
vn 0.0002 0.6530 -0.7574
vn -0.0000 0.6544 -0.7562
vn 0.0001 0.6531 -0.7573
vn 0.9847 -0.0155 0.1737
vn -0.0000 -0.6544 -0.7562
vn -0.1907 -0.0045 0.9816
vn -0.6225 0.7826 -0.0000
vn -0.1907 -0.0045 -0.9816
vn -0.6089 -0.7932 -0.0000
vn -0.1907 0.0045 0.9816
vn -0.6089 0.7932 -0.0000
vn -0.1907 0.0045 -0.9816
vn -0.6225 -0.7826 -0.0000
vn -0.9847 0.0155 0.1738
vn 0.9847 0.0155 0.1737
vn 0.1907 0.0045 -0.9816
vn 0.6089 0.7932 -0.0000
vn 0.1907 0.0045 0.9816
vn 0.6225 -0.7826 -0.0000
vn 0.9847 0.0155 -0.1737
vn -0.9847 0.0155 -0.1738
vn -0.0002 0.6530 -0.7574
vn -0.0001 0.6531 -0.7573
vn -0.0000 0.6517 -0.7585
vn 0.0002 0.6530 0.7574
vn 0.0001 0.6531 0.7573
vn -0.0000 0.6517 0.7585
vn 0.0007 -1.0000 -0.0030
vn 0.0049 -0.9997 -0.0244
vn 0.0002 -0.9997 -0.0252
vn -0.0045 -0.9997 -0.0260
vn -0.0010 -1.0000 0.0044
vn -0.0046 -0.9997 0.0258
vn -0.0000 -0.9997 0.0259
vn 0.0045 -0.9997 0.0260
vn -0.0207 0.9997 0.0122
vn 0.0196 0.9997 -0.0122
vn -0.0035 1.0000 0.0002
vn -0.0049 1.0000 -0.0021
vn -0.0043 1.0000 -0.0012
vn -0.0036 1.0000 0.0003
vn 0.0194 0.9997 0.0122
vn -0.0051 1.0000 -0.0023
vn -0.0194 0.9997 -0.0122
vn 0.0048 1.0000 -0.0019
vn 0.0049 1.0000 0.0021
vn 0.0043 1.0000 0.0012
vn 0.0042 1.0000 -0.0011
vn -0.0038 1.0000 0.0005
vn 0.0049 1.0000 -0.0021
vn 0.0051 1.0000 0.0023
vn 1.0000 -0.0000 -0.0000
vn -1.0000 -0.0000 -0.0000
vn -0.0000 1.0000 -0.0001
vn 0.2780 0.9340 -0.2243
vn -0.0135 0.9998 -0.0139
vn -0.1770 0.9693 -0.1707
vn 0.1197 0.9645 -0.2355
vn -0.0028 0.9890 -0.1477
vn -0.0028 0.9890 -0.1478
vn -0.0039 0.9885 -0.1512
vn -0.0050 0.9879 -0.1548
vn -0.0137 0.9857 -0.1682
vn -0.0315 0.9799 -0.1971
vn -0.1610 0.9561 -0.2449
vn 0.0071 0.9327 -0.3606
vn -0.0453 0.8587 -0.5104
vn 0.2148 0.8244 -0.5237
vn 0.1409 0.9676 0.2096
vn 0.3627 0.8125 0.4564
vn 0.6214 0.7446 0.2437
vn 0.6901 0.7149 -0.1122
vn 0.5716 0.8017 -0.1746
vn 0.4775 0.8762 -0.0657
vn 0.5350 0.8406 0.0843
vn 0.4899 0.7644 -0.4192
vn 0.0529 0.9434 0.3275
vn 0.1449 0.8053 0.5749
vn 0.2234 0.9477 0.2281
vn 0.1499 0.9770 -0.1517
vn 0.1175 0.9635 -0.2405
vn 0.0656 0.9960 -0.0606
vn -0.0640 0.9979 -0.0130
vn -0.1822 0.8354 -0.5186
vn -0.0152 0.9435 0.3310
vn -0.1026 0.8626 0.4954
vn -0.2036 0.9647 0.1671
vn -0.1427 0.9875 -0.0673
vn -0.0599 0.9866 -0.1521
vn -0.0369 0.9888 -0.1447
vn -0.0882 0.9891 -0.1182
vn -0.1162 0.9083 -0.4018
vn 0.0732 0.9517 0.2983
vn 0.0306 0.9139 0.4047
vn -0.0136 0.9600 0.2796
vn 0.0684 0.9924 0.1023
vn 0.1890 0.9795 -0.0694
vn 0.1158 0.9507 -0.2878
vn -0.0970 0.9592 -0.2656
vn -0.1971 0.9290 -0.3131
vn 0.0450 0.9485 0.3135
vn 0.0807 0.9216 0.3797
vn 0.1654 0.9209 0.3529
vn 0.2327 0.9582 0.1665
vn 0.2092 0.9771 -0.0390
vn 0.1546 0.8838 -0.4416
vn 0.0541 0.8926 -0.4476
vn -0.0363 0.9396 -0.3404
vn 0.0473 0.9199 0.3894
vn 0.2108 0.8475 0.4871
vn 0.2718 0.8932 0.3583
vn 0.3008 0.9471 0.1119
vn 0.2957 0.9500 -0.1001
vn 0.3097 0.8375 -0.4501
vn 0.2478 0.7842 -0.5688
vn 0.0712 0.8952 -0.4398
vn 0.0987 0.8414 0.5313
vn 0.2503 0.7316 0.6341
vn 0.1214 0.9588 0.2567
vn -0.0386 0.9981 0.0473
vn 0.0326 0.9938 -0.1061
vn 0.1722 0.8608 -0.4789
vn 0.1532 0.7285 -0.6677
vn 0.0565 0.8277 -0.5583
vn -0.0175 0.7450 0.6668
vn 0.0745 0.6787 0.7307
vn -0.0603 0.9902 0.1261
vn -0.2161 0.9742 -0.0657
vn -0.2625 0.9638 -0.0476
vn -0.1506 0.8840 -0.4425
vn -0.0556 0.7120 -0.6999
vn -0.0398 0.8348 -0.5491
vn -0.1949 0.7309 0.6541
vn -0.3328 0.7421 0.5818
vn -0.3603 0.9286 0.0888
vn -0.4757 0.8482 -0.2328
vn -0.4540 0.8904 -0.0316
vn -0.3619 0.8988 -0.2474
vn -0.1538 0.7629 -0.6279
vn 0.0543 0.9342 -0.3526
vn -0.2785 0.8711 0.4045
vn -0.6252 0.6829 0.3779
vn -0.7356 0.6774 -0.0027
vn -0.6609 0.7183 -0.2173
vn -0.5171 0.8559 0.0004
vn -0.4795 0.8749 -0.0675
vn -0.4208 0.8353 -0.3540
vn -0.3087 0.9424 -0.1291
vn -0.0218 0.9959 0.0876
vn -0.2563 0.9593 0.1185
vn -0.3637 0.9315 -0.0103
vn -0.3013 0.9535 0.0035
vn -0.2661 0.9632 0.0368
vn -0.2916 0.9563 -0.0226
vn -0.2397 0.9592 -0.1501
vn -0.0861 0.9940 -0.0668
vn 0.1817 0.9831 0.0206
vn 0.4449 0.8751 0.1903
vn 0.7649 0.6435 0.0284
vn 0.8237 0.5670 -0.0083
vn 0.7080 0.7055 0.0316
vn 0.5547 0.8308 -0.0451
vn 0.5604 0.8281 -0.0178
vn 0.5465 0.8303 -0.1094
vn 0.3939 0.7373 -0.5489
vn 0.9885 0.0417 -0.1456
vn 0.5946 -0.6956 0.4032
vn -0.3939 -0.7373 0.5489
vn -0.9885 -0.0417 0.1456
vn -0.5946 0.6956 -0.4032
vn -0.0976 -0.5602 -0.8226
vn 0.0976 0.5602 0.8226
vn 0.2303 0.1979 -0.9528
vn 0.6101 -0.6112 -0.5042
vn 0.3798 -0.8090 0.4486
vn -0.2303 -0.1979 0.9528
vn -0.6101 0.6112 0.5042
vn -0.3798 0.8090 -0.4486
vn -0.7876 -0.5372 -0.3019
vn 0.7876 0.5372 0.3019
vn -0.7135 0.0588 -0.6982
vn -0.6086 -0.7772 -0.1596
vn 0.1048 -0.8360 0.5386
vn 0.7135 -0.0588 0.6982
vn 0.6086 0.7772 0.1596
vn -0.1048 0.8360 -0.5386
vn -0.6375 0.3592 0.6816
vn 0.6375 -0.3592 -0.6816
vt 0.368772 0.512717
vt 0.375000 0.750000
vt 0.362086 0.725189
vt 0.362086 0.524811
vt 0.479136 0.262914
vt 0.551914 0.262914
vt 0.406359 0.818957
vt 0.406359 0.762914
vt 0.479136 0.524811
vt 0.551914 0.524811
vt 0.125000 0.750000
vt 0.125242 0.523836
vt 0.137914 0.524811
vt 0.137914 0.725189
vt 0.479136 0.750000
vt 0.583273 0.750000
vt 0.551914 0.762914
vt 0.479136 0.762914
vt 0.583273 0.937500
vt 0.583273 1.000000
vt 0.551914 0.987087
vt 0.551914 0.931043
vt 0.479136 1.000000
vt 0.375000 1.000000
vt 0.406359 0.987086
vt 0.479136 0.987086
vt 0.406359 0.875000
vt 0.406359 0.931043
vt 0.479136 0.500000
vt 0.583273 0.500000
vt 0.551914 0.725189
vt 0.406359 0.725189
vt 0.479136 0.725189
vt 0.375000 0.500000
vt 0.406359 0.524811
vt 0.479136 0.250000
vt 0.583273 0.250000
vt 0.583273 0.437500
vt 0.551914 0.487087
vt 0.551914 0.431043
vt 0.406359 0.487086
vt 0.479136 0.487086
vt 0.375000 0.250000
vt 0.406359 0.262914
vt 0.406359 0.318957
vt 0.406359 0.375000
vt 0.406359 0.431043
vt 0.479136 0.000000
vt 0.583273 0.000000
vt 0.551914 0.024811
vt 0.479136 0.024811
vt 0.551914 0.225189
vt 0.406359 0.225189
vt 0.479136 0.225189
vt 0.375000 0.000000
vt 0.406359 0.024811
vt 0.000000 0.000000
vt 0.486853 0.929454
vt 0.544197 0.929454
vt 0.544197 0.983909
vt 0.486853 0.983909
vt 0.486853 0.528891
vt 0.544197 0.528891
vt 0.544197 0.721109
vt 0.486853 0.721109
vt 0.486853 0.429454
vt 0.544197 0.429454
vt 0.544197 0.483909
vt 0.486853 0.483909
vt 0.486853 0.028891
vt 0.544197 0.028891
vt 0.544197 0.221109
vt 0.486853 0.221109
vt 0.414076 0.028891
vt 0.471420 0.028891
vt 0.471419 0.221109
vt 0.414076 0.221109
vt 0.414076 0.429454
vt 0.471420 0.429454
vt 0.471420 0.483909
vt 0.414076 0.483909
vt 0.414076 0.528891
vt 0.471420 0.528891
vt 0.471419 0.721109
vt 0.414076 0.721109
vt 0.414076 0.929454
vt 0.471419 0.929454
vt 0.471419 0.983909
vt 0.414076 0.983909
vt 0.544197 0.766091
vt 0.486853 0.766091
vt 0.479136 0.818957
vt 0.486853 0.820546
vt 0.544197 0.266091
vt 0.486853 0.266091
vt 0.479136 0.318957
vt 0.486853 0.320546
vt 0.471420 0.266091
vt 0.414076 0.266091
vt 0.479136 0.431043
vt 0.414076 0.320546
vt 0.471420 0.766091
vt 0.414076 0.766091
vt 0.479136 0.931043
vt 0.414076 0.820546
vt 0.414076 0.875000
vt 0.471420 0.820546
vt 0.479136 0.875000
vt 0.471419 0.875000
vt 0.414076 0.375000
vt 0.471420 0.320546
vt 0.479136 0.375000
vt 0.471419 0.375000
vt 0.486853 0.375000
vt 0.551914 0.318957
vt 0.544197 0.320546
vt 0.551914 0.375000
vt 0.544197 0.375000
vt 0.486853 0.875000
vt 0.551914 0.818957
vt 0.544197 0.820546
vt 0.551914 0.875000
vt 0.544197 0.875000
vt 0.583273 0.312500
vt 0.583273 0.375000
vt 0.583273 0.812500
vt 0.583273 0.875000
vt 0.583273 0.437500
vt 0.583273 0.375000
vt 0.583273 0.937500
vt 0.583273 0.875000
vt 0.583273 0.250000
vt 0.583273 0.510995
vt 0.583273 0.527778
vt 0.583273 0.479167
vt 0.583273 0.326389
vt 0.583273 0.343171
vt 0.583273 0.270833
vt 0.583273 0.359954
vt 0.583273 0.291667
vt 0.583273 0.376736
vt 0.583273 0.312500
vt 0.583273 0.393519
vt 0.583273 0.333333
vt 0.583273 0.410301
vt 0.583273 0.354167
vt 0.583273 0.427083
vt 0.583273 0.375000
vt 0.583273 0.443866
vt 0.583273 0.395833
vt 0.583273 0.460648
vt 0.583273 0.416667
vt 0.583273 0.477431
vt 0.583273 0.494213
vt 0.583273 0.458333
vt 0.583273 0.781250
vt 0.583273 0.765625
vt 0.583273 0.733796
vt 0.583273 0.745370
vt 0.583273 0.701968
vt 0.583273 0.709491
vt 0.583273 0.670139
vt 0.583273 0.673611
vt 0.583273 0.638310
vt 0.583273 0.637731
vt 0.583273 0.606482
vt 0.583273 0.601852
vt 0.583273 0.574653
vt 0.583273 0.565972
vt 0.583273 0.542824
vt 0.583273 0.530093
vt 0.583273 0.796875
vt 0.583273 0.756944
vt 0.583273 0.717014
vt 0.583273 0.677083
vt 0.583273 0.637153
vt 0.583273 0.597222
vt 0.583273 0.557292
vt 0.583273 0.517361
vt 0.583273 0.768519
vt 0.583273 0.724537
vt 0.583273 0.680556
vt 0.583273 0.636574
vt 0.583273 0.592593
vt 0.583273 0.548611
vt 0.583273 0.504630
vt 0.583273 0.828125
vt 0.583273 0.780093
vt 0.583273 0.732060
vt 0.583273 0.684028
vt 0.583273 0.635995
vt 0.583273 0.587963
vt 0.583273 0.539931
vt 0.583273 0.491898
vt 0.583273 0.843750
vt 0.583273 0.791667
vt 0.583273 0.739583
vt 0.583273 0.687500
vt 0.583273 0.635417
vt 0.583273 0.583333
vt 0.583273 0.531250
vt 0.583273 0.479167
vt 0.583273 0.859375
vt 0.583273 0.803241
vt 0.583273 0.747107
vt 0.583273 0.690972
vt 0.583273 0.634838
vt 0.583273 0.578704
vt 0.583273 0.522569
vt 0.583273 0.466435
vt 0.583273 0.875000
vt 0.583273 0.814815
vt 0.583273 0.754630
vt 0.583273 0.694444
vt 0.583273 0.634259
vt 0.583273 0.574074
vt 0.583273 0.513889
vt 0.583273 0.453704
vt 0.583273 0.890625
vt 0.583273 0.826389
vt 0.583273 0.762153
vt 0.583273 0.697917
vt 0.583273 0.633681
vt 0.583273 0.569444
vt 0.583273 0.505208
vt 0.583273 0.440972
vt 0.583273 0.906250
vt 0.583273 0.837963
vt 0.583273 0.769676
vt 0.583273 0.701389
vt 0.583273 0.633102
vt 0.583273 0.564815
vt 0.583273 0.496528
vt 0.583273 0.428241
vt 0.583273 0.921875
vt 0.583273 0.849537
vt 0.583273 0.777199
vt 0.583273 0.704861
vt 0.583273 0.632523
vt 0.583273 0.560185
vt 0.583273 0.487847
vt 0.583273 0.415509
vt 0.583273 0.861111
vt 0.583273 0.784722
vt 0.583273 0.708333
vt 0.583273 0.631944
vt 0.583273 0.555556
vt 0.583273 0.402778
vt 0.583273 0.722222
vt 0.583273 0.666667
vt 0.583273 0.638889
vt 0.583273 0.611111
vt 0.076745 0.197902
vt 0.076745 0.197902
vt 0.076745 0.197902
vt 0.076745 0.197902
vt 0.076745 0.197902
s 1
usemtl light_grey.007
f 4/1/1 2/2/1 24/3/1 21/4/1
f 53/5/2 14/6/2 33/6/2 61/5/2
f 105/7/3 5/8/3 26/8/3 117/7/3
f 50/9/4 10/10/4 29/10/4 59/9/4
f 1/11/5 3/12/5 22/13/5 23/14/5
f 42/15/4 48/16/4 6/17/4 52/18/4
f 99/19/4 45/20/4 7/21/4 108/22/4
f 41/23/4 1/24/4 8/25/4 51/26/4
f 1/24/4 2/2/4 5/8/4 105/7/4 104/27/4 103/28/4 8/25/4
f 43/29/6 47/30/6 10/10/6 50/9/6
f 47/30/7 48/16/7 11/31/7 10/10/7
f 42/15/8 2/2/8 12/32/8 49/33/8
f 2/2/9 4/34/9 9/35/9 12/32/9
f 44/36/10 46/37/10 14/6/10 53/5/10
f 102/38/10 47/30/10 15/39/10 114/40/10
f 43/29/10 4/34/10 16/41/10 54/42/10
f 4/34/10 3/43/10 13/44/10 111/45/10 110/46/10 109/47/10 16/41/10
f 41/48/11 45/49/11 18/50/11 55/51/11
f 45/49/12 46/37/12 19/52/12 18/50/12
f 44/36/13 3/43/13 20/53/13 56/54/13
f 3/43/14 1/55/14 17/56/14 20/53/14
f 2/57/15 1/57/15 3/57/15 4/57/15
f 12/32/3 9/35/3 30/35/3 31/32/3
f 55/51/10 18/50/10 38/50/10 63/51/10
f 108/22/18 7/21/18 28/21/18 120/22/18
f 111/45/3 13/44/3 34/44/3 123/45/3
f 2/2/19 1/11/19 23/14/19 24/3/19
f 10/10/15 11/31/15 32/31/15 29/10/15
f 20/53/3 17/56/3 37/56/3 39/53/3
f 51/26/20 8/25/20 27/25/20 58/26/20
f 114/40/21 15/39/21 36/39/21 126/40/21
f 49/33/10 12/32/10 31/32/10 60/33/10
f 18/50/15 19/52/15 40/52/15 38/50/15
f 54/42/22 16/41/22 35/41/22 62/42/22
f 56/54/4 20/53/4 39/53/4 64/54/4
f 3/12/23 4/1/23 21/4/23 22/13/23
f 52/18/24 6/17/24 25/17/24 57/18/24
f 19/52/4 56/54/4 64/54/4 40/52/4
f 5/8/25 52/18/25 57/18/25 26/8/25
f 11/31/10 49/33/10 60/33/10 32/31/10
f 15/39/26 54/42/26 62/42/26 36/39/26
f 7/21/27 51/26/27 58/26/27 28/21/27
f 17/56/10 55/51/10 63/51/10 37/56/10
f 46/37/30 44/36/30 56/54/30 19/52/30
f 1/55/31 41/48/31 55/51/31 17/56/31
f 47/30/10 43/29/10 54/42/10 15/39/10
f 3/43/10 44/36/10 53/5/10 13/44/10
f 48/16/32 42/15/32 49/33/32 11/31/32
f 4/34/33 43/29/33 50/9/33 9/35/33
f 45/20/4 41/23/4 51/26/4 7/21/4
f 2/2/4 42/15/4 52/18/4 5/8/4
f 9/35/4 50/9/4 59/9/4 30/35/4
f 13/44/34 53/5/34 61/5/34 34/44/34
f 14/6/73 112/115/73 124/115/73 33/6/73
f 112/115/74 113/117/75 125/117/75 124/115/74
f 113/117/75 114/40/76 126/40/76 125/117/75
f 16/41/3 109/47/3 121/47/3 35/41/3
f 109/47/3 110/46/3 122/46/3 121/47/3
f 110/46/3 111/45/3 123/45/3 122/46/3
f 6/17/77 106/120/77 118/120/77 25/17/77
f 106/120/78 107/122/79 119/122/79 118/120/78
f 107/122/79 108/22/80 120/22/80 119/122/79
f 46/37/10 100/124/10 112/115/10 14/6/10
f 100/124/10 101/125/10 113/117/10 112/115/10
f 101/125/10 102/38/10 114/40/10 113/117/10
f 48/16/4 97/126/4 106/120/4 6/17/4
f 97/126/4 98/127/4 107/122/4 106/120/4
f 98/127/4 99/19/4 108/22/4 107/122/4
f 8/25/3 103/28/3 115/28/3 27/25/3
f 103/28/3 104/27/3 116/27/3 115/28/3
f 104/27/3 105/7/3 117/7/3 116/27/3
f 101/125/81 100/124/81 164/124/81 165/125/81
f 98/127/82 97/126/82 161/126/82 162/127/82
f 46/37/83 45/49/84 157/49/85 158/37/86
f 102/38/87 101/125/87 165/125/87 166/38/87
f 45/20/84 99/19/88 163/19/88 157/20/85
f 99/19/89 98/127/89 162/127/89 163/19/89
f 48/16/90 47/30/91 159/30/92 160/16/93
f 100/124/94 46/37/83 158/37/86 164/124/94
f 97/126/95 48/16/90 160/16/93 161/126/95
f 47/30/91 102/38/96 166/38/96 159/30/92
f 159/30/4 166/38/4 177/128/4 186/30/4
f 162/127/10 161/126/10 184/126/10 180/131/10
f 165/125/4 164/124/4 183/124/4 178/129/4
f 160/16/98 159/30/98 186/30/98 185/16/98
f 161/126/10 160/16/10 185/16/10 184/126/10
f 164/124/4 158/37/4 181/132/4 183/124/4
f 157/20/10 163/19/10 179/130/10 182/20/10
f 158/37/97 157/49/97 182/49/97 181/132/97
f 163/19/10 162/127/10 180/131/10 179/130/10
f 166/38/4 165/125/4 178/129/4 177/128/4
usemtl light_brown.007
f 135/58/4 138/59/4 67/60/4 68/61/4
f 69/62/16 70/63/16 71/64/16 72/65/16
f 141/66/10 144/67/10 75/68/10 76/69/10
f 77/70/17 78/71/17 79/72/17 80/73/17
f 81/74/28 82/75/28 83/76/28 84/77/28
f 145/78/10 150/79/10 87/80/10 88/81/10
f 89/82/29 90/83/29 91/84/29 92/85/29
f 151/86/4 156/87/4 95/88/4 96/89/4
f 93/103/4 94/102/4 154/107/4 153/105/4
f 153/105/4 154/107/4 155/109/4 152/106/4
f 152/106/4 155/109/4 156/87/4 151/86/4
f 85/99/10 86/98/10 148/111/10 147/101/10
f 147/101/10 148/111/10 149/113/10 146/110/10
f 146/110/10 149/113/10 150/79/10 145/78/10
f 73/95/10 74/94/10 142/116/10 139/97/10
f 139/97/10 142/116/10 143/118/10 140/114/10
f 140/114/10 143/118/10 144/67/10 141/66/10
f 65/91/4 66/90/4 136/121/4 133/93/4
f 133/93/4 136/121/4 137/123/4 134/119/4
f 134/119/4 137/123/4 138/59/4 135/58/4
f 177/128/4 178/129/4 175/125/4 176/38/4
f 179/130/10 180/131/10 172/127/10 173/19/10
f 181/132/97 182/49/97 167/49/97 168/37/97
f 182/20/10 179/130/10 173/19/10 167/20/10
f 183/124/4 181/132/4 168/37/4 174/124/4
f 184/126/10 185/16/10 170/16/10 171/126/10
f 185/16/98 186/30/98 169/30/98 170/16/98
f 178/129/4 183/124/4 174/124/4 175/125/4
f 180/131/10 184/126/10 171/126/10 172/127/10
f 186/30/4 177/128/4 176/38/4 169/30/4
f 173/19/99 172/127/99 171/126/99 170/16/99 169/30/99 176/38/99 175/125/99 174/124/99 168/37/99 167/49/99
usemtl dark_brown.007
f 57/18/35 25/17/35 66/90/35 65/91/35
f 120/22/36 28/21/37 67/60/37 138/59/38
f 28/21/39 58/26/39 68/61/39 67/60/39
f 130/92/40 57/18/40 65/91/40 133/93/40
f 59/9/41 29/10/41 70/63/41 69/62/41
f 29/10/42 32/31/42 71/64/42 70/63/42
f 32/31/43 60/33/43 72/65/43 71/64/43
f 60/33/44 59/9/44 69/62/44 72/65/44
f 61/5/45 33/6/45 74/94/45 73/95/45
f 126/40/46 36/39/47 75/68/47 144/67/48
f 36/39/49 62/42/49 76/69/49 75/68/49
f 127/96/50 61/5/50 73/95/50 139/97/50
f 63/51/51 38/50/51 78/71/51 77/70/51
f 38/50/52 40/52/52 79/72/52 78/71/52
f 40/52/53 64/54/53 80/73/53 79/72/53
f 64/54/54 63/51/54 77/70/54 80/73/54
f 37/56/55 63/51/55 82/75/55 81/74/55
f 63/51/56 64/54/56 83/76/56 82/75/56
f 64/54/57 39/53/57 84/77/57 83/76/57
f 39/53/58 37/56/58 81/74/58 84/77/58
f 34/44/59 61/5/59 86/98/59 85/99/59
f 129/100/47 62/42/47 87/80/47 150/79/47
f 62/42/60 35/41/60 88/81/60 87/80/60
f 123/45/50 34/44/50 85/99/50 147/101/50
f 30/35/61 59/9/61 90/83/61 89/82/61
f 59/9/62 60/33/62 91/84/62 90/83/62
f 60/33/63 31/32/63 92/85/63 91/84/63
f 31/32/64 30/35/64 89/82/64 92/85/64
f 26/8/65 57/18/65 94/102/65 93/103/65
f 132/104/37 58/26/37 95/88/37 156/87/37
f 58/26/66 27/25/66 96/89/66 95/88/66
f 117/7/40 26/8/40 93/103/40 153/105/40
f 27/25/40 115/28/40 151/86/40 96/89/40
f 115/28/40 116/27/40 152/106/40 151/86/40
f 116/27/40 117/7/40 153/105/40 152/106/40
f 57/18/37 130/92/37 154/107/37 94/102/37
f 130/92/37 131/108/37 155/109/37 154/107/37
f 131/108/37 132/104/37 156/87/37 155/109/37
f 35/41/50 121/47/50 145/78/50 88/81/50
f 121/47/50 122/46/50 146/110/50 145/78/50
f 122/46/50 123/45/50 147/101/50 146/110/50
f 61/5/47 127/96/47 148/111/47 86/98/47
f 127/96/47 128/112/47 149/113/47 148/111/47
f 128/112/47 129/100/47 150/79/47 149/113/47
f 62/42/50 129/100/50 141/66/50 76/69/50
f 129/100/50 128/112/50 140/114/50 141/66/50
f 128/112/50 127/96/50 139/97/50 140/114/50
f 33/6/47 124/115/67 142/116/68 74/94/47
f 124/115/67 125/117/69 143/118/69 142/116/68
f 125/117/69 126/40/46 144/67/48 143/118/69
f 58/26/40 132/104/40 135/58/40 68/61/40
f 132/104/40 131/108/40 134/119/40 135/58/40
f 131/108/40 130/92/40 133/93/40 134/119/40
f 25/17/37 118/120/70 136/121/71 66/90/37
f 118/120/70 119/122/72 137/123/72 136/121/71
f 119/122/72 120/22/36 138/59/38 137/123/72
usemtl yellow.015
f 316/133/100 213/134/100 189/30/100 212/135/100
f 228/136/101 236/137/101 202/138/101 188/37/101
f 236/137/102 244/139/102 203/140/102 202/138/102
f 244/139/103 252/141/103 204/142/103 203/140/103
f 252/141/104 260/143/105 205/144/106 204/142/104
f 260/143/105 268/145/107 206/146/107 205/144/106
f 268/145/108 276/147/108 207/148/108 206/146/108
f 276/147/109 284/149/109 208/150/109 207/148/109
f 284/149/110 292/151/110 209/152/110 208/150/110
f 292/151/111 300/153/111 210/38/111 209/152/111
f 300/153/112 308/154/112 211/155/112 210/38/112
f 308/154/113 316/133/113 212/135/113 211/155/113
f 192/156/114 193/157/114 309/158/114 301/159/114
f 301/159/115 309/158/115 310/160/115 302/161/115
f 302/161/116 310/160/116 311/162/116 303/163/116
f 303/163/117 311/162/117 312/164/117 304/165/117
f 304/165/118 312/164/118 313/166/118 305/167/118
f 305/167/119 313/166/119 314/168/119 306/169/119
f 306/169/120 314/168/120 315/170/120 307/171/120
f 307/171/121 315/170/121 316/133/121 308/154/121
f 191/172/122 192/156/122 301/159/122 293/173/122
f 293/173/123 301/159/123 302/161/123 294/174/123
f 294/174/124 302/161/124 303/163/124 295/175/124
f 295/175/125 303/163/125 304/165/125 296/176/125
f 296/176/126 304/165/126 305/167/126 297/177/126
f 297/177/127 305/167/127 306/169/127 298/178/127
f 298/178/128 306/169/128 307/171/128 299/179/128
f 299/179/129 307/171/129 308/154/129 300/153/129
f 196/126/130 191/172/130 293/173/130 285/180/130
f 285/180/131 293/173/131 294/174/131 286/181/131
f 286/181/132 294/174/132 295/175/132 287/182/132
f 287/182/133 295/175/133 296/176/133 288/183/133
f 288/183/134 296/176/134 297/177/134 289/184/134
f 289/184/135 297/177/135 298/178/135 290/185/135
f 290/185/136 298/178/136 299/179/136 291/186/136
f 291/186/137 299/179/137 300/153/137 292/151/137
f 195/187/138 196/126/138 285/180/138 277/188/138
f 277/188/139 285/180/139 286/181/139 278/189/139
f 278/189/140 286/181/140 287/182/140 279/190/140
f 279/190/141 287/182/141 288/183/141 280/191/141
f 280/191/142 288/183/142 289/184/142 281/192/142
f 281/192/143 289/184/143 290/185/143 282/193/143
f 282/193/144 290/185/144 291/186/144 283/194/144
f 283/194/145 291/186/145 292/151/145 284/149/145
f 194/195/146 195/187/146 277/188/146 269/196/146
f 269/196/147 277/188/147 278/189/147 270/197/147
f 270/197/148 278/189/148 279/190/148 271/198/148
f 271/198/149 279/190/149 280/191/149 272/199/149
f 272/199/150 280/191/150 281/192/150 273/200/150
f 273/200/151 281/192/151 282/193/151 274/201/151
f 274/201/152 282/193/152 283/194/152 275/202/152
f 275/202/153 283/194/153 284/149/153 276/147/153
f 197/203/154 194/195/154 269/196/154 261/204/154
f 261/204/155 269/196/155 270/197/155 262/205/155
f 262/205/156 270/197/156 271/198/156 263/206/156
f 263/206/157 271/198/157 272/199/157 264/207/157
f 264/207/158 272/199/158 273/200/158 265/208/158
f 265/208/159 273/200/159 274/201/159 266/209/159
f 266/209/160 274/201/160 275/202/160 267/210/160
f 267/210/161 275/202/161 276/147/161 268/145/161
f 198/211/162 197/203/162 261/204/162 253/212/162
f 253/212/163 261/204/163 262/205/163 254/213/163
f 254/213/164 262/205/164 263/206/164 255/214/164
f 255/214/165 263/206/165 264/207/165 256/215/165
f 256/215/166 264/207/166 265/208/166 257/216/166
f 257/216/167 265/208/167 266/209/167 258/217/167
f 258/217/168 266/209/168 267/210/168 259/218/168
f 259/218/169 267/210/169 268/145/169 260/143/169
f 199/219/170 198/211/170 253/212/170 245/220/170
f 245/220/171 253/212/171 254/213/171 246/221/171
f 246/221/172 254/213/172 255/214/172 247/222/172
f 247/222/173 255/214/173 256/215/173 248/223/173
f 248/223/174 256/215/174 257/216/174 249/224/174
f 249/224/175 257/216/175 258/217/175 250/225/175
f 250/225/176 258/217/176 259/218/176 251/226/176
f 251/226/177 259/218/177 260/143/177 252/141/177
f 200/227/178 199/219/178 245/220/178 237/228/178
f 237/228/179 245/220/179 246/221/179 238/229/179
f 238/229/180 246/221/180 247/222/180 239/230/180
f 239/230/181 247/222/181 248/223/181 240/231/181
f 240/231/182 248/223/182 249/224/182 241/232/182
f 241/232/183 249/224/183 250/225/183 242/233/183
f 242/233/184 250/225/184 251/226/184 243/234/184
f 243/234/185 251/226/185 252/141/185 244/139/185
f 201/235/186 200/227/186 237/228/186 229/236/186
f 229/236/187 237/228/187 238/229/187 230/237/187
f 230/237/188 238/229/188 239/230/188 231/238/188
f 231/238/189 239/230/189 240/231/189 232/239/189
f 232/239/190 240/231/190 241/232/190 233/240/190
f 233/240/191 241/232/191 242/233/191 234/241/191
f 234/241/192 242/233/192 243/234/192 235/242/192
f 235/242/193 243/234/193 244/139/193 236/137/193
f 187/19/194 201/235/194 229/236/194 221/243/194
f 221/243/195 229/236/195 230/237/195 222/244/195
f 222/244/196 230/237/196 231/238/196 223/245/196
f 223/245/197 231/238/197 232/239/197 224/246/197
f 224/246/198 232/239/198 233/240/198 225/247/198
f 225/247/199 233/240/199 234/241/199 226/202/199
f 226/202/200 234/241/200 235/242/200 227/248/200
f 227/248/201 235/242/201 236/137/201 228/136/201
f 193/157/202 190/16/202 220/249/202 309/158/202
f 309/158/203 220/249/203 219/214/203 310/160/203
f 310/160/204 219/214/204 218/250/204 311/162/204
f 311/162/205 218/250/205 217/251/205 312/164/205
f 312/164/206 217/251/206 216/252/206 313/166/206
f 313/166/207 216/252/207 215/200/207 314/168/207
f 314/168/208 215/200/208 214/247/208 315/170/208
f 315/170/209 214/247/209 213/134/209 316/133/209
f 329/253/210 332/253/210 331/253/210 330/253/210
f 330/253/211 331/253/211 334/253/211 333/253/211
f 333/253/212 334/253/212 336/253/212 335/253/212
f 335/253/213 336/253/213 338/253/213 337/253/213
f 322/253/214 320/253/214 343/253/214 346/253/214
f 337/253/214 338/253/214 340/253/214 339/253/214
f 339/253/215 340/253/215 332/254/215 329/254/215
f 323/255/210 325/256/210 349/256/210 347/255/210
f 319/255/216 317/253/216 329/253/216 330/253/216
f 318/257/217 320/253/217 331/253/217 332/253/217
f 321/253/216 319/255/216 330/253/216 333/253/216
f 320/253/217 322/253/217 334/253/217 331/253/217
f 323/255/216 321/253/216 333/253/216 335/253/216
f 322/253/217 324/253/217 336/253/217 334/253/217
f 325/256/216 323/255/216 335/253/216 337/253/216
f 324/253/217 326/253/217 338/253/217 336/253/217
f 327/253/216 325/256/216 337/253/216 339/253/216
f 326/253/217 328/257/217 340/253/217 338/253/217
f 317/253/216 327/253/216 339/253/216 329/253/216
f 328/257/217 318/257/217 332/253/217 340/253/217
f 343/253/217 344/257/217 352/257/217 350/253/217 348/253/217 346/253/217
f 341/253/216 342/255/216 345/253/216 347/255/216 349/256/216 351/253/216
f 327/253/212 317/253/212 341/253/212 351/253/212
f 317/253/213 319/255/213 342/255/213 341/253/213
f 326/253/210 324/253/210 348/253/210 350/253/210
f 321/253/215 323/255/215 347/255/215 345/253/215
f 318/257/212 328/257/212 352/257/212 344/257/212
f 320/253/213 318/257/213 344/257/213 343/253/213
f 325/256/211 327/253/211 351/253/211 349/256/211
f 324/253/215 322/253/215 346/253/215 348/253/215
f 319/255/214 321/253/214 345/253/214 342/255/214
f 328/257/211 326/253/211 350/253/211 352/257/211
f 365/253/218 368/253/218 367/253/218 366/253/218
f 366/253/219 367/253/219 370/253/219 369/253/219
f 369/253/220 370/253/220 372/253/220 371/253/220
f 371/253/221 372/253/221 374/253/221 373/253/221
f 358/253/222 356/253/222 379/253/222 382/253/222
f 373/253/222 374/253/222 376/253/222 375/253/222
f 375/253/223 376/253/223 368/254/223 365/254/223
f 359/255/218 361/256/218 385/256/218 383/255/218
f 355/255/224 353/253/224 365/253/224 366/253/224
f 354/257/225 356/253/225 367/253/225 368/253/225
f 357/253/224 355/255/224 366/253/224 369/253/224
f 356/253/225 358/253/225 370/253/225 367/253/225
f 359/255/224 357/253/224 369/253/224 371/253/224
f 358/253/225 360/253/225 372/253/225 370/253/225
f 361/256/224 359/255/224 371/253/224 373/253/224
f 360/253/225 362/253/225 374/253/225 372/253/225
f 363/253/224 361/256/224 373/253/224 375/253/224
f 362/253/225 364/257/225 376/253/225 374/253/225
f 353/253/224 363/253/224 375/253/224 365/253/224
f 364/257/225 354/257/225 368/253/225 376/253/225
f 379/253/225 380/257/225 388/257/225 386/253/225 384/253/225 382/253/225
f 377/253/224 378/255/224 381/253/224 383/255/224 385/256/224 387/253/224
f 363/253/220 353/253/220 377/253/220 387/253/220
f 353/253/221 355/255/221 378/255/221 377/253/221
f 362/253/218 360/253/218 384/253/218 386/253/218
f 357/253/223 359/255/223 383/255/223 381/253/223
f 354/257/220 364/257/220 388/257/220 380/257/220
f 356/253/221 354/257/221 380/257/221 379/253/221
f 361/256/219 363/253/219 387/253/219 385/256/219
f 360/253/223 358/253/223 382/253/223 384/253/223
f 355/255/222 357/253/222 381/253/222 378/255/222
f 364/257/219 362/253/219 386/253/219 388/257/219
f 401/253/226 404/253/226 403/253/226 402/253/226
f 402/253/227 403/253/227 406/253/227 405/253/227
f 405/253/228 406/253/228 408/253/228 407/253/228
f 407/253/229 408/253/229 410/253/229 409/253/229
f 394/253/230 392/253/230 415/253/230 418/253/230
f 409/253/230 410/253/230 412/253/230 411/253/230
f 411/253/231 412/253/231 404/254/231 401/254/231
f 395/255/226 397/256/226 421/256/226 419/255/226
f 391/255/232 389/253/232 401/253/232 402/253/232
f 390/257/233 392/253/233 403/253/233 404/253/233
f 393/253/232 391/255/232 402/253/232 405/253/232
f 392/253/233 394/253/233 406/253/233 403/253/233
f 395/255/232 393/253/232 405/253/232 407/253/232
f 394/253/233 396/253/233 408/253/233 406/253/233
f 397/256/232 395/255/232 407/253/232 409/253/232
f 396/253/233 398/253/233 410/253/233 408/253/233
f 399/253/232 397/256/232 409/253/232 411/253/232
f 398/253/233 400/257/233 412/253/233 410/253/233
f 389/253/232 399/253/232 411/253/232 401/253/232
f 400/257/233 390/257/233 404/253/233 412/253/233
f 415/253/233 416/257/233 424/257/233 422/253/233 420/253/233 418/253/233
f 413/253/232 414/255/232 417/253/232 419/255/232 421/256/232 423/253/232
f 399/253/228 389/253/228 413/253/228 423/253/228
f 389/253/229 391/255/229 414/255/229 413/253/229
f 398/253/226 396/253/226 420/253/226 422/253/226
f 393/253/231 395/255/231 419/255/231 417/253/231
f 390/257/228 400/257/228 424/257/228 416/257/228
f 392/253/229 390/257/229 416/257/229 415/253/229
f 397/256/227 399/253/227 423/253/227 421/256/227
f 396/253/231 394/253/231 418/253/231 420/253/231
f 391/255/230 393/253/230 417/253/230 414/255/230
f 400/257/227 398/253/227 422/253/227 424/257/227
