# Blender 5.2.1 LTS
# www.blender.org
mtllib GoalChest_Lid.mtl
o EXPORT_GoalChest_Lid
v -0.650091 0.483478 0.371693
v -0.647705 0.492940 -0.477026
v 0.647739 0.492940 0.455208
v 0.650124 0.483478 -0.393511
v -0.667630 0.689596 0.344559
v -0.667630 0.689596 -0.366378
v 0.666604 0.681933 -0.289835
v 0.667664 0.689596 0.344559
v -0.669904 0.780233 0.040433
v -0.669904 0.780233 -0.062251
v 0.669938 0.780233 -0.062251
v 0.669938 0.780233 0.040433
v -0.649216 0.466481 0.371693
v -0.649216 0.466481 -0.393511
v 0.649249 0.466481 -0.393511
v 0.649249 0.466481 0.371693
v -0.501983 0.467648 0.455208
v -0.503334 0.492960 0.455208
v 0.647739 0.492940 -0.477026
v 0.667664 0.689596 -0.366378
v 0.666604 0.681933 0.268017
v 0.650124 0.483478 0.371693
v -0.666570 0.681933 0.268017
v -0.666570 0.681933 -0.289835
v -0.650091 0.483478 -0.393511
v -0.534788 0.877700 0.065073
v -0.534788 0.877700 -0.086891
v 0.677301 0.865653 -0.086891
v 0.534821 0.877700 0.065073
v -0.502766 0.467645 -0.477026
v 0.502010 0.467648 -0.477026
v 0.502799 0.467645 0.455208
v -0.598722 0.474674 0.348736
v -0.606476 0.677199 0.251281
v -0.606476 0.677199 -0.273100
v 0.606509 0.677199 -0.273100
v 0.606509 0.677199 0.251281
v -0.609250 0.769601 0.037352
v -0.609250 0.769601 -0.059171
v 0.609284 0.769601 -0.059171
v 0.609284 0.769601 0.037352
v -0.598722 0.474674 -0.370555
v 0.598755 0.474674 -0.370555
v 0.598755 0.474674 0.348736
v -0.641406 0.410670 0.455208
v -0.647705 0.492940 0.455208
v 0.503362 0.492960 -0.477026
v 0.519976 0.697092 -0.366378
v 0.520048 0.697080 0.344559
v 0.503739 0.492958 0.455208
v -0.519944 0.697091 0.344559
v -0.520014 0.697080 -0.366378
v -0.503705 0.492958 -0.477026
v -0.677267 0.865653 0.065073
v -0.677267 0.865652 -0.086891
v 0.534821 0.877700 -0.086891
v 0.677301 0.865652 0.065073
v -0.641406 0.410670 -0.477026
v 0.641440 0.410670 -0.477026
v 0.641440 0.410670 0.455208
v -0.498362 0.458604 -0.419649
v 0.497585 0.458629 -0.419649
v -0.497558 0.458629 0.397831
v -0.512452 0.676999 -0.324075
v 0.512335 0.677015 -0.324075
v 0.512485 0.676999 0.302256
v -0.512303 0.677015 0.302256
v -0.524562 0.817239 -0.113655
v 0.524583 0.817239 -0.113655
v 0.524595 0.817239 0.091836
v -0.524549 0.817239 0.091836
v 0.498396 0.458604 0.397831
v -0.533289 0.697903 0.285142
v 0.533465 0.697887 0.285142
v 0.542647 0.812888 0.121354
v -0.542585 0.812891 0.121354
v -0.518681 0.484802 0.395086
v 0.519521 0.484774 0.395086
v 0.530596 0.659882 0.328609
v -0.530299 0.659907 0.328609
v 0.518707 0.484802 -0.416905
v -0.519488 0.484774 -0.416905
v -0.530563 0.659882 -0.350427
v 0.530329 0.659908 -0.350427
v 0.543911 0.826992 -0.089616
v -0.543887 0.826991 -0.089616
v -0.543878 0.826992 0.067798
v 0.543920 0.826991 0.067798
v 0.533321 0.697903 -0.306961
v -0.533432 0.697887 -0.306961
v -0.542613 0.812888 -0.143173
v 0.542618 0.812891 -0.143173
v 0.611430 0.491578 0.339331
v 0.611430 0.491578 -0.361150
v 0.617329 0.660295 -0.275696
v 0.617329 0.660295 0.253877
v -0.611396 0.491578 -0.361150
v -0.611396 0.491578 0.339331
v -0.617296 0.660295 0.253877
v -0.617296 0.660295 -0.275696
v 0.617584 0.694102 0.178999
v 0.617584 0.694102 -0.200818
v 0.619699 0.752697 -0.058029
v 0.619699 0.752697 0.036210
v -0.617550 0.694102 -0.200818
v -0.617550 0.694102 0.178999
v -0.619665 0.752697 0.036210
v -0.619665 0.752697 -0.058029
v -0.127509 0.284103 0.341028
v -0.127509 0.539154 0.341028
v -0.127509 0.284103 0.476888
v -0.127509 0.539154 0.476888
v 0.127543 0.284103 0.341028
v 0.127543 0.539154 0.341028
v 0.127543 0.284103 0.476888
v 0.127543 0.539154 0.476888
v 0.015153 0.322421 0.476888
v -0.015120 0.322421 0.476888
v -0.042492 0.539154 0.476888
v 0.042525 0.539154 0.476888
v -0.042492 0.284103 0.341028
v 0.042525 0.284103 0.341028
v 0.042525 0.539154 0.341028
v -0.042492 0.539154 0.341028
v -0.127509 0.369120 0.341028
v -0.127509 0.454137 0.341028
v -0.127509 0.454137 0.476888
v -0.127509 0.369120 0.476888
v 0.127543 0.454137 0.476888
v 0.127543 0.369120 0.476888
v 0.127543 0.454137 0.341028
v 0.127543 0.369120 0.341028
v 0.042525 0.454137 0.341028
v 0.042525 0.369120 0.341028
v -0.042492 0.454137 0.341028
v -0.042492 0.369120 0.341028
v -0.034742 0.482022 0.476888
v -0.048975 0.447248 0.476888
v 0.034776 0.482022 0.476888
v 0.049008 0.447248 0.476888
v -0.127509 0.326611 0.476888
v 0.127543 0.326611 0.476888
v 0.127543 0.326611 0.341028
v 0.042525 0.326611 0.341028
v -0.042492 0.326611 0.341028
v -0.015120 0.408424 0.476888
v 0.015153 0.408424 0.476888
v -0.127509 0.326611 0.341028
v 0.026393 0.284103 0.476888
v -0.026359 0.284103 0.476888
v -0.026359 0.375879 0.476888
v 0.026393 0.375879 0.476888
v -0.042492 0.493261 0.476888
v -0.064362 0.435776 0.476888
v 0.042525 0.493261 0.476888
v 0.064396 0.435776 0.476888
v -0.048975 0.447248 0.462390
v 0.049008 0.447248 0.462390
v -0.015120 0.408424 0.462390
v 0.015153 0.408424 0.462390
v 0.015153 0.322421 0.462390
v -0.015120 0.322421 0.462390
v -0.034742 0.482022 0.462390
v 0.034776 0.482022 0.462390
v 0.320728 0.412244 0.455208
v 0.000017 0.418528 0.455208
v -0.320695 0.412299 0.455208
v -0.320695 0.411881 -0.477026
v 0.000017 0.418528 -0.477026
v 0.320728 0.412299 -0.477026
v 0.251603 0.475952 0.455208
v 0.000408 0.482504 0.455208
v -0.250787 0.475986 0.455208
v -0.251572 0.475952 -0.477026
v -0.000378 0.482504 -0.477026
v 0.250816 0.475987 -0.477026
v -0.249375 0.472461 -0.419649
v -0.000389 0.481053 -0.419649
v 0.248598 0.472509 -0.419649
v -0.256255 0.710971 -0.324075
v -0.000058 0.728665 -0.324075
v 0.256138 0.710988 -0.324075
v 0.256288 0.710971 0.302256
v 0.000091 0.728665 0.302256
v -0.256106 0.710988 0.302256
v -0.262276 0.863109 -0.113655
v 0.000010 0.888259 -0.113655
v 0.262297 0.863109 -0.113655
v 0.262309 0.863109 0.091836
v 0.000023 0.888259 0.091836
v -0.262263 0.863109 0.091836
v 0.249407 0.472461 0.397831
v 0.000419 0.481053 0.397831
v -0.248570 0.472509 0.397831
v 0.266776 0.734923 0.285142
v 0.000088 0.754930 0.285142
v -0.266601 0.734940 0.285142
v 0.271339 0.859644 0.121354
v 0.000031 0.885933 0.121354
v -0.271277 0.859647 0.121354
v 0.259971 0.501121 0.395086
v 0.000420 0.511384 0.395086
v -0.259131 0.501176 0.395086
v 0.265373 0.692510 0.328609
v 0.000149 0.710235 0.328609
v -0.265075 0.692540 0.328609
v -0.259939 0.501121 -0.416905
v -0.000390 0.511384 -0.416905
v 0.259159 0.501176 -0.416905
v -0.265340 0.692510 -0.350427
v -0.000117 0.710235 -0.350427
v 0.265106 0.692540 -0.350427
v -0.271937 0.873475 -0.089616
v 0.000012 0.900334 -0.089616
v 0.271962 0.873475 -0.089616
v 0.271971 0.873475 0.067798
v 0.000021 0.900334 0.067798
v -0.271928 0.873475 0.067798
v -0.266744 0.734923 -0.306961
v -0.000055 0.754930 -0.306961
v 0.266633 0.734940 -0.306961
v -0.271305 0.859644 -0.143173
v 0.000002 0.885933 -0.143173
v 0.271310 0.859647 -0.143173
v -0.559631 0.410947 0.395782
v -0.559631 0.410947 -0.417600
v 0.559663 0.410947 -0.417600
v 0.559663 0.410947 0.395782
v 0.279840 0.412321 0.395782
v 0.000016 0.417804 0.395782
v -0.279807 0.412369 0.395782
v -0.279807 0.412004 -0.417600
v 0.000016 0.417804 -0.417600
v 0.279840 0.412369 -0.417600
v -0.559631 0.660495 0.290667
v -0.559631 0.660495 -0.312485
v 0.559663 0.660495 -0.312485
v 0.559663 0.660495 0.290667
v 0.279840 0.661868 0.290667
v 0.000016 0.667351 0.290667
v -0.279807 0.661916 0.290667
v -0.279807 0.661551 -0.312485
v 0.000016 0.667351 -0.312485
v 0.279840 0.661916 -0.312485
v -0.559631 0.804401 0.091491
v -0.559631 0.804401 -0.113310
v 0.559663 0.804401 -0.113310
v 0.559663 0.804401 0.091491
v 0.279840 0.805774 0.091491
v 0.000016 0.811257 0.091491
v -0.279807 0.805822 0.091491
v -0.279807 0.805457 -0.113310
v 0.000016 0.811257 -0.113310
v 0.279840 0.805822 -0.113310
v 0.000016 0.493740 -0.385614
v 0.279840 0.488306 -0.385614
v 0.000016 0.493740 0.363795
v -0.279807 0.488306 0.363795
v -0.559631 0.486884 0.363795
v -0.559631 0.486884 -0.385614
v -0.279807 0.487941 -0.385614
v 0.559663 0.486884 0.363795
v 0.279840 0.488257 0.363795
v 0.559663 0.486884 -0.385614
vn -0.4109 -0.0212 -0.9114
vn 0.0440 0.9929 -0.1110
vn 0.1787 -0.9041 -0.3881
vn -0.9860 0.1669 -0.0000
vn 0.1602 0.9871 -0.0000
vn -0.9968 0.0370 0.0707
vn 0.1727 -0.9850 -0.0000
vn 0.9860 0.1669 -0.0000
vn -0.9962 0.0532 -0.0685
vn 0.9919 0.1058 -0.0706
vn 0.9968 0.0370 -0.0707
vn 0.4109 -0.0212 -0.9114
vn -0.1727 -0.9850 -0.0000
vn -0.9966 -0.0720 0.0408
vn 0.9964 -0.0825 -0.0171
vn 0.9964 -0.0825 0.0171
vn -0.9964 -0.0825 0.0171
vn -0.9964 -0.0825 -0.0171
vn -0.9963 -0.0859 -0.0000
vn 0.9963 -0.0859 -0.0000
vn 0.9971 -0.0743 -0.0147
vn -0.9971 -0.0743 -0.0147
vn -0.9971 -0.0743 0.0147
vn 0.9971 -0.0743 0.0147
vn -0.9966 -0.0720 -0.0408
vn 0.9966 -0.0720 -0.0408
vn 0.9966 -0.0720 0.0408
vn 0.9904 -0.1386 -0.0000
vn -0.9904 -0.1386 -0.0000
vn 0.9994 -0.0349 -0.0000
vn -0.9994 -0.0349 -0.0000
vn 0.9993 -0.0361 -0.0000
vn -0.9993 -0.0361 -0.0000
vn -0.1602 0.9871 -0.0000
vn -0.1787 -0.9041 -0.3881
vn 0.3484 -0.4370 0.8293
vn -0.1787 -0.9041 0.3881
vn 0.3484 -0.4370 -0.8293
vn 0.1787 -0.9041 0.3881
vn -0.3484 -0.4370 -0.8293
vn -0.4109 -0.0212 0.9114
vn -0.3484 -0.4370 0.8293
vn 0.4109 -0.0211 0.9114
vn -0.0000 -0.0000 1.0000
vn 0.0124 0.4825 -0.8758
vn 0.0124 0.4825 0.8758
vn -0.0124 0.4825 0.8758
vn -0.0124 0.4825 -0.8758
vn -0.0843 0.9964 -0.0000
vn 0.0843 0.9964 -0.0000
vn 0.0566 0.8405 0.5388
vn -0.0566 0.8405 0.5388
vn -0.0566 0.8405 -0.5388
vn 0.0566 0.8405 -0.5388
vn -0.0000 -0.0000 -1.0000
vn 0.1243 0.7982 0.5894
vn 0.0317 0.3396 0.9400
vn -0.0317 0.3396 -0.9400
vn -0.1685 0.9857 -0.0000
vn -0.1243 0.7982 -0.5894
vn -0.9766 0.2007 0.0778
vn 0.9962 0.0532 0.0685
vn -0.0440 0.9928 0.1110
vn 0.9763 0.2017 0.0781
vn -0.9913 0.1095 -0.0737
vn 0.9766 0.2007 -0.0778
vn -0.9919 0.1058 0.0706
vn -0.9763 0.2017 -0.0781
vn 0.9913 0.1095 0.0736
vn 0.0774 0.5700 0.8180
vn 0.4671 -0.7426 -0.4799
vn -0.1708 0.9839 0.0519
vn -0.4673 -0.7427 -0.4796
vn 0.0055 0.0959 0.9954
vn 0.0057 0.0963 0.9953
vn 0.0036 0.0925 0.9957
vn 0.5409 -0.3496 -0.7650
vn -0.1084 0.8490 0.5172
vn -0.5421 -0.3508 -0.7636
vn -0.0055 0.0959 -0.9954
vn -0.0057 0.0963 -0.9953
vn -0.0036 0.0925 -0.9957
vn -0.5409 -0.3496 0.7650
vn 0.1084 0.8490 -0.5172
vn 0.5421 -0.3508 0.7636
vn -0.1514 0.8760 -0.4579
vn -0.4505 -0.8928 -0.0000
vn 0.1514 0.8760 0.4579
vn 0.4505 -0.8928 -0.0000
vn -0.0774 0.5700 -0.8180
vn -0.4671 -0.7426 0.4799
vn 0.1708 0.9839 -0.0519
vn 0.4673 -0.7427 0.4796
vn 0.8001 -0.5999 -0.0000
vn 0.2526 0.4201 -0.8716
vn 0.8422 0.5391 -0.0000
vn 0.2526 0.4201 0.8716
vn -0.8001 -0.5999 -0.0000
vn -0.2526 0.4201 0.8716
vn -0.8422 0.5391 -0.0000
vn -0.2526 0.4201 -0.8716
vn 0.8365 -0.5480 -0.0000
vn 0.8111 0.5346 -0.2374
vn 0.8514 0.5246 -0.0000
vn 0.8111 0.5346 0.2374
vn -0.8365 -0.5480 -0.0000
vn -0.8111 0.5346 0.2374
vn -0.8514 0.5246 -0.0000
vn -0.8111 0.5346 -0.2374
vn -1.0000 -0.0000 -0.0000
vn 1.0000 -0.0000 -0.0000
vn -0.0000 -1.0000 -0.0000
vn -0.0000 1.0000 -0.0000
vn -0.9255 -0.3788 -0.0000
vn -0.7537 0.6572 -0.0000
vn 0.9255 -0.3788 -0.0000
vn 0.7537 0.6572 -0.0000
vn -0.1708 0.9839 -0.0519
vn -0.0956 0.9920 -0.0827
vn 0.0956 0.9920 -0.0827
vn 0.0774 0.5700 -0.8180
vn 0.0401 0.5570 -0.8295
vn -0.0402 0.5570 -0.8295
vn -0.1514 0.8760 0.4579
vn -0.0872 0.8959 0.4357
vn 0.0872 0.8959 0.4357
vn 0.1514 0.8760 -0.4579
vn 0.0872 0.8959 -0.4357
vn -0.0872 0.8959 -0.4357
vn -0.1084 0.8490 -0.5171
vn -0.0559 0.8225 -0.5660
vn 0.0558 0.8225 -0.5660
vn 0.0057 0.0963 -0.9953
vn 0.0055 0.0959 -0.9954
vn 0.0036 0.0924 -0.9957
vn -0.0000 0.0920 -0.9958
vn 0.1084 0.8490 0.5171
vn 0.0559 0.8225 0.5660
vn -0.0558 0.8225 0.5660
vn -0.0057 0.0963 0.9953
vn -0.0055 0.0959 0.9954
vn -0.0036 0.0925 0.9957
vn -0.0000 0.0920 0.9958
vn 0.1708 0.9839 0.0519
vn 0.0956 0.9920 0.0827
vn -0.0956 0.9920 0.0827
vn -0.0774 0.5700 0.8180
vn -0.0401 0.5570 0.8295
vn 0.0402 0.5570 0.8295
vn 0.0441 0.9929 0.1107
vn 0.0301 0.9986 0.0435
vn -0.0302 0.9986 0.0436
vn 0.1243 0.7982 -0.5894
vn 0.0676 0.7860 -0.6145
vn -0.0676 0.7860 -0.6145
vn 0.1685 0.9857 -0.0000
vn 0.0983 0.9952 -0.0000
vn -0.0983 0.9952 -0.0000
vn 0.0317 0.3395 -0.9401
vn 0.0171 0.3222 -0.9465
vn -0.0172 0.3222 -0.9465
vn -0.0317 0.3395 0.9401
vn -0.0171 0.3222 0.9465
vn 0.0172 0.3222 0.9465
vn -0.1243 0.7982 0.5894
vn -0.0676 0.7860 0.6145
vn 0.0676 0.7860 0.6145
vn -0.0441 0.9929 -0.1107
vn -0.0301 0.9986 -0.0435
vn 0.0302 0.9986 -0.0436
vn 0.0207 -0.9997 -0.0122
vn -0.0049 -1.0000 -0.0021
vn -0.0048 -1.0000 0.0019
vn -0.0042 -1.0000 0.0011
vn -0.0043 -1.0000 -0.0012
vn -0.0196 -0.9997 0.0122
vn -0.0194 -0.9997 -0.0122
vn -0.0051 -1.0000 -0.0023
vn 0.0194 -0.9997 0.0122
vn 0.0049 -1.0000 0.0021
vn 0.0035 -1.0000 -0.0002
vn 0.0036 -1.0000 -0.0003
vn 0.0043 -1.0000 0.0012
vn 0.0038 -1.0000 -0.0005
vn 0.0051 -1.0000 0.0023
vn -0.0049 -1.0000 0.0021
vn -0.0075 -0.3882 0.9216
vn -0.0048 -0.3882 0.9216
vn 0.0075 -0.3882 -0.9216
vn 0.0048 -0.3882 -0.9216
vn 0.0020 -0.3882 -0.9216
vn 0.0015 -0.3882 0.9216
vn 0.0048 -0.3882 0.9216
vn -0.0019 -0.3882 -0.9216
vn -0.0048 -0.3882 -0.9216
vn 0.0080 -0.3882 0.9215
vn -0.0076 -0.3882 -0.9216
vn -0.0020 -0.3882 0.9216
vn 0.0157 -0.8105 -0.5856
vn 0.0099 -0.8105 -0.5856
vn 0.0100 -0.8105 -0.5856
vn 0.0041 -0.8106 -0.5856
vn 0.0031 -0.8106 0.5856
vn 0.0099 -0.8105 0.5856
vn 0.0100 -0.8105 0.5856
vn -0.0040 -0.8106 -0.5856
vn -0.0099 -0.8105 -0.5856
vn -0.0100 -0.8105 -0.5856
vn 0.0168 -0.8105 0.5856
vn -0.0159 -0.8105 -0.5856
vn -0.0099 -0.8105 0.5856
vn -0.0041 -0.8106 0.5856
vn -0.0100 -0.8105 0.5856
vn -0.0157 -0.8105 0.5856
vn -0.0050 -1.0000 -0.0001
vn -0.0195 -0.9998 -0.0001
vn 0.0201 -0.9998 0.0009
vn 0.0044 -1.0000 0.0009
vn -0.0047 -0.3882 0.9216
vn -0.0047 -0.3882 -0.9216
vn 0.0047 -0.3882 0.9216
vn 0.0047 -0.3882 -0.9216
vt 0.611580 0.022397
vt 0.625000 0.023230
vt 0.612165 0.818449
vt 0.612165 0.761898
vt 0.625000 0.666467
vt 0.625000 0.706331
vt 0.625000 0.761898
vt 0.625000 0.488102
vt 0.611580 0.727603
vt 0.611580 0.522397
vt 0.625000 0.583533
vt 0.863102 0.500000
vt 0.863102 0.750000
vt 0.612165 0.488102
vt 0.612165 0.488102
vt 0.625000 0.261898
vt 0.612165 0.261898
vt 0.612165 0.261898
vt 0.620201 0.727603
vt 0.611580 0.727603
vt 0.625000 0.083533
vt 0.625000 0.166467
vt 0.583273 0.000000
vt 0.625000 0.000000
vt 0.625000 0.543669
vt 0.620201 0.522397
vt 0.625000 0.500000
vt 0.625000 0.750000
vt 0.625000 0.043669
vt 0.620201 0.227603
vt 0.625000 0.206331
vt 0.625000 0.250000
vt 0.611580 0.227603
vt 0.583273 0.250000
vt 0.583273 0.500000
vt 0.583273 0.750000
vt 0.612700 0.720415
vt 0.612700 0.529585
vt 0.623880 0.547501
vt 0.623880 0.702499
vt 0.612700 0.220415
vt 0.612700 0.029585
vt 0.623880 0.047501
vt 0.623880 0.202499
vt 0.625000 0.685553
vt 0.625000 0.564447
vt 0.625000 0.593558
vt 0.625000 0.656442
vt 0.625000 0.185553
vt 0.625000 0.064447
vt 0.625000 0.093558
vt 0.625000 0.156442
vt 0.611580 0.227603
vt 0.612165 0.988102
vt 0.625000 0.988102
vt 0.625000 1.000000
vt 0.583273 1.000000
vt 0.875000 0.500000
vt 0.875000 0.750000
vt 0.612165 0.931551
vt 0.583273 0.937500
vt 0.612165 0.431551
vt 0.583273 0.437500
vt 0.625000 0.820935
vt 0.625000 0.766869
vt 0.625000 0.766869
vt 0.625000 0.820935
vt 0.613312 0.820935
vt 0.613312 0.766869
vt 0.623853 0.766870
vt 0.623853 0.820935
vt 0.613312 0.320935
vt 0.613312 0.266869
vt 0.623853 0.266869
vt 0.623853 0.320935
vt 0.800960 0.548254
vt 0.857869 0.549995
vt 0.857869 0.700006
vt 0.800960 0.701746
vt 0.625000 0.320935
vt 0.625000 0.266869
vt 0.625000 0.266869
vt 0.625000 0.320935
vt 0.612165 0.988102
vt 0.612165 0.318449
vt 0.612165 0.761898
vt 0.625000 0.818449
vt 0.625000 0.931551
vt 0.625000 0.983131
vt 0.625000 0.929065
vt 0.625000 0.983131
vt 0.612165 0.818449
vt 0.623853 0.983131
vt 0.623853 0.929065
vt 0.613312 0.983131
vt 0.612165 0.318449
vt 0.625000 0.431551
vt 0.623853 0.483131
vt 0.623853 0.429065
vt 0.613312 0.483130
vt 0.803577 0.497026
vt 0.684526 0.758923
vt 0.630233 0.706967
vt 0.687142 0.705226
vt 0.630233 0.543033
vt 0.625000 0.318449
vt 0.625000 0.483131
vt 0.625000 0.429065
vt 0.625000 0.483131
vt 0.541667 0.000000
vt 0.541667 0.250000
vt 0.541667 0.416667
vt 0.541667 0.500000
vt 0.625000 0.416667
vt 0.541667 0.750000
vt 0.541667 0.916667
vt 0.541667 1.000000
vt 0.625000 0.916667
vt 0.291667 0.500000
vt 0.291667 0.750000
vt 0.375000 0.750000
vt 0.375000 0.500000
vt 0.791667 0.500000
vt 0.791667 0.750000
vt 0.708333 0.750000
vt 0.708333 0.500000
vt 0.125000 0.500000
vt 0.125000 0.750000
vt 0.208333 0.750000
vt 0.208333 0.500000
vt 0.541667 0.833333
vt 0.625000 0.833333
vt 0.541667 0.333333
vt 0.625000 0.333333
vt 0.380103 0.398911
vt 0.380103 0.351089
vt 0.418938 0.398210
vt 0.416667 0.250000
vt 0.416667 0.333333
vt 0.458333 0.333333
vt 0.458333 0.250000
vt 0.416667 0.833333
vt 0.416667 0.916667
vt 0.458333 0.916667
vt 0.458333 0.833333
vt 0.416667 0.750000
vt 0.458333 0.750000
vt 0.416667 1.000000
vt 0.458333 1.000000
vt 0.416667 0.500000
vt 0.458333 0.500000
vt 0.416667 0.416667
vt 0.458333 0.416667
vt 0.416667 0.000000
vt 0.458333 0.000000
vt 0.375000 0.000000
vt 0.375000 0.250000
vt 0.375000 0.416667
vt 0.375000 0.916667
vt 0.375000 1.000000
vt 0.375000 0.833333
vt 0.375000 0.333333
vt 0.525373 0.406679
vt 0.459214 0.408259
vt 0.418938 0.351790
vt 0.525373 0.343321
vt 0.459214 0.341741
vt 0.625000 0.375000
vt 0.625000 0.375000
vt 0.803577 0.752974
vt 0.744051 0.755949
vt 0.744051 0.703486
vt 0.684526 0.491077
vt 0.687142 0.544774
vt 0.744051 0.494051
vt 0.744051 0.546514
vt 0.623853 0.375000
vt 0.612165 0.431551
vt 0.613312 0.429065
vt 0.612165 0.375000
vt 0.613312 0.375000
vt 0.625000 0.875000
vt 0.623853 0.875000
vt 0.612165 0.931551
vt 0.613312 0.929065
vt 0.612165 0.875000
vt 0.613312 0.875000
vt 0.625000 0.875000
vt 0.625000 0.929065
vt 0.612165 0.375000
vt 0.583273 0.312500
vt 0.583273 0.375000
vt 0.583273 0.812500
vt 0.612165 0.875000
vt 0.583273 0.875000
vt 0.583273 0.875000
s 1
usemtl light_grey.007
f 13/1/1 1/2/1 33/1/1
f 171/3/2 32/4/2 72/4/2 192/3/2
f 12/5/3 21/6/3 37/6/3 41/5/3
f 29/7/4 56/8/4 69/8/4 70/7/4
f 16/9/5 15/10/5 43/10/5 44/9/5
f 32/4/6 50/7/6 72/4/6
f 11/11/7 12/5/7 41/5/7 40/11/7
f 27/12/8 26/13/8 71/13/8 68/12/8
f 47/8/9 31/14/9 62/15/9
f 53/16/10 52/16/10 64/16/10 61/17/10
f 30/18/11 53/16/11 61/18/11
f 22/19/12 16/9/12 44/20/12
f 9/21/13 10/22/13 39/22/13 38/21/13
f 1/2/14 13/1/14 45/23/14 46/24/14
f 7/25/15 4/26/15 19/27/15 20/27/15
f 22/19/16 21/6/16 8/28/16 3/28/16
f 23/29/17 1/2/17 46/24/17 5/24/17
f 25/30/18 24/31/18 6/32/18 2/32/18
f 10/22/19 9/21/19 54/24/19 55/32/19
f 12/5/20 11/11/20 28/27/20 57/28/20
f 21/6/21 12/5/21 57/28/21 8/28/21
f 9/21/22 23/29/22 5/24/22 54/24/22
f 24/31/23 10/22/23 55/32/23 6/32/23
f 11/11/24 7/25/24 20/27/24 28/27/24
f 14/33/25 25/30/25 2/32/25 58/34/25
f 4/26/26 15/10/26 59/35/26 19/27/26
f 16/9/27 22/19/27 3/28/27 60/36/27
f 15/10/28 16/9/28 60/36/28 59/35/28
f 13/1/29 14/33/29 58/34/29 45/23/29
f 14/33/34 13/1/34 33/1/34 42/33/34
f 23/29/35 9/21/35 38/21/35 34/29/35
f 4/26/36 7/25/36 36/25/36 43/10/36
f 10/22/37 24/31/37 35/31/37 39/22/37
f 21/6/38 22/19/38 44/20/38 37/6/38
f 7/25/39 11/11/39 40/11/39 36/25/39
f 1/2/40 23/29/40 34/29/40 33/1/40
f 25/30/41 14/33/41 42/53/41
f 24/31/42 25/30/42 42/53/42 35/31/42
f 15/10/43 4/26/43 43/10/43
f 17/54/44 18/55/44 46/56/44 45/57/44
f 47/8/45 48/8/45 20/27/45 19/27/45
f 49/7/46 50/7/46 3/28/46 8/28/46
f 18/55/47 51/55/47 5/56/47 46/56/47
f 52/16/48 53/16/48 2/32/48 6/32/48
f 26/13/49 27/12/49 55/58/49 54/59/49
f 56/8/50 29/7/50 57/28/50 28/27/50
f 29/7/51 49/7/51 8/28/51 57/28/51
f 51/55/52 26/55/52 54/56/52 5/56/52
f 27/16/53 52/16/53 6/32/53 55/32/53
f 48/8/54 56/8/54 28/27/54 20/27/54
f 53/16/55 30/18/55 58/34/55 2/32/55
f 31/14/55 47/8/55 19/27/55 59/35/55
f 50/7/44 32/4/44 60/36/44 3/28/44
f 173/60/44 17/54/44 45/57/44 167/61/44
f 176/62/55 31/14/55 59/35/55 170/63/55
f 49/7/61 29/7/61 70/7/61 66/7/61
f 18/55/62 17/54/62 63/84/62
f 174/85/63 30/18/63 61/18/63 177/85/63
f 26/55/64 51/55/64 67/55/64 71/55/64
f 48/8/65 47/8/65 62/15/65 65/8/65
f 52/16/66 27/16/66 68/16/66 64/16/66
f 50/7/67 49/7/67 66/7/67 72/86/67
f 56/8/68 48/8/68 65/8/68 69/8/68
f 51/55/69 18/55/69 63/84/69 67/55/69
f 68/12/87 71/13/87 87/78/87 86/77/87
f 70/7/89 69/8/89 85/105/89 88/103/89
f 126/110/110 127/111/110 112/32/110 110/24/110
f 155/112/44 129/113/44 116/27/44 120/114/44
f 129/113/111 131/115/111 114/28/111 116/27/111
f 135/116/55 126/117/55 110/56/55 124/118/55
f 149/119/112 122/120/112 113/121/112 115/122/112
f 119/123/113 124/124/113 110/59/113 112/58/113
f 116/27/113 114/28/113 123/125/113 120/126/113
f 120/126/113 123/125/113 124/124/113 119/123/113
f 111/127/112 109/128/112 121/129/112 150/130/112
f 150/130/112 121/129/112 122/120/112 149/119/112
f 131/115/55 133/131/55 123/132/55 114/28/55
f 133/131/55 135/116/55 124/118/55 123/132/55
f 127/111/44 153/133/44 119/134/44 112/32/44
f 153/133/44 155/112/44 120/114/44 119/134/44
f 117/135/113 161/135/113 162/136/113 118/136/113
f 147/137/110 160/137/110 161/135/110 117/135/110
f 141/138/44 151/139/44 154/140/44 128/141/44
f 128/141/44 154/140/44 153/133/44 127/111/44
f 144/142/55 145/143/55 136/144/55 134/145/55
f 134/145/55 136/144/55 135/116/55 133/131/55
f 143/146/55 144/142/55 134/145/55 132/147/55
f 132/147/55 134/145/55 133/131/55 131/115/55
f 145/143/55 148/148/55 125/149/55 136/144/55
f 136/144/55 125/149/55 126/117/55 135/116/55
f 142/150/111 143/146/111 132/147/111 130/151/111
f 130/151/111 132/147/111 131/115/111 129/113/111
f 152/152/44 142/150/44 130/151/44 156/153/44
f 156/153/44 130/151/44 129/113/44 155/112/44
f 148/154/110 141/138/110 128/141/110 125/155/110
f 125/155/110 128/141/110 127/111/110 126/110/110
f 109/156/110 111/157/110 141/138/110 148/154/110
f 149/158/44 115/122/44 142/150/44 152/152/44
f 115/122/111 113/121/111 143/146/111 142/150/111
f 121/159/55 109/160/55 148/148/55 145/143/55
f 113/121/55 122/161/55 144/142/55 143/146/55
f 122/161/55 121/159/55 145/143/55 144/142/55
f 111/157/44 150/162/44 151/139/44 141/138/44
f 139/163/114 164/163/114 158/164/114 140/164/114
f 118/136/44 150/162/44 149/158/44 117/135/44
f 146/165/44 151/139/44 150/162/44 118/136/44
f 117/135/44 149/158/44 152/152/44 147/137/44
f 137/166/44 153/133/44 154/140/44 138/167/44
f 140/164/44 156/153/44 155/112/44 139/163/44
f 139/163/44 155/112/44 153/133/44 137/166/44
f 138/167/44 154/140/44 151/139/44 146/165/44
f 147/137/44 152/152/44 156/153/44 140/164/44
f 140/164/115 158/164/115 160/137/115 147/137/115
f 137/166/112 163/166/112 164/163/112 139/163/112
f 138/167/116 157/167/116 163/166/116 137/166/116
f 118/136/111 162/136/111 159/165/111 146/165/111
f 146/165/117 159/165/117 157/167/117 138/167/117
f 31/14/150 176/62/150 179/62/150 62/14/150
f 176/62/151 175/190/151 178/190/151 179/62/151
f 175/190/152 174/85/152 177/85/152 178/190/152
f 30/18/55 174/85/55 168/191/55 58/34/55
f 174/85/55 175/190/55 169/192/55 168/191/55
f 175/190/55 176/62/55 170/63/55 169/192/55
f 32/4/44 171/3/44 165/193/44 60/36/44
f 171/3/44 172/194/44 166/195/44 165/193/44
f 172/194/44 173/60/44 167/61/44 166/195/44
f 17/54/168 173/60/168 194/60/168 63/54/168
f 173/60/169 172/194/169 193/194/169 194/60/169
f 172/194/170 171/3/170 192/3/170 193/194/170
f 168/191/171 169/192/171 233/192/171 232/191/171
f 59/35/172 60/36/173 228/36/174 227/35/175
f 165/193/176 166/195/176 230/195/176 229/193/176
f 169/192/177 170/63/177 234/63/177 233/192/177
f 170/63/178 59/35/172 227/35/175 234/63/178
f 166/195/179 167/61/179 231/61/179 230/195/179
f 45/23/180 58/34/181 226/34/182 225/23/183
f 58/34/181 168/191/184 232/191/184 226/34/182
f 167/61/185 45/57/180 225/57/183 231/61/185
f 60/36/173 165/193/186 229/193/186 228/36/174
f 234/63/219 227/35/198 264/35/198 256/63/188
f 229/193/220 230/195/197 257/196/197 263/193/195
f 232/191/221 233/192/196 255/192/196 261/191/193
f 227/35/110 228/36/110 262/36/110 264/35/110
f 228/36/194 229/193/220 263/193/195 262/36/194
f 226/34/192 232/191/221 261/191/193 260/34/192
f 231/61/222 225/57/191 259/57/191 258/61/190
f 225/23/111 226/34/111 260/34/111 259/23/111
f 230/195/189 231/61/222 258/61/190 257/196/189
f 233/192/187 234/63/219 256/63/188 255/192/187
usemtl light_brown.007
f 93/37/30 94/38/30 95/39/30 96/40/30
f 97/41/31 98/42/31 99/43/31 100/44/31
f 101/45/32 102/46/32 103/47/32 104/48/32
f 105/49/33 106/50/33 107/51/33 108/52/33
f 195/64/56 74/65/56 75/66/56 198/67/56
f 201/68/57 78/69/57 79/70/57 204/71/57
f 207/72/58 82/73/58 83/74/58 210/75/58
f 213/76/59 86/77/59 87/78/59 218/79/59
f 219/80/60 90/81/60 91/82/60 222/83/60
f 89/109/153 221/108/153 224/108/153 92/107/153
f 221/108/154 220/169/154 223/168/154 224/108/154
f 220/169/155 219/80/155 222/83/155 223/168/155
f 85/105/156 215/174/156 216/104/156 88/103/156
f 215/174/157 214/176/157 217/172/157 216/104/157
f 214/176/158 213/76/158 218/79/158 217/172/158
f 81/100/159 209/179/159 212/99/159 84/98/159
f 209/179/160 208/181/160 211/177/160 212/99/160
f 208/181/161 207/72/161 210/75/161 211/177/161
f 77/95/162 203/185/162 206/94/162 80/93/162
f 203/185/163 202/187/163 205/183/163 206/94/163
f 202/187/164 201/68/164 204/71/164 205/183/164
f 73/91/165 197/189/165 200/90/165 76/89/165
f 197/189/166 196/182/166 199/188/166 200/90/166
f 196/182/167 195/64/167 198/67/167 199/188/167
f 255/192/187 256/63/188 244/63/188 243/192/187
f 257/196/189 258/61/190 241/61/190 240/195/189
f 259/23/111 260/34/111 236/34/111 235/23/111
f 258/61/190 259/57/191 235/57/191 241/61/190
f 260/34/192 261/191/193 242/191/193 236/34/192
f 262/36/194 263/193/195 239/193/195 238/36/194
f 264/35/110 262/36/110 238/36/110 237/35/110
f 261/191/193 255/192/196 243/192/196 242/191/193
f 263/193/195 257/196/197 240/195/197 239/193/195
f 256/63/188 264/35/198 237/35/198 244/63/188
f 240/195/199 241/61/200 251/61/201 250/195/199
f 235/23/111 236/34/111 246/34/111 245/23/111
f 241/61/200 235/57/202 245/57/202 251/61/201
f 236/34/203 242/191/204 252/191/205 246/34/203
f 238/36/206 239/193/207 249/193/208 248/36/206
f 237/35/110 238/36/110 248/36/110 247/35/110
f 242/191/204 243/192/209 253/192/209 252/191/205
f 239/193/207 240/195/210 250/195/210 249/193/208
f 244/63/211 237/35/212 247/35/212 254/63/213
f 243/192/214 244/63/211 254/63/213 253/192/214
f 248/36/215 249/193/215 254/63/215 247/35/215
f 249/193/216 250/195/216 253/192/216 254/63/216
f 250/195/217 251/61/217 252/191/217 253/192/217
f 251/61/218 245/23/218 246/34/218 252/191/218
usemtl dark_brown.007
f 183/87/70 66/7/70 74/65/70 195/64/70
f 66/7/71 70/7/71 75/66/71 74/65/71
f 191/88/72 71/55/72 76/89/72 200/90/72
f 71/55/73 67/55/73 73/91/73 76/89/73
f 192/92/74 72/86/75 78/69/75 201/68/76
f 72/86/77 66/7/77 79/70/77 78/69/77
f 185/88/78 67/55/78 80/93/78 206/94/78
f 67/55/79 63/84/79 77/95/79 80/93/79
f 177/96/80 61/17/81 82/73/81 207/72/82
f 61/17/83 64/16/83 83/74/83 82/73/83
f 182/97/84 65/8/84 84/98/84 212/99/84
f 65/8/85 62/15/85 81/100/85 84/98/85
f 186/101/86 68/12/86 86/77/86 213/76/86
f 189/102/88 70/7/88 88/103/88 216/104/88
f 180/106/90 64/16/90 90/81/90 219/80/90
f 64/16/91 68/16/91 91/82/91 90/81/91
f 188/97/92 69/8/92 92/107/92 224/108/92
f 69/8/93 65/8/93 89/109/93 92/107/93
f 44/20/94 43/10/94 94/38/94 93/37/94
f 43/10/95 36/25/95 95/39/95 94/38/95
f 36/25/96 37/6/96 96/40/96 95/39/96
f 37/6/97 44/20/97 93/37/97 96/40/97
f 42/53/98 33/1/98 98/42/98 97/41/98
f 33/1/99 34/29/99 99/43/99 98/42/99
f 34/29/100 35/31/100 100/44/100 99/43/100
f 35/31/101 42/53/101 97/41/101 100/44/101
f 37/6/102 36/25/102 102/46/102 101/45/102
f 36/25/103 40/11/103 103/47/103 102/46/103
f 40/11/104 41/5/104 104/48/104 103/47/104
f 41/5/105 37/6/105 101/45/105 104/48/105
f 35/31/106 34/29/106 106/50/106 105/49/106
f 34/29/107 38/21/107 107/51/107 106/50/107
f 38/21/108 39/22/108 108/52/108 107/51/108
f 39/22/109 35/31/109 105/49/109 108/52/109
f 68/16/118 186/106/118 222/83/118 91/82/118
f 186/106/119 187/168/119 223/168/119 222/83/119
f 187/168/120 188/97/120 224/108/120 223/168/120
f 65/8/121 182/97/121 221/108/121 89/109/121
f 182/97/122 181/168/122 220/169/122 221/108/122
f 181/168/123 180/106/123 219/80/123 220/169/123
f 71/13/124 191/170/124 218/79/124 87/78/124
f 191/170/125 190/171/125 217/172/125 218/79/125
f 190/171/126 189/102/126 216/104/126 217/172/126
f 69/8/127 188/173/127 215/174/127 85/105/127
f 188/173/128 187/175/128 214/176/128 215/174/128
f 187/175/129 186/101/129 213/76/129 214/176/129
f 64/16/130 180/106/130 210/75/130 83/74/130
f 180/106/131 181/168/131 211/177/131 210/75/131
f 181/168/132 182/97/132 212/99/132 211/177/132
f 62/15/133 179/178/134 209/179/135 81/100/133
f 179/178/134 178/180/136 208/181/136 209/179/135
f 178/180/136 177/96/80 207/72/82 208/181/136
f 66/7/137 183/87/137 204/71/137 79/70/137
f 183/87/138 184/182/138 205/183/138 204/71/138
f 184/182/139 185/88/139 206/94/139 205/183/139
f 63/84/140 194/184/141 203/185/142 77/95/140
f 194/184/141 193/186/143 202/187/143 203/185/142
f 193/186/143 192/92/74 201/68/76 202/187/143
f 70/7/144 189/87/144 198/67/144 75/66/144
f 189/87/145 190/182/145 199/188/145 198/67/145
f 190/182/146 191/88/146 200/90/146 199/188/146
f 67/55/147 185/88/147 197/189/147 73/91/147
f 185/88/148 184/182/148 196/182/148 197/189/148
f 184/182/149 183/87/149 195/64/149 196/182/149
usemtl black.018
f 159/165/44 160/137/44 158/164/44 157/167/44
f 157/167/44 158/164/44 164/163/44 163/166/44
f 162/136/44 161/135/44 160/137/44 159/165/44
