# Blender 5.2.1 LTS
# www.blender.org
mtllib LuminousOrb.mtl
o EXPORT_LuminousOrb
v 0.000000 0.000000 0.000000
v 0.130248 0.099501 0.094630
v -0.049749 0.099501 0.153115
v -0.160996 0.099501 0.000000
v -0.049749 0.099501 -0.153115
v 0.130248 0.099501 -0.094630
v 0.049749 0.260499 0.153115
v -0.130248 0.260499 0.094630
v -0.130248 0.260499 -0.094630
v 0.049749 0.260499 -0.153115
v 0.160996 0.260499 0.000000
v 0.000000 0.360000 0.000000
v 0.000000 0.090000 0.000000
v 0.065124 0.139751 0.047315
v -0.024875 0.139751 0.076558
v -0.080498 0.139751 0.000000
v -0.024875 0.139751 -0.076558
v 0.065124 0.139751 -0.047315
v 0.024875 0.220249 0.076558
v -0.065124 0.220249 0.047315
v -0.065124 0.220249 -0.047315
v 0.024875 0.220249 -0.076558
v 0.080498 0.220249 0.000000
v 0.000000 0.270000 0.000000
vn 0.1876 -0.7947 0.5774
vn 0.6071 -0.7947 -0.0000
vn -0.4911 -0.7947 0.3568
vn -0.4911 -0.7947 -0.3568
vn 0.1876 -0.7947 -0.5774
vn 0.9822 -0.1876 -0.0000
vn 0.3035 -0.1876 0.9342
vn -0.7946 -0.1876 0.5774
vn -0.7946 -0.1876 -0.5774
vn 0.3035 -0.1876 -0.9342
vn 0.7946 0.1876 0.5774
vn -0.3035 0.1876 0.9342
vn -0.9822 0.1876 -0.0000
vn -0.3035 0.1876 -0.9342
vn 0.7946 0.1876 -0.5774
vn 0.4911 0.7947 0.3568
vn -0.1876 0.7947 0.5774
vn -0.6071 0.7947 -0.0000
vn -0.1876 0.7947 -0.5774
vn 0.4911 0.7947 -0.3568
s 0
usemtl yellow
f 1//1 2//1 3//1
f 2//2 1//2 6//2
f 1//3 3//3 4//3
f 1//4 4//4 5//4
f 1//5 5//5 6//5
f 2//6 6//6 11//6
f 3//7 2//7 7//7
f 4//8 3//8 8//8
f 5//9 4//9 9//9
f 6//10 5//10 10//10
f 2//11 11//11 7//11
f 3//12 7//12 8//12
f 4//13 8//13 9//13
f 5//14 9//14 10//14
f 6//15 10//15 11//15
f 7//16 11//16 12//16
f 8//17 7//17 12//17
f 9//18 8//18 12//18
f 10//19 9//19 12//19
f 11//20 10//20 12//20
f 13//1 14//1 15//1
f 14//2 13//2 18//2
f 13//3 15//3 16//3
f 13//4 16//4 17//4
f 13//5 17//5 18//5
f 14//6 18//6 23//6
f 15//7 14//7 19//7
f 16//8 15//8 20//8
f 17//9 16//9 21//9
f 18//10 17//10 22//10
f 14//11 23//11 19//11
f 15//12 19//12 20//12
f 16//13 20//13 21//13
f 17//14 21//14 22//14
f 18//15 22//15 23//15
f 19//16 23//16 24//16
f 20//17 19//17 24//17
f 21//18 20//18 24//18
f 22//19 21//19 24//19
f 23//20 22//20 24//20
