# Blender 5.2.1 LTS
# www.blender.org
mtllib Pedestal.mtl
o EXPORT_Pedestal
v -0.320000 0.000000 0.320000
v -0.320000 0.080000 0.320000
v -0.320000 0.000000 -0.320000
v -0.320000 0.080000 -0.320000
v 0.320000 0.000000 0.320000
v 0.320000 0.080000 0.320000
v 0.320000 0.000000 -0.320000
v 0.320000 0.080000 -0.320000
v -0.270000 0.006400 0.270000
v -0.270000 0.086400 0.270000
v -0.270000 0.006400 -0.270000
v -0.270000 0.086400 -0.270000
v 0.270000 0.006400 0.270000
v 0.270000 0.086400 0.270000
v 0.270000 0.006400 -0.270000
v 0.270000 0.086400 -0.270000
v -0.230000 0.103550 0.230000
v -0.230000 0.053550 0.230000
v 0.000000 0.196800 -0.220000
v 0.000000 0.856800 -0.190000
v 0.155563 0.196800 -0.155563
v 0.134350 0.856800 -0.134350
v 0.220000 0.196800 0.000000
v 0.190000 0.856800 0.000000
v 0.155563 0.196800 0.155563
v 0.134350 0.856800 0.134350
v 0.000000 0.196800 0.220000
v 0.000000 0.856800 0.190000
v -0.155563 0.196800 0.155563
v -0.134350 0.856800 0.134350
v -0.220000 0.196800 0.000000
v -0.190000 0.856800 0.000000
v -0.155563 0.196800 -0.155563
v -0.134350 0.856800 -0.134350
v -0.230000 0.053550 -0.230000
v -0.230000 0.103550 -0.230000
v 0.230000 0.053550 0.230000
v 0.230000 0.103550 0.230000
v 0.230000 0.053550 -0.230000
v 0.230000 0.103550 -0.230000
v -0.270000 0.077800 0.270000
v -0.270000 0.177800 0.270000
v -0.270000 0.077800 -0.270000
v -0.270000 0.177800 -0.270000
v 0.270000 0.077800 0.270000
v 0.270000 0.177800 0.270000
v 0.270000 0.077800 -0.270000
v 0.270000 0.177800 -0.270000
v -0.021600 0.075200 0.021600
v -0.021600 0.155200 0.021600
v -0.021600 0.075200 -0.058400
v -0.021600 0.155200 -0.058400
v 0.058400 0.075200 0.021600
v 0.058400 0.155200 0.021600
v 0.058400 0.075200 -0.058400
v 0.058400 0.155200 -0.058400
v -0.058400 0.075200 0.021600
v -0.058400 0.155200 0.021600
v -0.058400 0.075200 -0.058400
v -0.058400 0.155200 -0.058400
v 0.021600 0.075200 0.021600
v 0.021600 0.155200 0.021600
v 0.021600 0.075200 -0.058400
v 0.021600 0.155200 -0.058400
v -0.021600 0.075200 0.058400
v -0.021600 0.155200 0.058400
v -0.021600 0.075200 -0.021600
v -0.021600 0.155200 -0.021600
v 0.058400 0.075200 0.058400
v 0.058400 0.155200 0.058400
v 0.058400 0.075200 -0.021600
v 0.058400 0.155200 -0.021600
v -0.058400 0.075200 0.058400
v -0.058400 0.155200 0.058400
v -0.058400 0.075200 -0.021600
v -0.058400 0.155200 -0.021600
v 0.021600 0.075200 0.058400
v 0.021600 0.155200 0.058400
v 0.021600 0.075200 -0.021600
v 0.021600 0.155200 -0.021600
v 0.000000 0.936800 -0.200000
v 0.000000 1.016800 -0.080000
v 0.141421 0.936800 -0.141421
v 0.056569 1.016800 -0.056569
v 0.200000 0.936800 0.000000
v 0.080000 1.016800 0.000000
v 0.141421 0.936800 0.141421
v 0.056569 1.016800 0.056569
v 0.000000 0.936800 0.200000
v 0.000000 1.016800 0.080000
v -0.141421 0.936800 0.141421
v -0.056569 1.016800 0.056569
v -0.200000 0.936800 0.000000
v -0.080000 1.016800 0.000000
v -0.141421 0.936800 -0.141421
v -0.056569 1.016800 -0.056569
vn -1.0000 -0.0000 -0.0000
vn -0.0000 -0.0000 -1.0000
vn 1.0000 -0.0000 -0.0000
vn -0.0000 -0.0000 1.0000
vn -0.0000 -1.0000 -0.0000
vn -0.0000 1.0000 -0.0000
vn 0.3823 0.0420 -0.9231
vn 0.9231 0.0420 -0.3823
vn 0.9231 0.0420 0.3823
vn 0.3823 0.0420 0.9231
vn -0.3823 0.0420 0.9231
vn -0.9231 0.0420 0.3823
vn -0.9231 0.0420 -0.3823
vn -0.3823 0.0420 -0.9231
vn 0.2239 0.8109 -0.5406
vn 0.5406 0.8109 -0.2239
vn 0.5406 0.8109 0.2239
vn 0.2239 0.8109 0.5406
vn -0.2239 0.8109 0.5406
vn -0.5406 0.8109 0.2239
vn -0.5406 0.8109 -0.2239
vn -0.2239 0.8109 -0.5406
s 0
usemtl dark_grey
f 1//1 2//1 4//1 3//1
f 3//2 4//2 8//2 7//2
f 7//3 8//3 6//3 5//3
f 5//4 6//4 2//4 1//4
f 3//5 7//5 5//5 1//5
f 8//6 4//6 2//6 6//6
f 9//1 10//1 12//1 11//1
f 11//2 12//2 16//2 15//2
f 15//3 16//3 14//3 13//3
f 13//4 14//4 10//4 9//4
f 11//5 15//5 13//5 9//5
f 16//6 12//6 10//6 14//6
f 51//2 52//2 56//2 55//2
f 41//1 42//1 44//1 43//1
f 19//7 20//7 22//7 21//7
f 55//3 56//3 54//3 53//3
f 40//6 36//6 17//6 38//6
f 21//8 22//8 24//8 23//8
f 48//6 44//6 42//6 46//6
f 35//5 39//5 37//5 18//5
f 23//9 24//9 26//9 25//9
f 43//5 47//5 45//5 41//5
f 37//4 38//4 17//4 18//4
f 25//10 26//10 28//10 27//10
f 45//4 46//4 42//4 41//4
f 39//3 40//3 38//3 37//3
f 27//11 28//11 30//11 29//11
f 47//3 48//3 46//3 45//3
f 35//2 36//2 40//2 39//2
f 29//12 30//12 32//12 31//12
f 22//6 20//6 34//6 32//6 30//6 28//6 26//6 24//6
f 18//1 17//1 36//1 35//1
f 31//13 32//13 34//13 33//13
f 49//1 50//1 52//1 51//1
f 43//2 44//2 48//2 47//2
f 33//14 34//14 20//14 19//14
f 19//5 21//5 23//5 25//5 27//5 29//5 31//5 33//5
f 53//4 54//4 50//4 49//4
f 51//5 55//5 53//5 49//5
f 56//6 52//6 50//6 54//6
f 57//1 58//1 60//1 59//1
f 59//2 60//2 64//2 63//2
f 63//3 64//3 62//3 61//3
f 61//4 62//4 58//4 57//4
f 59//5 63//5 61//5 57//5
f 64//6 60//6 58//6 62//6
f 65//1 66//1 68//1 67//1
f 67//2 68//2 72//2 71//2
f 71//3 72//3 70//3 69//3
f 69//4 70//4 66//4 65//4
f 67//5 71//5 69//5 65//5
f 72//6 68//6 66//6 70//6
f 73//1 74//1 76//1 75//1
f 75//2 76//2 80//2 79//2
f 79//3 80//3 78//3 77//3
f 77//4 78//4 74//4 73//4
f 75//5 79//5 77//5 73//5
f 80//6 76//6 74//6 78//6
f 81//15 82//15 84//15 83//15
f 83//16 84//16 86//16 85//16
f 85//17 86//17 88//17 87//17
f 87//18 88//18 90//18 89//18
f 89//19 90//19 92//19 91//19
f 91//20 92//20 94//20 93//20
f 93//21 94//21 96//21 95//21
f 95//22 96//22 82//22 81//22
