# Blender 5.2.1 LTS
# www.blender.org
mtllib Prop_Debris.mtl
o EXPORT_Prop_Debris
v -0.735294 0.178188 0.969939
v 0.746881 0.178188 0.781057
v -0.716593 0.178188 -0.706886
v 0.924861 0.178188 -0.684802
v -0.586496 0.178188 0.986050
v -0.402976 0.178188 0.988801
v -0.162425 0.178188 0.976060
v 0.054574 0.178188 1.030420
v 0.243587 0.178188 1.053104
v 0.388592 0.178188 0.990924
v 0.542256 0.178188 0.876085
v 0.770369 0.178188 -0.780586
v 0.523608 0.178188 -0.839819
v 0.273675 0.178427 -0.891257
v 0.093142 0.178188 -0.959858
v -0.136310 0.178188 -1.051694
v -0.378933 0.178188 -1.053104
v -0.571430 0.178188 -0.877028
v -0.796038 0.178188 -0.484191
v -0.880502 0.178188 -0.325035
v -0.956854 0.178188 -0.183801
v -0.988877 0.178188 -0.047006
v -0.977258 0.186589 0.098867
v -1.052272 0.184629 0.339191
v -1.105294 0.178188 0.606971
v -0.920510 0.178188 0.814242
v 0.855544 0.178188 0.671818
v 0.948493 0.178188 0.546784
v 0.985894 0.178188 0.356453
v 0.985301 0.178188 0.134478
v 0.999344 0.178188 -0.048110
v 1.075522 0.178188 -0.198067
v 1.105294 0.178188 -0.354086
v 1.026196 0.178188 -0.517977
v -0.689474 0.183741 0.827423
v -0.903855 0.188535 0.659551
v -0.915818 0.214723 0.380073
v -0.814884 0.223332 0.107103
v -0.793670 0.193153 -0.053077
v -0.770290 0.178447 -0.187392
v -0.714812 0.178188 -0.343867
v -0.645971 0.178188 -0.572476
v -0.468978 0.183951 0.838310
v -0.525409 0.267623 0.562490
v -0.541540 0.356594 0.288845
v -0.511102 0.348145 0.081817
v -0.523674 0.284770 -0.064686
v -0.525820 0.227063 -0.223261
v -0.505125 0.187451 -0.455164
v -0.454693 0.178188 -0.790294
v -0.227430 0.184647 0.846933
v -0.241939 0.276667 0.611250
v -0.198679 0.414398 0.314926
v -0.190948 0.436521 0.091187
v -0.200554 0.425958 -0.096399
v -0.226637 0.362169 -0.304512
v -0.249999 0.213255 -0.621671
v -0.207699 0.178188 -0.910844
v 0.035489 0.197669 0.872192
v 0.029394 0.333059 0.628041
v 0.065979 0.428634 0.382639
v 0.121097 0.517060 0.092378
v 0.129799 0.534519 -0.122412
v 0.100579 0.474318 -0.326716
v 0.054696 0.292169 -0.585404
v 0.063450 0.196272 -0.814750
v 0.231520 0.216494 0.870581
v 0.260423 0.398767 0.592103
v 0.319585 0.404869 0.371910
v 0.378339 0.424659 0.112067
v 0.410654 0.389529 -0.123587
v 0.395976 0.341536 -0.319984
v 0.348316 0.257893 -0.534307
v 0.300190 0.198524 -0.735655
v 0.394846 0.224640 0.799375
v 0.452032 0.290885 0.583567
v 0.517488 0.280586 0.378441
v 0.566751 0.297195 0.119317
v 0.596573 0.255967 -0.101016
v 0.616541 0.205993 -0.287707
v 0.612512 0.178384 -0.499923
v 0.584628 0.178188 -0.697801
v 0.618739 0.178188 0.739580
v 0.717637 0.178397 0.581875
v 0.784280 0.180867 0.383775
v 0.806868 0.184938 0.146425
v 0.812547 0.181278 -0.067483
v 0.891162 0.178188 -0.238491
v 0.895666 0.178188 -0.420780
v 0.833943 0.178188 -0.616723
v -0.347287 0.389040 0.059228
v -0.379369 0.403962 0.021541
v -0.191343 0.361416 -0.031668
v -0.218893 0.355346 0.009928
v -0.309053 0.400458 0.058748
v -0.321071 0.413754 0.032652
v -0.192977 0.372642 -0.027018
v -0.224975 0.372572 0.022611
v -0.344180 0.351967 0.034033
v -0.238214 0.351146 0.011210
v -0.240561 0.350924 -0.128139
v -0.251186 0.350970 -0.147398
v -0.230805 0.404122 -0.074337
v -0.276679 0.418979 -0.053417
v -0.275611 0.376978 -0.174096
v -0.455381 0.388458 -0.108926
v -0.401041 0.352096 -0.135265
v -0.439541 0.352417 -0.113533
v -0.332515 0.385063 -0.177992
v -0.376355 0.400288 -0.155040
v 0.262122 0.458672 0.393875
v 0.219895 0.429456 0.387908
v 0.342986 0.380514 0.537735
v 0.338797 0.419497 0.506289
v 0.296650 0.442032 0.404982
v 0.276663 0.417510 0.403801
v 0.346365 0.376351 0.526709
v 0.343685 0.417729 0.484667
v 0.244209 0.466131 0.434400
v 0.322204 0.427542 0.499039
v 0.251891 0.332005 0.572201
v 0.233505 0.321024 0.577213
v 0.298229 0.330348 0.511622
v 0.273076 0.344685 0.467751
v 0.205567 0.290067 0.561496
v 0.088440 0.366846 0.430797
v 0.113329 0.361713 0.496546
v 0.091583 0.384996 0.465893
v 0.157458 0.294372 0.530104
v 0.135096 0.309410 0.485894
v 0.558971 0.200848 -0.366424
v 0.562787 0.220631 -0.338396
v 0.462469 0.251749 -0.420861
v 0.483689 0.225924 -0.417842
v 0.551460 0.211698 -0.389574
v 0.552108 0.228192 -0.376369
v 0.469808 0.254572 -0.423142
v 0.498116 0.227200 -0.421117
v 0.531954 0.195739 -0.354421
v 0.488575 0.220689 -0.406717
v 0.439176 0.284461 -0.360313
v 0.435767 0.291870 -0.348099
v 0.479618 0.285649 -0.391264
v 0.508991 0.276471 -0.374388
v 0.446083 0.312789 -0.329622
v 0.533789 0.262941 -0.250980
v 0.489859 0.265850 -0.267626
v 0.510458 0.250603 -0.252973
v 0.467068 0.310369 -0.297475
v 0.496672 0.300708 -0.282459
v -0.765110 0.222219 0.442352
v -0.143046 0.248111 0.346205
v -0.155015 0.289062 0.354103
v -0.148855 0.258662 0.387889
v -0.268705 0.251131 0.140111
v -0.308277 0.262494 0.126419
v -0.280673 0.292082 0.148009
v -0.230746 0.029588 0.434461
v -0.258350 0.000000 0.412871
v -0.390167 0.033420 0.172991
v -0.384008 0.003020 0.206777
v -0.517989 0.436910 0.615566
v -0.524148 0.467310 0.581780
v -0.557561 0.448273 0.601874
v -0.683219 0.451293 0.395780
v -0.649806 0.470330 0.375686
v -0.677410 0.440742 0.354096
v -0.599879 0.207836 0.662139
v -0.639451 0.219199 0.648446
v -0.627483 0.178248 0.640549
v -0.759300 0.211667 0.400669
v -0.753141 0.181268 0.434455
v -0.224936 0.019037 0.392778
v -0.350595 0.022057 0.186684
v -0.381809 0.240077 -0.459407
v -0.259694 0.248945 -0.584410
v 0.204342 0.626416 0.147736
v 0.326458 0.635283 0.022733
v -0.244968 0.208504 -0.572894
v -0.367084 0.199637 -0.447891
v 0.219068 0.585975 0.159253
v 0.341183 0.594843 0.034250
v -0.341104 0.243033 -0.501075
v 0.285752 0.632327 0.064401
v -0.326379 0.202593 -0.489559
v 0.300478 0.591887 0.075917
v -0.308068 0.288012 -0.385375
v 0.132528 0.579762 0.075737
v 0.252716 0.587349 -0.051299
v -0.187879 0.295599 -0.512412
v -0.293342 0.247571 -0.373859
v 0.147253 0.539322 0.087254
v 0.267441 0.546908 -0.039782
v -0.173154 0.255158 -0.500895
v 0.227379 0.544379 0.002563
v -0.147710 0.296166 -0.389431
v 0.146255 0.514561 0.001584
v -0.253279 0.250100 -0.416204
v -0.162436 0.336606 -0.400948
v 0.212653 0.584820 -0.008954
v -0.268005 0.290541 -0.427721
v 0.131530 0.555001 -0.009933
vn 0.0002 1.0000 -0.0002
vn -0.0000 1.0000 -0.0000
vn -0.0109 0.9977 -0.0669
vn 0.0385 0.9914 -0.1255
vn 0.0521 0.9952 -0.0825
vn 0.0005 1.0000 -0.0006
vn 0.2050 0.9606 0.1877
vn 0.3284 0.8967 0.2968
vn 0.3677 0.9243 0.1025
vn 0.3790 0.9207 0.0932
vn 0.3857 0.9204 -0.0636
vn 0.2174 0.9724 -0.0843
vn 0.0660 0.9954 -0.0696
vn 0.0006 1.0000 -0.0006
vn 0.0001 1.0000 -0.0001
vn 0.0692 0.9732 0.2194
vn 0.3350 0.8171 0.4692
vn 0.5075 0.8502 0.1403
vn 0.5338 0.8285 0.1692
vn 0.5741 0.8167 -0.0585
vn 0.5595 0.8048 -0.1981
vn 0.4212 0.8638 -0.2764
vn 0.1992 0.9630 -0.1816
vn -0.0575 0.9834 0.1720
vn -0.1234 0.8504 0.5115
vn -0.0653 0.9776 0.2001
vn 0.2119 0.9497 0.2307
vn 0.4036 0.9149 0.0009
vn 0.4191 0.8639 -0.2792
vn 0.2806 0.8120 -0.5118
vn 0.1412 0.9271 -0.3471
vn -0.0440 0.9938 0.1026
vn -0.1495 0.8910 0.4287
vn -0.1782 0.9130 0.3670
vn -0.1809 0.9658 0.1856
vn -0.2817 0.9593 0.0171
vn -0.3248 0.9169 -0.2321
vn -0.2475 0.8525 -0.4604
vn -0.1038 0.9618 -0.2532
vn -0.0017 0.9993 0.0383
vn -0.0011 0.9990 0.0442
vn -0.0012 0.9991 0.0433
vn -0.0537 0.9421 0.3310
vn -0.1414 0.9221 0.3600
vn -0.2159 0.9763 0.0119
vn -0.3361 0.9240 -0.1822
vn -0.4306 0.8661 -0.2538
vn -0.3865 0.8729 -0.2978
vn -0.0997 0.9914 -0.0852
vn -0.0018 0.9993 0.0376
vn -0.0919 0.9643 0.2484
vn -0.2268 0.9511 0.2095
vn -0.3794 0.9194 -0.1035
vn -0.3544 0.8916 -0.2820
vn -0.2760 0.9282 -0.2495
vn -0.1676 0.9768 -0.1332
vn -0.0442 0.9987 -0.0258
vn -0.0172 0.9993 0.0334
vn -0.0460 0.9970 0.0617
vn -0.1321 0.9900 0.0491
vn -0.2099 0.9764 -0.0518
vn -0.1412 0.9817 -0.1282
vn -0.0413 0.9972 -0.0625
vn -0.0008 1.0000 -0.0012
vn -0.0007 1.0000 -0.0011
vn -0.0001 1.0000 -0.0002
vn 0.0002 1.0000 0.0003
vn 0.0005 1.0000 0.0009
vn 0.0019 1.0000 0.0025
vn 0.0068 0.9999 0.0074
vn 0.0079 0.9999 0.0085
vn 0.0258 0.9996 0.0101
vn 0.0271 0.9996 -0.0079
vn 0.0092 0.9999 -0.0052
vn 0.0088 0.9999 -0.0050
vn 0.0046 1.0000 -0.0026
vn 0.4032 0.8771 0.2612
vn -0.4895 -0.1045 -0.8657
vn -0.2374 0.8170 0.5256
vn 0.8362 -0.1016 0.5390
vn -0.7697 -0.4017 0.4962
vn 0.2123 -0.9772 -0.0020
vn 0.1727 -0.5437 0.8213
vn -0.0597 -0.7418 -0.6680
vn 0.1548 0.9335 -0.3235
vn 0.8325 0.3111 -0.4585
vn -0.0074 -1.0000 0.0017
vn -0.1613 0.9866 -0.0233
vn 0.6616 -0.5129 -0.5470
vn -0.8601 -0.4176 0.2930
vn 0.2377 -0.1475 -0.9601
vn 0.9468 0.2574 0.1930
vn -0.4946 0.7893 -0.3639
vn -0.0378 0.6249 0.7798
vn 0.4280 0.9035 0.0229
vn -0.5414 0.0630 0.8384
vn 0.1781 -0.9006 -0.3965
vn 0.5460 -0.7147 0.4372
vn -0.2262 0.6917 0.6859
vn 0.0704 -0.6602 -0.7478
vn 0.5426 0.5119 -0.6660
vn -0.2966 0.4224 0.8565
vn 0.9588 0.1537 -0.2390
vn -0.1908 -0.2672 -0.9446
vn 0.3706 -0.7818 0.5014
vn -0.7744 -0.6312 0.0431
vn -0.0152 -0.9073 -0.4203
vn -0.8378 -0.0655 0.5420
vn 0.3887 0.9024 -0.1858
vn -0.4433 0.7062 -0.5521
vn -0.6799 -0.6956 0.2321
vn 0.7421 0.6659 -0.0761
vn 0.5205 -0.0125 0.8537
vn -0.3306 -0.9248 0.1880
vn 0.3306 0.9248 -0.1880
vn -0.5205 0.0125 -0.8537
vn 0.9611 0.2682 0.0661
vn 0.3850 0.2820 -0.8788
vn 0.5952 -0.7554 0.2742
vn 0.0191 -0.7415 -0.6707
vn -0.0191 0.7415 0.6707
vn -0.5952 0.7554 -0.2742
vn -0.3850 -0.2820 0.8788
vn -0.9611 -0.2682 -0.0661
vn 0.1343 -0.6628 0.7366
vn -0.6019 -0.6451 -0.4707
vn 0.8081 0.3302 -0.4878
vn 0.6019 0.6451 0.4707
vn -0.8081 -0.3302 0.4878
vn -0.9342 0.2924 -0.2042
vn -0.1343 0.6628 -0.7366
vn 0.3688 -0.8985 -0.2380
vn -0.3688 0.8985 0.2380
vn 0.9342 -0.2924 0.2042
vn 0.2426 -0.2758 -0.9301
vn -0.2426 0.2758 0.9301
vn -0.7872 0.3801 0.4856
vn 0.7872 -0.3801 -0.4856
vn -0.3305 0.9077 -0.2585
vn 0.3305 -0.9077 0.2585
vn 0.6923 0.0470 -0.7201
vn -0.8394 -0.1575 0.5202
vn 0.8605 0.1773 -0.4777
vn -0.6923 -0.0470 0.7201
vn 0.6354 0.4165 0.6502
vn -0.4656 0.0814 0.8813
vn -0.6354 -0.4165 -0.6502
vn 0.5110 -0.0581 -0.8576
vn -0.6919 -0.0468 0.7205
vn -0.7043 -0.0549 0.7077
vn 0.6919 0.0468 -0.7205
vn 0.7043 0.0549 -0.7077
vt 0.000000 0.000000
vt 0.634661 0.691203
vt 0.530110 0.739819
vt 0.483494 0.842363
vt 0.453513 0.715152
vt 0.489088 0.664717
vt 0.619153 0.664461
vt 0.654436 0.447849
vt 0.618361 0.454623
vt 0.357677 0.377501
vt 0.316590 0.377642
vt 0.506838 0.170761
vt 0.495140 0.482980
vt 0.436018 0.844144
vt 0.416555 0.673164
vt 0.462437 0.642612
vt 0.313451 0.707374
vt 0.391505 0.667224
vt 0.470251 0.516929
vt 0.590757 0.513151
vt 0.479859 0.495704
vt 0.654393 0.550379
vt 0.845607 0.550379
vt 0.845607 0.699621
vt 0.654393 0.699621
vt 0.426196 0.779393
vt 0.573804 0.779393
vt 0.573804 0.970607
vt 0.426196 0.970607
vt 0.426196 0.279393
vt 0.573804 0.279393
vt 0.573804 0.470607
vt 0.426196 0.470607
vt 0.154393 0.550379
vt 0.345607 0.550379
vt 0.345607 0.699621
vt 0.154393 0.699621
vt 0.573804 0.482361
vt 0.593635 0.470607
vt 0.357361 0.550379
vt 0.345607 0.530838
vt 0.593635 0.779393
vt 0.573804 0.767639
vt 0.357361 0.699621
vt 0.345607 0.719162
vt 0.593635 0.279393
vt 0.573804 0.267639
vt 0.426196 0.267639
vt 0.406365 0.279393
vt 0.593635 0.050379
vt 0.593635 0.050379
vt 0.573804 0.030838
vt 0.154393 0.719162
vt 0.142639 0.699621
vt 0.593635 0.970607
vt 0.426196 0.482361
vt 0.573804 0.982361
vt 0.426196 0.982361
vt 0.142639 0.550379
vt 0.406365 0.470607
vt 0.426196 0.767639
vt 0.593635 0.550379
vt 0.593635 0.699621
vt 0.573804 0.699621
vt 0.573804 0.550379
vt 0.593635 0.199621
vt 0.573804 0.199621
vt 0.573804 0.050379
vt 0.524601 0.406869
vt 0.524601 0.470607
vt 0.573804 0.406869
vt 0.426196 0.343131
vt 0.476320 0.412151
vt 0.475399 0.406869
vt 0.523678 0.337850
vt 0.524601 0.343131
vt 0.475399 0.279393
vt 0.426196 0.406869
vt 0.475399 0.343131
vt 0.573804 0.343131
s 1
usemtl dark_grey.002
f 90/1/1 34/1/2 4/1/2 12/1/2
f 19/1/2 42/1/2 18/1/2 3/1/2
f 42/1/2 50/1/2 17/1/2 18/1/2
f 50/1/2 58/1/2 16/1/2 17/1/2
f 58/1/3 66/1/3 15/1/3 16/1/3
f 66/1/4 74/1/4 14/1/4 15/1/4
f 74/1/5 82/1/5 13/1/5 14/1/5
f 82/1/6 90/1/1 12/1/2 13/1/2
f 10/1/7 11/1/7 83/1/7 75/1/7
f 75/1/8 83/1/8 84/1/8 76/1/8
f 76/1/9 84/1/9 85/1/9 77/1/9
f 77/1/10 85/1/10 86/1/10 78/1/10
f 78/1/11 86/1/11 87/1/11 79/1/11
f 79/1/12 87/1/12 88/1/12 80/1/12
f 80/1/13 88/1/13 89/1/13 81/1/13
f 81/1/14 89/1/15 90/1/1 82/1/6
f 9/1/16 10/1/16 75/1/16 67/1/16
f 67/1/17 75/1/17 76/1/17 68/1/17
f 68/1/18 76/1/18 77/1/18 69/1/18
f 69/1/19 77/1/19 78/1/19 70/1/19
f 70/1/20 78/1/20 79/1/20 71/1/20
f 71/1/21 79/1/21 80/1/21 72/1/21
f 72/1/22 80/1/22 81/1/22 73/1/22
f 73/1/23 81/1/23 82/1/23 74/1/23
f 8/1/24 9/1/24 67/1/24 59/1/24
f 59/1/25 67/1/25 68/1/25 60/1/25
f 60/1/26 68/1/26 69/1/26 61/1/26
f 61/1/27 69/1/27 70/1/27 62/1/27
f 62/1/28 70/1/28 71/1/28 63/1/28
f 63/1/29 71/1/29 72/1/29 64/1/29
f 64/1/30 72/1/30 73/1/30 65/1/30
f 65/1/31 73/1/31 74/1/31 66/1/31
f 7/1/32 8/1/32 59/1/32 51/1/32
f 51/1/33 59/1/33 60/1/33 52/1/33
f 52/1/34 60/1/34 61/1/34 53/1/34
f 53/1/35 61/1/35 62/1/35 54/1/35
f 54/1/36 62/1/36 63/1/36 55/1/36
f 55/1/37 63/1/37 64/1/37 56/1/37
f 56/1/38 64/1/38 65/1/38 57/1/38
f 57/1/39 65/1/39 66/1/39 58/1/39
f 6/1/40 7/1/41 51/1/41 43/1/42
f 43/1/43 51/1/43 52/1/43 44/1/43
f 44/1/44 52/1/44 53/1/44 45/1/44
f 45/1/45 53/1/45 54/1/45 46/1/45
f 46/1/46 54/1/46 55/1/46 47/1/46
f 47/1/47 55/1/47 56/1/47 48/1/47
f 48/1/48 56/1/48 57/1/48 49/1/48
f 49/1/49 57/1/49 58/1/49 50/1/49
f 5/1/50 6/1/40 43/1/42 35/1/50
f 35/1/51 43/1/51 44/1/51 36/1/51
f 36/1/52 44/1/52 45/1/52 37/1/52
f 37/1/53 45/1/53 46/1/53 38/1/53
f 38/1/54 46/1/54 47/1/54 39/1/54
f 39/1/55 47/1/55 48/1/55 40/1/55
f 40/1/56 48/1/56 49/1/56 41/1/56
f 41/1/57 49/1/57 50/1/57 42/1/57
f 1/1/58 5/1/58 35/1/58 26/1/58
f 26/1/59 35/1/59 36/1/59 25/1/59
f 25/1/60 36/1/60 37/1/60 24/1/60
f 24/1/61 37/1/61 38/1/61 23/1/61
f 23/1/62 38/1/62 39/1/62 22/1/62
f 22/1/63 39/1/63 40/1/63 21/1/63
f 21/1/64 40/1/64 41/1/65 20/1/66
f 20/1/66 41/1/65 42/1/2 19/1/2
f 11/1/2 2/1/2 27/1/67 83/1/68
f 83/1/68 27/1/67 28/1/69 84/1/70
f 84/1/70 28/1/69 29/1/71 85/1/71
f 85/1/72 29/1/72 30/1/72 86/1/72
f 86/1/73 30/1/73 31/1/73 87/1/73
f 87/1/74 31/1/74 32/1/75 88/1/76
f 88/1/76 32/1/75 33/1/2 89/1/15
f 89/1/15 33/1/2 34/1/2 90/1/1
f 144/2/101 136/3/101 135/4/101 138/5/101 137/6/101 143/7/101
f 150/8/102 149/9/102 147/10/102 148/11/102 146/12/102
f 135/4/103 136/3/103 132/13/103 131/14/103
f 137/6/104 138/5/104 134/15/104 133/16/104
f 148/11/105 139/17/105 131/14/105 132/13/105 146/12/105
f 133/16/106 134/15/106 140/18/106 141/19/106
f 134/15/107 138/5/107 135/4/107 131/14/107 139/17/107 140/18/107
f 147/10/108 149/9/108 145/20/108 142/21/108
f 150/8/109 144/2/109 143/7/109 145/20/109 149/9/109
f 142/21/110 145/20/110 143/7/110 137/6/110 133/16/110 141/19/110
f 140/18/111 139/17/111 148/11/111 147/10/111 142/21/111 141/19/111
f 136/3/112 144/2/112 150/8/112 146/12/112 132/13/112
usemtl grey.002
f 104/2/77 96/3/77 95/4/77 98/5/77 97/6/77 103/7/77
f 110/8/78 109/9/78 107/10/78 108/11/78 106/12/78
f 95/4/79 96/3/79 92/13/79 91/14/79
f 97/6/80 98/5/80 94/15/80 93/16/80
f 108/11/81 99/17/81 91/14/81 92/13/81 106/12/81
f 93/16/82 94/15/82 100/18/82 101/19/82
f 94/15/83 98/5/83 95/4/83 91/14/83 99/17/83 100/18/83
f 107/10/84 109/9/84 105/20/84 102/21/84
f 110/8/85 104/2/85 103/7/85 105/20/85 109/9/85
f 102/21/86 105/20/86 103/7/86 97/6/86 93/16/86 101/19/86
f 100/18/87 99/17/87 108/11/87 107/10/87 102/21/87 101/19/87
f 96/3/88 104/2/88 110/8/88 106/12/88 92/13/88
f 124/2/89 116/3/89 115/4/89 118/5/89 117/6/89 123/7/89
f 130/8/90 129/9/90 127/10/90 128/11/90 126/12/90
f 115/4/91 116/3/91 112/13/91 111/14/91
f 117/6/92 118/5/92 114/15/92 113/16/92
f 128/11/93 119/17/93 111/14/93 112/13/93 126/12/93
f 113/16/94 114/15/94 120/18/94 121/19/94
f 114/15/95 118/5/95 115/4/95 111/14/95 119/17/95 120/18/95
f 127/10/96 129/9/96 125/20/96 122/21/96
f 130/8/97 124/2/97 123/7/97 125/20/97 129/9/97
f 122/21/98 125/20/98 123/7/98 117/6/98 113/16/98 121/19/98
f 120/18/99 119/17/99 128/11/99 127/10/99 122/21/99 121/19/99
f 116/3/100 124/2/100 130/8/100 126/12/100 112/13/100
f 154/22/113 162/23/113 168/24/113 158/25/113
f 161/26/114 159/27/114 170/28/114 172/29/114
f 166/30/115 163/31/115 153/32/115 157/33/115
f 167/34/116 156/35/116 160/36/116 171/37/116
f 152/38/117 153/38/117 154/39/117
f 155/40/118 156/41/118 157/41/118
f 158/42/119 159/42/119 173/43/119
f 160/36/120 174/44/120 161/45/120
f 162/46/121 163/46/121 164/47/121
f 165/48/122 166/49/122 167/49/122
f 168/50/123 169/51/123 170/52/123
f 171/37/124 172/53/124 151/54/124
f 170/28/125 159/27/125 158/42/125 168/55/125
f 161/45/126 172/53/126 171/37/126 160/36/126
f 157/33/127 153/32/127 152/38/127 155/56/127
f 162/46/128 154/39/128 153/32/128 163/31/128
f 172/29/129 170/28/129 169/57/129 151/58/129
f 151/54/130 165/59/130 167/34/130 171/37/130
f 166/30/131 157/33/131 156/60/131 167/49/131
f 159/27/132 161/26/132 174/61/132 173/43/132
f 163/31/133 166/30/133 165/48/133 164/47/133
f 154/62/134 158/63/134 173/64/134 152/65/134
f 155/40/135 174/44/135 160/36/135 156/35/135
f 168/50/136 162/66/136 164/67/136 169/68/136
f 164/67/137 165/59/137 151/58/137 169/68/137
f 155/40/138 152/65/138 173/43/138 174/44/138
usemtl light_brown.002
f 201/69/139 183/70/139 175/32/139 187/71/139
f 198/69/140 191/71/140 180/32/140 185/70/140
f 189/72/141 178/30/141 182/30/141 193/72/141
f 199/73/142 176/33/142 179/33/142 196/74/142
f 202/75/143 177/31/143 181/31/143 197/76/143
f 187/71/144 175/32/144 180/32/144 191/71/144
f 178/30/145 184/77/145 186/77/145 182/30/145
f 184/77/146 202/75/146 197/76/146 186/77/146
f 175/32/147 183/70/147 185/70/147 180/32/147
f 183/70/148 199/73/148 196/74/148 185/70/148
f 194/78/140 196/74/140 179/33/140
f 196/74/140 198/69/140 185/70/140
f 190/78/139 176/33/139 199/74/139
f 199/73/139 183/70/139 201/69/139
f 184/77/139 200/79/139 202/75/139
f 200/79/139 199/74/139 201/69/139 202/76/139
f 178/30/139 189/72/139 200/79/139 184/77/139
f 189/72/139 190/78/139 199/74/139 200/79/139
f 186/77/140 197/76/140 195/79/140
f 195/79/140 197/76/140 198/69/140 196/74/140
f 182/30/140 186/77/140 195/79/140 193/72/140
f 193/72/140 195/79/140 196/74/140 194/78/140
f 177/31/149 188/80/149 192/80/149 181/31/149
f 188/80/150 187/71/150 191/71/150 192/80/150
f 176/33/151 190/78/151 194/78/151 179/33/151
f 190/78/152 189/72/152 193/72/152 194/78/152
f 197/76/140 181/31/140 192/80/140
f 197/76/140 192/80/140 191/71/140 198/69/140
f 202/76/139 188/80/139 177/31/139
f 202/76/139 201/69/139 187/71/139 188/80/139
