# Blender 5.2.1 LTS
# www.blender.org
mtllib Prop_Rock.mtl
o EXPORT_Prop_Rock
v 0.631092 0.417527 -0.179826
v 0.580825 0.304960 -0.136314
v 0.358570 0.076386 -0.085757
v 0.636178 0.407521 -0.078916
v 0.332474 0.061379 -0.061675
v 0.618834 0.529818 0.139957
v 0.323731 0.163298 0.110421
v -0.428703 1.066173 -0.679092
v -0.368552 0.028401 -0.155456
v 0.587029 0.325960 -0.176181
v 0.559125 0.735374 -0.482300
v 0.624968 0.439555 -0.237617
v 0.578507 0.306435 -0.166650
v 0.356981 0.078883 -0.118444
v 0.523955 0.233739 -0.142907
v 0.430442 0.137193 -0.122209
v 0.224496 0.017069 -0.142545
v -0.184431 0.610056 -0.775491
v 0.333407 0.912308 -0.724503
v -0.194358 0.445112 -0.663051
v 0.135283 0.000000 -0.176274
v 0.580069 0.752584 0.306219
v 0.517187 1.042876 0.122188
v -0.267019 0.570419 0.767778
v -0.245226 0.606294 0.775491
v -0.187919 1.218343 -0.653045
v 0.070685 1.269988 -0.647559
v 0.329946 1.246587 0.055925
v -0.359614 1.060019 0.494927
v -0.560273 0.158739 0.054854
v -0.530523 0.453739 0.555954
v -0.636178 1.083430 -0.378283
v -0.577671 1.037849 0.291820
v -0.634594 1.095832 -0.353272
vn 0.3864 -0.5353 -0.7511
vn 0.3346 0.5552 0.7615
vn 0.8673 -0.4275 -0.2549
vn 0.8963 -0.4345 -0.0886
vn 0.7823 -0.6164 -0.0897
vn 0.6164 -0.7823 -0.0897
vn 0.4342 -0.8964 -0.0889
vn -0.0695 -0.7592 -0.6471
vn 0.7020 -0.5966 0.3890
vn 0.9807 0.1932 -0.0303
vn 0.4990 -0.4609 0.7339
vn 0.7517 0.6074 -0.2568
vn -0.0186 0.1972 -0.9802
vn -0.9956 -0.0424 0.0840
vn -0.1969 0.9748 0.1050
vn -0.4678 0.8033 -0.3687
vn -0.6722 0.2593 0.6934
vn -0.0275 -0.8607 0.5083
vn -0.7904 -0.3119 -0.5273
vt 0.526256 0.464337
vt 0.491105 0.533387
vt 0.433646 0.582183
vt 0.410329 0.593750
vt 0.406250 0.595506
vt 0.388437 0.600002
vt 0.362087 0.604138
vt 0.343750 0.605157
vt 0.315753 0.601180
vt 0.299009 0.595595
vt 0.408972 0.415691
vt 0.468258 0.359241
vt 0.653388 0.782334
vt 0.467359 0.896791
vt 0.495718 0.690750
vt 0.556868 0.658275
vt 0.618051 0.642584
vt 0.429884 0.593750
vt 0.428533 0.613398
vt 0.406250 0.601579
vt 0.343750 0.611701
vt 0.338025 0.616522
vt 0.216828 0.612166
vt 0.362448 0.657553
vt 0.451669 0.656115
vt 0.459922 0.899519
vt 0.601970 0.421082
vt 0.555006 0.301283
vt 0.589292 0.361337
vt 0.561452 0.217355
vt 0.558674 0.219284
vt 0.222345 0.690948
vt 0.399143 0.907078
vt 0.598558 0.529674
s 1
usemtl dark_grey.002
f 19/1/1 11/2/1 12/3/1 10/4/1 13/5/1 15/6/1 16/7/1 14/8/1 17/9/1 21/10/1 20/11/1 18/12/1
f 29/13/2 25/14/2 22/15/2 23/16/2 28/17/2
f 10/4/3 12/3/3 1/18/3
f 10/4/4 1/18/4 4/19/4 2/20/4 13/5/4
f 15/6/5 13/5/5 2/20/5
f 14/8/6 16/7/6 3/21/6
f 17/9/7 14/8/7 3/21/7 5/22/7
f 20/11/8 21/10/8 9/23/8
f 7/24/9 5/22/9 3/21/9 16/7/9 15/6/9 2/20/9 4/19/9 6/25/9
f 22/15/10 6/25/10 4/19/10 1/18/10 12/3/10 11/2/10 23/16/10
f 22/15/11 25/14/11 24/26/11 7/24/11 6/25/11
f 19/1/12 27/27/12 28/17/12 23/16/12 11/2/12
f 19/1/13 18/12/13 8/28/13 26/29/13 27/27/13
f 34/30/14 32/31/14 30/32/14 31/33/14 33/34/14
f 28/17/15 27/27/15 26/29/15 34/30/15 33/34/15 29/13/15
f 26/29/16 8/28/16 32/31/16 34/30/16
f 25/14/17 29/13/17 33/34/17 31/33/17 24/26/17
f 7/24/18 24/26/18 31/33/18 30/32/18 9/23/18 21/10/18 17/9/18 5/22/18
f 8/28/19 18/12/19 20/11/19 9/23/19 30/32/19 32/31/19
