# Blender 5.2.1 LTS
# www.blender.org
mtllib Prop_Brick.mtl
o EXPORT_Prop_Brick
v -0.263274 0.032431 0.123845
v 0.263274 0.273831 -0.123845
v 0.234451 0.273831 -0.156276
v 0.234451 0.306262 -0.123845
v 0.263274 0.032431 -0.123845
v 0.234451 0.000000 -0.123845
v 0.234451 0.032431 -0.156276
v 0.234451 0.306262 0.123845
v 0.234451 0.273831 0.156276
v 0.234451 0.000000 0.123845
v 0.234451 0.032431 0.156276
v -0.234451 0.306262 -0.123845
v -0.234451 0.273831 -0.156276
v -0.263274 0.273831 -0.123845
v -0.263274 0.032431 -0.123845
v -0.234451 0.032431 -0.156276
v -0.234451 0.000000 -0.123845
v -0.234451 0.306262 0.123845
v -0.263274 0.273831 0.123845
v -0.234451 0.273831 0.156276
v -0.234451 0.000000 0.123845
v -0.234451 0.032431 0.156276
v 0.263274 0.273831 0.123845
v 0.263274 0.032431 0.123845
vn -0.0000 1.0000 -0.0000
vn -0.0000 -0.0000 1.0000
vn -0.0000 -0.0000 -1.0000
vn -0.0000 -1.0000 -0.0000
vn 0.6226 0.5533 -0.5533
vn 0.6226 -0.5533 -0.5533
vn 0.6226 0.5533 0.5533
vn 0.6226 -0.5533 0.5533
vn -0.6226 0.5533 -0.5533
vn -0.6226 -0.5533 -0.5533
vn -0.6226 0.5533 0.5533
vn -0.6226 -0.5533 0.5533
vn -0.0000 0.7071 0.7071
vn -0.0000 -0.7071 0.7071
vn 0.7475 -0.0000 -0.6643
vn -0.0000 0.7071 -0.7071
vn -0.7475 -0.0000 0.6643
vn -0.7475 -0.6643 -0.0000
vn -0.0000 -0.7071 -0.7071
vn 0.7475 -0.0000 0.6643
vn -0.7475 -0.0000 -0.6643
vn 0.7475 0.6643 -0.0000
vn 0.7475 -0.6643 -0.0000
vn -0.7475 0.6643 -0.0000
vn -1.0000 -0.0000 -0.0000
vn 1.0000 -0.0000 -0.0000
vt 0.654393 0.550379
vt 0.845607 0.550379
vt 0.845607 0.699621
vt 0.654393 0.699621
vt 0.426196 0.779393
vt 0.573804 0.779393
vt 0.573804 0.970607
vt 0.426196 0.970607
vt 0.426196 0.279393
vt 0.573804 0.279393
vt 0.573804 0.470607
vt 0.426196 0.470607
vt 0.154393 0.550379
vt 0.345607 0.550379
vt 0.345607 0.699621
vt 0.154393 0.699621
vt 0.573804 0.482361
vt 0.593635 0.470607
vt 0.357361 0.550379
vt 0.345607 0.530838
vt 0.593635 0.779393
vt 0.573804 0.767639
vt 0.357361 0.699621
vt 0.345607 0.719162
vt 0.593635 0.279393
vt 0.573804 0.267639
vt 0.426196 0.267639
vt 0.406365 0.279393
vt 0.593635 0.050379
vt 0.593635 0.050379
vt 0.573804 0.030838
vt 0.154393 0.719162
vt 0.142639 0.699621
vt 0.593635 0.970607
vt 0.426196 0.482361
vt 0.573804 0.982361
vt 0.426196 0.982361
vt 0.142639 0.550379
vt 0.406365 0.470607
vt 0.426196 0.767639
vt 0.593635 0.550379
vt 0.593635 0.699621
vt 0.573804 0.699621
vt 0.573804 0.550379
vt 0.593635 0.199621
vt 0.573804 0.199621
vt 0.573804 0.050379
s 1
usemtl grey.009
f 4/1/1 12/2/1 18/3/1 8/4/1
f 11/5/2 9/6/2 20/7/2 22/8/2
f 16/9/3 13/10/3 3/11/3 7/12/3
f 17/13/4 6/14/4 10/15/4 21/16/4
f 2/17/5 3/17/5 4/18/5
f 5/19/6 6/20/6 7/20/6
f 8/21/7 9/21/7 23/22/7
f 10/15/8 24/23/8 11/24/8
f 12/25/9 13/25/9 14/26/9
f 15/27/10 16/28/10 17/28/10
f 18/29/11 19/30/11 20/31/11
f 21/16/12 22/32/12 1/33/12
f 20/7/13 9/6/13 8/21/13 18/34/13
f 11/24/14 22/32/14 21/16/14 10/15/14
f 7/12/15 3/11/15 2/17/15 5/35/15
f 12/25/16 4/18/16 3/11/16 13/10/16
f 22/8/17 20/7/17 19/36/17 1/37/17
f 1/33/18 15/38/18 17/13/18 21/16/18
f 16/9/19 7/12/19 6/39/19 17/28/19
f 9/6/20 11/5/20 24/40/20 23/22/20
f 13/10/21 16/9/21 15/27/21 14/26/21
f 4/41/22 8/42/22 23/43/22 2/44/22
f 5/19/23 24/23/23 10/15/23 6/14/23
f 18/29/24 12/45/24 14/46/24 19/47/24
f 14/46/25 15/38/25 1/37/25 19/47/25
f 5/19/26 2/44/26 23/22/26 24/23/26
