# Blender 5.2.1 LTS
# www.blender.org
mtllib Prop_Bone.mtl
o EXPORT_Prop_Bone
v 0.300889 0.094950 0.036318
v 0.300889 0.022314 0.036318
v 0.300889 0.094950 -0.036318
v 0.300889 0.022314 -0.036318
v 0.189214 0.081117 0.025831
v 0.189214 0.081117 -0.025831
v 0.000000 0.035250 -0.023382
v 0.000000 0.082013 -0.023382
v 0.000000 0.082013 0.023382
v 0.000000 0.035250 0.023382
v 0.234975 0.104015 -0.049618
v 0.234975 0.104015 0.049618
v 0.187467 0.027395 -0.025831
v 0.231130 0.000000 0.049618
v 0.187467 0.027395 0.025831
v 0.231130 0.000000 -0.049618
v -0.300889 0.094950 0.036318
v -0.300889 0.022314 0.036318
v -0.300889 0.094950 -0.036318
v -0.300889 0.022314 -0.036318
v -0.189214 0.081117 0.025831
v -0.189214 0.081117 -0.025831
v -0.234975 0.104015 -0.049618
v -0.234975 0.104015 0.049618
v -0.187467 0.027395 -0.025831
v -0.231130 0.000000 0.049618
v -0.187467 0.027395 0.025831
v -0.231130 0.000000 -0.049618
vn 1.0000 -0.0000 -0.0000
vn -0.4690 0.0166 -0.8831
vn 0.1928 -0.0042 0.9812
vn -0.4475 0.8943 -0.0000
vn -0.0130 0.0002 -0.9999
vn 0.0047 1.0000 -0.0000
vn -0.0000 1.0000 -0.0000
vn 0.1362 0.9907 -0.0000
vn -0.4690 0.0166 0.8831
vn 0.1928 -0.0042 -0.9812
vn -0.0130 0.0002 0.9999
vn 0.3047 -0.9525 -0.0000
vn -0.5315 -0.8471 -0.0000
vn -0.0419 -0.9991 -0.0000
vn -1.0000 -0.0000 -0.0000
vn 0.4690 0.0166 -0.8831
vn -0.1928 -0.0042 0.9812
vn 0.4475 0.8943 -0.0000
vn 0.0130 0.0002 -0.9999
vn -0.0047 1.0000 -0.0000
vn -0.1362 0.9907 -0.0000
vn 0.4690 0.0166 0.8831
vn -0.1928 -0.0042 -0.9812
vn 0.0130 0.0002 0.9999
vn -0.3047 -0.9525 -0.0000
vn 0.5315 -0.8471 -0.0000
vn 0.0419 -0.9991 -0.0000
vt 0.440896 0.439598
s 1
usemtl beige.002
f 1/1/1 2/1/1 4/1/1 3/1/1
f 11/1/2 16/1/2 13/1/2 6/1/2
f 12/1/3 14/1/3 2/1/3 1/1/3
f 11/1/4 6/1/4 5/1/4 12/1/4
f 6/1/5 13/1/5 7/1/5 8/1/5
f 5/1/6 6/1/6 8/1/7 9/1/7
f 3/1/8 11/1/8 12/1/8 1/1/8
f 5/1/9 15/1/9 14/1/9 12/1/9
f 3/1/10 4/1/10 16/1/10 11/1/10
f 10/1/11 15/1/11 5/1/11 9/1/11
f 4/1/12 2/1/12 14/1/12 16/1/12
f 13/1/13 16/1/13 14/1/13 15/1/13
f 10/1/14 7/1/14 13/1/14 15/1/14
f 17/1/15 19/1/15 20/1/15 18/1/15
f 23/1/16 22/1/16 25/1/16 28/1/16
f 24/1/17 17/1/17 18/1/17 26/1/17
f 23/1/18 24/1/18 21/1/18 22/1/18
f 22/1/19 8/1/19 7/1/19 25/1/19
f 21/1/20 9/1/7 8/1/7 22/1/20
f 19/1/21 17/1/21 24/1/21 23/1/21
f 21/1/22 24/1/22 26/1/22 27/1/22
f 19/1/23 23/1/23 28/1/23 20/1/23
f 10/1/24 9/1/24 21/1/24 27/1/24
f 20/1/25 28/1/25 26/1/25 18/1/25
f 25/1/26 27/1/26 26/1/26 28/1/26
f 10/1/27 27/1/27 25/1/27 7/1/27
