# Blender 5.2.1 LTS
# www.blender.org
mtllib Prop_BrickPile.mtl
o EXPORT_Prop_BrickPile
v 0.621792 0.036204 0.409342
v 0.157342 0.277603 0.058784
v 0.142070 0.277603 0.099396
v 0.170769 0.310034 0.084289
v 0.157342 0.036204 0.058784
v 0.170769 0.003772 0.084289
v 0.142070 0.036204 0.099396
v 0.389945 0.310034 -0.031087
v 0.418643 0.277603 -0.046194
v 0.389945 0.003772 -0.031087
v 0.418643 0.036204 -0.046194
v 0.389189 0.310034 0.499212
v 0.360491 0.277603 0.514319
v 0.402615 0.277603 0.524718
v 0.402615 0.036204 0.524718
v 0.360491 0.036204 0.514319
v 0.389189 0.003772 0.499212
v 0.608365 0.310034 0.383836
v 0.621792 0.277603 0.409342
v 0.637063 0.277603 0.368728
v 0.608365 0.003772 0.383836
v 0.637063 0.036204 0.368728
v 0.376519 0.277603 -0.056593
v 0.376519 0.036204 -0.056593
v -0.272769 0.036204 -0.552551
v -0.073330 0.277603 -0.005900
v -0.038443 0.277603 -0.031697
v -0.070743 0.310034 -0.034607
v -0.073330 0.036204 -0.005900
v -0.070743 0.003772 -0.034607
v -0.038443 0.036204 -0.031697
v -0.317433 0.310034 -0.056834
v -0.349733 0.277603 -0.059744
v -0.317433 0.003773 -0.056834
v -0.349733 0.036204 -0.059744
v -0.028665 0.310034 -0.501617
v 0.003635 0.277603 -0.498706
v -0.026079 0.277603 -0.530324
v -0.026079 0.036204 -0.530324
v 0.003635 0.036204 -0.498706
v -0.028665 0.003772 -0.501617
v -0.275355 0.310034 -0.523843
v -0.272769 0.277603 -0.552551
v -0.307656 0.277603 -0.526754
v -0.275355 0.003772 -0.523843
v -0.307656 0.036204 -0.526754
v -0.320021 0.277603 -0.028126
v -0.320021 0.036204 -0.028126
v -0.075373 0.350575 0.341795
v 0.500465 0.591975 0.258046
v 0.482325 0.591975 0.218631
v 0.472889 0.624406 0.249658
v 0.500465 0.350575 0.258046
v 0.472889 0.318144 0.249658
v 0.482325 0.350575 0.218631
v 0.400814 0.624406 0.486629
v 0.391376 0.591975 0.517657
v 0.400814 0.318144 0.486629
v 0.391376 0.350575 0.517657
v 0.024279 0.624406 0.113211
v 0.033717 0.591975 0.082184
v -0.003297 0.591975 0.104824
v -0.003297 0.350575 0.104824
v 0.033717 0.350575 0.082184
v 0.024279 0.318144 0.113211
v -0.047796 0.624406 0.350182
v -0.075373 0.591975 0.341795
v -0.057234 0.591975 0.381210
v -0.047797 0.318144 0.350182
v -0.057234 0.350575 0.381210
v 0.428390 0.591975 0.495017
v 0.428390 0.350575 0.495017
v 0.245055 0.036204 -0.383083
v 0.755114 0.277603 -0.103006
v 0.764382 0.277603 -0.145394
v 0.738158 0.310034 -0.126314
v 0.755114 0.036204 -0.103006
v 0.738158 0.003772 -0.126314
v 0.764382 0.036204 -0.145394
v 0.537865 0.310034 0.019400
v 0.511640 0.277603 0.038480
v 0.537865 0.003772 0.019400
v 0.511640 0.036204 0.038480
v 0.462305 0.310034 -0.505489
v 0.488530 0.277603 -0.524568
v 0.445348 0.277603 -0.528797
v 0.445348 0.036204 -0.528797
v 0.488530 0.036204 -0.524568
v 0.462305 0.003772 -0.505489
v 0.262012 0.310034 -0.359774
v 0.245055 0.277603 -0.383083
v 0.235786 0.277603 -0.340696
v 0.262012 0.003772 -0.359774
v 0.235786 0.036204 -0.340696
v 0.554822 0.277603 0.042709
v 0.554822 0.036204 0.042709
v -0.411185 0.036204 0.322666
v 0.170518 0.277603 0.307680
v 0.157173 0.277603 0.266394
v 0.144129 0.310034 0.296087
v 0.170518 0.036204 0.307680
v 0.144129 0.003772 0.296087
v 0.157173 0.036204 0.266394
v 0.044505 0.310034 0.522857
v 0.031460 0.277603 0.552550
v 0.044505 0.003772 0.522857
v 0.031460 0.036204 0.552550
v -0.285172 0.310034 0.107488
v -0.272128 0.277603 0.077796
v -0.311562 0.277603 0.095895
v -0.311562 0.036204 0.095895
v -0.272128 0.036204 0.077796
v -0.285172 0.003773 0.107488
v -0.384796 0.310034 0.334259
v -0.411185 0.277603 0.322666
v -0.397841 0.277603 0.363951
v -0.384796 0.003773 0.334259
v -0.397841 0.036204 0.363951
v 0.070894 0.277603 0.534451
v 0.070894 0.036204 0.534451
v -0.591665 0.029988 -0.171200
v -0.368878 0.543819 -0.459680
v -0.386219 0.519685 -0.491294
v -0.412017 0.545872 -0.463866
v -0.198739 0.376123 -0.424978
v -0.196161 0.333117 -0.419839
v -0.216078 0.351988 -0.456592
v -0.434470 0.573807 -0.218784
v -0.414553 0.554935 -0.182032
v -0.218616 0.361052 -0.174757
v -0.244413 0.387239 -0.147329
v -0.741928 0.212755 -0.456124
v -0.716130 0.186568 -0.483551
v -0.739350 0.169749 -0.450985
v -0.569211 0.002053 -0.416283
v -0.545991 0.018872 -0.448849
v -0.526073 0.000000 -0.412096
v -0.764382 0.240691 -0.211041
v -0.761805 0.197684 -0.205902
v -0.744465 0.221819 -0.174289
v -0.548528 0.027935 -0.167014
v -0.574325 0.054122 -0.139586
v -0.391334 0.571754 -0.214598
v -0.221194 0.404058 -0.179895
vn -0.0000 1.0000 -0.0000
vn 0.8849 -0.0000 -0.4658
vn -0.8849 -0.0000 0.4658
vn -0.0000 -1.0000 -0.0000
vn -0.7797 0.5533 -0.2932
vn -0.7797 -0.5533 -0.2932
vn 0.1996 0.5533 -0.8087
vn 0.1996 -0.5533 -0.8087
vn -0.1996 0.5533 0.8087
vn -0.1996 -0.5533 0.8087
vn 0.7797 0.5533 0.2932
vn 0.7797 -0.5533 0.2932
vn 0.6257 0.7071 -0.3294
vn 0.6257 -0.7071 -0.3294
vn -0.9360 -0.0000 -0.3520
vn -0.6257 0.7071 0.3294
vn 0.9360 -0.0000 0.3520
vn 0.3482 -0.6643 0.6614
vn -0.6257 -0.7071 0.3294
vn 0.2397 -0.0000 -0.9709
vn -0.2397 -0.0000 0.9709
vn -0.3482 0.6643 -0.6614
vn -0.3482 -0.6643 -0.6614
vn 0.3482 0.6643 0.6614
vn 0.4658 -0.0000 0.8849
vn -0.4658 -0.0000 -0.8849
vn -0.9960 -0.0000 -0.0897
vn 0.9960 -0.0000 0.0897
vn 0.4952 0.5533 0.6697
vn 0.4952 -0.5533 0.6697
vn -0.6070 0.5533 0.5704
vn -0.6070 -0.5533 0.5704
vn 0.6070 0.5533 -0.5704
vn 0.6070 -0.5533 -0.5704
vn -0.4952 0.5533 -0.6697
vn -0.4952 -0.5533 -0.6697
vn -0.7043 0.7071 -0.0635
vn -0.7043 -0.7071 -0.0635
vn 0.5946 -0.0000 0.8041
vn 0.7043 0.7071 0.0635
vn -0.5946 -0.0000 -0.8041
vn 0.0671 -0.6643 -0.7444
vn 0.7043 -0.7071 0.0635
vn -0.7287 -0.0000 0.6848
vn 0.7287 -0.0000 -0.6848
vn -0.0671 0.6643 0.7444
vn -0.0671 -0.6643 0.7444
vn 0.0671 0.6643 -0.7444
vn 0.0897 -0.0000 -0.9960
vn -0.0897 -0.0000 0.9960
vn -0.2910 -0.0000 0.9567
vn 0.2910 -0.0000 -0.9567
vn 0.7567 0.5533 -0.3482
vn 0.7567 -0.5533 -0.3482
vn 0.4346 0.5533 0.7106
vn 0.4346 -0.5533 0.7106
vn -0.4346 0.5533 -0.7106
vn -0.4346 -0.5533 -0.7106
vn -0.7567 0.5533 0.3482
vn -0.7567 -0.5533 0.3482
vn -0.2058 0.7071 0.6765
vn -0.2058 -0.7071 0.6765
vn 0.9084 -0.0000 -0.4181
vn 0.2058 0.7071 -0.6765
vn -0.9084 -0.0000 0.4181
vn -0.7151 -0.6643 -0.2175
vn 0.2058 -0.7071 -0.6765
vn 0.5218 -0.0000 0.8531
vn -0.5218 -0.0000 -0.8531
vn 0.7151 0.6643 0.2175
vn 0.7151 -0.6643 0.2175
vn -0.7151 0.6643 -0.2175
vn -0.9567 -0.0000 -0.2910
vn 0.9567 -0.0000 0.2910
vn -0.8086 -0.0000 0.5883
vn 0.8086 -0.0000 -0.5883
vn 0.8137 0.5533 0.1779
vn 0.8137 -0.5533 0.1779
vn -0.0812 0.5533 0.8290
vn -0.0812 -0.5533 0.8290
vn 0.0812 0.5533 -0.8290
vn 0.0812 -0.5533 -0.8290
vn -0.8137 0.5533 -0.1779
vn -0.8137 -0.5533 -0.1779
vn -0.5718 0.7071 0.4160
vn -0.5718 -0.7071 0.4160
vn 0.9769 -0.0000 0.2136
vn 0.5718 0.7071 -0.4160
vn -0.9769 -0.0000 -0.2136
vn -0.4397 -0.6643 -0.6044
vn 0.5718 -0.7071 -0.4160
vn -0.0975 -0.0000 0.9952
vn 0.0975 -0.0000 -0.9952
vn 0.4397 0.6643 0.6044
vn 0.4397 -0.6643 0.6044
vn -0.4397 0.6643 -0.6044
vn -0.5883 -0.0000 -0.8086
vn 0.5883 -0.0000 0.8086
vn -0.4022 -0.0000 0.9155
vn 0.4022 -0.0000 -0.9155
vn 0.7926 0.5533 -0.2562
vn 0.7926 -0.5533 -0.2562
vn 0.3475 0.5533 0.7570
vn 0.3475 -0.5533 0.7570
vn -0.3475 0.5533 -0.7570
vn -0.3475 -0.5533 -0.7570
vn -0.7926 0.5533 0.2562
vn -0.7926 -0.5533 0.2562
vn -0.2844 0.7071 0.6474
vn -0.2844 -0.7071 0.6474
vn 0.9515 -0.0000 -0.3076
vn 0.2844 0.7071 -0.6474
vn -0.9515 -0.0000 0.3076
vn -0.6843 -0.6643 -0.3006
vn 0.2844 -0.7071 -0.6474
vn 0.4171 -0.0000 0.9088
vn -0.4171 -0.0000 -0.9088
vn 0.6843 0.6643 0.3006
vn 0.6843 -0.6643 0.3006
vn -0.6843 0.6643 -0.3006
vn -0.9155 -0.0000 -0.4022
vn 0.9155 -0.0000 0.4022
vn -0.7048 0.6947 -0.1438
vn -0.0907 0.1128 0.9895
vn 0.0907 -0.1128 -0.9895
vn 0.7048 -0.6947 0.1438
vn 0.0982 0.7643 -0.6373
vn 0.8782 -0.0045 -0.4783
vn -0.0021 0.8891 0.4577
vn 0.7779 0.1203 0.6168
vn -0.7779 -0.1203 -0.6168
vn 0.0021 -0.8891 -0.4577
vn -0.8782 0.0045 0.4783
vn -0.0982 -0.7643 0.6373
vn -0.5625 0.5710 0.5980
vn 0.4343 -0.4115 0.8013
vn 0.5861 0.4561 -0.6697
vn -0.4343 0.4115 -0.8013
vn -0.5861 -0.4561 0.6697
vn -0.0577 -0.9925 0.1078
vn 0.5625 -0.5710 -0.5980
vn 0.4657 0.6059 0.6450
vn -0.4657 -0.6059 -0.6450
vn 0.0577 0.9925 -0.1078
vn 0.9941 0.0695 0.0832
vn -0.9941 -0.0695 -0.0832
vn -0.7036 -0.7104 0.0165
vn 0.7036 0.7104 -0.0165
vt 0.654393 0.550379
vt 0.845607 0.550379
vt 0.845607 0.699621
vt 0.654393 0.699621
vt 0.426196 0.779393
vt 0.573804 0.779393
vt 0.573804 0.970607
vt 0.426196 0.970607
vt 0.426196 0.279393
vt 0.573804 0.279393
vt 0.573804 0.470607
vt 0.426196 0.470607
vt 0.154393 0.550379
vt 0.345607 0.550379
vt 0.345607 0.699621
vt 0.154393 0.699621
vt 0.573804 0.482361
vt 0.593635 0.470607
vt 0.357361 0.550379
vt 0.345607 0.530838
vt 0.593635 0.779393
vt 0.573804 0.767639
vt 0.357361 0.699621
vt 0.345607 0.719162
vt 0.593635 0.279393
vt 0.573804 0.267639
vt 0.426196 0.267639
vt 0.406365 0.279393
vt 0.593635 0.050379
vt 0.593635 0.050379
vt 0.573804 0.030838
vt 0.154393 0.719162
vt 0.142639 0.699621
vt 0.593635 0.970607
vt 0.426196 0.482361
vt 0.573804 0.982361
vt 0.426196 0.982361
vt 0.142639 0.550379
vt 0.406365 0.470607
vt 0.426196 0.767639
vt 0.593635 0.550379
vt 0.593635 0.699621
vt 0.573804 0.699621
vt 0.573804 0.550379
vt 0.593635 0.199621
vt 0.573804 0.199621
vt 0.573804 0.050379
s 1
usemtl grey.009
f 4/1/1 12/2/1 18/3/1 8/4/1
f 11/5/2 9/6/2 20/7/2 22/8/2
f 16/9/3 13/10/3 3/11/3 7/12/3
f 17/13/4 6/14/4 10/15/4 21/16/4
f 2/17/5 3/17/5 4/18/5
f 5/19/6 6/20/6 7/20/6
f 8/21/7 9/21/7 23/22/7
f 10/15/8 24/23/8 11/24/8
f 12/25/9 13/25/9 14/26/9
f 15/27/10 16/28/10 17/28/10
f 18/29/11 19/30/11 20/31/11
f 21/16/12 22/32/12 1/33/12
f 20/7/13 9/6/13 8/21/13 18/34/13
f 11/24/14 22/32/14 21/16/14 10/15/14
f 7/12/15 3/11/15 2/17/15 5/35/15
f 12/25/16 4/18/16 3/11/16 13/10/16
f 22/8/17 20/7/17 19/36/17 1/37/17
f 1/33/18 15/38/18 17/13/18 21/16/18
f 16/9/19 7/12/19 6/39/19 17/28/19
f 9/6/20 11/5/20 24/40/20 23/22/20
f 13/10/21 16/9/21 15/27/21 14/26/21
f 4/41/22 8/42/22 23/43/22 2/44/22
f 5/19/23 24/23/23 10/15/23 6/14/23
f 18/29/24 12/45/24 14/46/24 19/47/24
f 14/46/25 15/38/25 1/37/25 19/47/25
f 5/19/26 2/44/26 23/22/26 24/23/26
f 28/1/1 36/2/1 42/3/1 32/4/1
f 35/5/27 33/6/27 44/7/27 46/8/27
f 40/9/28 37/10/28 27/11/28 31/12/28
f 41/13/4 30/14/4 34/15/4 45/16/4
f 26/17/29 27/17/29 28/18/29
f 29/19/30 30/20/30 31/20/30
f 32/21/31 33/21/31 47/22/31
f 34/15/32 48/23/32 35/24/32
f 36/25/33 37/25/33 38/26/33
f 39/27/34 40/28/34 41/28/34
f 42/29/35 43/30/35 44/31/35
f 45/16/36 46/32/36 25/33/36
f 44/7/37 33/6/37 32/21/37 42/34/37
f 35/24/38 46/32/38 45/16/38 34/15/38
f 31/12/39 27/11/39 26/17/39 29/35/39
f 36/25/40 28/18/40 27/11/40 37/10/40
f 46/8/41 44/7/41 43/36/41 25/37/41
f 25/33/42 39/38/42 41/13/42 45/16/42
f 40/9/43 31/12/43 30/39/43 41/28/43
f 33/6/44 35/5/44 48/40/44 47/22/44
f 37/10/45 40/9/45 39/27/45 38/26/45
f 28/41/46 32/42/46 47/43/46 26/44/46
f 29/19/47 48/23/47 34/15/47 30/14/47
f 42/29/48 36/45/48 38/46/48 43/47/48
f 38/46/49 39/38/49 25/37/49 43/47/49
f 29/19/50 26/44/50 47/22/50 48/23/50
f 52/1/1 60/2/1 66/3/1 56/4/1
f 59/5/51 57/6/51 68/7/51 70/8/51
f 64/9/52 61/10/52 51/11/52 55/12/52
f 65/13/4 54/14/4 58/15/4 69/16/4
f 50/17/53 51/17/53 52/18/53
f 53/19/54 54/20/54 55/20/54
f 56/21/55 57/21/55 71/22/55
f 58/15/56 72/23/56 59/24/56
f 60/25/57 61/25/57 62/26/57
f 63/27/58 64/28/58 65/28/58
f 66/29/59 67/30/59 68/31/59
f 69/16/60 70/32/60 49/33/60
f 68/7/61 57/6/61 56/21/61 66/34/61
f 59/24/62 70/32/62 69/16/62 58/15/62
f 55/12/63 51/11/63 50/17/63 53/35/63
f 60/25/64 52/18/64 51/11/64 61/10/64
f 70/8/65 68/7/65 67/36/65 49/37/65
f 49/33/66 63/38/66 65/13/66 69/16/66
f 64/9/67 55/12/67 54/39/67 65/28/67
f 57/6/68 59/5/68 72/40/68 71/22/68
f 61/10/69 64/9/69 63/27/69 62/26/69
f 52/41/70 56/42/70 71/43/70 50/44/70
f 53/19/71 72/23/71 58/15/71 54/14/71
f 66/29/72 60/45/72 62/46/72 67/47/72
f 62/46/73 63/38/73 49/37/73 67/47/73
f 53/19/74 50/44/74 71/22/74 72/23/74
f 76/1/1 84/2/1 90/3/1 80/4/1
f 83/5/75 81/6/75 92/7/75 94/8/75
f 88/9/76 85/10/76 75/11/76 79/12/76
f 89/13/4 78/14/4 82/15/4 93/16/4
f 74/17/77 75/17/77 76/18/77
f 77/19/78 78/20/78 79/20/78
f 80/21/79 81/21/79 95/22/79
f 82/15/80 96/23/80 83/24/80
f 84/25/81 85/25/81 86/26/81
f 87/27/82 88/28/82 89/28/82
f 90/29/83 91/30/83 92/31/83
f 93/16/84 94/32/84 73/33/84
f 92/7/85 81/6/85 80/21/85 90/34/85
f 83/24/86 94/32/86 93/16/86 82/15/86
f 79/12/87 75/11/87 74/17/87 77/35/87
f 84/25/88 76/18/88 75/11/88 85/10/88
f 94/8/89 92/7/89 91/36/89 73/37/89
f 73/33/90 87/38/90 89/13/90 93/16/90
f 88/9/91 79/12/91 78/39/91 89/28/91
f 81/6/92 83/5/92 96/40/92 95/22/92
f 85/10/93 88/9/93 87/27/93 86/26/93
f 76/41/94 80/42/94 95/43/94 74/44/94
f 77/19/95 96/23/95 82/15/95 78/14/95
f 90/29/96 84/45/96 86/46/96 91/47/96
f 86/46/97 87/38/97 73/37/97 91/47/97
f 77/19/98 74/44/98 95/22/98 96/23/98
f 100/1/1 108/2/1 114/3/1 104/4/1
f 107/5/99 105/6/99 116/7/99 118/8/99
f 112/9/100 109/10/100 99/11/100 103/12/100
f 113/13/4 102/14/4 106/15/4 117/16/4
f 98/17/101 99/17/101 100/18/101
f 101/19/102 102/20/102 103/20/102
f 104/21/103 105/21/103 119/22/103
f 106/15/104 120/23/104 107/24/104
f 108/25/105 109/25/105 110/26/105
f 111/27/106 112/28/106 113/28/106
f 114/29/107 115/30/107 116/31/107
f 117/16/108 118/32/108 97/33/108
f 116/7/109 105/6/109 104/21/109 114/34/109
f 107/24/110 118/32/110 117/16/110 106/15/110
f 103/12/111 99/11/111 98/17/111 101/35/111
f 108/25/112 100/18/112 99/11/112 109/10/112
f 118/8/113 116/7/113 115/36/113 97/37/113
f 97/33/114 111/38/114 113/13/114 117/16/114
f 112/9/115 103/12/115 102/39/115 113/28/115
f 105/6/116 107/5/116 120/40/116 119/22/116
f 109/10/117 112/9/117 111/27/117 110/26/117
f 100/41/118 104/42/118 119/43/118 98/44/118
f 101/19/119 120/23/119 106/15/119 102/14/119
f 114/29/120 108/45/120 110/46/120 115/47/120
f 110/46/121 111/38/121 97/37/121 115/47/121
f 101/19/122 98/44/122 119/22/122 120/23/122
f 124/1/123 132/2/123 138/3/123 128/4/123
f 131/5/124 129/6/124 140/7/124 142/8/124
f 136/9/125 133/10/125 123/11/125 127/12/125
f 137/13/126 126/14/126 130/15/126 141/16/126
f 122/17/127 123/17/127 124/18/127
f 125/19/128 126/20/128 127/20/128
f 128/21/129 129/21/129 143/22/129
f 130/15/130 144/23/130 131/24/130
f 132/25/131 133/25/131 134/26/131
f 135/27/132 136/28/132 137/28/132
f 138/29/133 139/30/133 140/31/133
f 141/16/134 142/32/134 121/33/134
f 140/7/135 129/6/135 128/21/135 138/34/135
f 131/24/136 142/32/136 141/16/136 130/15/136
f 127/12/137 123/11/137 122/17/137 125/35/137
f 132/25/138 124/18/138 123/11/138 133/10/138
f 142/8/139 140/7/139 139/36/139 121/37/139
f 121/33/140 135/38/140 137/13/140 141/16/140
f 136/9/141 127/12/141 126/39/141 137/28/141
f 129/6/142 131/5/142 144/40/142 143/22/142
f 133/10/143 136/9/143 135/27/143 134/26/143
f 124/41/144 128/42/144 143/43/144 122/44/144
f 125/19/145 144/23/145 130/15/145 126/14/145
f 138/29/146 132/45/146 134/46/146 139/47/146
f 134/46/147 135/38/147 121/37/147 139/47/147
f 125/19/148 122/44/148 143/22/148 144/23/148
