# Blender 5.2.1 LTS
# www.blender.org
mtllib Prop_Candle.mtl
o EXPORT_Prop_Candle
v -0.000000 0.000000 -0.043418
v -0.000000 0.192652 -0.001560
v 0.037601 0.000000 -0.021709
v 0.001351 0.192652 -0.000780
v 0.037601 0.000000 0.021709
v 0.001351 0.192652 0.000780
v -0.000000 0.000000 0.043418
v -0.000000 0.192652 0.001560
v -0.037601 0.000000 0.021709
v -0.001351 0.192652 0.000780
v -0.037601 0.000000 -0.021709
v -0.001351 0.192652 -0.000780
v 0.037601 0.192652 -0.021709
v -0.000000 0.192652 -0.043418
v 0.037601 0.192652 0.021709
v -0.000000 0.192652 0.043418
v -0.037601 0.192652 0.021709
v -0.037601 0.192652 -0.021709
v -0.000000 0.230935 -0.002464
v 0.002134 0.230935 -0.001232
v 0.002134 0.230935 0.001232
v -0.000000 0.230935 0.002464
v -0.002134 0.230935 0.001232
v -0.002134 0.230935 -0.001232
vn 0.5000 -0.0000 -0.8660
vn 1.0000 -0.0000 -0.0000
vn 0.5000 -0.0000 0.8660
vn -0.5000 -0.0000 0.8660
vn 0.4999 -0.0204 0.8658
vn -1.0000 -0.0000 -0.0000
vn -0.5000 -0.0000 -0.8660
vn -0.0000 -1.0000 -0.0000
vn -0.0000 1.0000 -0.0000
vn 0.4999 -0.0204 -0.8658
vn -0.4999 -0.0204 -0.8658
vn -0.4999 -0.0204 0.8658
vn 0.9998 -0.0204 -0.0000
vn -0.9998 -0.0204 -0.0000
vt 1.000000 0.500000
vt 1.000000 1.000000
vt 0.833333 1.000000
vt 0.833333 0.500000
vt 0.666667 1.000000
vt 0.666667 0.500000
vt 0.500000 1.000000
vt 0.500000 0.500000
vt 0.333333 1.000000
vt 0.333333 0.500000
vt 0.250000 0.147298
vt 0.338942 0.198649
vt 0.166667 1.000000
vt 0.166667 0.500000
vt -0.000000 1.000000
vt -0.000000 0.500000
vt 0.750000 0.490000
vt 0.957846 0.370000
vt 0.957846 0.130000
vt 0.750000 0.010000
vt 0.542154 0.130000
vt 0.542154 0.370000
vt 0.250000 0.352702
vt 0.338942 0.301351
vt 0.457846 0.370000
vt 0.250000 0.490000
vt 0.457846 0.130000
vt 0.250000 0.010000
vt 0.161058 0.198649
vt 0.042154 0.130000
vt 0.161058 0.301351
vt 0.042154 0.370000
s 1
usemtl black.002
f 8/11/5 6/12/5 21/12/5 22/11/5
f 20/24/9 19/23/9 24/31/9 23/29/9 22/11/9 21/12/9
f 4/24/10 2/23/10 19/23/10 20/24/10
f 2/23/11 12/31/11 24/31/11 19/23/11
f 10/29/12 8/11/12 22/11/12 23/29/12
f 6/12/13 4/24/13 20/24/13 21/12/13
f 12/31/14 10/29/14 23/29/14 24/31/14
usemtl beige.002
f 1/1/1 14/2/1 13/3/1 3/4/1
f 3/4/2 13/3/2 15/5/2 5/6/2
f 5/6/3 15/5/3 16/7/3 7/8/3
f 7/8/4 16/7/4 17/9/4 9/10/4
f 9/10/6 17/9/6 18/13/6 11/14/6
f 11/14/7 18/13/7 14/15/7 1/16/7
f 1/17/8 3/18/8 5/19/8 7/20/8 9/21/8 11/22/8
f 2/23/9 4/24/9 13/25/9 14/26/9
f 4/24/9 6/12/9 15/27/9 13/25/9
f 6/12/9 8/11/9 16/28/9 15/27/9
f 8/11/9 10/29/9 17/30/9 16/28/9
f 10/29/9 12/31/9 18/32/9 17/30/9
f 12/31/9 2/23/9 14/26/9 18/32/9
