# Blender 5.2.1 LTS
# www.blender.org
mtllib Prop_Pillar.mtl
o EXPORT_Prop_Pillar
v -0.440830 0.000000 0.440830
v -0.440830 3.088951 0.440830
v -0.440830 0.000000 -0.440830
v -0.440830 3.088951 -0.440830
v 0.440830 0.000000 0.440830
v 0.440830 3.088951 0.440830
v 0.440830 0.000000 -0.440830
v 0.440830 3.088951 -0.440830
v -0.447410 0.380374 0.447410
v -0.300325 1.572986 0.300325
v -0.215201 1.695869 0.215201
v -0.300325 1.818753 0.300325
v -0.310621 2.225107 0.310621
v -0.435457 2.681118 0.435457
v -0.435457 2.681117 -0.435457
v -0.310621 2.225107 -0.310621
v -0.300325 1.818753 -0.300325
v -0.215201 1.695869 -0.215201
v -0.300325 1.572985 -0.300325
v -0.447410 0.380374 -0.447410
v 0.435457 2.681117 -0.435457
v 0.310621 2.225107 -0.310621
v 0.300325 1.818753 -0.300325
v 0.215201 1.695869 -0.215201
v 0.300325 1.572985 -0.300325
v 0.447410 0.380374 -0.447410
v 0.435457 2.681117 0.435457
v 0.310621 2.225107 0.310621
v 0.300325 1.818753 0.300325
v 0.215201 1.695869 0.215201
v 0.300325 1.572985 0.300325
v 0.447410 0.380374 0.447410
v -0.250290 0.520765 0.250290
v -0.355714 1.001811 0.355714
v -0.251749 2.443625 0.251749
v -0.251749 2.551381 0.251749
v -0.251749 2.551381 -0.251749
v -0.251749 2.443625 -0.251749
v -0.355714 1.001811 -0.355714
v -0.250290 0.520765 -0.250290
v 0.251749 2.551381 -0.251749
v 0.251749 2.443625 -0.251749
v 0.355714 1.001811 -0.355714
v 0.250290 0.520765 -0.250290
v 0.251749 2.551381 0.251749
v 0.251749 2.443625 0.251749
v 0.355714 1.001811 0.355714
v 0.250290 0.520765 0.250290
v -0.248913 0.812319 0.248913
v -0.248913 0.812319 -0.248913
v 0.248913 0.812319 -0.248913
v 0.248913 0.812319 0.248913
v -0.323592 1.333052 0.323592
v -0.328297 1.284537 0.328297
v -0.322834 1.340874 0.060028
v -0.322814 1.341075 0.059441
v -0.174668 1.386633 0.318396
v -0.304990 1.293481 0.263614
vn -0.9999 -0.0132 -0.0000
vn -0.0000 -0.0132 -0.9999
vn 0.9999 -0.0132 -0.0000
vn -0.0000 -0.0132 0.9999
vn -0.0000 -1.0000 -0.0000
vn -0.0000 1.0000 -0.0000
vn -0.0000 -0.0173 0.9999
vn -0.0000 0.2601 0.9656
vn -0.0000 0.5694 0.8220
vn -0.0000 -0.5694 0.8220
vn -0.0000 -0.0253 0.9997
vn 0.5769 -0.8168 -0.0000
vn 0.9999 -0.0173 -0.0000
vn -0.5801 0.8145 -0.0000
vn 0.8220 0.5694 -0.0000
vn 0.8220 -0.5694 -0.0000
vn 0.9997 -0.0253 -0.0000
vn 0.9656 0.2601 -0.0000
vn -0.0000 -0.0173 -0.9999
vn -0.0000 -0.8168 -0.5769
vn -0.0000 0.5694 -0.8220
vn -0.0000 -0.5694 -0.8220
vn -0.0000 -0.0253 -0.9997
vn -0.0000 0.2601 -0.9656
vn -0.9999 -0.0173 -0.0000
vn -0.0000 0.0965 0.9953
vn -0.8220 0.5694 -0.0000
vn -0.8220 -0.5694 -0.0000
vn -0.9997 -0.0253 -0.0000
vn -0.5769 -0.8168 -0.0000
vn -0.0000 -0.4910 0.8712
vn -0.0000 -0.0000 1.0000
vn 0.8712 -0.4910 -0.0000
vn 1.0000 -0.0000 -0.0000
vn -0.0000 -0.4910 -0.8712
vn -0.0000 -0.0000 -1.0000
vn -0.8712 -0.4910 -0.0000
vn -1.0000 -0.0000 -0.0000
vn -0.9953 0.0965 -0.0000
vn -0.0000 0.8145 -0.5801
vn -0.0000 -0.8168 0.5769
vn -0.0000 0.0965 -0.9953
vn 0.5801 0.8145 -0.0000
vn 0.9953 0.0965 -0.0000
vn -0.9656 0.2601 -0.0000
vn -0.0000 0.8145 0.5801
vn -1.0000 0.0047 -0.0000
vn -0.0000 0.0047 -1.0000
vn 1.0000 0.0047 -0.0000
vn -0.0000 0.0047 1.0000
vn -0.9133 -0.4070 -0.0147
vn -0.5553 0.8272 -0.0857
vn 0.2919 -0.7542 0.5881
vn 0.2021 0.9576 0.2052
vt 0.589286 0.000000
vt 0.625000 0.000000
vt 0.625000 0.250000
vt 0.589286 0.250000
vt 0.625000 0.500000
vt 0.589286 0.500000
vt 0.625000 0.750000
vt 0.589286 0.750000
vt 0.625000 1.000000
vt 0.589286 1.000000
vt 0.125000 0.500000
vt 0.375000 0.500000
vt 0.375000 0.750000
vt 0.125000 0.750000
vt 0.875000 0.500000
vt 0.875000 0.750000
vt 0.410714 0.750000
vt 0.410714 1.000000
vt 0.375000 1.000000
vt 0.553571 1.000000
vt 0.553571 0.750000
vt 0.567730 0.750000
vt 0.567731 0.979422
vt 0.446429 0.750000
vt 0.482143 0.750000
vt 0.482143 1.000000
vt 0.446429 1.000000
vt 0.517857 0.750000
vt 0.517857 1.000000
vt 0.410714 0.500000
vt 0.410714 0.250000
vt 0.410714 0.000000
vt 0.446429 0.500000
vt 0.482143 0.500000
vt 0.517857 0.500000
vt 0.553571 0.500000
vt 0.567730 0.500000
vt 0.375000 0.250000
vt 0.446429 0.250000
vt 0.482143 0.250000
vt 0.517857 0.250000
vt 0.553571 0.250000
vt 0.567730 0.250000
vt 0.375000 0.000000
vt 0.441142 0.991711
vt 0.442322 0.939246
vt 0.440073 0.990035
vt 0.433843 0.980267
vt 0.433843 0.750000
vt 0.446429 0.000000
vt 0.482143 0.000000
vt 0.517857 0.000000
vt 0.553571 0.000000
vt 0.428061 0.750000
vt 0.428061 0.985200
vt 0.428061 0.500000
vt 0.433843 0.500000
vt 0.428061 0.250000
vt 0.433843 0.250000
vt 0.428061 0.014800
vt 0.433843 0.019733
vt 0.567731 0.020578
vt 0.441318 0.106532
vt 0.441314 0.106316
vt 0.441142 0.008289
vt 0.440609 0.009124
vt 0.440073 0.009965
vt 0.440609 0.990876
s 1
usemtl grey.002
f 14/1/1 2/2/1 4/3/1 15/4/1
f 15/4/2 4/3/2 8/5/2 21/6/2
f 21/6/3 8/5/3 6/7/3 27/8/3
f 27/8/4 6/7/4 2/9/4 14/10/4
f 3/11/5 7/12/5 5/13/5 1/14/5
f 8/5/6 4/15/6 2/16/6 6/7/6
f 5/13/7 32/17/7 9/18/7 1/19/7
f 13/20/8 28/21/8 46/22/8 35/23/8
f 31/24/9 30/25/9 11/26/9 10/27/9
f 30/25/10 29/28/10 12/29/10 11/26/10
f 29/28/11 28/21/11 13/20/11 12/29/11
f 21/6/12 27/8/12 45/8/12 41/6/12
f 7/12/13 26/30/13 32/17/13 5/13/13
f 20/31/14 9/32/14 33/32/14 40/31/14
f 25/33/15 24/34/15 30/25/15 31/24/15
f 24/34/16 23/35/16 29/28/16 30/25/16
f 23/35/17 22/36/17 28/21/17 29/28/17
f 28/21/18 22/36/18 42/37/18 46/22/18
f 3/38/19 20/31/19 26/30/19 7/12/19
f 15/4/20 21/6/20 41/6/20 37/4/20
f 19/39/21 18/40/21 24/34/21 25/33/21
f 18/40/22 17/41/22 23/35/22 24/34/22
f 17/41/23 16/42/23 22/36/23 23/35/23
f 22/36/24 16/42/24 38/43/24 42/37/24
f 1/44/25 9/32/25 20/31/25 3/38/25
f 31/24/26 10/27/26 53/45/26 57/46/26 54/47/26 34/48/26 47/49/26
f 10/50/27 11/51/27 18/40/27 19/39/27
f 11/51/28 12/52/28 17/41/28 18/40/28
f 12/52/29 13/53/29 16/42/29 17/41/29
f 14/1/30 15/4/30 37/4/30 36/1/30
f 52/54/31 47/49/31 34/48/31 49/55/31
f 46/22/32 45/8/32 36/10/32 35/23/32
f 51/56/33 43/57/33 47/49/33 52/54/33
f 42/37/34 41/6/34 45/8/34 46/22/34
f 50/58/35 39/59/35 43/57/35 51/56/35
f 38/43/36 37/4/36 41/6/36 42/37/36
f 49/60/37 34/61/37 39/59/37 50/58/37
f 35/62/38 36/1/38 37/4/38 38/43/38
f 10/50/39 19/39/39 56/63/39 55/64/39 53/65/39
f 26/30/40 20/31/40 40/31/40 44/30/40
f 27/8/41 14/10/41 36/10/41 45/8/41
f 19/39/42 25/33/42 43/57/42 39/59/42
f 32/17/43 26/30/43 44/30/43 48/17/43
f 25/33/44 31/24/44 47/49/44 43/57/44
f 16/42/45 13/53/45 35/62/45 38/43/45
f 9/18/46 32/17/46 48/17/46 33/18/46
f 33/32/47 49/60/47 50/58/47 40/31/47
f 40/31/48 50/58/48 51/56/48 44/30/48
f 44/30/49 51/56/49 52/54/49 48/17/49
f 48/17/50 52/54/50 49/55/50 33/18/50
f 53/65/51 55/64/51 58/66/51
f 54/67/39 55/64/39 56/63/39 19/39/39 39/59/39 34/61/39
f 54/47/52 57/46/52 58/68/52
f 58/68/53 57/46/53 53/45/53
f 58/66/54 55/64/54 54/67/54
