# Blender 5.2.1 LTS
# www.blender.org
mtllib Prop_Barrel.mtl
o EXPORT_Prop_Barrel
v 0.000000 0.027133 -0.456578
v 0.000000 1.449536 -0.456578
v 0.268370 0.027133 -0.369379
v 0.268370 1.449536 -0.369379
v 0.434232 0.027133 -0.141090
v 0.434232 1.449536 -0.141090
v 0.434232 0.027133 0.141091
v 0.434232 1.449536 0.141091
v 0.268370 0.027133 0.369380
v 0.268370 1.449536 0.369380
v -0.000000 0.027133 0.456578
v -0.000000 1.449536 0.456578
v -0.268370 0.027133 0.369380
v -0.268370 1.449536 0.369380
v -0.434232 0.027133 0.141091
v -0.434232 1.449536 0.141091
v -0.434232 0.027133 -0.141090
v -0.434232 1.449536 -0.141090
v -0.268370 0.027133 -0.369379
v -0.268370 1.449536 -0.369379
v 0.000000 0.027133 -0.550862
v 0.323789 0.027133 -0.445657
v 0.323789 1.449536 -0.445657
v 0.000000 1.449536 -0.550862
v 0.523901 0.027133 -0.170226
v 0.523901 1.449536 -0.170226
v 0.523901 0.027133 0.170226
v 0.523901 1.449536 0.170226
v 0.323789 0.027133 0.445657
v 0.323789 1.449536 0.445657
v -0.000000 0.027133 0.550862
v -0.000000 1.449536 0.550862
v -0.323789 0.027133 0.445657
v -0.323789 1.449536 0.445657
v -0.523901 0.027133 0.170226
v -0.523901 1.449536 0.170226
v -0.523901 0.027133 -0.170226
v -0.523901 1.449536 -0.170226
v -0.323789 0.027133 -0.445657
v -0.323789 1.449536 -0.445657
v 0.000000 0.130278 -0.456578
v 0.268370 0.130278 -0.369379
v 0.268370 1.346391 -0.369379
v 0.000000 1.346391 -0.456578
v 0.434232 0.130278 -0.141090
v 0.434232 1.346391 -0.141090
v 0.434232 0.130278 0.141091
v 0.434232 1.346391 0.141091
v 0.268370 0.130278 0.369380
v 0.268370 1.346391 0.369380
v -0.000000 0.130278 0.456578
v -0.000000 1.346391 0.456578
v -0.268370 0.130278 0.369380
v -0.268370 1.346391 0.369380
v -0.434232 0.130278 0.141091
v -0.434232 1.346391 0.141091
v -0.434232 0.130278 -0.141090
v -0.434232 1.346391 -0.141090
v -0.268370 0.130278 -0.369379
v -0.268370 1.346391 -0.369379
v 0.017753 0.027133 -0.605499
v 0.017753 1.449536 -0.605499
v 0.341541 1.449536 -0.500293
v 0.341541 0.027133 -0.500293
v 0.370265 0.027133 -0.479424
v 0.370265 1.449536 -0.479424
v 0.570378 1.449536 -0.203993
v 0.570378 0.027133 -0.203993
v 0.581349 0.027133 -0.170226
v 0.581349 1.449536 -0.170226
v 0.581349 1.449536 0.170226
v 0.581349 0.027133 0.170226
v 0.570378 0.027133 0.203993
v 0.570378 1.449536 0.203993
v 0.370265 1.449536 0.479424
v 0.370265 0.027133 0.479424
v 0.341541 0.027133 0.500294
v 0.341541 1.449536 0.500294
v 0.017753 1.449536 0.605499
v 0.017753 0.027133 0.605499
v -0.017753 0.027133 0.605499
v -0.017753 1.449536 0.605499
v -0.341541 1.449536 0.500293
v -0.341541 0.027133 0.500293
v -0.370265 0.027133 0.479424
v -0.370265 1.449536 0.479424
v -0.570378 1.449536 0.203993
v -0.570378 0.027133 0.203993
v -0.581349 0.027133 0.170226
v -0.581349 1.449536 0.170226
v -0.581349 1.449536 -0.170226
v -0.581349 0.027133 -0.170226
v -0.570378 0.027133 -0.203993
v -0.570378 1.449536 -0.203993
v -0.370265 1.449536 -0.479424
v -0.370265 0.027133 -0.479424
v -0.341541 0.027133 -0.500293
v -0.341541 1.449536 -0.500293
v -0.017753 1.449536 -0.605499
v -0.017753 0.027133 -0.605499
v -0.000000 1.505545 0.550862
v 0.323789 1.505545 0.445657
v -0.523901 1.482612 0.170226
v -0.323789 1.482612 0.445657
v 0.000000 1.482612 -0.550862
v -0.323789 1.482612 -0.445657
v -0.000000 1.505545 0.456578
v 0.268370 1.505545 0.369380
v -0.434232 1.482612 0.141091
v -0.268370 1.482612 0.369380
v 0.000000 1.482612 -0.456578
v -0.268370 1.482612 -0.369379
v 0.017753 1.505545 0.605499
v 0.341541 1.505545 0.500294
v -0.570378 1.482612 0.203993
v -0.370265 1.482612 0.479424
v -0.017753 1.482612 -0.605499
v -0.341541 1.482612 -0.500293
v 0.000000 0.000000 -0.550862
v 0.323789 0.000000 -0.445657
v 0.523901 0.000000 -0.170226
v 0.523901 0.000000 0.170226
v 0.323789 0.000000 0.445657
v -0.000000 0.000000 0.550862
v -0.323789 0.000000 0.445657
v -0.523901 0.000000 0.170226
v -0.523901 0.000000 -0.170226
v -0.323789 0.000000 -0.445657
v 0.000000 0.000000 -0.456578
v 0.268370 0.000000 -0.369379
v 0.434232 0.000000 -0.141090
v 0.434232 0.000000 0.141091
v 0.268370 0.000000 0.369380
v -0.000000 0.000000 0.456578
v -0.268370 0.000000 0.369380
v -0.434232 0.000000 0.141091
v -0.434232 0.000000 -0.141090
v -0.268370 0.000000 -0.369379
v 0.017753 0.000000 -0.605499
v 0.341541 0.000000 -0.500293
v 0.370265 0.000000 -0.479424
v 0.570378 0.000000 -0.203993
v 0.581349 0.000000 -0.170226
v 0.581349 0.000000 0.170226
v 0.570378 0.000000 0.203993
v 0.370265 0.000000 0.479424
v -0.017753 0.000000 0.605499
v -0.341541 0.000000 0.500293
v -0.581349 0.000000 0.170226
v -0.581349 0.000000 -0.170226
v -0.570378 0.000000 -0.203993
v -0.370265 0.000000 -0.479424
v 0.000000 0.343192 -0.612117
v 0.000000 0.738334 -0.647164
v 0.000000 1.133477 -0.612117
v 0.359793 1.133477 -0.495213
v 0.380393 0.738334 -0.523566
v 0.359793 0.343192 -0.495213
v 0.582157 1.133477 -0.189154
v 0.615489 0.738334 -0.199984
v 0.582157 0.343192 -0.189154
v 0.582157 1.133477 0.189155
v 0.615489 0.738334 0.199985
v 0.582157 0.343192 0.189155
v 0.359793 1.133477 0.495213
v 0.380393 0.738334 0.523567
v 0.359793 0.343192 0.495213
v -0.000000 1.133477 0.612117
v -0.000000 0.738334 0.647164
v -0.000000 0.343192 0.612117
v -0.359793 1.133477 0.495213
v -0.380393 0.738334 0.523566
v -0.359793 0.343192 0.495213
v -0.582157 1.133477 0.189155
v -0.615489 0.738334 0.199985
v -0.582157 0.343192 0.189155
v -0.582157 1.133477 -0.189154
v -0.615489 0.738334 -0.199985
v -0.582157 0.343192 -0.189154
v -0.359793 1.133477 -0.495213
v -0.380393 0.738334 -0.523566
v -0.359793 0.343192 -0.495213
v 0.019727 1.133477 -0.672829
v 0.020856 0.738334 -0.711352
v 0.019727 0.343192 -0.672829
v 0.379520 0.343192 -0.555925
v 0.401249 0.738334 -0.587755
v 0.379520 1.133477 -0.555925
v 0.411438 1.133477 -0.532735
v 0.434995 0.738334 -0.563237
v 0.411438 0.343192 -0.532735
v 0.633802 0.343192 -0.226677
v 0.670091 0.738334 -0.239655
v 0.633802 1.133477 -0.226677
v 0.645994 1.133477 -0.189154
v 0.682981 0.738334 -0.199984
v 0.645994 0.343192 -0.189154
v 0.645994 0.343192 0.189155
v 0.682981 0.738334 0.199985
v 0.645994 1.133477 0.189155
v 0.633802 1.133477 0.226677
v 0.670091 0.738334 0.239655
v 0.633802 0.343192 0.226677
v 0.411438 0.343192 0.532735
v 0.434995 0.738334 0.563237
v 0.411438 1.133477 0.532735
v 0.379520 1.133477 0.555925
v 0.401249 0.738334 0.587755
v 0.379520 0.343192 0.555925
v 0.019727 0.343192 0.672829
v 0.020856 0.738334 0.711352
v 0.019727 1.133477 0.672829
v -0.019727 1.133477 0.672829
v -0.020856 0.738334 0.711352
v -0.019727 0.343192 0.672829
v -0.379520 0.343192 0.555925
v -0.401249 0.738334 0.587755
v -0.379520 1.133477 0.555925
v -0.411438 1.133477 0.532735
v -0.434995 0.738334 0.563237
v -0.411438 0.343192 0.532735
v -0.633802 0.343192 0.226677
v -0.670091 0.738334 0.239655
v -0.633802 1.133477 0.226677
v -0.645994 1.133477 0.189155
v -0.682981 0.738334 0.199985
v -0.645994 0.343192 0.189155
v -0.645994 0.343192 -0.189154
v -0.682981 0.738334 -0.199985
v -0.645994 1.133477 -0.189154
v -0.633802 1.133477 -0.226677
v -0.670091 0.738334 -0.239655
v -0.633802 0.343192 -0.226677
v -0.411438 0.343192 -0.532735
v -0.434995 0.738334 -0.563237
v -0.411438 1.133477 -0.532735
v -0.379520 1.133477 -0.555925
v -0.401249 0.738334 -0.587755
v -0.379520 0.343192 -0.555925
v -0.019727 0.343192 -0.672829
v -0.020856 0.738334 -0.711352
v -0.019727 1.133477 -0.672829
v 0.395778 1.160857 -0.544742
v 0.000000 1.160857 -0.673338
v 0.640382 1.160857 -0.208073
v 0.640382 1.160857 0.208073
v 0.395778 1.160857 0.544742
v -0.000000 1.160857 0.673338
v -0.395778 1.160857 0.544742
v -0.640382 1.160857 0.208073
v -0.640382 1.160857 -0.208073
v -0.395778 1.160857 -0.544742
v 0.408243 1.012423 -0.561898
v 0.000000 1.012423 -0.694544
v 0.660551 1.012423 -0.214626
v 0.660551 1.012423 0.214626
v 0.408243 1.012423 0.561898
v -0.000000 1.012423 0.694544
v -0.408243 1.012423 0.561898
v -0.660551 1.012423 0.214626
v -0.660551 1.012423 -0.214626
v -0.408243 1.012423 -0.561898
v 0.415829 1.152800 -0.572339
v 0.000000 1.152800 -0.707451
v 0.672825 1.152800 -0.218614
v 0.672825 1.152800 0.218614
v 0.415829 1.152800 0.572339
v -0.000000 1.152800 0.707451
v -0.415829 1.152800 0.572339
v -0.672825 1.152800 0.218614
v -0.672825 1.152800 -0.218614
v -0.415829 1.152800 -0.572339
v 0.426941 1.020480 -0.587633
v 0.000000 1.020480 -0.726355
v 0.690804 1.020480 -0.224456
v 0.690804 1.020480 0.224456
v 0.426941 1.020480 0.587633
v -0.000000 1.020480 0.726355
v -0.426941 1.020480 0.587633
v -0.690804 1.020480 0.224456
v -0.690804 1.020480 -0.224456
v -0.426941 1.020480 -0.587633
v -0.395778 0.324638 -0.544742
v -0.000000 0.324638 -0.673338
v -0.640382 0.324638 -0.208073
v -0.640382 0.324638 0.208073
v -0.395778 0.324638 0.544742
v 0.000000 0.324638 0.673338
v 0.395778 0.324638 0.544742
v 0.640382 0.324638 0.208073
v 0.640382 0.324638 -0.208073
v 0.395778 0.324638 -0.544742
v -0.408243 0.473072 -0.561898
v -0.000000 0.473072 -0.694544
v -0.660551 0.473072 -0.214626
v -0.660551 0.473072 0.214626
v -0.408243 0.473072 0.561898
v 0.000000 0.473072 0.694544
v 0.408243 0.473072 0.561898
v 0.660551 0.473072 0.214626
v 0.660551 0.473072 -0.214626
v 0.408243 0.473072 -0.561898
v -0.415829 0.332695 -0.572339
v -0.000000 0.332695 -0.707451
v -0.672825 0.332695 -0.218614
v -0.672825 0.332695 0.218614
v -0.415829 0.332695 0.572339
v 0.000000 0.332695 0.707451
v 0.415829 0.332695 0.572339
v 0.672825 0.332695 0.218614
v 0.672825 0.332695 -0.218614
v 0.415829 0.332695 -0.572339
v -0.426941 0.465015 -0.587633
v -0.000000 0.465015 -0.726355
v -0.690804 0.465015 -0.224456
v -0.690804 0.465015 0.224456
v -0.426941 0.465015 0.587633
v 0.000000 0.465015 0.726355
v 0.426941 0.465015 0.587633
v 0.690804 0.465015 0.224456
v 0.690804 0.465015 -0.224456
v 0.426941 0.465015 -0.587633
vn 0.3090 -0.0000 -0.9511
vn 0.3090 -0.0000 0.9511
vn 0.5878 -0.0000 -0.8090
vn -0.0000 1.0000 -0.0000
vn -0.5878 -0.0000 0.8090
vn -0.8090 -0.0000 0.5878
vn 0.5878 -0.0000 0.8090
vn -0.0000 -1.0000 -0.0000
vn 0.9511 -0.0000 -0.3090
vn 1.0000 -0.0000 -0.0000
vn -0.3090 -0.0000 -0.9511
vn -0.3090 -0.0000 0.9511
vn 0.8090 -0.0000 0.5878
vn -1.0000 -0.0000 -0.0000
vn 0.8090 -0.0000 -0.5878
vn -0.8090 -0.0000 -0.5878
vn 0.3027 0.2004 -0.9318
vn -0.9494 -0.0598 -0.3085
vn 0.9494 0.0598 0.3085
vn 0.7926 0.2004 -0.5759
vn -0.5867 -0.0598 -0.8076
vn 0.5867 0.0598 0.8076
vn -0.5878 -0.0000 -0.8090
vn 0.9797 0.2004 -0.0000
vn -0.0000 -0.0598 -0.9982
vn -0.0000 0.0598 0.9982
vn 0.7926 0.2004 0.5759
vn 0.5867 -0.0598 -0.8076
vn -0.5867 0.0598 0.8076
vn 0.3027 0.2004 0.9318
vn 0.9494 -0.0598 -0.3085
vn -0.9494 0.0598 0.3085
vn -0.3027 0.2004 0.9318
vn 0.9494 -0.0598 0.3085
vn -0.9494 0.0598 -0.3085
vn -0.7926 0.2004 0.5759
vn 0.5867 -0.0598 0.8076
vn -0.5867 0.0598 -0.8076
vn -0.9797 0.2004 -0.0000
vn -0.0000 -0.0598 0.9982
vn -0.0000 0.0598 -0.9982
vn -0.0000 -0.0000 1.0000
vn -0.7926 0.2004 -0.5759
vn -0.5867 -0.0598 0.8076
vn 0.5867 0.0598 -0.8076
vn -0.0000 -0.0000 -1.0000
vn -0.3027 0.2004 -0.9318
vn -0.9494 -0.0598 0.3085
vn 0.9494 0.0598 -0.3085
vn -0.9511 -0.0000 0.3090
vn 0.9511 -0.0000 0.3090
vn -0.9511 -0.0000 -0.3090
vn 0.9507 -0.0274 -0.3089
vn -0.9507 0.0274 0.3089
vn -0.9507 -0.0274 0.3089
vn -0.3027 -0.2004 -0.9318
vn -0.3077 -0.0932 -0.9469
vn 0.5876 -0.0274 -0.8087
vn -0.5876 0.0274 0.8087
vn -0.5876 -0.0274 0.8087
vn -0.7926 -0.2004 -0.5759
vn -0.8055 -0.0932 -0.5852
vn -0.0000 -0.0274 -0.9996
vn -0.0000 0.0274 0.9996
vn -0.0000 -0.0274 0.9996
vn -0.9797 -0.2004 -0.0000
vn -0.9956 -0.0932 -0.0000
vn -0.5876 -0.0274 -0.8087
vn 0.5876 0.0274 0.8087
vn 0.5876 -0.0274 0.8087
vn -0.7926 -0.2004 0.5759
vn -0.8055 -0.0932 0.5852
vn -0.9507 -0.0274 -0.3089
vn 0.9507 0.0274 0.3089
vn 0.9507 -0.0274 0.3089
vn -0.3027 -0.2004 0.9318
vn -0.3077 -0.0932 0.9469
vn 0.9507 0.0274 -0.3089
vn 0.3027 -0.2004 0.9318
vn 0.3077 -0.0932 0.9469
vn 0.5876 0.0274 -0.8087
vn 0.7926 -0.2004 0.5759
vn 0.8055 -0.0932 0.5852
vn -0.0000 0.0274 -0.9996
vn 0.9797 -0.2004 -0.0000
vn 0.9956 -0.0932 -0.0000
vn -0.5876 0.0274 -0.8087
vn 0.7926 -0.2004 -0.5759
vn 0.8055 -0.0932 -0.5852
vn -0.9507 0.0274 -0.3089
vn 0.3027 -0.2004 -0.9318
vn 0.3077 -0.0932 -0.9469
vn 0.3077 0.0932 -0.9469
vn 0.8055 0.0932 -0.5852
vn 0.9956 0.0932 -0.0000
vn 0.8055 0.0932 0.5852
vn 0.3077 0.0932 0.9469
vn -0.3077 0.0932 0.9469
vn -0.8055 0.0932 0.5852
vn -0.9956 0.0932 -0.0000
vn -0.8055 0.0932 -0.5852
vn -0.3077 0.0932 -0.9469
vn -0.9909 -0.1346 -0.0000
vn -0.8017 -0.1346 0.5824
vn 0.8017 0.1346 0.5824
vn 0.3062 0.1346 -0.9424
vn -0.9909 0.1346 -0.0000
vn 0.3062 0.1346 0.9424
vn 0.8017 0.1346 -0.5824
vn -0.8017 0.1346 -0.5824
vn -0.3062 0.1346 0.9424
vn 0.9909 0.1346 -0.0000
vn -0.3062 0.1346 -0.9424
vn -0.8017 0.1346 0.5824
vn 0.0745 0.9705 -0.2292
vn 0.1950 0.9705 -0.1417
vn 0.2410 0.9705 -0.0000
vn 0.1950 0.9705 0.1417
vn 0.0745 0.9705 0.2292
vn -0.0745 0.9705 0.2292
vn -0.1950 0.9705 0.1417
vn -0.2410 0.9705 -0.0000
vn -0.1950 0.9705 -0.1417
vn -0.0745 0.9705 -0.2292
vn 0.0795 -0.9663 -0.2447
vn 0.2082 -0.9663 -0.1513
vn 0.2573 -0.9663 -0.0000
vn 0.2082 -0.9663 0.1513
vn 0.0795 -0.9663 0.2447
vn -0.0795 -0.9663 0.2447
vn -0.2082 -0.9663 0.1513
vn -0.2573 -0.9663 -0.0000
vn -0.2082 -0.9663 -0.1513
vn -0.0795 -0.9663 -0.2447
vn -0.8017 -0.1346 -0.5824
vn -0.3062 -0.1346 -0.9424
vn 0.3062 -0.1346 -0.9424
vn 0.8017 -0.1346 -0.5824
vn 0.9909 -0.1346 -0.0000
vn 0.8017 -0.1346 0.5824
vn 0.3062 -0.1346 0.9424
vn -0.3062 -0.1346 0.9424
vn -0.0745 -0.9705 -0.2292
vn -0.1950 -0.9705 -0.1417
vn -0.2410 -0.9705 -0.0000
vn -0.1950 -0.9705 0.1417
vn -0.0745 -0.9705 0.2292
vn 0.0745 -0.9705 0.2292
vn 0.1950 -0.9705 0.1417
vn 0.2410 -0.9705 -0.0000
vn 0.1950 -0.9705 -0.1417
vn 0.0745 -0.9705 -0.2292
vn -0.0795 0.9663 -0.2447
vn -0.2082 0.9663 -0.1513
vn -0.2573 0.9663 -0.0000
vn -0.2082 0.9663 0.1513
vn -0.0795 0.9663 0.2447
vn 0.0795 0.9663 0.2447
vn 0.2082 0.9663 0.1513
vn 0.2573 0.9663 -0.0000
vn 0.2082 0.9663 -0.1513
vn 0.0795 0.9663 -0.2447
vt 0.133076 0.089068
vt 0.250000 0.051078
vt 0.633076 0.410932
vt 0.750000 0.448922
vt 0.700000 0.500000
vt 0.250000 0.448922
vt 0.366924 0.410932
vt 0.391068 0.444164
vt 0.250000 0.490000
vt 0.200000 0.500000
vt 0.439186 0.311470
vt 0.478254 0.324164
vt 0.891068 0.055836
vt 0.866924 0.089068
vt 0.439186 0.188530
vt 0.478254 0.175836
vt 0.800000 0.500000
vt 0.366924 0.089068
vt 0.391068 0.055836
vt 0.750000 0.051078
vt 0.750000 0.010000
vt 0.600000 1.000000
vt 0.560814 0.311470
vt 0.560814 0.188530
vt 0.108932 0.055836
vt 0.250000 0.010000
vt 0.633076 0.089068
vt 0.608932 0.055836
vt 0.521746 0.175836
vt -0.000000 1.000000
vt 0.100000 1.000000
vt 0.866924 0.410932
vt 0.060814 0.188530
vt 0.060814 0.311470
vt 0.021746 0.324164
vt 0.021746 0.175836
vt 0.600000 0.500000
vt 0.133076 0.410932
vt 0.108932 0.444164
vt 0.608932 0.444164
vt 0.750000 0.490000
vt 0.939186 0.311470
vt 0.939186 0.188530
vt 1.000000 0.875000
vt 1.000000 1.000000
vt 0.900000 1.000000
vt 0.900000 0.875000
vt 1.000000 0.625000
vt 1.000000 0.500000
vt 0.100000 0.500000
vt 0.800000 1.000000
vt 0.800000 0.875000
vt 0.900000 0.625000
vt 0.900000 0.500000
vt 0.700000 1.000000
vt 0.700000 0.875000
vt 0.800000 0.625000
vt 0.600000 0.875000
vt 0.700000 0.625000
vt 0.500000 1.000000
vt 0.500000 0.875000
vt 0.600000 0.625000
vt 0.500000 0.875000
vt 0.500000 0.500000
vt 0.400000 1.000000
vt 0.400000 0.875000
vt 0.500000 0.625000
vt 0.300000 1.000000
vt 0.300000 0.875000
vt 0.400000 0.625000
vt 0.400000 0.500000
vt 0.300000 0.500000
vt 0.200000 1.000000
vt 0.200000 0.875000
vt 0.300000 0.625000
vt 0.100000 0.875000
vt 0.200000 0.625000
vt 0.100000 0.875000
vt -0.000000 0.875000
vt 0.100000 0.625000
vt -0.000000 0.500000
vt 0.891068 0.444164
vt 0.978254 0.324164
vt 0.978254 0.175836
vt 0.521746 0.324164
vt -0.000000 0.625000
vt -0.000000 0.750000
vt 0.100000 0.875000
vt 0.100000 0.750000
vt 0.100000 0.625000
vt 0.200000 0.875000
vt 0.200000 0.875000
vt 0.200000 0.750000
vt 0.300000 0.875000
vt 0.300000 0.875000
vt 0.300000 0.750000
vt 0.400000 0.875000
vt 0.400000 0.750000
vt 0.500000 0.875000
vt 0.500000 0.875000
vt 0.500000 0.750000
vt 0.500000 0.625000
vt 0.600000 0.750000
vt 0.700000 0.750000
vt 0.800000 0.875000
vt 0.800000 0.750000
vt 0.900000 0.875000
vt 0.900000 0.750000
vt 1.000000 0.875000
vt 1.000000 0.750000
vt 0.400000 0.875000
vt 0.300000 0.875000
vt -0.000000 0.875000
vt 0.411263 0.302397
vt 0.411263 0.197603
vt 0.410517 0.197845
vt 0.410517 0.302155
vt 0.349666 0.387178
vt 0.349205 0.386544
vt 0.250000 0.418777
vt 0.349205 0.113456
vt 0.250000 0.081223
vt 0.150795 0.113456
vt 0.089483 0.197845
vt 0.089483 0.302155
vt 0.150795 0.386544
vt 0.250000 0.419562
vt 0.349666 0.112822
vt 0.250000 0.080438
vt 0.150334 0.112822
vt 0.088737 0.197603
vt 0.088737 0.302397
vt 0.150334 0.387178
s 1
usemtl light_grey.002
f 255/114/103 256/115/103 246/116/103 245/117/103
f 253/118/104 255/114/104 245/117/104 243/119/104
f 267/18/105 277/18/105 276/15/105 266/15/105
f 263/7/106 273/7/106 274/6/106 264/6/106
f 271/34/107 281/34/107 280/33/107 270/33/107
f 268/2/108 278/2/108 277/18/108 267/18/108
f 265/11/109 275/11/109 273/7/109 263/7/109
f 272/38/110 282/38/110 281/34/110 271/34/110
f 269/1/111 279/1/111 278/2/111 268/2/111
f 266/15/112 276/15/112 275/11/112 265/11/112
f 264/6/113 274/6/113 282/38/113 272/38/113
f 270/33/114 280/33/114 279/1/114 269/1/114
f 244/120/115 243/119/115 263/7/115 264/6/115
f 243/119/116 245/117/116 265/11/116 263/7/116
f 245/117/117 246/116/117 266/15/117 265/11/117
f 246/116/118 247/121/118 267/18/118 266/15/118
f 247/121/119 248/122/119 268/2/119 267/18/119
f 248/122/120 249/123/120 269/1/120 268/2/120
f 249/123/121 250/124/121 270/33/121 269/1/121
f 250/124/122 251/125/122 271/34/122 270/33/122
f 251/125/123 252/126/123 272/38/123 271/34/123
f 252/126/124 244/120/124 264/6/124 272/38/124
f 253/118/125 254/127/125 274/6/125 273/7/125
f 255/114/126 253/118/126 273/7/126 275/11/126
f 256/115/127 255/114/127 275/11/127 276/15/127
f 257/128/128 256/115/128 276/15/128 277/18/128
f 258/129/129 257/128/129 277/18/129 278/2/129
f 259/130/130 258/129/130 278/2/130 279/1/130
f 260/131/131 259/130/131 279/1/131 280/33/131
f 261/132/132 260/131/132 280/33/132 281/34/132
f 262/133/133 261/132/133 281/34/133 282/38/133
f 254/127/134 262/133/134 282/38/134 274/6/134
f 256/115/135 257/128/135 247/121/135 246/116/135
f 257/128/136 258/129/136 248/122/136 247/121/136
f 258/129/137 259/130/137 249/123/137 248/122/137
f 259/130/138 260/131/138 250/124/138 249/123/138
f 260/131/139 261/132/139 251/125/139 250/124/139
f 261/132/140 262/133/140 252/126/140 251/125/140
f 262/133/141 254/127/141 244/120/141 252/126/141
f 254/127/142 253/118/142 243/119/142 244/120/142
f 295/114/112 296/115/112 286/116/112 285/117/112
f 293/118/105 295/114/105 285/117/105 283/119/105
f 307/18/104 317/18/104 316/15/104 306/15/104
f 303/7/136 313/7/136 314/6/136 304/6/136
f 311/34/139 321/34/139 320/33/139 310/33/139
f 308/2/142 318/2/142 317/18/142 307/18/142
f 305/11/135 315/11/135 313/7/135 303/7/135
f 312/38/138 322/38/138 321/34/138 311/34/138
f 309/1/141 319/1/141 318/2/141 308/2/141
f 306/15/103 316/15/103 315/11/103 305/11/103
f 304/6/137 314/6/137 322/38/137 312/38/137
f 310/33/140 320/33/140 319/1/140 309/1/140
f 284/120/143 283/119/143 303/7/143 304/6/143
f 283/119/144 285/117/144 305/11/144 303/7/144
f 285/117/145 286/116/145 306/15/145 305/11/145
f 286/116/146 287/121/146 307/18/146 306/15/146
f 287/121/147 288/122/147 308/2/147 307/18/147
f 288/122/148 289/123/148 309/1/148 308/2/148
f 289/123/149 290/124/149 310/33/149 309/1/149
f 290/124/150 291/125/150 311/34/150 310/33/150
f 291/125/151 292/126/151 312/38/151 311/34/151
f 292/126/152 284/120/152 304/6/152 312/38/152
f 293/118/153 294/127/153 314/6/153 313/7/153
f 295/114/154 293/118/154 313/7/154 315/11/154
f 296/115/155 295/114/155 315/11/155 316/15/155
f 297/128/156 296/115/156 316/15/156 317/18/156
f 298/129/157 297/128/157 317/18/157 318/2/157
f 299/130/158 298/129/158 318/2/158 319/1/158
f 300/131/159 299/130/159 319/1/159 320/33/159
f 301/132/160 300/131/160 320/33/160 321/34/160
f 302/133/161 301/132/161 321/34/161 322/38/161
f 294/127/162 302/133/162 322/38/162 314/6/162
f 296/115/109 297/128/109 287/121/109 286/116/109
f 297/128/106 298/129/106 288/122/106 287/121/106
f 298/129/113 299/130/113 289/123/113 288/122/113
f 299/130/110 300/131/110 290/124/110 289/123/110
f 300/131/107 301/132/107 291/125/107 290/124/107
f 301/132/114 302/133/114 292/126/114 291/125/114
f 302/133/111 294/127/111 284/120/111 292/126/111
f 294/127/108 293/118/108 283/119/108 284/120/108
usemtl light_brown.002
f 14/1/1 12/2/1 52/2/1 54/1/1
f 19/3/2 1/4/2 41/4/2 59/3/2
f 27/5/3 73/5/3 145/5/3 122/5/3
f 2/6/4 4/7/4 23/8/4 24/9/4
f 37/10/5 93/10/5 151/10/5 127/10/5
f 4/7/4 6/11/4 26/12/4 23/8/4
f 29/13/6 9/14/6 133/14/6 123/13/6
f 6/11/4 8/15/4 28/16/4 26/12/4
f 68/17/7 25/17/7 121/17/7 142/17/7
f 8/15/4 10/18/4 30/19/4 28/16/4
f 11/20/8 9/14/8 29/13/8 31/21/8
f 78/22/9 30/22/9 102/22/9 114/22/9
f 17/23/10 15/24/10 136/24/10 137/23/10
f 12/2/4 14/1/4 34/25/4 32/26/4
f 15/24/8 13/27/8 33/28/8 35/29/8
f 99/30/11 98/31/11 118/31/11 117/30/11
f 3/32/12 1/4/12 129/4/12 130/32/12
f 16/33/4 18/34/4 38/35/4 36/36/4
f 73/5/13 76/37/13 146/37/13 145/5/13
f 18/34/4 20/38/4 40/39/4 38/35/4
f 1/4/8 19/3/8 39/40/8 21/41/8
f 20/38/2 2/6/2 111/6/2 112/38/2
f 43/7/4 44/6/4 60/38/4 58/34/4 56/33/4 54/1/4 52/2/4 50/18/4 48/15/4 46/11/4
f 41/4/8 42/32/8 45/42/8 47/43/8 49/14/8 51/20/8 53/27/8 55/24/8 57/23/8 59/3/8
f 5/42/14 7/43/14 47/43/14 45/42/14
f 2/6/2 20/38/2 60/38/2 44/6/2
f 13/27/15 15/24/15 55/24/15 53/27/15
f 8/15/14 6/11/14 46/11/14 48/15/14
f 16/33/15 14/1/15 54/1/15 56/33/15
f 7/43/16 9/14/16 49/14/16 47/43/16
f 15/24/10 17/23/10 57/23/10 55/24/10
f 10/18/16 8/15/16 48/15/16 50/18/16
f 1/4/12 3/32/12 42/32/12 41/4/12
f 18/34/10 16/33/10 56/33/10 58/34/10
f 9/14/11 11/20/11 51/20/11 49/14/11
f 4/7/12 2/6/12 44/6/12 43/7/12
f 17/23/13 19/3/13 59/3/13 57/23/13
f 12/2/11 10/18/11 50/18/11 52/2/11
f 3/32/6 5/42/6 45/42/6 42/32/6
f 20/38/13 18/34/13 58/34/13 60/38/13
f 11/20/1 13/27/1 53/27/1 51/20/1
f 6/11/6 4/7/6 43/7/6 46/11/6
f 183/44/17 62/45/17 63/46/17 188/47/17
f 153/48/18 185/48/18 61/49/18 21/49/18
f 23/46/4 63/46/4 62/45/4 24/45/4
f 156/47/19 188/47/19 63/46/19 23/46/19
f 93/10/16 96/50/16 152/50/16 151/10/16
f 189/47/20 66/46/20 67/51/20 194/52/20
f 158/53/21 191/53/21 65/54/21 22/54/21
f 26/51/4 67/51/4 66/46/4 23/46/4
f 159/52/22 194/52/22 67/51/22 26/51/22
f 22/54/23 65/54/23 141/54/23 120/54/23
f 195/52/24 70/51/24 71/55/24 200/56/24
f 161/57/25 197/57/25 69/17/25 25/17/25
f 28/55/4 71/55/4 70/51/4 26/51/4
f 162/56/26 200/56/26 71/55/26 28/55/26
f 39/40/15 19/3/15 138/3/15 128/40/15
f 201/56/27 74/55/27 75/22/27 206/58/27
f 164/59/28 203/59/28 73/5/28 27/5/28
f 30/22/4 75/22/4 74/55/4 28/55/4
f 165/58/29 206/58/29 75/22/29 30/22/29
f 65/54/15 68/17/15 142/17/15 141/54/15
f 207/58/30 78/22/30 79/60/30 212/61/30
f 167/62/31 209/62/31 77/37/31 29/37/31
f 34/25/13 14/1/13 110/1/13 104/25/13
f 168/63/32 212/61/32 79/60/32 32/60/32
f 29/37/8 77/37/8 80/64/8 31/64/8
f 213/63/33 82/60/33 83/65/33 218/66/33
f 170/67/34 215/67/34 81/64/34 31/64/34
f 34/65/4 83/65/4 82/60/4 32/60/4
f 171/66/35 218/66/35 83/65/35 34/65/35
f 13/27/1 11/20/1 134/20/1 135/27/1
f 219/66/36 86/65/36 87/68/36 224/69/36
f 173/70/37 221/70/37 85/71/37 33/71/37
f 87/68/6 86/65/6 116/65/6 115/68/6
f 174/69/38 224/69/38 87/68/38 36/68/38
f 33/71/8 85/71/8 88/72/8 35/72/8
f 225/69/39 90/68/39 91/73/39 230/74/39
f 176/75/40 227/75/40 89/72/40 35/72/40
f 38/73/4 91/73/4 90/68/4 36/68/4
f 177/74/41 230/74/41 91/73/41 38/73/41
f 72/5/42 27/5/42 122/5/42 144/5/42
f 231/74/43 94/73/43 95/31/43 236/76/43
f 179/77/44 233/77/44 93/10/44 37/10/44
f 40/31/4 95/31/4 94/73/4 38/73/4
f 180/78/45 236/76/45 95/31/45 40/31/45
f 92/10/46 37/10/46 127/10/46 150/10/46
f 237/78/47 98/31/47 99/30/47 242/79/47
f 182/80/48 239/80/48 97/50/48 39/50/48
f 24/30/9 99/30/9 117/30/9 105/30/9
f 155/79/49 242/79/49 99/30/49 24/30/49
f 39/50/8 97/50/8 100/81/8 21/81/8
f 108/18/4 107/2/4 101/26/4 102/19/4
f 110/1/4 109/33/4 103/36/4 104/25/4
f 112/38/4 111/6/4 105/9/4 106/39/4
f 101/60/4 113/60/4 114/22/4 102/22/4
f 103/68/4 115/68/4 116/65/4 104/65/4
f 105/30/4 117/30/4 118/31/4 106/31/4
f 16/33/11 36/36/11 103/36/11 109/33/11
f 14/1/15 16/33/15 109/33/15 110/1/15
f 86/65/7 34/65/7 104/65/7 116/65/7
f 30/19/15 10/18/15 108/18/15 102/19/15
f 32/60/50 79/60/50 113/60/50 101/60/50
f 2/6/10 24/9/10 105/9/10 111/6/10
f 98/31/50 40/31/50 106/31/50 118/31/50
f 36/68/23 87/68/23 115/68/23 103/68/23
f 12/2/14 32/26/14 101/26/14 107/2/14
f 10/18/11 12/2/11 107/2/11 108/18/11
f 40/39/6 20/38/6 112/38/6 106/39/6
f 79/60/2 78/22/2 114/22/2 113/60/2
f 130/32/8 129/4/8 119/41/8 120/82/8
f 131/42/8 130/32/8 120/82/8 121/83/8
f 132/43/8 131/42/8 121/83/8 122/84/8
f 133/14/8 132/43/8 122/84/8 123/13/8
f 135/27/8 134/20/8 124/21/8 125/28/8
f 137/23/8 136/24/8 126/29/8 127/85/8
f 138/3/8 137/23/8 127/85/8 128/40/8
f 119/49/8 139/49/8 140/54/8 120/54/8
f 120/54/8 141/54/8 142/17/8 121/17/8
f 121/17/8 143/17/8 144/5/8 122/5/8
f 122/5/8 145/5/8 146/37/8 123/37/8
f 124/64/8 147/64/8 148/71/8 125/71/8
f 126/72/8 149/72/8 150/10/8 127/10/8
f 127/10/8 151/10/8 152/50/8 128/50/8
f 5/42/6 3/32/6 130/32/6 131/42/6
f 81/64/12 84/71/12 148/71/12 147/64/12
f 61/49/1 64/54/1 140/54/1 139/49/1
f 19/3/13 17/23/13 137/23/13 138/3/13
f 11/20/10 31/21/10 124/21/10 134/20/10
f 96/50/3 39/50/3 128/50/3 152/50/3
f 76/37/5 29/37/5 123/37/5 146/37/5
f 7/43/14 5/42/14 131/42/14 132/43/14
f 31/64/51 81/64/51 147/64/51 124/64/51
f 21/49/52 61/49/52 139/49/52 119/49/52
f 89/72/14 92/10/14 150/10/14 149/72/14
f 69/17/10 72/5/10 144/5/10 143/17/10
f 33/28/16 13/27/16 135/27/16 125/28/16
f 9/14/16 7/43/16 132/43/16 133/14/16
f 84/71/52 33/71/52 125/71/52 148/71/52
f 64/54/51 22/54/51 120/54/51 140/54/51
f 35/72/42 89/72/42 149/72/42 126/72/42
f 25/17/46 69/17/46 143/17/46 121/17/46
f 15/24/2 35/29/2 126/29/2 136/24/2
f 1/4/14 21/41/14 119/41/14 129/4/14
f 21/81/31 100/81/31 240/86/31 153/86/31
f 153/86/53 240/86/53 241/87/53 154/87/53
f 40/31/32 98/31/32 237/78/32 180/78/32
f 180/88/54 237/78/54 238/89/54 181/89/54
f 181/89/55 238/89/55 239/80/55 182/80/55
f 97/50/56 239/80/56 240/86/56 100/81/56
f 239/80/57 238/89/57 241/87/57 240/86/57
f 39/50/28 96/50/28 234/90/28 182/80/28
f 182/80/58 234/90/58 235/89/58 181/89/58
f 38/73/29 94/73/29 231/74/29 177/74/29
f 177/91/59 231/92/59 232/93/59 178/93/59
f 178/93/60 232/93/60 233/77/60 179/77/60
f 93/10/61 233/77/61 234/90/61 96/50/61
f 233/77/62 232/93/62 235/89/62 234/90/62
f 37/10/25 92/10/25 228/77/25 179/77/25
f 179/77/63 228/77/63 229/93/63 178/93/63
f 36/68/26 90/68/26 225/69/26 174/69/26
f 174/94/64 225/95/64 226/96/64 175/96/64
f 175/96/65 226/96/65 227/75/65 176/75/65
f 89/72/66 227/75/66 228/77/66 92/10/66
f 227/75/67 226/96/67 229/93/67 228/77/67
f 35/72/21 88/72/21 222/75/21 176/75/21
f 176/75/68 222/75/68 223/96/68 175/96/68
f 34/65/22 86/65/22 219/66/22 171/66/22
f 171/97/69 219/66/69 220/98/69 172/98/69
f 172/98/70 220/98/70 221/70/70 173/70/70
f 85/71/71 221/70/71 222/75/71 88/72/71
f 221/70/72 220/98/72 223/96/72 222/75/72
f 33/71/18 84/71/18 216/70/18 173/70/18
f 173/70/73 216/70/73 217/98/73 172/98/73
f 32/60/19 82/60/19 213/63/19 168/63/19
f 168/99/74 213/100/74 214/101/74 169/101/74
f 169/101/75 214/101/75 215/67/75 170/67/75
f 81/64/76 215/67/76 216/70/76 84/71/76
f 215/67/77 214/101/77 217/98/77 216/70/77
f 31/64/48 80/64/48 210/102/48 170/67/48
f 170/67/55 210/102/55 211/101/55 169/101/55
f 30/22/49 78/22/49 207/58/49 165/58/49
f 165/58/78 207/58/78 208/103/78 166/103/78
f 166/103/53 208/103/53 209/62/53 167/62/53
f 77/37/79 209/62/79 210/102/79 80/64/79
f 209/62/80 208/103/80 211/101/80 210/102/80
f 29/37/44 76/37/44 204/62/44 167/62/44
f 167/62/60 204/62/60 205/103/60 166/103/60
f 28/55/45 74/55/45 201/56/45 162/56/45
f 162/56/81 201/56/81 202/104/81 163/104/81
f 163/104/58 202/104/58 203/59/58 164/59/58
f 73/5/82 203/59/82 204/62/82 76/37/82
f 203/59/83 202/104/83 205/103/83 204/62/83
f 27/5/40 72/5/40 198/59/40 164/59/40
f 164/59/65 198/59/65 199/104/65 163/104/65
f 26/51/41 70/51/41 195/52/41 159/52/41
f 159/105/84 195/52/84 196/106/84 160/106/84
f 160/106/63 196/106/63 197/57/63 161/57/63
f 69/17/85 197/57/85 198/59/85 72/5/85
f 197/57/86 196/106/86 199/104/86 198/59/86
f 25/17/37 68/17/37 192/57/37 161/57/37
f 161/57/70 192/57/70 193/106/70 160/106/70
f 23/46/38 66/46/38 189/47/38 156/47/38
f 156/47/87 189/107/87 190/108/87 157/108/87
f 157/108/68 190/108/68 191/53/68 158/53/68
f 65/54/88 191/53/88 192/57/88 68/17/88
f 191/53/89 190/108/89 193/106/89 192/57/89
f 22/54/34 64/54/34 186/53/34 158/53/34
f 158/53/75 186/53/75 187/108/75 157/108/75
f 24/45/35 62/45/35 183/44/35 155/44/35
f 155/109/90 183/44/90 184/110/90 154/110/90
f 154/110/73 184/110/73 185/48/73 153/48/73
f 61/49/91 185/48/91 186/53/91 64/54/91
f 185/48/92 184/110/92 187/108/92 186/53/92
f 184/110/93 183/44/93 188/47/93 187/108/93
f 157/108/74 187/108/74 188/47/74 156/47/74
f 190/108/94 189/107/94 194/52/94 193/106/94
f 160/106/69 193/106/69 194/52/69 159/105/69
f 196/106/95 195/52/95 200/56/95 199/104/95
f 163/104/64 199/104/64 200/56/64 162/56/64
f 202/104/96 201/56/96 206/58/96 205/103/96
f 166/103/59 205/103/59 206/58/59 165/58/59
f 208/103/97 207/58/97 212/61/97 211/101/97
f 169/101/54 211/101/54 212/61/54 168/99/54
f 214/101/98 213/100/98 218/111/98 217/98/98
f 172/98/90 217/98/90 218/111/90 171/97/90
f 220/98/99 219/66/99 224/112/99 223/96/99
f 175/96/87 223/96/87 224/112/87 174/94/87
f 226/96/100 225/95/100 230/74/100 229/93/100
f 178/93/84 229/93/84 230/74/84 177/91/84
f 232/93/101 231/92/101 236/78/101 235/89/101
f 181/89/81 235/89/81 236/78/81 180/88/81
f 238/89/102 237/78/102 242/113/102 241/87/102
f 154/87/78 241/87/78 242/113/78 155/79/78
