# Blender 5.2.1 LTS
# www.blender.org
mtllib Prop_Torch.mtl
o EXPORT_Prop_Torch
v 0.058097 0.389353 0.066699
v 0.070618 0.390062 0.066889
v 0.029049 0.376330 0.115299
v 0.035309 0.374234 0.125962
v -0.029049 0.376330 0.115299
v -0.035309 0.374234 0.125962
v -0.058097 0.389353 0.066699
v -0.070618 0.390062 0.066889
v -0.029049 0.402375 0.018100
v -0.035309 0.405891 0.007817
v 0.029049 0.402375 0.018100
v 0.035309 0.405891 0.007817
v 0.058097 0.249948 0.029346
v 0.070618 0.250658 0.029536
v 0.029049 0.236926 0.077945
v 0.035309 0.234829 0.088609
v -0.029049 0.236926 0.077945
v -0.035309 0.234829 0.088609
v -0.058097 0.249948 0.029346
v -0.070618 0.250658 0.029536
v -0.029049 0.262970 -0.019253
v -0.035309 0.266486 -0.029537
v 0.029049 0.262970 -0.019253
v 0.035309 0.266486 -0.029537
v 0.051277 0.551211 0.110069
v 0.025638 0.539717 0.152963
v -0.025638 0.539717 0.152963
v -0.051277 0.551211 0.110069
v -0.025638 0.562704 0.067175
v 0.025638 0.562704 0.067175
v 0.018922 0.005599 -0.036127
v 0.009461 0.001358 -0.020298
v -0.009461 0.001358 -0.020298
v -0.018922 0.005599 -0.036127
v -0.009461 0.009840 -0.051956
v 0.009461 0.009840 -0.051956
v -0.033845 0.536038 0.166693
v -0.067690 0.551211 0.110069
v 0.067690 0.551211 0.110069
v 0.033845 0.536038 0.166693
v -0.033845 0.566383 0.053445
v 0.033845 0.566383 0.053445
v -0.012490 0.000000 -0.015232
v -0.024979 0.005599 -0.036127
v 0.024979 0.005599 -0.036127
v 0.012490 0.000000 -0.015232
v -0.012490 0.011198 -0.057023
v 0.012490 0.011198 -0.057023
v -0.025158 0.337798 -0.105825
v 0.025158 0.337798 -0.105825
v -0.025158 0.306517 -0.105825
v 0.025158 0.306517 -0.105825
v -0.114943 0.488299 -0.166693
v 0.114943 0.488299 -0.166693
v -0.114943 0.018477 -0.166693
v 0.114943 0.018477 -0.166693
v -0.114943 0.488299 -0.105825
v 0.114943 0.488299 -0.105825
v -0.114943 0.018477 -0.105825
v 0.114943 0.018477 -0.105825
v -0.025158 0.337798 -0.001430
v 0.025158 0.337798 -0.001430
v -0.025158 0.306517 -0.001430
v 0.025158 0.306517 -0.001430
vn -0.0585 0.9725 0.2256
vn -0.0000 0.9812 0.1929
vn 0.0585 0.9725 0.2256
vn 0.0585 0.9550 0.2909
vn -0.0000 0.9462 0.3235
vn -0.0585 0.9550 0.2909
vn 0.0585 -0.9725 -0.2256
vn -0.0000 -0.9812 -0.1929
vn -0.0585 -0.9725 -0.2256
vn -0.0585 -0.9550 -0.2909
vn -0.0000 -0.9462 -0.3235
vn 0.0585 -0.9550 -0.2909
vn -0.0000 0.2588 -0.9659
vn -0.0000 -0.2588 0.9659
vn 0.8660 0.1294 -0.4830
vn 0.8660 -0.1294 0.4830
vn -0.8660 -0.1294 0.4830
vn -0.8660 0.1294 -0.4830
vn -0.8650 -0.0814 0.4952
vn 0.8650 -0.0814 0.4952
vn 0.8650 0.1771 -0.4695
vn -0.0000 -0.2106 0.9776
vn -0.0000 0.3064 -0.9519
vn -0.8650 0.1771 -0.4695
vn 0.8642 0.0660 -0.4988
vn -0.8642 0.0660 -0.4988
vn -0.8642 -0.1922 0.4650
vn -0.0000 0.1951 -0.9808
vn -0.0000 -0.3214 0.9469
vn 0.8642 -0.1922 0.4650
vn -0.0000 0.9659 0.2588
vn -0.0000 -0.9659 -0.2588
vn -1.0000 -0.0000 -0.0000
vn -0.0000 -0.0000 -1.0000
vn 1.0000 -0.0000 -0.0000
vn -0.0000 -1.0000 -0.0000
vn -0.0000 1.0000 -0.0000
vn -0.0000 -0.0000 1.0000
vt 0.500000 0.000000
vt 0.666667 0.000000
vt 0.666667 0.250000
vt 0.500000 0.250000
vt 0.833333 0.000000
vt 0.833333 0.250000
vt 1.000000 0.000000
vt 1.000000 0.250000
vt -0.000000 0.000000
vt 0.166667 0.000000
vt 0.166667 0.250000
vt -0.000000 0.250000
vt 0.333333 0.000000
vt 0.333333 0.250000
vt 0.000000 0.000000
vt 0.198483 0.250000
vt 0.198483 0.250000
vt 0.301517 0.250000
s 1
usemtl dark_grey.002
f 1/1/1 3/2/1 4/3/1 2/4/1
f 3/2/2 5/5/2 6/6/2 4/3/2
f 5/5/3 7/7/3 8/8/3 6/6/3
f 7/9/4 9/10/4 10/11/4 8/12/4
f 9/10/5 11/13/5 12/14/5 10/11/5
f 11/13/6 1/1/6 2/4/6 12/14/6
f 13/1/7 14/4/7 16/3/7 15/2/7
f 15/2/8 16/3/8 18/6/8 17/5/8
f 17/5/9 18/6/9 20/8/9 19/7/9
f 19/9/10 20/12/10 22/11/10 21/10/10
f 21/10/11 22/11/11 24/14/11 23/13/11
f 23/13/12 24/14/12 14/4/12 13/1/12
f 12/14/13 24/14/13 22/11/13 10/11/13
f 6/6/14 18/6/14 16/3/14 4/3/14
f 5/5/15 17/5/15 19/7/15 7/7/15
f 7/9/16 19/9/16 21/10/16 9/10/16
f 4/3/16 16/3/16 14/4/16 2/4/16
f 11/13/17 23/13/17 13/1/17 1/1/17
f 8/8/17 20/8/17 18/6/17 6/6/17
f 10/11/18 22/11/18 20/12/18 8/12/18
f 2/4/15 14/4/15 24/14/15 12/14/15
f 9/10/14 21/10/14 23/13/14 11/13/14
f 1/1/18 13/1/18 15/2/18 3/2/18
f 3/2/13 15/2/13 17/5/13 5/5/13
f 49/16/33 51/17/33 63/17/33 61/16/33
f 54/14/34 56/14/34 55/11/34 53/11/34
f 58/14/35 60/14/35 56/14/35 54/14/35
f 60/14/36 59/11/36 55/11/36 56/14/36
f 59/11/33 57/11/33 53/11/33 55/11/33
f 57/11/37 58/14/37 54/14/37 53/11/37
f 49/16/38 50/18/38 58/14/38 57/11/38
f 52/18/38 51/17/38 59/11/38 60/14/38
f 51/17/38 49/16/38 57/11/38 59/11/38
f 50/18/38 52/18/38 60/14/38 58/14/38
f 62/18/38 61/16/38 63/17/38 64/18/38
f 50/18/37 49/16/37 61/16/37 62/18/37
f 52/18/35 50/18/35 62/18/35 64/18/35
f 51/17/36 52/18/36 64/18/36 63/17/36
usemtl light_brown.002
f 30/15/19 36/15/19 31/15/19 25/15/19
f 29/15/20 28/15/20 34/15/20 35/15/20
f 28/15/21 27/15/21 33/15/21 34/15/21
f 30/15/22 29/15/22 35/15/22 36/15/22
f 27/15/23 26/15/23 32/15/23 33/15/23
f 26/15/24 25/15/24 31/15/24 32/15/24
f 42/15/25 39/15/25 45/15/25 48/15/25
f 41/15/26 47/15/26 44/15/26 38/15/26
f 38/15/27 44/15/27 43/15/27 37/15/27
f 42/15/28 48/15/28 47/15/28 41/15/28
f 37/15/29 43/15/29 46/15/29 40/15/29
f 40/15/30 46/15/30 45/15/30 39/15/30
f 30/15/31 25/15/31 39/15/31 42/15/31
f 36/15/32 35/15/32 47/15/32 48/15/32
f 25/15/31 26/15/31 40/15/31 39/15/31
f 35/15/32 34/15/32 44/15/32 47/15/32
f 29/15/31 30/15/31 42/15/31 41/15/31
f 28/15/31 29/15/31 41/15/31 38/15/31
f 33/15/32 32/15/32 46/15/32 43/15/32
f 34/15/32 33/15/32 43/15/32 44/15/32
f 26/15/31 27/15/31 37/15/31 40/15/31
f 31/15/32 36/15/32 48/15/32 45/15/32
f 27/15/31 28/15/31 38/15/31 37/15/31
f 32/15/32 31/15/32 45/15/32 46/15/32
f 32/15/32 33/15/32 34/15/32 35/15/32 36/15/32 31/15/32
