# Blender 5.2.1 LTS
# www.blender.org
mtllib Prop_Skull.mtl
o EXPORT_Prop_Skull
v 0.146469 0.057082 0.159327
v 0.138685 0.376751 0.160518
v 0.150913 0.145758 -0.185156
v 0.138685 0.407155 -0.186217
v 0.000000 0.117385 -0.208980
v 0.000000 0.447020 -0.226082
v 0.160896 0.251980 -0.202854
v 0.177296 0.057082 -0.032802
v 0.169075 0.443219 -0.009999
v 0.191879 0.194832 0.188982
v 0.000000 0.057082 0.188982
v 0.000000 0.416616 0.200383
v 0.000000 0.199652 -0.272642
v 0.222908 0.234107 -0.029196
v 0.000000 0.194832 0.272642
v 0.000000 0.057082 0.023862
v 0.000000 0.526879 -0.009999
v 0.161882 0.057082 0.063262
v 0.073235 0.057082 0.174154
v 0.088648 0.057082 -0.004469
v 0.000000 0.057082 0.106422
v 0.080942 0.057082 0.084842
v 0.090546 0.057082 0.111221
v 0.149244 0.057082 0.095571
v 0.137463 0.057082 0.150680
v 0.084639 0.057082 0.161375
v 0.010263 0.057082 0.135474
v 0.069460 0.057082 0.119691
v 0.063671 0.057082 0.165619
v 0.010263 0.057082 0.176433
v 0.010263 0.008527 0.135474
v 0.010263 0.008527 0.176433
v 0.150358 0.000000 0.093014
v 0.091660 0.000000 0.108663
v 0.085752 0.000000 0.158818
v 0.138577 0.000000 0.148122
v 0.069460 0.008527 0.119691
v 0.063671 0.008527 0.165619
v 0.153151 0.224826 0.195766
v 0.119564 0.341500 0.178623
v 0.029243 0.289271 0.229900
v 0.029453 0.225245 0.251325
v 0.000000 0.186167 0.118189
v 0.000000 0.250193 0.096764
v 0.062565 0.302422 0.045487
v 0.096151 0.185749 0.062630
v 0.000000 0.167082 0.260174
v 0.018623 0.166235 0.251674
v 0.000000 0.174563 0.243523
v 0.000000 0.202313 0.255991
v 0.011364 0.173716 0.235022
v 0.115629 0.057082 0.015737
v 0.161266 0.057082 -0.003608
v 0.150494 0.057082 0.052974
v 0.110237 0.057082 0.067677
v 0.161266 0.006495 -0.003608
v 0.115629 0.006495 0.015737
v 0.110237 0.006495 0.067677
v 0.150494 0.006495 0.052974
v -0.146469 0.057082 0.159327
v -0.138685 0.376751 0.160518
v -0.150913 0.145758 -0.185156
v -0.138685 0.407155 -0.186217
v -0.160896 0.251980 -0.202854
v -0.177296 0.057082 -0.032802
v -0.169075 0.443219 -0.009999
v -0.191879 0.194832 0.188982
v -0.222908 0.234107 -0.029196
v -0.161882 0.057082 0.063262
v -0.073235 0.057082 0.174154
v -0.088648 0.057082 -0.004469
v -0.080942 0.057082 0.084842
v -0.090546 0.057082 0.111221
v -0.149244 0.057082 0.095571
v -0.137463 0.057082 0.150680
v -0.084639 0.057082 0.161375
v -0.010263 0.057082 0.135474
v -0.069460 0.057082 0.119691
v -0.063671 0.057082 0.165619
v -0.010263 0.057082 0.176433
v -0.010263 0.008527 0.135474
v -0.010263 0.008527 0.176433
v -0.150358 0.000000 0.093014
v -0.091660 0.000000 0.108663
v -0.085752 0.000000 0.158818
v -0.138577 0.000000 0.148122
v -0.069460 0.008527 0.119691
v -0.063671 0.008527 0.165619
v -0.153151 0.224826 0.195766
v -0.119564 0.341500 0.178623
v -0.029243 0.289271 0.229900
v -0.029453 0.225245 0.251325
v -0.062565 0.302422 0.045487
v -0.096151 0.185749 0.062630
v -0.018623 0.166235 0.251674
v -0.011364 0.173716 0.235022
v -0.115629 0.057082 0.015737
v -0.161266 0.057082 -0.003608
v -0.150494 0.057082 0.052974
v -0.110237 0.057082 0.067677
v -0.161266 0.006495 -0.003608
v -0.115629 0.006495 0.015737
v -0.110237 0.006495 0.067677
v -0.150494 0.006495 0.052974
vn 0.3330 0.1641 -0.9285
vn 0.3555 -0.3862 -0.8512
vn 0.9278 -0.1978 -0.3162
vn 0.9399 0.2217 -0.2597
vn 0.9396 0.2624 0.2198
vn 0.9508 -0.2872 0.1159
vn 0.2999 -0.4034 0.8645
vn 0.9783 -0.0643 -0.1968
vn 0.0441 -0.9307 -0.3630
vn -0.9930 -0.0141 -0.1170
vn 0.3886 0.8750 -0.2887
vn 0.3848 0.8252 0.4136
vn 0.1983 -0.0400 0.9793
vn -0.0000 -1.0000 -0.0000
vn 0.9824 -0.0000 0.1870
vn 0.1984 -0.0000 0.9801
vn -1.0000 -0.0000 -0.0000
vn -0.2576 -0.0000 -0.9662
vn 0.9779 0.0097 0.2091
vn -0.2574 0.0382 -0.9655
vn 0.9922 -0.0000 0.1251
vn 0.3646 0.2433 0.8988
vn 0.3413 0.2837 0.8961
vn 0.3569 0.2912 0.8876
vn 0.3888 0.2715 0.8804
vn 0.4765 0.2673 0.8375
vn -0.1195 0.9625 -0.2437
vn 0.5853 -0.8094 0.0480
vn -0.8811 -0.1900 0.4330
vn 0.5461 -0.3433 0.7642
vn -0.8891 -0.4575 -0.0118
vn 0.2499 0.9024 0.3509
vn -0.3903 -0.0000 -0.9207
vn 0.3431 -0.0000 0.9393
vn -0.9947 -0.0000 -0.1033
vn -0.3330 0.1641 -0.9285
vn -0.3555 -0.3862 -0.8512
vn -0.9278 -0.1978 -0.3162
vn -0.9399 0.2217 -0.2597
vn -0.9396 0.2624 0.2198
vn -0.9508 -0.2872 0.1159
vn -0.2999 -0.4034 0.8645
vn -0.9783 -0.0643 -0.1968
vn -0.0441 -0.9307 -0.3630
vn 0.9930 -0.0141 -0.1170
vn -0.3886 0.8750 -0.2887
vn -0.3848 0.8252 0.4136
vn -0.1983 -0.0400 0.9793
vn -0.9824 -0.0000 0.1870
vn -0.1984 -0.0000 0.9801
vn 1.0000 -0.0000 -0.0000
vn 0.2576 -0.0000 -0.9662
vn -0.9779 0.0097 0.2091
vn 0.2574 0.0382 -0.9655
vn -0.9922 -0.0000 0.1251
vn -0.3646 0.2433 0.8988
vn -0.3413 0.2837 0.8961
vn -0.3569 0.2912 0.8876
vn -0.3888 0.2715 0.8804
vn -0.4765 0.2673 0.8375
vn 0.1195 0.9625 -0.2437
vn -0.5853 -0.8094 0.0480
vn 0.8811 -0.1900 0.4330
vn -0.5461 -0.3433 0.7642
vn 0.8891 -0.4575 -0.0118
vn -0.2499 0.9024 0.3509
vn 0.3903 -0.0000 -0.9207
vn -0.3431 -0.0000 0.9393
vn 0.9947 -0.0000 -0.1033
vt 0.066902 0.192902
vt 0.066902 0.192902
vt 0.066902 0.192902
vt 0.066902 0.192902
vt 0.066902 0.192902
vt 0.066902 0.192902
vt 0.066902 0.192902
vt 0.066902 0.192902
vt 0.066902 0.192902
s 1
usemtl beige.008
f 13/1/1 6/2/1 4/2/1 7/3/1
f 5/2/2 13/1/2 7/3/2 3/4/2
f 3/4/3 7/3/3 14/2/3 8/2/3
f 7/3/4 4/2/4 9/2/4 14/2/4
f 14/2/5 9/2/5 2/2/5 10/2/5
f 8/2/6 14/2/6 10/2/6 1/4/6 18/5/6
f 1/4/7 10/2/7 15/2/7 48/6/7 47/2/7 11/2/7 19/5/7
f 41/2/8 42/2/8 43/2/8 44/2/8
f 5/2/9 3/4/9 8/2/9 20/2/9 16/2/9
f 26/5/10 23/7/10 34/7/10 35/5/10
f 4/2/11 6/2/11 17/2/11 9/2/11
f 9/2/12 17/2/12 12/2/12 2/2/12
f 25/4/13 26/5/13 35/5/13 36/4/13
f 16/2/14 20/2/14 22/2/14 21/2/14
f 53/8/15 54/5/15 59/5/15 56/8/15
f 22/2/14 18/5/14 24/5/14 23/7/14
f 18/5/14 1/4/14 25/4/14 24/5/14
f 1/4/14 19/5/14 26/5/14 25/4/14
f 19/5/14 22/2/14 23/7/14 26/5/14
f 21/2/14 22/2/14 28/2/14 27/6/14
f 22/2/14 19/5/14 29/7/14 28/2/14
f 19/5/14 11/2/14 30/5/14 29/7/14
f 11/2/14 21/2/14 27/6/14 30/5/14
f 34/7/14 33/5/14 36/4/14 35/5/14
f 31/6/14 37/2/14 38/7/14 32/5/14
f 29/7/16 30/5/16 32/5/16 38/7/16
f 30/5/17 27/6/17 31/6/17 32/5/17
f 27/6/18 28/2/18 37/2/18 31/6/18
f 24/5/19 25/4/19 36/4/19 33/5/19
f 23/7/20 24/5/20 33/5/20 34/7/20
f 28/2/21 29/7/21 38/7/21 37/2/21
f 10/2/22 2/2/22 40/9/22 39/2/22
f 2/2/23 12/2/23 41/2/23 40/9/23
f 12/2/24 15/2/24 42/2/24 41/2/24
f 15/2/25 10/2/25 39/2/25 42/2/25
f 46/2/26 45/9/26 44/2/26 43/2/26
f 42/2/27 39/2/27 46/2/27 43/2/27
f 40/9/28 41/2/28 44/2/28 45/9/28
f 39/2/29 40/9/29 45/9/29 46/2/29
f 49/2/30 51/6/30 50/2/30
f 48/6/31 15/2/31 50/2/31 51/6/31
f 47/2/32 48/6/32 51/6/32 49/2/32
f 20/2/14 8/2/14 53/8/14 52/2/14
f 8/2/14 18/5/14 54/5/14 53/8/14
f 18/5/14 22/2/14 55/7/14 54/5/14
f 22/2/14 20/2/14 52/2/14 55/7/14
f 57/2/14 56/8/14 59/5/14 58/7/14
f 52/2/33 53/8/33 56/8/33 57/2/33
f 54/5/34 55/7/34 58/7/34 59/5/34
f 55/7/35 52/2/35 57/2/35 58/7/35
f 13/1/36 64/3/36 63/2/36 6/2/36
f 5/2/37 62/4/37 64/3/37 13/1/37
f 62/4/38 65/2/38 68/2/38 64/3/38
f 64/3/39 68/2/39 66/2/39 63/2/39
f 68/2/40 67/2/40 61/2/40 66/2/40
f 65/2/41 69/5/41 60/4/41 67/2/41 68/2/41
f 60/4/42 70/5/42 11/2/42 47/2/42 95/6/42 15/2/42 67/2/42
f 91/2/43 44/2/43 43/2/43 92/2/43
f 5/2/44 16/2/44 71/2/44 65/2/44 62/4/44
f 76/5/45 85/5/45 84/7/45 73/7/45
f 63/2/46 66/2/46 17/2/46 6/2/46
f 66/2/47 61/2/47 12/2/47 17/2/47
f 75/4/48 86/4/48 85/5/48 76/5/48
f 16/2/14 21/2/14 72/2/14 71/2/14
f 98/8/49 101/8/49 104/5/49 99/5/49
f 72/2/14 73/7/14 74/5/14 69/5/14
f 69/5/14 74/5/14 75/4/14 60/4/14
f 60/4/14 75/4/14 76/5/14 70/5/14
f 70/5/14 76/5/14 73/7/14 72/2/14
f 21/2/14 77/6/14 78/2/14 72/2/14
f 72/2/14 78/2/14 79/7/14 70/5/14
f 70/5/14 79/7/14 80/5/14 11/2/14
f 11/2/14 80/5/14 77/6/14 21/2/14
f 84/7/14 85/5/14 86/4/14 83/5/14
f 81/6/14 82/5/14 88/7/14 87/2/14
f 79/7/50 88/7/50 82/5/50 80/5/50
f 80/5/51 82/5/51 81/6/51 77/6/51
f 77/6/52 81/6/52 87/2/52 78/2/52
f 74/5/53 83/5/53 86/4/53 75/4/53
f 73/7/54 84/7/54 83/5/54 74/5/54
f 78/2/55 87/2/55 88/7/55 79/7/55
f 67/2/56 89/2/56 90/9/56 61/2/56
f 61/2/57 90/9/57 91/2/57 12/2/57
f 12/2/58 91/2/58 92/2/58 15/2/58
f 15/2/59 92/2/59 89/2/59 67/2/59
f 94/2/60 43/2/60 44/2/60 93/9/60
f 92/2/61 43/2/61 94/2/61 89/2/61
f 90/9/62 93/9/62 44/2/62 91/2/62
f 89/2/63 94/2/63 93/9/63 90/9/63
f 49/2/64 50/2/64 96/6/64
f 95/6/65 96/6/65 50/2/65 15/2/65
f 47/2/66 49/2/66 96/6/66 95/6/66
f 71/2/14 97/2/14 98/8/14 65/2/14
f 65/2/14 98/8/14 99/5/14 69/5/14
f 69/5/14 99/5/14 100/7/14 72/2/14
f 72/2/14 100/7/14 97/2/14 71/2/14
f 102/2/14 103/7/14 104/5/14 101/8/14
f 97/2/67 102/2/67 101/8/67 98/8/67
f 99/5/68 104/5/68 103/7/68 100/7/68
f 100/7/69 103/7/69 102/2/69 97/2/69
