# Blender 5.2.1 LTS
# www.blender.org
mtllib Prop_WoodenBox.mtl
o EXPORT_Prop_WoodenBox
v -0.272795 0.000000 0.272795
v -0.272795 0.545589 0.272795
v -0.272795 0.000000 -0.272795
v -0.272795 0.545589 -0.272795
v 0.272795 0.000000 0.272795
v 0.272795 0.545589 0.272795
v 0.272795 0.000000 -0.272795
v 0.272795 0.545589 -0.272795
v -0.272795 0.071081 0.201714
v -0.272795 0.474508 0.201714
v -0.272795 0.474508 -0.201714
v -0.272795 0.071081 -0.201714
v -0.201714 0.071081 -0.272795
v -0.201714 0.474508 -0.272795
v 0.201714 0.474508 -0.272795
v 0.201714 0.071081 -0.272795
v 0.272795 0.071081 -0.201714
v 0.272795 0.474508 -0.201714
v 0.272795 0.474508 0.201714
v 0.272795 0.071081 0.201714
v 0.201714 0.071081 0.272795
v 0.201714 0.474508 0.272795
v -0.201714 0.474508 0.272795
v -0.201714 0.071081 0.272795
v -0.201714 0.000000 -0.201714
v 0.201714 0.000000 -0.201714
v 0.201714 0.000000 0.201714
v -0.201714 0.000000 0.201714
v 0.201714 0.545589 -0.201714
v -0.201714 0.545589 -0.201714
v -0.201714 0.545589 0.201714
v 0.201714 0.545589 0.201714
v -0.230670 0.071081 0.201714
v -0.230670 0.474508 0.201714
v -0.230670 0.071081 -0.201714
v -0.230670 0.474508 -0.201714
v 0.201714 0.071081 -0.230670
v 0.230670 0.474508 -0.201714
v 0.230670 0.071081 -0.201714
v 0.230670 0.071081 0.201714
v 0.230670 0.474508 0.201714
v 0.201714 0.474508 0.230670
v 0.201714 0.042124 -0.201714
v -0.201714 0.042124 -0.201714
v -0.201714 0.042124 0.201714
v 0.201714 0.042124 0.201714
v -0.201714 0.503465 -0.201714
v 0.201714 0.503465 -0.201714
v 0.201714 0.503465 0.201714
v -0.201714 0.503465 0.201714
v -0.272795 0.109118 0.272795
v -0.272795 0.218236 0.272795
v -0.272795 0.327354 0.272795
v -0.272795 0.436472 0.272795
v -0.272795 0.436472 -0.272795
v -0.272795 0.327354 -0.272795
v -0.272795 0.218236 -0.272795
v -0.272795 0.109118 -0.272795
v 0.272795 0.436472 -0.272795
v 0.272795 0.327354 -0.272795
v 0.272795 0.218236 -0.272795
v 0.272795 0.109118 -0.272795
v 0.272795 0.436472 0.272795
v 0.272795 0.327354 0.272795
v 0.272795 0.218236 0.272795
v 0.272795 0.109118 0.272795
v -0.272795 0.151766 0.201714
v -0.272795 0.232452 0.201714
v -0.272795 0.313137 0.201714
v -0.272795 0.393823 0.201714
v -0.272795 0.393823 -0.201714
v -0.272795 0.313137 -0.201714
v -0.272795 0.232452 -0.201714
v -0.272795 0.151766 -0.201714
v -0.201714 0.393823 -0.272795
v -0.201714 0.313137 -0.272795
v -0.201714 0.232452 -0.272795
v -0.201714 0.151766 -0.272795
v 0.201714 0.393823 -0.272795
v 0.201714 0.313137 -0.272795
v 0.201714 0.232452 -0.272795
v 0.201714 0.151766 -0.272795
v 0.272795 0.393823 -0.201714
v 0.272795 0.313137 -0.201714
v 0.272795 0.232452 -0.201714
v 0.272795 0.151766 -0.201714
v 0.272795 0.393823 0.201714
v 0.272795 0.313137 0.201714
v 0.272795 0.232452 0.201714
v 0.272795 0.151766 0.201714
v 0.201714 0.393823 0.272795
v 0.201714 0.313137 0.272795
v 0.201714 0.232452 0.272795
v 0.201714 0.151766 0.272795
v -0.201714 0.151766 0.272795
v -0.201714 0.232452 0.272795
v -0.201714 0.313137 0.272795
v -0.201714 0.393823 0.272795
v -0.230670 0.151766 0.201714
v -0.230670 0.232452 0.201714
v -0.230670 0.313137 0.201714
v -0.230670 0.393823 0.201714
v -0.230670 0.393823 -0.201714
v -0.230670 0.313137 -0.201714
v -0.230670 0.232452 -0.201714
v -0.230670 0.151766 -0.201714
v -0.201714 0.313137 -0.230670
v -0.201714 0.151766 -0.230670
v 0.230670 0.393823 -0.201714
v 0.230670 0.313137 -0.201714
v 0.230670 0.232452 -0.201714
v 0.230670 0.151766 -0.201714
v 0.230670 0.393823 0.201714
v 0.230670 0.313137 0.201714
v 0.230670 0.232452 0.201714
v 0.230670 0.151766 0.201714
v 0.201714 0.393823 0.230670
v 0.201714 0.232452 0.230670
v 0.201714 0.151766 0.230670
v -0.201714 0.393823 0.230670
v 0.163677 0.000000 -0.272795
v 0.054559 0.000000 -0.272795
v -0.054559 0.000000 -0.272795
v -0.163677 0.000000 -0.272795
v -0.163677 0.545589 -0.272795
v -0.054559 0.545589 -0.272795
v 0.054559 0.545589 -0.272795
v 0.163677 0.545589 -0.272795
v -0.163677 0.000000 0.272795
v -0.054559 0.000000 0.272795
v 0.054559 0.000000 0.272795
v 0.163677 0.000000 0.272795
v 0.163677 0.545589 0.272795
v 0.054559 0.545589 0.272795
v -0.054559 0.545589 0.272795
v -0.163677 0.545589 0.272795
v 0.121028 0.071081 -0.272795
v 0.040343 0.071081 -0.272795
v -0.040343 0.071081 -0.272795
v -0.121028 0.071081 -0.272795
v -0.121028 0.474508 -0.272795
v -0.040343 0.474508 -0.272795
v 0.040343 0.474508 -0.272795
v 0.121028 0.474508 -0.272795
v -0.121028 0.071081 0.272795
v -0.040343 0.071081 0.272795
v 0.040343 0.071081 0.272795
v 0.121028 0.071081 0.272795
v 0.121028 0.474508 0.272795
v 0.040343 0.474508 0.272795
v -0.040343 0.474508 0.272795
v -0.121028 0.474508 0.272795
v 0.121028 0.000000 -0.201714
v 0.040343 0.000000 -0.201714
v -0.040343 0.000000 -0.201714
v -0.121028 0.000000 -0.201714
v -0.121028 0.000000 0.201714
v -0.040343 0.000000 0.201714
v 0.040343 0.000000 0.201714
v 0.121028 0.000000 0.201714
v -0.121028 0.545589 -0.201714
v -0.040343 0.545589 -0.201714
v 0.040343 0.545589 -0.201714
v 0.121028 0.545589 -0.201714
v 0.121028 0.545589 0.201714
v 0.040343 0.545589 0.201714
v -0.040343 0.545589 0.201714
v -0.121028 0.545589 0.201714
v -0.201714 0.071081 -0.230670
v -0.201714 0.474508 -0.230670
v 0.201714 0.474508 -0.230670
v -0.201714 0.071081 0.230670
v 0.201714 0.071081 0.230670
v -0.201714 0.474508 0.230670
v 0.121028 0.042124 -0.201714
v 0.040343 0.042124 -0.201714
v -0.040343 0.042124 -0.201714
v -0.121028 0.042124 -0.201714
v -0.121028 0.042124 0.201714
v -0.040343 0.042124 0.201714
v 0.040343 0.042124 0.201714
v 0.121028 0.042124 0.201714
v -0.121028 0.503465 -0.201714
v -0.040343 0.503465 -0.201714
v 0.040343 0.503465 -0.201714
v 0.121028 0.503465 -0.201714
v 0.121028 0.503465 0.201714
v 0.040343 0.503465 0.201714
v -0.040343 0.503465 0.201714
v -0.121028 0.503465 0.201714
v -0.201714 0.151766 0.230670
v -0.201714 0.232452 0.230670
v 0.201714 0.313137 0.230670
v -0.201714 0.313137 0.230670
v 0.201714 0.151766 -0.230670
v -0.201714 0.232452 -0.230670
v 0.201714 0.232452 -0.230670
v 0.201714 0.313137 -0.230670
v -0.201714 0.393823 -0.230670
v 0.201714 0.393823 -0.230670
v -0.247973 0.406097 0.189440
v -0.247973 0.462235 0.189440
v -0.247973 0.462235 -0.189440
v -0.247973 0.406097 -0.189440
v 0.247973 0.406097 -0.189440
v 0.247973 0.462235 -0.189440
v 0.247973 0.462235 0.189440
v 0.247973 0.406097 0.189440
v 0.133302 0.024821 -0.189440
v 0.189440 0.024821 -0.189440
v 0.189440 0.024821 0.189440
v 0.133302 0.024821 0.189440
v -0.133302 0.520768 -0.189440
v -0.189440 0.520768 -0.189440
v -0.189440 0.520768 0.189440
v -0.133302 0.520768 0.189440
v 0.247973 0.083355 -0.189440
v 0.247973 0.139493 -0.189440
v 0.247973 0.139493 0.189440
v 0.247973 0.083355 0.189440
v 0.247973 0.164040 -0.189440
v 0.247973 0.220178 -0.189440
v 0.247973 0.220178 0.189440
v 0.247973 0.164040 0.189440
v 0.247973 0.244726 -0.189440
v 0.247973 0.300864 -0.189440
v 0.247973 0.300864 0.189440
v 0.247973 0.244726 0.189440
v 0.247973 0.325411 -0.189440
v 0.247973 0.381549 -0.189440
v 0.247973 0.381549 0.189440
v 0.247973 0.325411 0.189440
v -0.247973 0.083355 0.189440
v -0.247973 0.139493 0.189440
v -0.247973 0.139493 -0.189440
v -0.247973 0.083355 -0.189440
v -0.247973 0.164040 0.189440
v -0.247973 0.220178 0.189440
v -0.247973 0.220178 -0.189440
v -0.247973 0.164040 -0.189440
v -0.247973 0.244725 0.189440
v -0.247973 0.300864 0.189440
v -0.247973 0.300864 -0.189440
v -0.247973 0.244726 -0.189440
v -0.247973 0.325411 0.189440
v -0.247973 0.381549 0.189440
v -0.247973 0.381549 -0.189440
v -0.247973 0.325411 -0.189440
v -0.189440 0.325411 -0.247973
v -0.189440 0.381549 -0.247973
v 0.189440 0.381549 -0.247973
v 0.189440 0.325411 -0.247973
v -0.189440 0.244726 -0.247973
v -0.189440 0.300864 -0.247973
v 0.189440 0.300864 -0.247973
v 0.189440 0.244726 -0.247973
v -0.189440 0.164040 -0.247973
v -0.189440 0.220178 -0.247973
v 0.189440 0.220178 -0.247973
v 0.189440 0.164040 -0.247973
v -0.189440 0.083355 -0.247973
v -0.189440 0.139493 -0.247973
v 0.189440 0.139493 -0.247973
v 0.189440 0.083355 -0.247973
v 0.189440 0.325411 0.247973
v 0.189440 0.381549 0.247973
v -0.189440 0.381549 0.247973
v -0.189440 0.325411 0.247973
v 0.189440 0.244726 0.247973
v 0.189440 0.300864 0.247973
v -0.189440 0.300864 0.247973
v -0.189440 0.244725 0.247973
v 0.189440 0.164040 0.247973
v 0.189440 0.220178 0.247973
v -0.189440 0.220178 0.247973
v -0.189440 0.164040 0.247973
v 0.189440 0.083355 0.247973
v 0.189440 0.139493 0.247973
v -0.189440 0.139493 0.247973
v -0.189440 0.083355 0.247973
v 0.189440 0.520768 -0.189440
v 0.133302 0.520768 -0.189440
v 0.133302 0.520768 0.189440
v 0.189440 0.520768 0.189440
v 0.108755 0.520768 -0.189440
v 0.052616 0.520768 -0.189440
v 0.052616 0.520768 0.189440
v 0.108755 0.520768 0.189440
v 0.028069 0.520768 -0.189440
v -0.028069 0.520768 -0.189440
v -0.028069 0.520768 0.189440
v 0.028069 0.520768 0.189440
v -0.052616 0.520768 -0.189440
v -0.108755 0.520768 -0.189440
v -0.108755 0.520768 0.189440
v -0.052616 0.520768 0.189440
v -0.189440 0.024821 -0.189440
v -0.133302 0.024821 -0.189440
v -0.133302 0.024821 0.189440
v -0.189440 0.024821 0.189440
v -0.108755 0.024821 -0.189440
v -0.052616 0.024821 -0.189440
v -0.052616 0.024821 0.189440
v -0.108755 0.024821 0.189440
v -0.028069 0.024821 -0.189440
v 0.028069 0.024821 -0.189440
v 0.028069 0.024821 0.189440
v -0.028069 0.024821 0.189440
v 0.052616 0.024821 -0.189440
v 0.108755 0.024821 -0.189440
v 0.108755 0.024821 0.189440
v 0.052616 0.024821 0.189440
v 0.189440 0.406097 0.247973
v 0.189440 0.462235 0.247973
v -0.189440 0.462235 0.247973
v -0.189440 0.406097 0.247973
v -0.189440 0.406097 -0.247973
v -0.189440 0.462235 -0.247973
v 0.189440 0.462235 -0.247973
v 0.189440 0.406097 -0.247973
vn -0.0000 1.0000 -0.0000
vn -0.0000 -1.0000 -0.0000
vn -1.0000 -0.0000 -0.0000
vn -0.0000 -0.0000 1.0000
vn 1.0000 -0.0000 -0.0000
vn -0.0000 -0.0000 -1.0000
vn -0.5786 -0.0000 0.8156
vn -0.5786 0.8156 -0.0000
vn -0.5786 -0.0000 -0.8156
vn -0.5786 -0.8156 -0.0000
vn 0.5786 -0.0000 -0.8156
vn 0.5786 0.8156 -0.0000
vn 0.5786 -0.0000 0.8156
vn 0.5786 -0.8156 -0.0000
vn -0.0000 -0.5786 -0.8156
vn 0.8156 -0.5786 -0.0000
vn -0.0000 -0.5786 0.8156
vn -0.8156 -0.5786 -0.0000
vn -0.0000 0.5786 -0.8156
vn -0.8156 0.5786 -0.0000
vn -0.0000 0.5786 0.8156
vn 0.8156 0.5786 -0.0000
vn -0.8156 -0.0000 -0.5786
vn -0.0000 0.8156 -0.5786
vn 0.8156 -0.0000 -0.5786
vn -0.0000 -0.8156 -0.5786
vn 0.8156 -0.0000 0.5786
vn -0.0000 0.8156 0.5786
vn -0.8156 -0.0000 0.5786
vn -0.0000 -0.8156 0.5786
vt 0.407571 0.717429
vt 0.407571 0.532571
vt 0.592429 0.032571
vt 0.592429 0.217429
vt 0.555458 0.782571
vt 0.592429 0.782571
vt 0.407571 0.319542
vt 0.407571 0.282571
vt 0.407571 0.282571
vt 0.555458 0.532571
vt 0.592429 0.532571
vt 0.407571 0.217429
vt 0.407571 0.032571
vt 0.625000 0.000000
vt 0.625000 0.250000
vt 0.375000 0.250000
vt 0.375000 0.000000
vt 0.625000 0.500000
vt 0.625000 0.750000
vt 0.592429 0.717429
vt 0.375000 0.750000
vt 0.375000 0.500000
vt 0.342429 0.717429
vt 0.342429 0.532571
vt 0.125000 0.750000
vt 0.125000 0.500000
vt 0.157571 0.532571
vt 0.157571 0.717429
vt 0.875000 0.500000
vt 0.875000 0.750000
vt 0.842429 0.717429
vt 0.842429 0.532571
vt 0.657571 0.532571
vt 0.657571 0.717429
vt 0.561082 0.038195
vt 0.586805 0.038195
vt 0.586805 0.211805
vt 0.561082 0.211805
vt 0.561082 0.538195
vt 0.586805 0.538195
vt 0.586805 0.711805
vt 0.561082 0.711805
vt 0.311082 0.538195
vt 0.336805 0.538195
vt 0.336805 0.711805
vt 0.311082 0.711805
vt 0.811082 0.538195
vt 0.836805 0.538195
vt 0.836805 0.711805
vt 0.811082 0.711805
vt 0.305458 0.532571
vt 0.592429 0.430458
vt 0.592429 0.467429
vt 0.592429 0.467429
vt 0.407571 0.819543
vt 0.407571 0.782571
vt 0.407571 0.782571
vt 0.805458 0.532571
vt 0.444542 0.217429
vt 0.444542 0.467429
vt 0.407571 0.467429
vt 0.592429 0.930458
vt 0.592429 0.967429
vt 0.592429 0.967429
vt 0.444542 0.717429
vt 0.444542 0.967429
vt 0.407571 0.967429
vt 0.194542 0.717429
vt 0.694542 0.717429
vt 0.555458 0.032571
vt 0.555458 0.282571
vt 0.592429 0.282571
vt 0.444542 0.282571
vt 0.481514 0.282571
vt 0.518486 0.282571
vt 0.444542 0.032571
vt 0.481514 0.032571
vt 0.518486 0.032571
vt 0.555458 0.967429
vt 0.518486 0.967429
vt 0.481514 0.967429
vt 0.555458 0.717429
vt 0.518486 0.717429
vt 0.481514 0.717429
vt 0.555458 0.467429
vt 0.518486 0.467429
vt 0.481514 0.467429
vt 0.555458 0.217429
vt 0.518486 0.217429
vt 0.481514 0.217429
vt 0.413195 0.538195
vt 0.438918 0.538195
vt 0.438918 0.711805
vt 0.413195 0.711805
vt 0.450166 0.538195
vt 0.475890 0.538195
vt 0.475890 0.711805
vt 0.450166 0.711805
vt 0.487138 0.538195
vt 0.512862 0.538195
vt 0.512862 0.711805
vt 0.487138 0.711805
vt 0.524110 0.538195
vt 0.549834 0.538195
vt 0.549834 0.711805
vt 0.524110 0.711805
vt 0.413195 0.038195
vt 0.438918 0.038195
vt 0.438918 0.211805
vt 0.413195 0.211805
vt 0.450166 0.038195
vt 0.475890 0.038195
vt 0.475890 0.211805
vt 0.450166 0.211805
vt 0.487138 0.038195
vt 0.512862 0.038195
vt 0.512862 0.211805
vt 0.487138 0.211805
vt 0.524110 0.038195
vt 0.549834 0.038195
vt 0.549834 0.211805
vt 0.524110 0.211805
vt 0.375000 0.800000
vt 0.407571 0.856514
vt 0.407571 0.893486
vt 0.407571 0.930458
vt 0.375000 1.000000
vt 0.375000 0.950000
vt 0.375000 0.900000
vt 0.375000 0.850000
vt 0.625000 0.950000
vt 0.625000 1.000000
vt 0.592429 0.893486
vt 0.592429 0.856514
vt 0.592429 0.819542
vt 0.625000 0.800000
vt 0.625000 0.850000
vt 0.625000 0.900000
vt 0.675000 0.750000
vt 0.731514 0.717429
vt 0.768486 0.717429
vt 0.805457 0.717429
vt 0.825000 0.750000
vt 0.775000 0.750000
vt 0.725000 0.750000
vt 0.425000 0.750000
vt 0.575000 0.750000
vt 0.525000 0.750000
vt 0.475000 0.750000
vt 0.375000 0.300000
vt 0.407571 0.356514
vt 0.407571 0.393486
vt 0.407571 0.430458
vt 0.375000 0.450000
vt 0.375000 0.400000
vt 0.375000 0.350000
vt 0.425000 0.500000
vt 0.575000 0.500000
vt 0.525000 0.500000
vt 0.475000 0.500000
vt 0.575000 0.250000
vt 0.425000 0.250000
vt 0.475000 0.250000
vt 0.525000 0.250000
vt 0.444542 0.532571
vt 0.481514 0.532571
vt 0.518486 0.532571
vt 0.444542 0.782571
vt 0.481514 0.782571
vt 0.518486 0.782571
vt 0.524110 0.288195
vt 0.549834 0.288195
vt 0.549834 0.461805
vt 0.524110 0.461805
vt 0.487138 0.288195
vt 0.512862 0.288195
vt 0.512862 0.461805
vt 0.487138 0.461805
vt 0.450166 0.288195
vt 0.475890 0.288195
vt 0.475890 0.461805
vt 0.450166 0.461805
vt 0.413195 0.288195
vt 0.438918 0.288195
vt 0.438918 0.461805
vt 0.413195 0.461805
vt 0.524110 0.788195
vt 0.549834 0.788195
vt 0.549834 0.961805
vt 0.524110 0.961805
vt 0.487138 0.788195
vt 0.512862 0.788195
vt 0.512862 0.961805
vt 0.487138 0.961805
vt 0.450166 0.788195
vt 0.475890 0.788195
vt 0.475890 0.961805
vt 0.450166 0.961805
vt 0.413195 0.788195
vt 0.438918 0.788195
vt 0.438918 0.961805
vt 0.413195 0.961805
vt 0.305458 0.717429
vt 0.268486 0.717429
vt 0.231514 0.717429
vt 0.592429 0.782571
vt 0.694542 0.532571
vt 0.731514 0.532571
vt 0.768486 0.532571
vt 0.407571 0.967429
vt 0.407571 0.967429
vt 0.592429 0.319542
vt 0.592429 0.356514
vt 0.592429 0.393486
vt 0.194542 0.532571
vt 0.231514 0.532571
vt 0.268486 0.532571
vt 0.663195 0.538195
vt 0.688918 0.538195
vt 0.688918 0.711805
vt 0.663195 0.711805
vt 0.700166 0.538195
vt 0.725890 0.538195
vt 0.725890 0.711805
vt 0.700166 0.711805
vt 0.737138 0.538195
vt 0.762862 0.538195
vt 0.762862 0.711805
vt 0.737138 0.711805
vt 0.774110 0.538195
vt 0.799834 0.538195
vt 0.799833 0.711805
vt 0.774110 0.711805
vt 0.163195 0.538195
vt 0.188918 0.538195
vt 0.188918 0.711805
vt 0.163195 0.711805
vt 0.200166 0.538195
vt 0.225890 0.538195
vt 0.225890 0.711805
vt 0.200166 0.711805
vt 0.237138 0.538195
vt 0.262862 0.538195
vt 0.262862 0.711805
vt 0.237138 0.711805
vt 0.274110 0.538195
vt 0.299834 0.538195
vt 0.299834 0.711805
vt 0.274110 0.711805
vt 0.561082 0.788195
vt 0.586805 0.788195
vt 0.586805 0.961805
vt 0.561082 0.961805
vt 0.561082 0.288195
vt 0.586805 0.288195
vt 0.586805 0.461805
vt 0.561082 0.461805
vt 0.825000 0.500000
vt 0.675000 0.500000
vt 0.725000 0.500000
vt 0.775000 0.500000
vt 0.175000 0.750000
vt 0.325000 0.750000
vt 0.275000 0.750000
vt 0.225000 0.750000
vt 0.325000 0.500000
vt 0.175000 0.500000
vt 0.225000 0.500000
vt 0.275000 0.500000
vt 0.575000 0.000000
vt 0.425000 0.000000
vt 0.475000 0.000000
vt 0.525000 0.000000
vt 0.625000 0.450000
vt 0.625000 0.300000
vt 0.625000 0.350000
vt 0.625000 0.400000
vt 0.407571 0.467429
vt 0.407571 0.467429
vt 0.481514 0.967429
vt 0.425000 1.000000
vt 0.575000 1.000000
vt 0.525000 1.000000
vt 0.475000 1.000000
s 1
usemtl light_brown.002
f 20/1/1 17/2/1 39/2/1 40/1/1
f 10/3/2 11/4/2 36/4/2 34/3/2
f 91/5/3 22/6/3 42/6/3 117/5/3
f 140/7/1 13/8/1 169/9/1
f 83/10/4 18/11/4 38/11/4 109/10/4
f 12/12/1 9/13/1 33/13/1 35/12/1
f 2/14/3 4/15/3 11/4/3 10/3/3
f 3/16/3 1/17/3 9/13/3 12/12/3
f 8/18/5 6/19/5 19/20/5 18/11/5
f 5/21/5 7/22/5 17/2/5 20/1/5
f 7/22/2 5/21/2 27/23/2 26/24/2
f 1/25/2 3/26/2 25/27/2 28/28/2
f 4/29/1 2/30/1 31/31/1 30/32/1
f 6/19/1 8/18/1 29/33/1 32/34/1
f 201/35/3 202/36/3 203/37/3 204/38/3
f 205/39/5 206/40/5 207/41/5 208/42/5
f 209/43/2 210/44/2 211/45/2 212/46/2
f 213/47/1 214/48/1 215/49/1 216/50/1
f 153/51/4 26/24/4 43/24/4 175/51/4
f 144/52/2 15/53/2 171/54/2
f 148/55/1 21/56/1 173/57/1
f 161/58/4 30/32/4 47/32/4 183/58/4
f 74/59/4 12/12/4 35/12/4 106/59/4
f 18/11/2 19/20/2 41/20/2 38/11/2
f 28/28/5 25/27/5 44/27/5 45/28/5
f 82/60/3 16/61/3 37/61/3 195/60/3
f 152/62/2 23/63/2 174/64/2
f 32/34/3 29/33/3 48/33/3 49/34/3
f 90/65/6 20/1/6 40/1/6 116/65/6
f 26/24/3 27/23/3 46/23/3 43/24/3
f 95/66/5 24/67/5 172/67/5 191/66/5
f 30/32/5 31/31/5 50/31/5 47/32/5
f 157/68/6 28/28/6 45/28/6 179/68/6
f 165/69/6 32/34/6 49/34/6 187/69/6
f 70/70/6 10/3/6 34/3/6 102/70/6
f 75/71/5 14/72/5 170/72/5 199/71/5
f 13/8/5 78/73/5 108/73/5 169/8/5
f 78/73/5 77/74/5 196/74/5 108/73/5
f 77/74/5 76/75/5 107/75/5 196/74/5
f 76/75/5 75/71/5 199/71/5 107/75/5
f 9/13/6 67/76/6 99/76/6 33/13/6
f 67/76/6 68/77/6 100/77/6 99/76/6
f 68/77/6 69/78/6 101/78/6 100/77/6
f 69/78/6 70/70/6 102/70/6 101/78/6
f 23/63/5 98/79/5 120/79/5 174/63/5
f 98/79/5 97/80/5 194/80/5 120/79/5
f 97/80/5 96/81/5 192/81/5 194/80/5
f 96/81/5 95/66/5 191/66/5 192/81/5
f 19/20/6 87/82/6 113/82/6 41/20/6
f 87/82/6 88/83/6 114/83/6 113/82/6
f 88/83/6 89/84/6 115/84/6 114/83/6
f 89/84/6 90/65/6 116/65/6 115/84/6
f 15/53/3 79/85/3 200/85/3 171/53/3
f 79/85/3 80/86/3 198/86/3 200/85/3
f 80/86/3 81/87/3 197/87/3 198/86/3
f 81/87/3 82/60/3 195/60/3 197/87/3
f 11/4/4 71/88/4 103/88/4 36/4/4
f 71/88/4 72/89/4 104/89/4 103/88/4
f 72/89/4 73/90/4 105/90/4 104/89/4
f 73/90/4 74/59/4 106/59/4 105/90/4
f 217/91/5 218/92/5 219/93/5 220/94/5
f 221/95/5 222/96/5 223/97/5 224/98/5
f 225/99/5 226/100/5 227/101/5 228/102/5
f 229/103/5 230/104/5 231/105/5 232/106/5
f 233/107/3 234/108/3 235/109/3 236/110/3
f 237/111/3 238/112/3 239/113/3 240/114/3
f 241/115/3 242/116/3 243/117/3 244/118/3
f 245/119/3 246/120/3 247/121/3 248/122/3
f 132/123/4 5/21/4 21/56/4 148/55/4 147/124/4 146/125/4 145/126/4 24/67/4 1/127/4 129/128/4 130/129/4 131/130/4
f 136/131/4 2/132/4 23/63/4 152/62/4 151/133/4 150/134/4 149/135/4 22/6/4 6/19/4 133/136/4 134/137/4 135/138/4
f 133/139/1 6/19/1 32/34/1 165/69/1 166/140/1 167/141/1 168/142/1 31/31/1 2/30/1 136/143/1 135/144/1 134/145/1
f 66/146/5 5/21/5 20/1/5 90/65/5 89/84/5 88/83/5 87/82/5 19/20/5 6/19/5 63/147/5 64/148/5 65/149/5
f 124/150/6 3/16/6 13/8/6 140/7/6 139/151/6 138/152/6 137/153/6 16/61/6 7/22/6 121/154/6 122/155/6 123/156/6
f 62/157/6 7/22/6 16/61/6 82/60/6 81/87/6 80/86/6 79/85/6 15/53/6 8/18/6 59/158/6 60/159/6 61/160/6
f 55/161/6 4/15/6 14/72/6 75/71/6 76/75/6 77/74/6 78/73/6 13/8/6 3/16/6 58/162/6 57/163/6 56/164/6
f 58/162/3 3/16/3 12/12/3 74/59/3 73/90/3 72/89/3 71/88/3 11/4/3 4/15/3 55/161/3 56/164/3 57/163/3
f 17/2/4 86/165/4 112/165/4 39/2/4
f 86/165/4 85/166/4 111/166/4 112/165/4
f 85/166/4 84/167/4 110/167/4 111/166/4
f 84/167/4 83/10/4 109/10/4 110/167/4
f 21/56/3 94/168/3 119/168/3 173/56/3
f 94/168/3 93/169/3 118/169/3 119/168/3
f 93/169/3 92/170/3 193/170/3 118/169/3
f 92/170/3 91/5/3 117/5/3 193/170/3
f 249/171/6 250/172/6 251/173/6 252/174/6
f 253/175/6 254/176/6 255/177/6 256/178/6
f 257/179/6 258/180/6 259/181/6 260/182/6
f 261/183/6 262/184/6 263/185/6 264/186/6
f 265/187/4 266/188/4 267/189/4 268/190/4
f 269/191/4 270/192/4 271/193/4 272/194/4
f 273/195/4 274/196/4 275/197/4 276/198/4
f 277/199/4 278/200/4 279/201/4 280/202/4
f 31/31/6 168/142/6 190/142/6 50/31/6
f 168/142/6 167/141/6 189/141/6 190/142/6
f 167/141/6 166/140/6 188/140/6 189/141/6
f 166/140/6 165/69/6 187/69/6 188/140/6
f 27/23/6 160/203/6 182/203/6 46/23/6
f 160/203/6 159/204/6 181/204/6 182/203/6
f 159/204/6 158/205/6 180/205/6 181/204/6
f 158/205/6 157/68/6 179/68/6 180/205/6
f 22/6/2 149/135/2 42/6/2
f 149/135/2 150/134/2 174/64/2 42/206/2
f 150/134/2 151/133/2 174/64/2
f 151/133/2 152/62/2 174/64/2
f 29/33/4 164/207/4 186/207/4 48/33/4
f 164/207/4 163/208/4 185/208/4 186/207/4
f 163/208/4 162/209/4 184/209/4 185/208/4
f 162/209/4 161/58/4 183/58/4 184/209/4
f 24/67/1 145/126/1 172/67/1
f 145/126/1 146/125/1 172/210/1
f 146/125/1 147/124/1 172/67/1
f 147/124/1 148/55/1 173/57/1 172/211/1
f 14/72/2 141/212/2 170/72/2
f 141/212/2 142/213/2 171/54/2 170/72/2
f 142/213/2 143/214/2 171/54/2
f 143/214/2 144/52/2 171/54/2
f 25/27/4 156/215/4 178/215/4 44/27/4
f 156/215/4 155/216/4 177/216/4 178/215/4
f 155/216/4 154/217/4 176/217/4 177/216/4
f 154/217/4 153/51/4 175/51/4 176/217/4
f 281/218/1 282/219/1 283/220/1 284/221/1
f 285/222/1 286/223/1 287/224/1 288/225/1
f 289/226/1 290/227/1 291/228/1 292/229/1
f 293/230/1 294/231/1 295/232/1 296/233/1
f 297/234/2 298/235/2 299/236/2 300/237/2
f 301/238/2 302/239/2 303/240/2 304/241/2
f 305/242/2 306/243/2 307/244/2 308/245/2
f 309/246/2 310/247/2 311/248/2 312/249/2
f 313/250/4 314/251/4 315/252/4 316/253/4
f 317/254/6 318/255/6 319/256/6 320/257/6
f 125/258/1 4/29/1 30/32/1 161/58/1 162/209/1 163/208/1 164/207/1 29/33/1 8/18/1 128/259/1 127/260/1 126/261/1
f 129/262/2 1/25/2 28/28/2 157/68/2 158/205/2 159/204/2 160/203/2 27/23/2 5/21/2 132/263/2 131/264/2 130/265/2
f 121/266/2 7/22/2 26/24/2 153/51/2 154/217/2 155/216/2 156/215/2 25/27/2 3/26/2 124/267/2 123/268/2 122/269/2
f 63/147/4 6/19/4 22/6/4 91/5/4 92/170/4 93/169/4 94/168/4 21/56/4 5/21/4 66/146/4 65/149/4 64/148/4
f 54/270/3 2/14/3 10/3/3 70/70/3 69/78/3 68/77/3 67/76/3 9/13/3 1/17/3 51/271/3 52/272/3 53/273/3
f 128/274/6 8/18/6 15/53/6 144/52/6 143/214/6 142/213/6 141/212/6 14/72/6 4/15/6 125/275/6 126/276/6 127/277/6
f 16/61/1 137/153/1 37/61/1
f 137/153/1 138/152/1 37/278/1
f 138/152/1 139/151/1 37/61/1
f 139/151/1 140/7/1 169/9/1 37/279/1
f 102/70/7 34/3/7 202/36/7 201/35/7
f 34/3/8 36/4/8 203/37/8 202/36/8
f 36/4/9 103/88/9 204/38/9 203/37/9
f 103/88/10 102/70/10 201/35/10 204/38/10
f 109/10/11 38/11/11 206/40/11 205/39/11
f 38/11/12 41/20/12 207/41/12 206/40/12
f 41/20/13 113/82/13 208/42/13 207/41/13
f 113/82/14 109/10/14 205/39/14 208/42/14
f 175/51/15 43/24/15 210/44/15 209/43/15
f 43/24/16 46/23/16 211/45/16 210/44/16
f 46/23/17 182/203/17 212/46/17 211/45/17
f 182/203/18 175/51/18 209/43/18 212/46/18
f 183/58/19 47/32/19 214/48/19 213/47/19
f 47/32/20 50/31/20 215/49/20 214/48/20
f 50/31/21 190/142/21 216/50/21 215/49/21
f 190/142/22 183/58/22 213/47/22 216/50/22
f 39/2/11 112/165/11 218/92/11 217/91/11
f 112/165/12 116/65/12 219/93/12 218/92/12
f 116/65/13 40/1/13 220/94/13 219/93/13
f 40/1/14 39/2/14 217/91/14 220/94/14
f 112/165/11 111/166/11 222/96/11 221/95/11
f 111/166/12 115/84/12 223/97/12 222/96/12
f 115/84/13 116/65/13 224/98/13 223/97/13
f 116/65/14 112/165/14 221/95/14 224/98/14
f 111/166/11 110/167/11 226/100/11 225/99/11
f 110/167/12 114/83/12 227/101/12 226/100/12
f 114/83/13 115/84/13 228/102/13 227/101/13
f 115/84/14 111/166/14 225/99/14 228/102/14
f 110/167/11 109/10/11 230/104/11 229/103/11
f 109/10/12 113/82/12 231/105/12 230/104/12
f 113/82/13 114/83/13 232/106/13 231/105/13
f 114/83/14 110/167/14 229/103/14 232/106/14
f 33/13/7 99/76/7 234/108/7 233/107/7
f 99/76/8 106/59/8 235/109/8 234/108/8
f 106/59/9 35/12/9 236/110/9 235/109/9
f 35/12/10 33/13/10 233/107/10 236/110/10
f 99/76/7 100/77/7 238/112/7 237/111/7
f 100/77/8 105/90/8 239/113/8 238/112/8
f 105/90/9 106/59/9 240/114/9 239/113/9
f 106/59/10 99/76/10 237/111/10 240/114/10
f 100/77/7 101/78/7 242/116/7 241/115/7
f 101/78/8 104/89/8 243/117/8 242/116/8
f 104/89/9 105/90/9 244/118/9 243/117/9
f 105/90/10 100/77/10 241/115/10 244/118/10
f 101/78/7 102/70/7 246/120/7 245/119/7
f 102/70/8 103/88/8 247/121/8 246/120/8
f 103/88/9 104/89/9 248/122/9 247/121/9
f 104/89/10 101/78/10 245/119/10 248/122/10
f 107/75/23 199/71/23 250/172/23 249/171/23
f 199/71/24 200/85/24 251/173/24 250/172/24
f 200/85/25 198/86/25 252/174/25 251/173/25
f 198/86/26 107/75/26 249/171/26 252/174/26
f 196/74/23 107/75/23 254/176/23 253/175/23
f 107/75/24 198/86/24 255/177/24 254/176/24
f 198/86/25 197/87/25 256/178/25 255/177/25
f 197/87/26 196/74/26 253/175/26 256/178/26
f 108/73/23 196/74/23 258/180/23 257/179/23
f 196/74/24 197/87/24 259/181/24 258/180/24
f 197/87/25 195/60/25 260/182/25 259/181/25
f 195/60/26 108/73/26 257/179/26 260/182/26
f 169/9/23 108/73/23 262/184/23 261/183/23
f 108/73/24 195/60/24 263/185/24 262/184/24
f 195/60/25 37/279/25 264/186/25 263/185/25
f 37/279/26 169/9/26 261/183/26 264/186/26
f 193/170/27 117/5/27 266/188/27 265/187/27
f 117/5/28 120/79/28 267/189/28 266/188/28
f 120/79/29 194/80/29 268/190/29 267/189/29
f 194/80/30 193/170/30 265/187/30 268/190/30
f 118/169/27 193/170/27 270/192/27 269/191/27
f 193/170/28 194/80/28 271/193/28 270/192/28
f 194/80/29 192/280/29 272/194/29 271/193/29
f 192/280/30 118/169/30 269/191/30 272/194/30
f 119/168/27 118/169/27 274/196/27 273/195/27
f 118/169/28 192/280/28 275/197/28 274/196/28
f 192/280/29 191/66/29 276/198/29 275/197/29
f 191/66/30 119/168/30 273/195/30 276/198/30
f 173/57/27 119/168/27 278/200/27 277/199/27
f 119/168/28 191/66/28 279/201/28 278/200/28
f 191/66/29 172/211/29 280/202/29 279/201/29
f 172/211/30 173/57/30 277/199/30 280/202/30
f 48/33/19 186/207/19 282/219/19 281/218/19
f 186/207/20 187/69/20 283/220/20 282/219/20
f 187/69/21 49/34/21 284/221/21 283/220/21
f 49/34/22 48/33/22 281/218/22 284/221/22
f 186/207/19 185/208/19 286/223/19 285/222/19
f 185/208/20 188/140/20 287/224/20 286/223/20
f 188/140/21 187/69/21 288/225/21 287/224/21
f 187/69/22 186/207/22 285/222/22 288/225/22
f 185/208/19 184/209/19 290/227/19 289/226/19
f 184/209/20 189/141/20 291/228/20 290/227/20
f 189/141/21 188/140/21 292/229/21 291/228/21
f 188/140/22 185/208/22 289/226/22 292/229/22
f 184/209/19 183/58/19 294/231/19 293/230/19
f 183/58/20 190/142/20 295/232/20 294/231/20
f 190/142/21 189/141/21 296/233/21 295/232/21
f 189/141/22 184/209/22 293/230/22 296/233/22
f 44/27/15 178/215/15 298/235/15 297/234/15
f 178/215/16 179/68/16 299/236/16 298/235/16
f 179/68/17 45/28/17 300/237/17 299/236/17
f 45/28/18 44/27/18 297/234/18 300/237/18
f 178/215/15 177/216/15 302/239/15 301/238/15
f 177/216/16 180/205/16 303/240/16 302/239/16
f 180/205/17 179/68/17 304/241/17 303/240/17
f 179/68/18 178/215/18 301/238/18 304/241/18
f 177/216/15 176/217/15 306/243/15 305/242/15
f 176/217/16 181/204/16 307/244/16 306/243/16
f 181/204/17 180/205/17 308/245/17 307/244/17
f 180/205/18 177/216/18 305/242/18 308/245/18
f 176/217/15 175/51/15 310/247/15 309/246/15
f 175/51/16 182/203/16 311/248/16 310/247/16
f 182/203/17 181/204/17 312/249/17 311/248/17
f 181/204/18 176/217/18 309/246/18 312/249/18
f 117/5/27 42/206/27 314/251/27 313/250/27
f 42/206/28 174/64/28 315/252/28 314/251/28
f 174/64/29 120/79/29 316/253/29 315/252/29
f 120/79/30 117/5/30 313/250/30 316/253/30
f 199/71/23 170/72/23 318/255/23 317/254/23
f 170/72/24 171/54/24 319/256/24 318/255/24
f 171/54/25 200/85/25 320/257/25 319/256/25
f 200/85/26 199/71/26 317/254/26 320/257/26
f 51/281/4 1/127/4 24/67/4 95/66/4 96/81/4 97/80/4 98/79/4 23/63/4 2/132/4 54/282/4 53/283/4 52/284/4
f 59/158/5 8/18/5 18/11/5 83/10/5 84/167/5 85/166/5 86/165/5 17/2/5 7/22/5 62/157/5 61/160/5 60/159/5
