# Blender 5.2.1 LTS
# www.blender.org
mtllib Stairs_Straight.mtl
o EXPORT_Stairs_Straight
v -1.053095 0.000000 2.103127
v 1.053095 0.000000 2.103127
v 1.053095 0.000000 1.752606
v 1.053095 0.255218 2.103127
v 1.053095 0.255218 1.752606
v -1.053095 0.255218 1.752606
v -1.053095 0.255218 2.103127
v -0.351032 0.000000 2.103127
v 0.351032 0.000000 2.103127
v 0.351032 0.255218 1.752606
v -0.351032 0.255218 1.752606
v 0.351032 0.255218 2.103127
v -0.351032 0.255218 2.103127
v -1.053095 0.000000 1.752606
v -1.053095 0.000000 1.402085
v 1.053095 0.000000 1.402085
v 1.053095 0.510436 1.752606
v 1.053095 0.510436 1.402085
v -1.053095 0.510436 1.402085
v -1.053095 0.510436 1.752606
v -0.351032 0.000000 1.752606
v 0.351032 0.000000 1.752606
v -0.351032 0.000000 1.402085
v 0.351032 0.510436 1.402085
v -0.351032 0.510436 1.402085
v 0.351032 0.510436 1.752606
v -0.351032 0.510436 1.752606
v -1.053095 0.000000 1.051564
v 1.053095 0.000000 1.051564
v 1.053095 0.765654 1.402085
v 1.053095 0.765654 1.051564
v -1.053095 0.765654 1.051564
v -1.053095 0.765654 1.402085
v 0.351032 0.000000 1.402085
v 0.351032 0.000000 1.051564
v 0.351032 0.765654 1.051564
v -0.351032 0.765654 1.051564
v 0.351032 0.765654 1.402085
v -0.351032 0.765654 1.402085
v -1.053095 0.000000 0.701043
v 1.053095 0.000000 0.701042
v 1.053095 1.020872 1.051564
v 1.053095 1.020872 0.701042
v -1.053095 1.020872 0.701043
v -1.053095 1.020872 1.051564
v -0.351032 0.000000 1.051564
v 0.351032 0.000000 0.701042
v -0.351032 0.000000 0.701043
v 0.351032 1.020872 0.701042
v -0.351032 1.020872 0.701043
v 0.351032 1.020872 1.051564
v -0.351032 1.020872 1.051564
v -1.053095 0.000000 0.350521
v 1.053095 1.276090 0.701042
v 1.053095 1.276090 0.350521
v -1.053095 1.276090 0.350521
v -1.053095 1.276090 0.701042
v 0.351032 1.276090 0.350521
v -0.351032 1.276090 0.350521
v 0.351032 1.276090 0.701042
v -0.351032 1.276090 0.701042
v 1.053095 0.000000 0.350521
v -1.053095 0.000000 0.000000
v 1.053095 1.531308 0.350521
v 1.053095 1.531308 0.000000
v -1.053095 1.531308 0.000000
v -1.053095 1.531308 0.350521
v -0.351032 0.000000 0.350521
v 0.351032 0.000000 0.350521
v -0.351032 0.000000 0.000000
v 0.351032 1.531308 0.000000
v -0.351032 1.531308 0.000000
v 0.351032 1.531308 0.350521
v -0.351032 1.531308 0.350521
v 1.053095 0.000000 0.000000
v -1.053095 0.000000 -0.350521
v 1.053095 0.000000 -0.350521
v 1.053095 1.786526 0.000000
v 1.053095 1.786526 -0.350521
v -1.053095 1.786526 -0.350521
v -1.053095 1.786526 0.000000
v 0.351032 0.000000 0.000000
v 0.351032 0.000000 -0.350521
v 0.351032 1.786526 -0.350521
v -0.351032 1.786526 -0.350521
v 0.351032 1.786526 0.000000
v -0.351032 1.786526 0.000000
v 1.053095 2.041744 -0.350521
v 1.053095 2.041744 -0.701043
v -1.053095 2.041744 -0.701042
v -1.053095 2.041744 -0.350521
v -0.351032 0.000000 -0.350521
v 0.351032 2.041744 -0.701043
v -0.351032 2.041744 -0.701042
v 0.351032 2.041744 -0.350521
v -0.351032 2.041744 -0.350521
v -1.053095 0.000000 -0.701042
v 1.053095 0.000000 -0.701042
v 1.053095 2.296962 -0.701042
v 1.053095 2.296962 -1.051564
v -1.053095 2.296962 -1.051564
v -1.053095 2.296962 -0.701042
v -0.351032 0.000000 -0.701042
v 0.351032 0.000000 -0.701042
v 0.351032 2.296962 -1.051564
v -0.351032 2.296962 -1.051564
v 0.351032 2.296962 -0.701042
v -0.351032 2.296962 -0.701042
v -1.053095 0.000000 -1.051564
v 1.053095 0.000000 -1.051564
v 1.053095 0.000000 -1.402085
v 1.053095 2.552181 -1.051564
v 1.053095 2.552181 -1.402085
v -1.053095 2.552181 -1.402085
v -1.053095 2.552181 -1.051564
v -0.351032 0.000000 -1.051564
v 0.351032 0.000000 -1.051564
v 0.351032 0.000000 -1.402085
v -0.351032 0.000000 -1.402085
v 0.351032 2.552181 -1.402085
v -0.351032 2.552181 -1.402085
v 0.351032 2.552181 -1.051564
v -0.351032 2.552181 -1.051564
v -1.053095 0.000000 -1.402085
v 1.053095 2.807399 -1.402085
v 1.053095 2.807399 -1.752606
v -1.053095 2.807399 -1.752606
v -1.053095 2.807399 -1.402085
v 0.351032 2.807399 -1.752606
v -0.351032 2.807399 -1.752606
v 0.351032 2.807399 -1.402085
v -0.351032 2.807399 -1.402085
v -1.053095 0.000000 -1.752606
v 1.053095 0.000000 -1.752606
v -1.053095 0.000000 -2.103127
v 1.053095 0.000000 -2.103127
v 1.053095 3.062617 -1.752606
v 1.053095 3.062617 -2.103127
v -1.053095 3.062617 -2.103127
v -1.053095 3.062617 -1.752606
v -0.351032 0.000000 -1.752606
v 0.351032 0.000000 -1.752606
v 0.351032 0.000000 -2.103127
v -0.351032 0.000000 -2.103127
v 0.351032 3.062617 -2.103127
v -0.351032 3.062617 -2.103127
v 0.351032 3.062617 -1.752606
v -0.351032 3.062617 -1.752606
vn -0.000000 -1.000000 -0.000000
vn -0.000000 1.000000 -0.000000
vn 1.000000 -0.000000 -0.000000
vn -0.000000 -0.000000 1.000000
vn -1.000000 -0.000000 -0.000000
vn -0.000000 -0.000000 -1.000000
vt 0.071824 0.187980
vt 0.071824 0.187980
s 1
usemtl dark_grey.002
f 22/1/1 3/2/1 2/2/1 9/2/1
f 13/2/2 11/2/2 6/2/2 7/2/2
f 3/2/3 5/2/3 4/2/3 2/2/3
f 8/1/4 13/2/4 7/2/4 1/2/4
f 1/2/5 7/2/5 6/2/5 14/2/5
f 22/1/6 10/1/6 5/2/6 3/2/6
f 14/2/6 6/2/6 11/2/6 21/2/6
f 21/2/6 11/2/6 10/1/6 22/1/6
f 2/2/4 4/2/4 12/1/4 9/2/4
f 9/2/4 12/1/4 13/2/4 8/1/4
f 4/2/2 5/2/2 10/1/2 12/1/2
f 12/1/2 10/1/2 11/2/2 13/2/2
f 14/2/1 21/2/1 8/1/1 1/2/1
f 21/2/1 22/1/1 9/2/1 8/1/1
f 34/1/1 16/2/1 3/2/1 22/2/1
f 27/2/2 25/2/2 19/2/2 20/2/2
f 16/2/3 18/2/3 17/2/3 3/2/3
f 21/1/4 27/2/4 20/2/4 14/2/4
f 14/2/5 20/2/5 19/2/5 15/2/5
f 34/1/6 24/1/6 18/2/6 16/2/6
f 15/2/6 19/2/6 25/2/6 23/2/6
f 23/2/6 25/2/6 24/1/6 34/1/6
f 3/2/4 17/2/4 26/1/4 22/2/4
f 22/2/4 26/1/4 27/2/4 21/1/4
f 17/2/2 18/2/2 24/1/2 26/1/2
f 26/1/2 24/1/2 25/2/2 27/2/2
f 15/2/1 23/2/1 21/1/1 14/2/1
f 23/2/1 34/1/1 22/2/1 21/1/1
f 35/1/1 29/2/1 16/2/1 34/2/1
f 39/2/2 37/2/2 32/2/2 33/2/2
f 29/2/3 31/2/3 30/2/3 16/2/3
f 23/1/4 39/2/4 33/2/4 15/2/4
f 15/2/5 33/2/5 32/2/5 28/2/5
f 35/1/6 36/1/6 31/2/6 29/2/6
f 28/2/6 32/2/6 37/2/6 46/2/6
f 46/2/6 37/2/6 36/1/6 35/1/6
f 16/2/4 30/2/4 38/1/4 34/2/4
f 34/2/4 38/1/4 39/2/4 23/1/4
f 30/2/2 31/2/2 36/1/2 38/1/2
f 38/1/2 36/1/2 37/2/2 39/2/2
f 28/2/1 46/2/1 23/1/1 15/2/1
f 46/2/1 35/1/1 34/2/1 23/1/1
f 47/1/1 41/2/1 29/2/1 35/2/1
f 52/2/2 50/2/2 44/2/2 45/2/2
f 41/2/3 43/2/3 42/2/3 29/2/3
f 46/1/4 52/2/4 45/2/4 28/2/4
f 28/2/5 45/2/5 44/2/5 40/2/5
f 47/1/6 49/1/6 43/2/6 41/2/6
f 40/2/6 44/2/6 50/2/6 48/2/6
f 48/2/6 50/2/6 49/1/6 47/1/6
f 29/2/4 42/2/4 51/1/4 35/2/4
f 35/2/4 51/1/4 52/2/4 46/1/4
f 42/2/2 43/2/2 49/1/2 51/1/2
f 51/1/2 49/1/2 50/2/2 52/2/2
f 40/2/1 48/2/1 46/1/1 28/2/1
f 48/2/1 47/1/1 35/2/1 46/1/1
f 69/1/1 62/2/1 41/2/1 47/2/1
f 61/2/2 59/2/2 56/2/2 57/2/2
f 62/2/3 55/2/3 54/2/3 41/2/3
f 48/1/4 61/2/4 57/2/4 40/2/4
f 40/2/5 57/2/5 56/2/5 53/2/5
f 69/1/6 58/1/6 55/2/6 62/2/6
f 53/2/6 56/2/6 59/2/6 68/2/6
f 68/2/6 59/2/6 58/1/6 69/1/6
f 41/2/4 54/2/4 60/1/4 47/2/4
f 47/2/4 60/1/4 61/2/4 48/1/4
f 54/2/2 55/2/2 58/1/2 60/1/2
f 60/1/2 58/1/2 59/2/2 61/2/2
f 53/2/1 68/2/1 48/1/1 40/2/1
f 68/2/1 69/1/1 47/2/1 48/1/1
f 82/1/1 75/2/1 62/2/1 69/2/1
f 74/2/2 72/2/2 66/2/2 67/2/2
f 75/2/3 65/2/3 64/2/3 62/2/3
f 68/1/4 74/2/4 67/2/4 53/2/4
f 53/2/5 67/2/5 66/2/5 63/2/5
f 82/1/6 71/1/6 65/2/6 75/2/6
f 63/2/6 66/2/6 72/2/6 70/2/6
f 70/2/6 72/2/6 71/1/6 82/1/6
f 62/2/4 64/2/4 73/1/4 69/2/4
f 69/2/4 73/1/4 74/2/4 68/1/4
f 64/2/2 65/2/2 71/1/2 73/1/2
f 73/1/2 71/1/2 72/2/2 74/2/2
f 63/2/1 70/2/1 68/1/1 53/2/1
f 70/2/1 82/1/1 69/2/1 68/1/1
f 83/1/1 77/2/1 75/2/1 82/2/1
f 87/2/2 85/2/2 80/2/2 81/2/2
f 77/2/3 79/2/3 78/2/3 75/2/3
f 70/1/4 87/2/4 81/2/4 63/2/4
f 63/2/5 81/2/5 80/2/5 76/2/5
f 83/1/6 84/1/6 79/2/6 77/2/6
f 76/2/6 80/2/6 85/2/6 92/2/6
f 92/2/6 85/2/6 84/1/6 83/1/6
f 75/2/4 78/2/4 86/1/4 82/2/4
f 82/2/4 86/1/4 87/2/4 70/1/4
f 78/2/2 79/2/2 84/1/2 86/1/2
f 86/1/2 84/1/2 85/2/2 87/2/2
f 76/2/1 92/2/1 70/1/1 63/2/1
f 92/2/1 83/1/1 82/2/1 70/1/1
f 104/1/1 98/2/1 77/2/1 83/2/1
f 96/2/2 94/2/2 90/2/2 91/2/2
f 98/2/3 89/2/3 88/2/3 77/2/3
f 92/1/4 96/2/4 91/2/4 76/2/4
f 76/2/5 91/2/5 90/2/5 97/2/5
f 104/1/6 93/1/6 89/2/6 98/2/6
f 97/2/6 90/2/6 94/2/6 103/2/6
f 103/2/6 94/2/6 93/1/6 104/1/6
f 77/2/4 88/2/4 95/1/4 83/2/4
f 83/2/4 95/1/4 96/2/4 92/1/4
f 88/2/2 89/2/2 93/1/2 95/1/2
f 95/1/2 93/1/2 94/2/2 96/2/2
f 97/2/1 103/2/1 92/1/1 76/2/1
f 103/2/1 104/1/1 83/2/1 92/1/1
f 117/1/1 110/2/1 98/2/1 104/2/1
f 108/2/2 106/2/2 101/2/2 102/2/2
f 110/2/3 100/2/3 99/2/3 98/2/3
f 103/1/4 108/2/4 102/2/4 97/2/4
f 97/2/5 102/2/5 101/2/5 109/2/5
f 117/1/6 105/1/6 100/2/6 110/2/6
f 109/2/6 101/2/6 106/2/6 116/2/6
f 116/2/6 106/2/6 105/1/6 117/1/6
f 98/2/4 99/2/4 107/1/4 104/2/4
f 104/2/4 107/1/4 108/2/4 103/1/4
f 99/2/2 100/2/2 105/1/2 107/1/2
f 107/1/2 105/1/2 106/2/2 108/2/2
f 109/2/1 116/2/1 103/1/1 97/2/1
f 116/2/1 117/1/1 104/2/1 103/1/1
f 118/1/1 111/2/1 110/2/1 117/2/1
f 123/2/2 121/2/2 114/2/2 115/2/2
f 111/2/3 113/2/3 112/2/3 110/2/3
f 116/1/4 123/2/4 115/2/4 109/2/4
f 109/2/5 115/2/5 114/2/5 124/2/5
f 118/1/6 120/1/6 113/2/6 111/2/6
f 124/2/6 114/2/6 121/2/6 119/2/6
f 119/2/6 121/2/6 120/1/6 118/1/6
f 110/2/4 112/2/4 122/1/4 117/2/4
f 117/2/4 122/1/4 123/2/4 116/1/4
f 112/2/2 113/2/2 120/1/2 122/1/2
f 122/1/2 120/1/2 121/2/2 123/2/2
f 124/2/1 119/2/1 116/1/1 109/2/1
f 119/2/1 118/1/1 117/2/1 116/1/1
f 142/1/1 134/2/1 111/2/1 118/2/1
f 132/2/2 130/2/2 127/2/2 128/2/2
f 134/2/3 126/2/3 125/2/3 111/2/3
f 119/1/4 132/2/4 128/2/4 124/2/4
f 124/2/5 128/2/5 127/2/5 133/2/5
f 142/1/6 129/1/6 126/2/6 134/2/6
f 133/2/6 127/2/6 130/2/6 141/2/6
f 141/2/6 130/2/6 129/1/6 142/1/6
f 111/2/4 125/2/4 131/1/4 118/2/4
f 118/2/4 131/1/4 132/2/4 119/1/4
f 125/2/2 126/2/2 129/1/2 131/1/2
f 131/1/2 129/1/2 130/2/2 132/2/2
f 133/2/1 141/2/1 119/1/1 124/2/1
f 141/2/1 142/1/1 118/2/1 119/1/1
f 143/1/1 136/2/1 134/2/1 142/2/1
f 148/2/2 146/2/2 139/2/2 140/2/2
f 136/2/3 138/2/3 137/2/3 134/2/3
f 141/1/4 148/2/4 140/2/4 133/2/4
f 133/2/5 140/2/5 139/2/5 135/2/5
f 143/1/6 145/1/6 138/2/6 136/2/6
f 135/2/6 139/2/6 146/2/6 144/2/6
f 144/2/6 146/2/6 145/1/6 143/1/6
f 134/2/4 137/2/4 147/1/4 142/2/4
f 142/2/4 147/1/4 148/2/4 141/1/4
f 137/2/2 138/2/2 145/1/2 147/1/2
f 147/1/2 145/1/2 146/2/2 148/2/2
f 135/2/1 144/2/1 141/1/1 133/2/1
f 144/2/1 143/1/1 142/2/1 141/1/1
