# Blender 5.2.1 LTS
# www.blender.org
mtllib StartDais.mtl
o EXPORT_StartDais
v 0.039600 0.000000 0.090000
v 0.039600 0.280000 0.090000
v 0.000000 0.100800 -0.920000
v 0.000000 0.180800 -0.900000
v 0.460000 0.100800 -0.796743
v 0.450000 0.180800 -0.779423
v 0.796743 0.100800 -0.460000
v 0.779423 0.180800 -0.450000
v 0.920000 0.100800 0.000000
v 0.900000 0.180800 0.000000
v 0.796743 0.100800 0.460000
v 0.779423 0.180800 0.450000
v 0.460000 0.100800 0.796743
v 0.450000 0.180800 0.779423
v 0.000000 0.100800 0.920000
v 0.000000 0.180800 0.900000
v -0.460000 0.100800 0.796743
v -0.450000 0.180800 0.779423
v -0.796743 0.100800 0.460000
v -0.779423 0.180800 0.450000
v -0.920000 0.100800 0.000000
v -0.900000 0.180800 0.000000
v -0.796743 0.100800 -0.460000
v -0.779423 0.180800 -0.450000
v -0.460000 0.100800 -0.796743
v -0.450000 0.180800 -0.779423
v 0.000000 0.180800 -0.820000
v 0.000000 0.260800 -0.800000
v 0.410000 0.180800 -0.710141
v 0.400000 0.260800 -0.692820
v 0.710141 0.180800 -0.410000
v 0.692820 0.260800 -0.400000
v 0.820000 0.180800 0.000000
v 0.800000 0.260800 0.000000
v 0.710141 0.180800 0.410000
v 0.692820 0.260800 0.400000
v 0.410000 0.180800 0.710141
v 0.400000 0.260800 0.692820
v 0.000000 0.180800 0.820000
v 0.000000 0.260800 0.800000
v -0.410000 0.180800 0.710141
v -0.400000 0.260800 0.692820
v -0.710141 0.180800 0.410000
v -0.692820 0.260800 0.400000
v -0.820000 0.180800 0.000000
v -0.800000 0.260800 0.000000
v -0.710141 0.180800 -0.410000
v -0.692820 0.260800 -0.400000
v -0.410000 0.180800 -0.710141
v -0.400000 0.260800 -0.692820
v 0.000000 0.250800 -0.450000
v 0.000000 0.270800 -0.450000
v 0.318198 0.250800 -0.318198
v 0.318198 0.270800 -0.318198
v 0.450000 0.250800 0.000000
v 0.450000 0.270800 0.000000
v 0.318198 0.250800 0.318198
v 0.318198 0.270800 0.318198
v 0.000000 0.250800 0.450000
v 0.000000 0.270800 0.450000
v -0.318198 0.250800 0.318198
v -0.318198 0.270800 0.318198
v -0.450000 0.250800 0.000000
v -0.450000 0.270800 0.000000
v -0.318198 0.250800 -0.318198
v -0.318198 0.270800 -0.318198
v 0.039600 0.000000 -0.090000
v 0.039600 0.280000 -0.090000
v 0.219600 0.000000 0.090000
v 0.219600 0.280000 0.090000
v 0.219600 0.000000 -0.090000
v 0.219600 0.280000 -0.090000
v -0.090000 0.000000 -0.039600
v -0.090000 0.280000 -0.039600
v -0.090000 0.000000 -0.219600
v -0.090000 0.280000 -0.219600
v 0.090000 0.000000 -0.039600
v 0.090000 0.280000 -0.039600
v 0.090000 0.000000 -0.219600
v 0.090000 0.280000 -0.219600
v -0.219600 0.000000 0.090000
v -0.219600 0.280000 0.090000
v -0.219600 0.000000 -0.090000
v -0.219600 0.280000 -0.090000
v -0.039600 0.000000 0.090000
v -0.039600 0.280000 0.090000
v -0.039600 0.000000 -0.090000
v -0.039600 0.280000 -0.090000
v -0.090000 0.000000 0.219600
v -0.090000 0.280000 0.219600
v -0.090000 0.000000 0.039600
v -0.090000 0.280000 0.039600
v 0.090000 0.000000 0.219600
v 0.090000 0.280000 0.219600
v 0.090000 0.000000 0.039600
v 0.090000 0.280000 0.039600
vn -0.3827 -0.0000 0.9239
vn -0.0000 1.0000 -0.0000
vn 0.2516 0.2347 -0.9389
vn -0.0000 -0.0000 -1.0000
vn -1.0000 -0.0000 -0.0000
vn 0.6873 0.2347 -0.6873
vn 0.9389 0.2347 -0.2516
vn 0.9239 -0.0000 0.3827
vn 0.9389 0.2347 0.2516
vn 0.2516 0.2347 0.9389
vn -0.0000 -1.0000 -0.0000
vn 0.6873 0.2347 0.6873
vn 0.9239 -0.0000 -0.3827
vn 1.0000 -0.0000 -0.0000
vn -0.0000 -0.0000 1.0000
vn -0.2516 0.2347 0.9389
vn -0.6873 0.2347 0.6873
vn -0.9389 0.2347 0.2516
vn -0.9239 -0.0000 0.3827
vn -0.9389 0.2347 -0.2516
vn -0.6873 0.2347 -0.6873
vn -0.2516 0.2347 -0.9389
vn 0.3827 -0.0000 -0.9239
vn -0.9239 -0.0000 -0.3827
vn 0.3827 -0.0000 0.9239
vn -0.3827 -0.0000 -0.9239
s 0
usemtl grey
f 59//1 60//1 62//1 61//1
f 80//2 76//2 74//2 78//2
f 3//3 4//3 6//3 5//3
f 75//4 76//4 80//4 79//4
f 1//5 2//5 68//5 67//5
f 5//6 6//6 8//6 7//6
f 81//5 82//5 84//5 83//5
f 31//7 32//7 34//7 33//7
f 7//7 8//7 10//7 9//7
f 67//4 68//4 72//4 71//4
f 55//8 56//8 58//8 57//8
f 9//9 10//9 12//9 11//9
f 37//10 38//10 40//10 39//10
f 53//11 55//11 57//11 59//11 61//11 63//11 65//11 51//11
f 11//12 12//12 14//12 13//12
f 53//13 54//13 56//13 55//13
f 29//6 30//6 32//6 31//6
f 13//10 14//10 16//10 15//10
f 79//14 80//14 78//14 77//14
f 69//15 70//15 2//15 1//15
f 15//16 16//16 18//16 17//16
f 35//12 36//12 38//12 37//12
f 87//14 88//14 86//14 85//14
f 17//17 18//17 20//17 19//17
f 67//11 71//11 69//11 1//11
f 27//3 28//3 30//3 29//3
f 19//18 20//18 22//18 21//18
f 61//19 62//19 64//19 63//19
f 75//11 79//11 77//11 73//11
f 21//20 22//20 24//20 23//20
f 6//2 4//2 26//2 24//2 22//2 20//2 18//2 16//2 14//2 12//2 10//2 8//2
f 72//2 68//2 2//2 70//2
f 23//21 24//21 26//21 25//21
f 39//16 40//16 42//16 41//16
f 33//9 34//9 36//9 35//9
f 25//22 26//22 4//22 3//22
f 3//11 5//11 7//11 9//11 11//11 13//11 15//11 17//11 19//11 21//11 23//11 25//11
f 41//17 42//17 44//17 43//17
f 77//15 78//15 74//15 73//15
f 51//23 52//23 54//23 53//23
f 43//18 44//18 46//18 45//18
f 71//14 72//14 70//14 69//14
f 83//4 84//4 88//4 87//4
f 45//20 46//20 48//20 47//20
f 36//2 34//2 32//2 30//2 28//2 50//2 48//2 46//2 44//2 42//2 40//2 38//2
f 73//5 74//5 76//5 75//5
f 47//21 48//21 50//21 49//21
f 63//24 64//24 66//24 65//24
f 57//25 58//25 60//25 59//25
f 49//22 50//22 28//22 27//22
f 41//11 43//11 45//11 47//11 49//11 27//11 29//11 31//11 33//11 35//11 37//11 39//11
f 65//26 66//26 52//26 51//26
f 58//2 56//2 54//2 52//2 66//2 64//2 62//2 60//2
f 85//15 86//15 82//15 81//15
f 83//11 87//11 85//11 81//11
f 88//2 84//2 82//2 86//2
f 89//5 90//5 92//5 91//5
f 91//4 92//4 96//4 95//4
f 95//14 96//14 94//14 93//14
f 93//15 94//15 90//15 89//15
f 91//11 95//11 93//11 89//11
f 96//2 92//2 90//2 94//2
