# Blender 5.2.1 LTS
# www.blender.org
mtllib Wall_Grate.mtl
o EXPORT_Wall_Grate
v -1.053000 2.269450 0.057140
v -1.053000 2.386130 0.057140
v -1.053000 2.269450 -0.057140
v -1.053000 2.386130 -0.057140
v 1.053000 2.269450 0.057140
v 1.053000 2.386130 0.057140
v 1.053000 2.269450 -0.057140
v 1.053000 2.386130 -0.057140
v -1.053000 1.758950 0.057140
v -1.053000 1.875630 0.057140
v -1.053000 1.758950 -0.057140
v -1.053000 1.875630 -0.057140
v 1.053000 1.758950 0.057140
v 1.053000 1.875630 0.057140
v 1.053000 1.758950 -0.057140
v 1.053000 1.875630 -0.057140
v -1.053000 1.248450 0.057140
v -1.053000 1.365130 0.057140
v -1.053000 1.248450 -0.057140
v -1.053000 1.365130 -0.057140
v 1.053000 1.248450 0.057140
v 1.053000 1.365130 0.057140
v 1.053000 1.248450 -0.057140
v 1.053000 1.365130 -0.057140
v -1.053000 0.737950 0.057140
v -1.053000 0.854630 0.057140
v -1.053000 0.737950 -0.057140
v -1.053000 0.854630 -0.057140
v 1.053000 0.737950 0.057140
v 1.053000 0.854630 0.057140
v 1.053000 0.737950 -0.057140
v 1.053000 0.854630 -0.057140
v -1.053000 0.227450 0.057140
v -1.053000 0.344130 0.057140
v -1.053000 0.227450 -0.057140
v -1.053000 0.344130 -0.057140
v 1.053000 0.227450 0.057140
v 1.053000 0.344130 0.057140
v 1.053000 0.227450 -0.057140
v 1.053000 0.344130 -0.057140
v 0.598181 3.063000 0.032536
v 0.645619 3.063000 0.032536
v 0.598181 3.063000 -0.032536
v 0.645619 3.063000 -0.032536
v 0.598181 0.000000 0.032536
v 0.645618 0.000000 0.032536
v 0.598181 0.000000 -0.032536
v 0.645618 0.000000 -0.032536
v 0.191269 3.063000 0.032536
v 0.238706 3.063000 0.032536
v 0.191269 3.063000 -0.032536
v 0.238706 3.063000 -0.032536
v 0.191269 0.000000 0.032536
v 0.238706 0.000000 0.032536
v 0.191269 0.000000 -0.032536
v 0.238706 0.000000 -0.032536
v -0.238706 3.063000 0.032536
v -0.191268 3.063000 0.032536
v -0.238706 3.063000 -0.032536
v -0.191268 3.063000 -0.032536
v -0.238706 0.000000 0.032536
v -0.191268 0.000000 0.032536
v -0.238706 0.000000 -0.032536
v -0.191268 0.000000 -0.032536
v -0.645618 3.063000 0.032536
v -0.598181 3.063000 0.032536
v -0.645618 3.063000 -0.032536
v -0.598181 3.063000 -0.032536
v -0.645618 0.000000 0.032536
v -0.598181 0.000000 0.032536
v -0.645618 0.000000 -0.032536
v -0.598181 0.000000 -0.032536
vn -1.0000 -0.0000 -0.0000
vn -0.0000 -0.0000 -1.0000
vn 1.0000 -0.0000 -0.0000
vn -0.0000 -0.0000 1.0000
vn -0.0000 -1.0000 -0.0000
vn -0.0000 1.0000 -0.0000
vt 0.375000 0.000000
vt 0.625000 0.000000
vt 0.625000 0.250000
vt 0.375000 0.250000
vt 0.625000 0.500000
vt 0.375000 0.500000
vt 0.625000 0.750000
vt 0.375000 0.750000
vt 0.625000 1.000000
vt 0.375000 1.000000
vt 0.125000 0.500000
vt 0.125000 0.750000
vt 0.875000 0.500000
vt 0.875000 0.750000
s 1
usemtl black.002
f 1/1/1 2/2/1 4/3/1 3/4/1
f 3/4/2 4/3/2 8/5/2 7/6/2
f 7/6/3 8/5/3 6/7/3 5/8/3
f 5/8/4 6/7/4 2/9/4 1/10/4
f 3/11/5 7/6/5 5/8/5 1/12/5
f 8/5/6 4/13/6 2/14/6 6/7/6
f 9/1/1 10/2/1 12/3/1 11/4/1
f 11/4/2 12/3/2 16/5/2 15/6/2
f 15/6/3 16/5/3 14/7/3 13/8/3
f 13/8/4 14/7/4 10/9/4 9/10/4
f 11/11/5 15/6/5 13/8/5 9/12/5
f 16/5/6 12/13/6 10/14/6 14/7/6
f 17/1/1 18/2/1 20/3/1 19/4/1
f 19/4/2 20/3/2 24/5/2 23/6/2
f 23/6/3 24/5/3 22/7/3 21/8/3
f 21/8/4 22/7/4 18/9/4 17/10/4
f 19/11/5 23/6/5 21/8/5 17/12/5
f 24/5/6 20/13/6 18/14/6 22/7/6
f 25/1/1 26/2/1 28/3/1 27/4/1
f 27/4/2 28/3/2 32/5/2 31/6/2
f 31/6/3 32/5/3 30/7/3 29/8/3
f 29/8/4 30/7/4 26/9/4 25/10/4
f 27/11/5 31/6/5 29/8/5 25/12/5
f 32/5/6 28/13/6 26/14/6 30/7/6
f 33/1/1 34/2/1 36/3/1 35/4/1
f 35/4/2 36/3/2 40/5/2 39/6/2
f 39/6/3 40/5/3 38/7/3 37/8/3
f 37/8/4 38/7/4 34/9/4 33/10/4
f 35/11/5 39/6/5 37/8/5 33/12/5
f 40/5/6 36/13/6 34/14/6 38/7/6
f 41/1/6 42/2/6 44/3/6 43/4/6
f 43/4/2 44/3/2 48/5/2 47/6/2
f 47/6/5 48/5/5 46/7/5 45/8/5
f 45/8/4 46/7/4 42/9/4 41/10/4
f 43/11/1 47/6/1 45/8/1 41/12/1
f 48/5/3 44/13/3 42/14/3 46/7/3
f 49/1/6 50/2/6 52/3/6 51/4/6
f 51/4/2 52/3/2 56/5/2 55/6/2
f 55/6/5 56/5/5 54/7/5 53/8/5
f 53/8/4 54/7/4 50/9/4 49/10/4
f 51/11/1 55/6/1 53/8/1 49/12/1
f 56/5/3 52/13/3 50/14/3 54/7/3
f 57/1/6 58/2/6 60/3/6 59/4/6
f 59/4/2 60/3/2 64/5/2 63/6/2
f 63/6/5 64/5/5 62/7/5 61/8/5
f 61/8/4 62/7/4 58/9/4 57/10/4
f 59/11/1 63/6/1 61/8/1 57/12/1
f 64/5/3 60/13/3 58/14/3 62/7/3
f 65/1/6 66/2/6 68/3/6 67/4/6
f 67/4/2 68/3/2 72/5/2 71/6/2
f 71/6/5 72/5/5 70/7/5 69/8/5
f 69/8/4 70/7/4 66/9/4 65/10/4
f 67/11/1 71/6/1 69/8/1 65/12/1
f 72/5/3 68/13/3 66/14/3 70/7/3
