# Blender 5.2.1 LTS
# www.blender.org
mtllib Wall_DoorArc.mtl
o EXPORT_Wall_DoorArc
v 0.998418 1.764692 0.299604
v 1.024920 2.363899 0.299604
v 0.998418 1.764692 -0.299604
v 1.024920 2.363899 -0.299604
v 1.597625 1.764692 0.299604
v 1.566706 2.514076 0.299604
v 1.597625 1.764692 -0.299604
v 1.566706 2.514076 -0.299604
v 1.547691 1.913965 -0.249670
v 1.547691 1.308618 -0.249670
v 1.547691 1.913965 0.249670
v 1.547691 1.308618 0.249670
v 1.048352 1.913965 -0.249670
v 1.048352 1.308618 -0.249670
v 1.048352 1.913965 0.249670
v 1.048352 1.308618 0.249670
v 1.656391 1.353352 -0.295064
v 1.636606 0.794142 -0.295064
v 1.656391 1.353352 0.295064
v 1.636606 0.794142 0.295064
v 1.002957 1.353352 -0.295064
v 1.002957 0.794142 -0.295064
v 1.002957 1.353352 0.295064
v 1.002957 0.794142 0.295064
v 1.046736 0.437921 0.251285
v 1.046736 0.940492 0.251285
v 1.046736 0.437921 -0.251285
v 1.046736 0.940492 -0.251285
v 1.549306 0.437921 0.251285
v 1.597719 0.940492 0.251285
v 1.549306 0.437921 -0.251285
v 1.597719 0.940492 -0.251285
v 1.587228 0.578413 -0.289207
v 1.646008 0.000000 -0.289207
v 1.587228 0.578413 0.289207
v 1.646008 0.000000 0.289207
v 1.008815 0.578413 -0.289207
v 1.008815 0.000000 -0.289207
v 1.008815 0.578413 0.289207
v 1.008815 0.000000 0.289207
v 0.912041 2.452655 0.296738
v 0.417194 2.791632 0.314027
v 0.912041 2.452655 -0.296738
v 0.417194 2.791632 -0.314027
v 1.238022 2.921174 0.296738
v 0.698031 3.305098 0.314027
v 1.238022 2.921174 -0.296738
v 0.698031 3.305098 -0.314027
v -0.001979 2.927196 0.365466
v 0.494500 2.724190 -0.365466
v -0.001979 2.799498 -0.365466
v 0.201894 3.273798 0.365466
v -0.001979 3.273798 0.365466
v 0.744029 3.322323 -0.365466
v -0.001979 3.524501 -0.365466
v 1.000798 2.359054 0.334793
v 0.836193 2.485096 0.354299
v 1.000798 2.359054 -0.334793
v 0.836193 2.485096 -0.354299
v 1.652433 2.468331 0.334793
v 1.226804 3.028545 0.354299
v 1.652433 2.468331 -0.334792
v 1.226804 3.028545 -0.354299
v 0.494500 2.724190 0.365466
v 0.744029 3.322323 0.365466
v -0.001979 3.524501 0.365466
v -0.001979 2.799498 0.365466
v -0.001979 3.273798 0.335791
v -0.001979 2.927196 0.335791
v 0.201894 3.273798 0.335791
v -1.002375 1.764692 0.299604
v -1.028877 2.363899 0.299604
v -1.002375 1.764692 -0.299604
v -1.028877 2.363899 -0.299604
v -1.601582 1.764692 0.299604
v -1.570663 2.514076 0.299604
v -1.601582 1.764692 -0.299604
v -1.570663 2.514076 -0.299604
v -1.551648 1.913965 -0.249670
v -1.551648 1.308618 -0.249670
v -1.551648 1.913965 0.249670
v -1.551648 1.308618 0.249670
v -1.052309 1.913965 -0.249670
v -1.052309 1.308618 -0.249670
v -1.052309 1.913965 0.249670
v -1.052309 1.308618 0.249670
v -1.597043 1.353352 -0.295064
v -1.646051 0.794142 -0.295064
v -1.597043 1.353352 0.295064
v -1.646051 0.794142 0.295064
v -1.006915 1.353352 -0.295064
v -1.006915 0.794142 -0.295064
v -1.006915 1.353352 0.295064
v -1.006915 0.794142 0.295064
v -1.050694 0.437921 0.251285
v -1.050694 0.940492 0.251285
v -1.050694 0.437921 -0.251285
v -1.050694 0.940492 -0.251285
v -1.553264 0.437921 0.251285
v -1.553264 0.940492 0.251285
v -1.553264 0.437921 -0.251285
v -1.553264 0.940492 -0.251285
v -1.591185 0.578413 -0.289207
v -1.648635 0.000000 -0.289207
v -1.591185 0.578413 0.289207
v -1.648635 0.000000 0.289207
v -1.012772 0.578413 -0.289207
v -1.012772 0.000000 -0.289207
v -1.012772 0.578413 0.289207
v -1.012772 0.000000 0.289207
v -0.915999 2.452655 0.296738
v -0.421152 2.791632 0.314027
v -0.915999 2.452655 -0.296738
v -0.421152 2.791632 -0.314027
v -1.241980 2.921174 0.296738
v -0.701989 3.305098 0.314027
v -1.241980 2.921174 -0.296738
v -0.701989 3.305098 -0.314027
v -0.498458 2.724190 -0.365466
v -0.205851 3.273798 0.365466
v -0.747986 3.322323 -0.365466
v -1.004756 2.359054 0.334793
v -0.840151 2.485096 0.354299
v -1.004756 2.359054 -0.334793
v -0.840151 2.485096 -0.354299
v -1.656391 2.468331 0.334793
v -1.230761 3.028545 0.354299
v -1.656391 2.468331 -0.334792
v -1.230761 3.028545 -0.354299
v -0.498458 2.724190 0.365466
v -0.747986 3.322323 0.365466
v -0.205851 3.273798 0.335791
vn -0.0000 -0.0000 -1.0000
vn -0.2671 0.9637 -0.0000
vn -0.9990 0.0442 -0.0000
vn -0.0000 -1.0000 -0.0000
vn 0.9991 0.0412 -0.0000
vn -0.0000 1.0000 -0.0000
vn -1.0000 -0.0000 -0.0000
vn -0.0000 -0.0000 1.0000
vn 0.9954 -0.0959 -0.0000
vn 1.0000 -0.0000 -0.0000
vn 0.9994 -0.0354 -0.0000
vn 0.9949 0.1011 -0.0000
vn 0.0233 -0.0144 -0.9996
vn -0.8773 0.4799 -0.0000
vn -0.5651 -0.8250 -0.0000
vn 0.5795 0.8150 -0.0000
vn 0.8209 -0.5711 -0.0000
vn 0.0233 -0.0144 0.9996
vn -0.1500 -0.9887 -0.0000
vn 0.2616 0.9652 -0.0000
vn 0.9229 -0.3850 -0.0000
vn -0.8619 0.5070 -0.0000
vn 0.0231 -0.0369 -0.9991
vn -0.8120 0.5836 -0.0000
vn -0.6080 -0.7940 -0.0000
vn 0.7963 0.6050 -0.0000
vn 0.1654 -0.9862 -0.0000
vn 0.0231 -0.0369 0.9991
vn 0.2671 0.9637 -0.0000
vn 0.9990 0.0442 -0.0000
vn -0.9991 0.0412 -0.0000
vn -0.9962 0.0873 -0.0000
vn -0.9951 0.0988 -0.0000
vn -0.0233 -0.0144 -0.9996
vn 0.8773 0.4799 -0.0000
vn 0.5651 -0.8250 -0.0000
vn -0.5795 0.8150 -0.0000
vn -0.8209 -0.5711 -0.0000
vn -0.0233 -0.0144 0.9996
vn 0.1500 -0.9887 -0.0000
vn -0.2616 0.9652 -0.0000
vn -0.9229 -0.3850 -0.0000
vn 0.8619 0.5070 -0.0000
vn -0.0231 -0.0369 -0.9991
vn 0.8120 0.5836 -0.0000
vn 0.6080 -0.7940 -0.0000
vn -0.7963 0.6050 -0.0000
vn -0.1654 -0.9862 -0.0000
vn -0.0231 -0.0369 0.9991
vt 0.375000 0.500000
vt 0.625000 0.500000
vt 0.625000 0.750000
vt 0.375000 0.750000
vt 0.875000 0.500000
vt 0.875000 0.750000
vt 0.375000 0.250000
vt 0.625000 0.250000
vt 0.375000 0.000000
vt 0.625000 0.000000
vt 0.625000 1.000000
vt 0.375000 1.000000
vt 0.125000 0.500000
vt 0.125000 0.750000
vt 0.375000 0.698921
vt 0.301910 0.550806
vt 0.375000 0.550973
s 1
usemtl dark_grey.002
f 3/1/1 4/2/1 8/3/1 7/4/1
f 8/2/2 4/5/2 2/6/2 6/3/2
f 1/7/3 2/8/3 4/2/3 3/1/3
f 14/9/4 10/10/4 12/8/4 16/7/4
f 7/4/5 8/3/5 6/11/5 5/12/5
f 9/2/6 13/5/6 15/6/6 11/3/6
f 3/9/4 7/10/4 5/8/4 1/7/4
f 16/7/7 15/8/7 13/2/7 14/1/7
f 12/13/8 11/1/8 15/4/8 16/14/8
f 14/1/1 13/2/1 9/3/1 10/4/1
f 20/13/8 19/1/8 23/4/8 24/14/8
f 5/13/8 6/1/8 2/4/8 1/14/8
f 27/1/1 28/2/1 32/3/1 31/4/1
f 31/4/9 32/3/9 30/11/9 29/12/9
f 32/2/6 28/5/6 26/6/6 30/3/6
f 22/1/1 21/2/1 17/3/1 18/4/1
f 10/4/10 9/3/10 11/11/10 12/12/10
f 24/7/7 23/8/7 21/2/7 22/1/7
f 22/9/4 18/10/4 20/8/4 24/7/4
f 27/9/4 31/10/4 29/8/4 25/7/4
f 38/9/4 34/10/4 36/8/4 40/7/4
f 29/13/8 30/1/8 26/4/8 25/14/8
f 40/7/7 39/8/7 37/2/7 38/1/7
f 38/1/1 37/2/1 33/3/1 34/4/1
f 18/4/11 17/3/11 19/11/11 20/12/11
f 34/4/12 33/3/12 35/11/12 36/12/12
f 36/13/8 35/1/8 39/4/8 40/14/8
f 17/2/6 21/5/6 23/6/6 19/3/6
f 25/7/7 26/8/7 28/2/7 27/1/7
f 33/2/6 37/5/6 39/6/6 35/3/6
f 43/1/13 44/2/13 48/3/13 47/4/13
f 48/2/14 44/5/14 42/6/14 46/3/14
f 41/7/15 42/8/15 44/2/15 43/1/15
f 47/4/16 48/3/16 46/11/16 45/12/16
f 43/9/17 47/10/17 45/8/17 41/7/17
f 45/13/18 46/1/18 42/4/18 41/14/18
f 50/1/1 51/2/1 55/3/1 54/4/1
f 64/7/19 67/8/19 51/2/19 50/1/19
f 54/4/20 55/3/20 66/11/20 65/12/20
f 50/9/21 54/10/21 65/8/21 64/7/21
f 49/15/22 52/16/22 70/16/22 69/15/22
f 58/1/23 59/2/23 63/3/23 62/4/23
f 63/2/24 59/5/24 57/6/24 61/3/24
f 56/7/25 57/8/25 59/2/25 58/1/25
f 62/4/26 63/3/26 61/11/26 60/12/26
f 58/9/27 62/10/27 60/8/27 56/7/27
f 60/13/28 61/1/28 57/4/28 56/14/28
f 52/16/8 49/15/8 64/14/8 65/13/8
f 53/17/8 52/16/8 65/13/8 66/1/8
f 49/15/8 67/4/8 64/14/8
f 52/16/4 53/17/4 68/17/4 70/16/4
f 73/1/1 77/4/1 78/3/1 74/2/1
f 78/2/29 76/3/29 72/6/29 74/5/29
f 71/7/30 73/1/30 74/2/30 72/8/30
f 84/9/4 86/7/4 82/8/4 80/10/4
f 77/4/31 75/12/31 76/11/31 78/3/31
f 79/2/6 81/3/6 85/6/6 83/5/6
f 73/9/4 71/7/4 75/8/4 77/10/4
f 86/7/10 84/1/10 83/2/10 85/8/10
f 82/13/8 86/14/8 85/4/8 81/1/8
f 84/1/1 80/4/1 79/3/1 83/2/1
f 90/13/8 94/14/8 93/4/8 89/1/8
f 75/13/8 71/14/8 72/4/8 76/1/8
f 97/1/1 101/4/1 102/3/1 98/2/1
f 101/4/7 99/12/7 100/11/7 102/3/7
f 102/2/6 100/3/6 96/6/6 98/5/6
f 92/1/1 88/4/1 87/3/1 91/2/1
f 80/4/7 82/12/7 81/11/7 79/3/7
f 94/7/10 92/1/10 91/2/10 93/8/10
f 92/9/4 94/7/4 90/8/4 88/10/4
f 97/9/4 95/7/4 99/8/4 101/10/4
f 108/9/4 110/7/4 106/8/4 104/10/4
f 99/13/8 95/14/8 96/4/8 100/1/8
f 110/7/10 108/1/10 107/2/10 109/8/10
f 108/1/1 104/4/1 103/3/1 107/2/1
f 88/4/32 90/12/32 89/11/32 87/3/32
f 104/4/33 106/12/33 105/11/33 103/3/33
f 106/13/8 110/14/8 109/4/8 105/1/8
f 87/2/6 89/3/6 93/6/6 91/5/6
f 95/7/10 97/1/10 98/2/10 96/8/10
f 103/2/6 105/3/6 109/6/6 107/5/6
f 113/1/34 117/4/34 118/3/34 114/2/34
f 118/2/35 116/3/35 112/6/35 114/5/35
f 111/7/36 113/1/36 114/2/36 112/8/36
f 117/4/37 115/12/37 116/11/37 118/3/37
f 113/9/38 111/7/38 115/8/38 117/10/38
f 115/13/39 111/14/39 112/4/39 116/1/39
f 119/1/1 121/4/1 55/3/1 51/2/1
f 130/7/40 119/1/40 51/2/40 67/8/40
f 121/4/41 131/12/41 66/11/41 55/3/41
f 119/9/42 130/7/42 131/8/42 121/10/42
f 49/15/43 69/15/43 132/16/43 120/16/43
f 124/1/44 128/4/44 129/3/44 125/2/44
f 129/2/45 127/3/45 123/6/45 125/5/45
f 122/7/46 124/1/46 125/2/46 123/8/46
f 128/4/47 126/12/47 127/11/47 129/3/47
f 124/9/48 122/7/48 126/8/48 128/10/48
f 126/13/49 122/14/49 123/4/49 127/1/49
f 120/16/8 131/13/8 130/14/8 49/15/8
f 53/17/8 66/1/8 131/13/8 120/16/8
f 49/15/8 130/14/8 67/4/8
f 120/16/4 132/16/4 68/17/4 53/17/4
usemtl red.002
f 70/16/8 68/17/8 69/15/8
f 132/16/8 69/15/8 68/17/8
