# Blender 5.2.1 LTS
# www.blender.org
mtllib Wall_Window.mtl
o EXPORT_Wall_Window
v -0.818646 0.273831 -0.150277
v -0.818646 0.306262 -0.117845
v -0.789822 0.032431 -0.117845
v -0.818646 0.000000 -0.117845
v -0.818646 0.032431 -0.150277
v -0.818646 0.306262 0.129844
v -0.818646 0.273831 0.162276
v -0.789822 0.273831 0.129844
v -0.818646 0.000000 0.129844
v -0.789822 0.032431 0.129844
v -0.818646 0.032431 0.162276
v -0.263274 0.273831 -0.117845
v -0.292098 0.273831 -0.150277
v -0.292098 0.306262 -0.117845
v -0.263274 0.032431 -0.117845
v -0.292098 0.000000 -0.117845
v -0.292098 0.032431 -0.150277
v -0.292098 0.306262 0.129844
v -0.292098 0.273831 0.162276
v -0.263274 0.273831 0.129844
v -0.292098 0.000000 0.129844
v -0.292098 0.032431 0.162276
v -0.760998 0.306262 -0.117845
v -0.760998 0.273831 -0.150277
v -0.789822 0.273831 -0.117845
v -0.760998 0.032431 -0.150277
v -0.760998 0.000000 -0.117845
v -0.760998 0.306262 0.129844
v -0.760998 0.273831 0.162276
v -0.760998 0.000000 0.129844
v -0.760998 0.032431 0.162276
v 0.263276 0.273831 -0.117845
v 0.234452 0.273831 -0.150277
v 0.234452 0.306262 -0.117845
v 0.263276 0.032431 -0.117845
v 0.234452 0.000000 -0.117845
v 0.234452 0.032431 -0.150277
v 0.234452 0.306262 0.129844
v 0.234452 0.273831 0.162276
v 0.234452 0.000000 0.129844
v 0.234452 0.032431 0.162276
v -0.234450 0.306262 -0.117845
v -0.234450 0.273831 -0.150277
v -0.234450 0.032431 -0.150277
v -0.234450 0.000000 -0.117845
v -0.234450 0.306262 0.129844
v -0.234450 0.273831 0.162276
v -0.234450 0.000000 0.129844
v -0.234450 0.032431 0.162276
v -0.263274 0.032431 0.129844
v 0.789824 0.273831 -0.117845
v 0.761000 0.273831 -0.150277
v 0.761000 0.306262 -0.117845
v 0.761000 0.000000 -0.117845
v 0.761000 0.032431 -0.150277
v 0.761000 0.306262 0.129844
v 0.761000 0.273831 0.162276
v 0.789824 0.273831 0.129844
v 0.761000 0.000000 0.129844
v 0.789824 0.032431 0.129844
v 0.761000 0.032431 0.162276
v 0.292098 0.306262 -0.117845
v 0.292098 0.273831 -0.150277
v 0.292098 0.032431 -0.150277
v 0.292098 0.000000 -0.117845
v 0.292098 0.306262 0.129844
v 0.263276 0.273831 0.129844
v 0.292098 0.273831 0.162276
v 0.292098 0.000000 0.129844
v 0.292098 0.032431 0.162276
v 0.263276 0.032431 0.129844
v 0.818646 0.306262 -0.117845
v 0.818646 0.273831 -0.150277
v 0.789824 0.032431 -0.117845
v 0.818646 0.032431 -0.150277
v 0.818646 0.000000 -0.117845
v 0.818646 0.306262 0.129844
v 0.818646 0.273831 0.162276
v 0.818646 0.000000 0.129844
v 0.818646 0.032431 0.162276
v -0.526550 0.580093 -0.117845
v -0.555371 0.580093 -0.150277
v -0.555371 0.612524 -0.117845
v -0.526550 0.338693 -0.117845
v -0.555371 0.306262 -0.117845
v -0.555371 0.338693 -0.150277
v -0.555371 0.612524 0.129844
v -0.555371 0.580093 0.162276
v -0.526550 0.580093 0.129844
v -0.555371 0.306262 0.129844
v -0.526550 0.338693 0.129844
v -0.555371 0.338693 0.162276
v -1.024273 0.612524 -0.117845
v -1.024273 0.580093 -0.150277
v -1.053097 0.580093 -0.117845
v -1.053097 0.338693 -0.117845
v -1.024273 0.338693 -0.150277
v -1.024273 0.306262 -0.117845
v -1.024273 0.612524 0.129844
v -1.053097 0.580093 0.129844
v -1.024273 0.580093 0.162276
v -1.024273 0.306262 0.129844
v -1.024273 0.338693 0.162276
v -1.053097 0.338693 0.129844
v -0.028823 0.580093 -0.150277
v -0.028823 0.612524 -0.117845
v -0.000001 0.338693 -0.117845
v -0.028823 0.306262 -0.117845
v -0.028823 0.338693 -0.150277
v -0.028823 0.612524 0.129844
v -0.028823 0.580093 0.162276
v -0.000001 0.580093 0.129844
v -0.028823 0.306262 0.129844
v -0.028823 0.338693 0.162276
v -0.497726 0.612524 -0.117845
v -0.497726 0.580093 -0.150277
v -0.497726 0.338693 -0.150277
v -0.497726 0.306262 -0.117845
v -0.497726 0.612524 0.129844
v -0.497726 0.580093 0.162276
v -0.497726 0.306262 0.129844
v -0.497726 0.338693 0.162276
v 0.497725 0.580093 -0.150277
v 0.497725 0.612524 -0.117845
v 0.497725 0.306262 -0.117845
v 0.497725 0.338693 -0.150277
v 0.497725 0.612524 0.129844
v 0.497725 0.580093 0.162276
v 0.526549 0.580093 0.129844
v 0.497725 0.306262 0.129844
v 0.526549 0.338693 0.129844
v 0.497725 0.338693 0.162276
v 0.028823 0.612524 -0.117845
v 0.028823 0.580093 -0.150277
v -0.000001 0.580093 -0.117845
v 0.028823 0.338693 -0.150277
v 0.028823 0.306262 -0.117845
v 0.028823 0.612524 0.129844
v 0.028823 0.580093 0.162276
v 0.028823 0.306262 0.129844
v 0.028823 0.338693 0.162276
v -0.000001 0.338693 0.129844
v 1.053097 0.580093 -0.117845
v 1.024273 0.580093 -0.150277
v 1.024273 0.612524 -0.117845
v 1.053097 0.338693 -0.117845
v 1.024273 0.306262 -0.117845
v 1.024273 0.338693 -0.150277
v 1.024273 0.612524 0.129844
v 1.024273 0.580093 0.162276
v 1.053097 0.580093 0.129844
v 1.024273 0.306262 0.129844
v 1.053097 0.338693 0.129844
v 1.024273 0.338693 0.162276
v 0.555373 0.612524 -0.117845
v 0.555373 0.580093 -0.150277
v 0.526549 0.580093 -0.117845
v 0.526549 0.338693 -0.117845
v 0.555373 0.338693 -0.150277
v 0.555373 0.306262 -0.117845
v 0.555373 0.612524 0.129844
v 0.555373 0.580093 0.162276
v 0.555373 0.306262 0.129844
v 0.555373 0.338693 0.162276
v -0.789822 0.886355 -0.117845
v -0.818646 0.886355 -0.150277
v -0.818646 0.918786 -0.117845
v -0.789822 0.644956 -0.117845
v -0.818646 0.612524 -0.117845
v -0.818646 0.644956 -0.150277
v -0.818646 0.918786 0.129844
v -0.818646 0.886355 0.162275
v -0.789822 0.886355 0.129844
v -0.818646 0.612524 0.129844
v -0.789822 0.644956 0.129844
v -0.818646 0.644956 0.162276
v -0.292098 0.886355 -0.150277
v -0.292098 0.918786 -0.117845
v -0.292098 0.612524 -0.117845
v -0.292098 0.644956 -0.150277
v -0.292098 0.918786 0.129844
v -0.292098 0.886355 0.162275
v -0.292098 0.612524 0.129844
v -0.263274 0.644956 0.129844
v -0.292098 0.644956 0.162276
v -0.760998 0.918786 -0.117845
v -0.760998 0.886355 -0.150277
v -0.760998 0.644956 -0.150277
v -0.760998 0.612524 -0.117845
v -0.760998 0.918786 0.129844
v -0.760998 0.886355 0.162275
v -0.760998 0.612524 0.129844
v -0.760998 0.644956 0.162276
v 0.263274 0.886355 -0.117845
v 0.234452 0.886355 -0.150277
v 0.234452 0.918786 -0.117845
v 0.263274 0.644956 -0.117845
v 0.234452 0.612524 -0.117845
v 0.234452 0.644956 -0.150277
v 0.234452 0.918786 0.129844
v 0.234452 0.886355 0.162275
v 0.234452 0.612524 0.129844
v 0.263274 0.644956 0.129844
v 0.234452 0.644956 0.162276
v -0.234450 0.918786 -0.117845
v -0.234450 0.886355 -0.150277
v -0.263274 0.886355 -0.117845
v -0.263274 0.644956 -0.117845
v -0.234450 0.644956 -0.150277
v -0.234450 0.612524 -0.117845
v -0.234450 0.918786 0.129844
v -0.263274 0.886355 0.129844
v -0.234450 0.886355 0.162275
v -0.234450 0.612524 0.129844
v -0.234450 0.644956 0.162276
v 0.761000 0.886355 -0.150277
v 0.761000 0.918786 -0.117845
v 0.789824 0.644956 -0.117845
v 0.761000 0.612524 -0.117845
v 0.761000 0.644956 -0.150277
v 0.761000 0.918786 0.129844
v 0.761000 0.886355 0.162275
v 0.761000 0.612524 0.129844
v 0.761000 0.644956 0.162276
v 0.292098 0.918786 -0.117845
v 0.292098 0.886355 -0.150277
v 0.292098 0.644956 -0.150277
v 0.292098 0.612524 -0.117845
v 0.292098 0.918786 0.129844
v 0.263274 0.886355 0.129844
v 0.292098 0.886355 0.162275
v 0.292098 0.612524 0.129844
v 0.292098 0.644956 0.162276
v 0.818646 0.918786 -0.117845
v 0.818646 0.886355 -0.150277
v 0.789824 0.886355 -0.117845
v 0.818646 0.644956 -0.150277
v 0.818646 0.612524 -0.117845
v 0.818646 0.918786 0.129844
v 0.789824 0.886355 0.129844
v 0.818646 0.886355 0.162275
v 0.818646 0.612524 0.129844
v 0.818646 0.644956 0.162276
v 0.789824 0.644956 0.129844
v -1.053097 1.192617 -0.117845
v -1.053097 0.951218 -0.117845
v -1.053097 1.192617 0.129844
v -0.683295 1.192617 -0.117845
v -0.720699 1.192617 -0.150277
v -0.720699 1.225048 -0.117845
v -0.720699 0.918787 -0.117845
v -0.720699 0.951218 -0.150277
v -0.720699 1.225048 0.129844
v -0.720699 1.192617 0.162275
v -0.683295 1.192617 0.129844
v -0.720699 0.918787 0.129844
v -0.683295 0.951218 0.129844
v -0.720699 0.951218 0.162275
v -1.024273 1.225048 -0.117845
v -1.024273 1.192617 -0.150277
v -1.024273 0.951218 -0.150277
v -1.024273 0.918787 -0.117845
v -1.024273 1.225048 0.129844
v -1.024273 1.192617 0.162275
v -1.024273 0.918787 0.129844
v -1.024273 0.951218 0.162275
v -1.053097 0.951218 0.129844
v -0.683295 0.951218 -0.117845
v 0.683295 1.192617 -0.117845
v 1.053097 1.192617 -0.117845
v 1.024273 1.192617 -0.150277
v 1.024273 1.225048 -0.117845
v 1.053097 0.951218 -0.117845
v 1.024273 0.918787 -0.117845
v 1.024273 0.951218 -0.150277
v 1.024273 1.225048 0.129844
v 1.024273 1.192617 0.162275
v 1.053097 1.192617 0.129844
v 1.024273 0.918787 0.129844
v 1.053097 0.951218 0.129844
v 1.024273 0.951218 0.162275
v 0.720700 1.225048 -0.117845
v 0.720700 1.192617 -0.150277
v 0.683295 0.951218 -0.117845
v 0.720700 0.951218 -0.150277
v 0.720700 0.918787 -0.117845
v 0.720700 1.225048 0.129844
v 0.683295 1.192617 0.129844
v 0.720700 1.192617 0.162275
v 0.720700 0.918787 0.129844
v 0.720700 0.951218 0.162275
v 0.683295 0.951218 0.129844
v -0.818646 1.498880 -0.150277
v -0.818646 1.531311 -0.117845
v -0.789822 1.257480 -0.117845
v -0.818646 1.225049 -0.117845
v -0.818646 1.257480 -0.150277
v -0.818646 1.531311 0.129844
v -0.818646 1.498880 0.162275
v -0.789822 1.498880 0.129844
v -0.818646 1.225049 0.129844
v -0.818646 1.257480 0.162275
v -0.789822 1.498880 -0.117845
v -0.789822 1.257480 0.129844
v 0.789822 1.498880 0.129844
v 0.818646 1.531311 -0.117845
v 0.818646 1.498880 -0.150277
v 0.789822 1.498880 -0.117845
v 0.789822 1.257480 -0.117845
v 0.818646 1.257480 -0.150277
v 0.818646 1.225049 -0.117845
v 0.818646 1.531311 0.129844
v 0.818646 1.498880 0.162275
v 0.818646 1.225049 0.129844
v 0.818646 1.257480 0.162275
v 0.789822 1.257480 0.129844
v -1.053097 1.563742 -0.117845
v -1.053097 1.805142 0.129844
v -0.720699 1.805142 -0.150277
v -0.720699 1.837573 -0.117845
v -0.683295 1.563742 -0.117845
v -0.720699 1.531311 -0.117845
v -0.720699 1.563742 -0.150277
v -0.720699 1.837573 0.129844
v -0.720699 1.805142 0.162275
v -0.683295 1.805142 0.129844
v -0.720699 1.531311 0.129844
v -0.683295 1.563742 0.129844
v -0.720699 1.563742 0.162275
v -1.024273 1.837573 -0.117845
v -1.024273 1.805142 -0.150277
v -1.053097 1.805142 -0.117845
v -1.024273 1.563742 -0.150277
v -1.024273 1.531311 -0.117845
v -1.024273 1.837573 0.129844
v -1.024273 1.805142 0.162275
v -1.024273 1.531311 0.129844
v -1.024273 1.563742 0.162275
v -1.053097 1.563742 0.129844
v -0.683295 1.805142 -0.117845
v 0.683295 1.563742 -0.117845
v 1.053097 1.805142 -0.117845
v 1.024273 1.805142 -0.150277
v 1.024273 1.837573 -0.117845
v 1.053097 1.563742 -0.117845
v 1.024273 1.531311 -0.117845
v 1.024273 1.563742 -0.150277
v 1.024273 1.837573 0.129844
v 1.024273 1.805142 0.162275
v 1.053097 1.805142 0.129844
v 1.024273 1.531311 0.129844
v 1.053097 1.563742 0.129844
v 1.024273 1.563742 0.162275
v 0.720700 1.837573 -0.117845
v 0.720700 1.805142 -0.150277
v 0.683295 1.805142 -0.117845
v 0.720700 1.563742 -0.150277
v 0.720700 1.531311 -0.117845
v 0.720700 1.837573 0.129844
v 0.683295 1.805142 0.129844
v 0.720700 1.805142 0.162275
v 0.720700 1.531311 0.129844
v 0.720700 1.563742 0.162275
v 0.683295 1.563742 0.129844
v -0.789822 2.111404 -0.117845
v -0.818646 2.111404 -0.150277
v -0.818646 2.143835 -0.117845
v -0.789822 1.870004 -0.117845
v -0.818646 1.837573 -0.117845
v -0.818646 1.870004 -0.150277
v -0.818646 2.143835 0.129844
v -0.818646 2.111404 0.162275
v -0.818646 1.837573 0.129844
v -0.818646 1.870004 0.162275
v -0.789822 2.111404 0.129844
v -0.789822 1.870004 0.129844
v 0.789822 2.111404 -0.117845
v 0.789822 1.870004 -0.117845
v 0.789822 2.111404 0.129844
v 0.818646 2.143835 -0.117845
v 0.818646 2.111404 -0.150277
v 0.818646 1.870004 -0.150277
v 0.818646 1.837573 -0.117845
v 0.818646 2.143835 0.129844
v 0.818646 2.111404 0.162275
v 0.818646 1.837573 0.129844
v 0.818646 1.870004 0.162275
v 0.789822 1.870004 0.129844
v -1.053097 2.176266 -0.117845
v -1.053097 2.417666 0.129844
v -1.053097 2.176266 0.129844
v -0.526550 2.417666 -0.117845
v -0.555374 2.417666 -0.150277
v -0.555374 2.450097 -0.117846
v -0.555374 2.143835 -0.117845
v -0.555374 2.176266 -0.150277
v -0.555374 2.450097 0.129844
v -0.555374 2.417666 0.162275
v -0.526550 2.417666 0.129844
v -0.555374 2.143835 0.129844
v -0.555374 2.176266 0.162275
v -1.024273 2.450097 -0.117846
v -1.024273 2.417666 -0.150277
v -1.053097 2.417666 -0.117845
v -1.024273 2.176266 -0.150277
v -1.024273 2.143835 -0.117845
v -1.024273 2.450097 0.129844
v -1.024273 2.417666 0.162275
v -1.024273 2.143835 0.129844
v -1.024273 2.176266 0.162275
v -0.028823 2.417666 -0.150277
v -0.028823 2.450097 -0.117846
v -0.000001 2.275304 -0.117845
v -0.028823 2.242872 -0.117845
v -0.028823 2.275304 -0.150277
v -0.028823 2.450097 0.129844
v -0.028823 2.417666 0.162275
v -0.000001 2.417666 0.129844
v -0.028823 2.242872 0.129844
v -0.028823 2.275304 0.162275
v -0.497726 2.450097 -0.117846
v -0.497726 2.417666 -0.150277
v -0.526550 2.176266 -0.117845
v -0.497726 2.176266 -0.150277
v -0.497726 2.143835 -0.117845
v -0.497726 2.450097 0.129844
v -0.497726 2.417666 0.162275
v -0.497726 2.143835 0.129844
v -0.497726 2.176266 0.162275
v -0.526550 2.176266 0.129844
v 0.497725 2.417666 -0.150277
v 0.497725 2.450097 -0.117846
v 0.497725 2.143835 -0.117845
v 0.497725 2.176266 -0.150277
v 0.497725 2.450097 0.129844
v 0.497725 2.417666 0.162275
v 0.497725 2.143835 0.129844
v 0.497725 2.176266 0.162275
v 0.028823 2.450097 -0.117846
v 0.028823 2.417666 -0.150277
v -0.000001 2.417666 -0.117845
v 0.028823 2.275304 -0.150277
v 0.028823 2.242872 -0.117845
v 0.028823 2.450097 0.129844
v 0.028823 2.417666 0.162275
v 0.028823 2.242872 0.129844
v 0.028823 2.275304 0.162275
v -0.000001 2.275304 0.129844
v 1.053097 2.417666 -0.117845
v 1.024273 2.417666 -0.150277
v 1.024273 2.450097 -0.117846
v 1.053097 2.176266 -0.117845
v 1.024273 2.143835 -0.117845
v 1.024273 2.176266 -0.150277
v 1.024273 2.450097 0.129844
v 1.024273 2.417666 0.162275
v 1.053097 2.417666 0.129844
v 1.024273 2.143835 0.129844
v 1.053097 2.176266 0.129844
v 1.024273 2.176266 0.162275
v 0.555371 2.450097 -0.117846
v 0.555371 2.417666 -0.150277
v 0.526549 2.417666 -0.117845
v 0.526549 2.176266 -0.117845
v 0.555371 2.176266 -0.150277
v 0.555371 2.143835 -0.117845
v 0.555371 2.450097 0.129844
v 0.526549 2.417666 0.129844
v 0.555371 2.417666 0.162275
v 0.555371 2.143835 0.129844
v 0.555371 2.176266 0.162275
v 0.526549 2.176266 0.129844
v -0.789822 2.723928 -0.117846
v -0.818646 2.723928 -0.150277
v -0.818646 2.756359 -0.117846
v -0.818646 2.450097 -0.117846
v -0.818646 2.482528 -0.150277
v -0.818646 2.756359 0.129844
v -0.818646 2.723928 0.162275
v -0.789822 2.723928 0.129844
v -0.818646 2.450097 0.129844
v -0.818646 2.482528 0.162275
v -0.292098 2.723928 -0.150277
v -0.292098 2.756359 -0.117846
v -0.292098 2.450097 -0.117846
v -0.292098 2.482528 -0.150277
v -0.292098 2.756359 0.129844
v -0.292098 2.723928 0.162275
v -0.292098 2.450097 0.129844
v -0.263274 2.482528 0.129844
v -0.292098 2.482528 0.162275
v -0.761001 2.756359 -0.117846
v -0.761001 2.723928 -0.150277
v -0.789822 2.482528 -0.117845
v -0.761001 2.482528 -0.150277
v -0.761001 2.450097 -0.117846
v -0.761001 2.756359 0.129844
v -0.761001 2.723928 0.162275
v -0.761001 2.450097 0.129844
v -0.761001 2.482528 0.162275
v -0.789822 2.482528 0.129844
v 0.263274 2.723928 -0.117846
v 0.234450 2.723928 -0.150277
v 0.234450 2.756359 -0.117846
v 0.263274 2.482528 -0.117845
v 0.234450 2.450097 -0.117846
v 0.234450 2.482528 -0.150277
v 0.234450 2.756359 0.129844
v 0.234450 2.723928 0.162275
v 0.234450 2.450097 0.129844
v 0.234450 2.482528 0.162275
v -0.234452 2.756359 -0.117846
v -0.234452 2.723928 -0.150277
v -0.263274 2.723928 -0.117846
v -0.263274 2.482528 -0.117845
v -0.234452 2.482528 -0.150277
v -0.234452 2.450097 -0.117846
v -0.234452 2.756359 0.129844
v -0.263274 2.723928 0.129844
v -0.234452 2.723928 0.162275
v -0.234452 2.450097 0.129844
v -0.234452 2.482528 0.162275
v 0.789822 2.723928 -0.117846
v 0.761000 2.723928 -0.150277
v 0.761000 2.756359 -0.117846
v 0.761000 2.450097 -0.117846
v 0.761000 2.482528 -0.150277
v 0.761000 2.756359 0.129844
v 0.761000 2.723928 0.162275
v 0.789822 2.723928 0.129844
v 0.761000 2.450097 0.129844
v 0.789822 2.482528 0.129844
v 0.761000 2.482528 0.162275
v 0.292096 2.756359 -0.117846
v 0.292096 2.723928 -0.150277
v 0.292096 2.482528 -0.150277
v 0.292096 2.450097 -0.117846
v 0.292096 2.756359 0.129844
v 0.263274 2.723928 0.129844
v 0.292096 2.723928 0.162275
v 0.292096 2.450097 0.129844
v 0.292096 2.482528 0.162275
v 0.263274 2.482528 0.129844
v 0.818646 2.756359 -0.117846
v 0.818646 2.723928 -0.150277
v 0.789822 2.482528 -0.117845
v 0.818646 2.482528 -0.150277
v 0.818646 2.450097 -0.117846
v 0.818646 2.756359 0.129844
v 0.818646 2.723928 0.162275
v 0.818646 2.450097 0.129844
v 0.818646 2.482528 0.162275
v -1.053097 3.030190 -0.117846
v -1.053097 2.788791 0.129844
v -0.555374 3.030190 -0.150277
v -0.555374 3.062622 -0.117846
v -0.526550 2.788791 -0.117846
v -0.555374 2.756359 -0.117846
v -0.555374 2.788791 -0.150277
v -0.555374 3.062622 0.129844
v -0.555374 3.030190 0.162275
v -0.555374 2.756359 0.129844
v -0.555374 2.788791 0.162275
v -1.024273 3.062622 -0.117846
v -1.024273 3.030190 -0.150277
v -1.053097 2.788791 -0.117846
v -1.024273 2.788791 -0.150277
v -1.024273 2.756359 -0.117846
v -1.024273 3.062622 0.129844
v -1.053097 3.030190 0.129843
v -1.024273 3.030190 0.162275
v -1.024273 2.756359 0.129844
v -1.024273 2.788791 0.162275
v -0.028823 3.030190 -0.150277
v -0.028823 3.062622 -0.117846
v -0.000001 2.788791 -0.117846
v -0.028823 2.756359 -0.117846
v -0.028823 2.788791 -0.150277
v -0.028823 3.062622 0.129844
v -0.028823 3.030190 0.162275
v -0.028823 2.756359 0.129844
v -0.028823 2.788791 0.162275
v -0.497726 3.062622 -0.117846
v -0.497726 3.030190 -0.150277
v -0.526550 3.030190 -0.117846
v -0.497726 2.788791 -0.150277
v -0.497726 2.756359 -0.117846
v -0.497726 3.062622 0.129844
v -0.526550 3.030190 0.129843
v -0.497726 3.030190 0.162275
v -0.497726 2.756359 0.129844
v -0.497726 2.788791 0.162275
v -0.526550 2.788791 0.129844
v 0.497725 3.030190 -0.150277
v 0.497725 3.062622 -0.117846
v 0.497725 2.756359 -0.117846
v 0.497725 2.788791 -0.150277
v 0.497725 3.062622 0.129844
v 0.497725 3.030190 0.162275
v 0.526549 3.030190 0.129843
v 0.497725 2.756359 0.129844
v 0.526549 2.788791 0.129844
v 0.497725 2.788791 0.162275
v 0.028823 3.062622 -0.117846
v 0.028823 3.030190 -0.150277
v -0.000001 3.030190 -0.117846
v 0.028823 2.788791 -0.150277
v 0.028823 2.756359 -0.117846
v 0.028823 3.062622 0.129844
v -0.000001 3.030190 0.129843
v 0.028823 3.030190 0.162275
v 0.028823 2.756359 0.129844
v 0.028823 2.788791 0.162275
v -0.000001 2.788791 0.129844
v 1.053097 3.030190 -0.117846
v 1.024273 3.030190 -0.150277
v 1.024273 3.062622 -0.117846
v 1.053097 2.788791 -0.117846
v 1.024273 2.756359 -0.117846
v 1.024273 2.788791 -0.150277
v 1.024273 3.062621 0.129844
v 1.024273 3.030190 0.162275
v 1.053097 3.030190 0.129843
v 1.024273 2.756359 0.129844
v 1.053097 2.788791 0.129844
v 1.024273 2.788791 0.162275
v 0.555371 3.062622 -0.117846
v 0.555371 3.030190 -0.150277
v 0.526549 3.030190 -0.117846
v 0.526549 2.788791 -0.117846
v 0.555371 2.788791 -0.150277
v 0.555371 2.756359 -0.117846
v 0.555371 3.062622 0.129844
v 0.555371 3.030190 0.162275
v 0.555371 2.756359 0.129844
v 0.555371 2.788791 0.162275
v 1.053097 2.723928 0.162275
v 1.053097 2.756359 0.129844
v 1.053097 2.482528 0.162275
v 1.053097 2.450097 0.129844
v 1.053097 2.756359 -0.117846
v 1.053097 2.723928 -0.150277
v 1.053097 2.482528 -0.150277
v 1.053097 2.450097 -0.117846
v 1.053097 2.111404 0.162275
v 1.053097 2.143835 0.129844
v 1.053097 1.870004 0.162275
v 1.053097 1.837573 0.129844
v 1.053097 2.143835 -0.117845
v 1.053097 2.111404 -0.150277
v 1.053097 1.870004 -0.150277
v 1.053097 1.837573 -0.117845
v 1.053097 1.498880 0.162275
v 1.053097 1.531311 0.129844
v 1.053097 1.257480 0.162275
v 1.053097 1.225049 0.129844
v 1.053097 1.531311 -0.117845
v 1.053097 1.498880 -0.150277
v 1.053097 1.257480 -0.150277
v 1.053097 1.225049 -0.117845
v 1.053097 0.886355 0.162275
v 1.053097 0.918786 0.129844
v 1.053097 0.644956 0.162276
v 1.053097 0.612524 0.129844
v 1.053097 0.918786 -0.117845
v 1.053097 0.886355 -0.150277
v 1.053097 0.644956 -0.150277
v 1.053097 0.612524 -0.117845
v 1.053097 0.273831 0.162276
v 1.053093 0.306262 0.129844
v 1.053097 0.032431 0.162276
v 1.053097 0.000000 0.129844
v 1.053097 0.306262 -0.117845
v 1.053097 0.273831 -0.150277
v 1.053097 0.032431 -0.150277
v 1.053097 0.000000 -0.117845
v -1.053097 2.723928 0.162275
v -1.053097 2.756359 0.129844
v -1.053097 2.482528 0.162275
v -1.053097 2.450097 0.129844
v -1.053097 2.756359 -0.117846
v -1.053097 2.723928 -0.150277
v -1.053097 2.482528 -0.150277
v -1.053097 2.450097 -0.117846
v -1.053097 2.111404 0.162275
v -1.053097 2.143835 0.129844
v -1.053097 1.870004 0.162275
v -1.053097 1.837573 0.129844
v -1.053097 2.143835 -0.117845
v -1.053097 2.111404 -0.150277
v -1.053097 1.870004 -0.150277
v -1.053097 1.837573 -0.117845
v -1.053097 1.498880 0.162275
v -1.053097 1.531311 0.129844
v -1.053097 1.257480 0.162275
v -1.053097 1.225049 0.129844
v -1.053097 1.531311 -0.117845
v -1.053097 1.498880 -0.150277
v -1.053097 1.257480 -0.150277
v -1.053097 1.225049 -0.117845
v -1.053097 0.886355 0.162275
v -1.053097 0.918786 0.129844
v -1.053097 0.644956 0.162276
v -1.053097 0.612524 0.129844
v -1.053097 0.918786 -0.117845
v -1.053097 0.886355 -0.150277
v -1.053097 0.644956 -0.150277
v -1.053097 0.612524 -0.117845
v -1.053096 0.273831 0.162276
v -1.053096 0.306262 0.129844
v -1.053096 0.032431 0.162276
v -1.053096 0.000000 0.129844
v -1.053096 0.306262 -0.117845
v -1.053096 0.273831 -0.150277
v -1.053096 0.032431 -0.150277
v -1.053096 0.000000 -0.117845
v 0.519834 1.659743 0.223994
v 0.534064 1.941298 0.223994
v 0.519834 1.659743 -0.223993
v 0.534064 1.941298 -0.223993
v 0.841589 1.659743 0.223994
v 0.824986 2.021939 0.223994
v 0.841589 1.659743 -0.223993
v 0.824986 2.021939 -0.223993
v 0.814777 1.739898 -0.186661
v 0.814777 1.414845 -0.186661
v 0.814777 1.739898 0.186661
v 0.814777 1.414845 0.186661
v 0.546646 1.739898 -0.186661
v 0.546646 1.414845 -0.186661
v 0.546646 1.739898 0.186661
v 0.546646 1.414845 0.186661
v 0.873145 1.438866 -0.220599
v 0.862521 1.138587 -0.220599
v 0.873145 1.438866 0.220600
v 0.862521 1.138587 0.220600
v 0.522272 1.438866 -0.220599
v 0.522272 1.138587 -0.220599
v 0.522272 1.438866 0.220600
v 0.522272 1.138587 0.220600
v 0.545779 0.947307 0.187870
v 0.545779 1.217173 0.187870
v 0.545779 0.947307 -0.187868
v 0.545779 1.217173 -0.187868
v 0.815644 0.947307 0.187870
v 0.841639 1.217173 0.187870
v 0.815644 0.947307 -0.187868
v 0.841639 1.217173 -0.187868
v 0.836006 1.022747 -0.261289
v 0.867570 0.712157 -0.261289
v 0.836006 1.022747 0.261290
v 0.867570 0.712157 0.261290
v 0.325416 1.022747 -0.261289
v 0.325416 0.712157 -0.261289
v 0.325416 1.022747 0.261290
v 0.325416 0.712157 0.261290
v 0.473451 1.988957 0.221852
v 0.207735 2.170978 0.234777
v 0.473451 1.988957 -0.221851
v 0.207735 2.170978 -0.234777
v 0.648494 2.240538 0.221852
v 0.358534 2.446693 0.234777
v 0.648494 2.240538 -0.221851
v 0.358534 2.446693 -0.234777
v 0.249244 2.134763 -0.273234
v -0.017349 2.175201 -0.273234
v 0.383233 2.455943 -0.273234
v -0.017349 2.564506 -0.273234
v 0.521111 1.938696 0.250302
v 0.432723 2.006377 0.264886
v 0.521111 1.938696 -0.250302
v 0.432723 2.006377 -0.264885
v 0.871019 1.997375 0.250302
v 0.642470 2.298193 0.264886
v 0.871019 1.997375 -0.250302
v 0.642470 2.298193 -0.264885
v 0.249244 2.134763 0.273234
v 0.383233 2.455943 0.273234
v -0.017349 2.564506 0.273234
v -0.017349 2.175201 0.273234
v 0.351700 1.009300 -0.226529
v 0.414507 0.725605 -0.226529
v 0.351700 1.009300 0.226530
v 0.414507 0.725605 0.226530
v -0.013521 1.009300 -0.226529
v -0.013521 0.725605 -0.226529
v -0.013521 1.009300 0.226530
v -0.013521 0.725605 0.226530
v -0.546876 1.659743 0.223994
v -0.561107 1.941298 0.223994
v -0.546876 1.659743 -0.223993
v -0.561107 1.941298 -0.223993
v -0.868633 1.659743 0.223994
v -0.852028 2.021939 0.223994
v -0.868633 1.659743 -0.223993
v -0.852028 2.021939 -0.223993
v -0.841818 1.739898 -0.186661
v -0.841818 1.414845 -0.186661
v -0.841818 1.739898 0.186661
v -0.841818 1.414845 0.186661
v -0.573690 1.739898 -0.186661
v -0.573690 1.414845 -0.186661
v -0.573690 1.739898 0.186661
v -0.573690 1.414845 0.186661
v -0.900188 1.438866 -0.220599
v -0.889564 1.138587 -0.220599
v -0.900188 1.438866 0.220600
v -0.889564 1.138587 0.220600
v -0.549314 1.438866 -0.220599
v -0.549314 1.138587 -0.220599
v -0.549314 1.438866 0.220600
v -0.549314 1.138587 0.220600
v -0.572821 0.947307 0.187870
v -0.572821 1.217173 0.187870
v -0.572821 0.947307 -0.187868
v -0.572821 1.217173 -0.187868
v -0.842686 0.947307 0.187870
v -0.868682 1.217173 0.187870
v -0.842686 0.947307 -0.187868
v -0.868682 1.217173 -0.187868
v -0.863049 1.022747 -0.261289
v -0.894613 0.712157 -0.261289
v -0.863049 1.022747 0.261290
v -0.894613 0.712157 0.261290
v -0.352459 1.022747 -0.261289
v -0.352459 0.712157 -0.261289
v -0.352459 1.022747 0.261290
v -0.352459 0.712157 0.261290
v -0.500495 1.988957 0.221852
v -0.234777 2.170978 0.234777
v -0.500495 1.988957 -0.221851
v -0.234777 2.170978 -0.234777
v -0.675536 2.240538 0.221852
v -0.385578 2.446693 0.234777
v -0.675536 2.240538 -0.221851
v -0.385578 2.446693 -0.234777
v -0.276288 2.134763 -0.273234
v -0.009694 2.175201 -0.273234
v -0.410277 2.455943 -0.273234
v -0.009694 2.564506 -0.273234
v -0.548154 1.938696 0.250302
v -0.459765 2.006377 0.264886
v -0.548154 1.938696 -0.250302
v -0.459765 2.006377 -0.264885
v -0.898063 1.997375 0.250302
v -0.669512 2.298193 0.264886
v -0.898063 1.997375 -0.250302
v -0.669512 2.298193 -0.264885
v -0.276288 2.134763 0.273234
v -0.410277 2.455943 0.273234
v -0.009694 2.564506 0.273234
v -0.009694 2.175201 0.273234
v -0.378742 1.009300 -0.226529
v -0.441551 0.725605 -0.226529
v -0.378742 1.009300 0.226530
v -0.441551 0.725605 0.226530
v 0.021180 0.776402 -0.032536
v -0.037385 0.776402 -0.032536
v 0.021180 0.776402 0.032536
v -0.037385 0.776402 0.032536
v 0.021180 2.203617 -0.032536
v -0.037385 2.203617 -0.032536
v 0.021180 2.203617 0.032536
v -0.037385 2.203617 0.032536
v 0.262614 2.203617 0.032536
v 0.321179 2.203617 0.032536
v 0.262614 2.203617 -0.032536
v 0.321179 2.203617 -0.032536
v 0.262614 0.776402 0.032536
v 0.321179 0.776402 0.032536
v 0.262614 0.776402 -0.032536
v 0.321179 0.776402 -0.032536
v -0.348219 2.213617 0.032536
v -0.289653 2.213617 0.032536
v -0.348219 2.213617 -0.032536
v -0.289653 2.213617 -0.032536
v -0.348219 0.786402 0.032536
v -0.289653 0.786402 0.032536
v -0.348219 0.786402 -0.032536
v -0.289653 0.786402 -0.032536
v 1.053097 3.062621 0.014247
v 1.053097 0.000000 0.014247
v -1.053096 3.062622 0.014247
v -1.053096 0.000000 0.014247
v -1.053096 0.000000 -0.001234
v -1.053096 3.062622 -0.001235
v -0.622875 0.843699 -0.001234
v -0.622875 2.316049 -0.001235
v 0.637298 0.843699 -0.001234
v 0.637298 2.316049 -0.001235
v 1.053097 0.000000 -0.001234
v 1.053097 3.062621 -0.001235
v 0.637298 2.316049 0.014247
v 0.637298 0.843699 0.014247
v -0.622875 2.316049 0.014247
v -0.622875 0.843699 0.014247
vn -0.0000 -0.0000 -1.0000
vn -0.0000 -1.0000 -0.0000
vn 0.6226 0.5533 -0.5533
vn 0.6226 -0.5533 -0.5533
vn 0.6226 0.5533 0.5533
vn 0.6226 -0.5533 0.5533
vn -0.0000 0.7071 0.7071
vn 0.7475 -0.0000 -0.6643
vn -0.0000 0.7071 -0.7071
vn -0.0000 -0.7071 -0.7071
vn 0.7475 -0.0000 0.6643
vn 0.7475 0.6643 -0.0000
vn 0.7475 -0.6643 -0.0000
vn 1.0000 -0.0000 -0.0000
vn -0.0000 1.0000 -0.0000
vn -0.0000 -0.0000 1.0000
vn -0.6226 0.5533 -0.5533
vn -0.6226 -0.5533 -0.5533
vn -0.6226 0.5533 0.5533
vn -0.6226 -0.5533 0.5533
vn -0.0000 -0.7071 0.7071
vn -0.7475 -0.0000 0.6643
vn -0.7475 -0.6643 -0.0000
vn -0.7475 -0.0000 -0.6643
vn -0.7475 0.6643 -0.0000
vn 0.5227 0.6028 -0.6028
vn 0.5227 -0.6028 -0.6028
vn 0.5227 0.6028 0.6028
vn 0.5227 -0.6028 0.6028
vn 0.6551 -0.0000 -0.7555
vn 0.6551 -0.0000 0.7555
vn 0.6551 0.7555 -0.0000
vn 0.6551 -0.7555 -0.0000
vn -0.5227 0.6028 -0.6028
vn -0.5227 -0.6028 -0.6028
vn -0.5227 0.6028 0.6028
vn -0.5227 -0.6028 0.6028
vn -0.6551 -0.0000 0.7555
vn -0.6551 -0.7555 -0.0000
vn -0.6551 -0.0000 -0.7555
vn -0.6551 0.7555 -0.0000
vn 0.2067 -0.9784 -0.0000
vn 0.1477 -0.6994 0.6993
vn 0.1477 -0.6994 -0.6993
vn -0.2067 -0.9784 -0.0000
vn -0.1477 -0.6994 0.6993
vn -0.1477 -0.6994 -0.6993
vn -1.0000 -0.0000 -0.0000
vn 1.0000 -0.0000 -0.0001
vn -0.2671 0.9637 -0.0000
vn -0.9987 0.0505 -0.0000
vn 0.9990 0.0458 -0.0000
vn 0.9954 -0.0959 -0.0000
vn 0.9994 -0.0354 -0.0000
vn 0.9949 0.1011 -0.0000
vn 0.0325 -0.0201 -0.9993
vn -0.8773 0.4799 -0.0000
vn -0.5651 -0.8250 -0.0000
vn 0.5795 0.8150 -0.0000
vn 0.8209 -0.5711 -0.0000
vn 0.0325 -0.0201 0.9993
vn -0.1500 -0.9887 -0.0000
vn 0.2616 0.9652 -0.0000
vn 0.9229 -0.3850 -0.0000
vn 0.0322 -0.0513 -0.9982
vn -0.8120 0.5836 -0.0000
vn -0.6080 -0.7940 -0.0000
vn 0.7963 0.6050 -0.0000
vn 0.1654 -0.9862 -0.0000
vn 0.0322 -0.0513 0.9982
vn 0.9764 0.2162 -0.0000
vn 0.2671 0.9637 -0.0000
vn 0.9987 0.0505 -0.0000
vn -0.9990 0.0458 -0.0000
vn -0.9954 -0.0959 -0.0000
vn -0.9994 -0.0354 -0.0000
vn -0.9949 0.1011 -0.0000
vn -0.0325 -0.0201 -0.9993
vn 0.8773 0.4799 -0.0000
vn 0.5651 -0.8250 -0.0000
vn -0.5795 0.8150 -0.0000
vn -0.8209 -0.5711 -0.0000
vn -0.0325 -0.0201 0.9993
vn 0.1500 -0.9887 -0.0000
vn -0.2616 0.9652 -0.0000
vn -0.9229 -0.3850 -0.0000
vn -0.0322 -0.0513 -0.9982
vn 0.8120 0.5836 -0.0000
vn 0.6080 -0.7940 -0.0000
vn -0.7963 0.6050 -0.0000
vn -0.1654 -0.9862 -0.0000
vn -0.0322 -0.0513 0.9982
vn -0.9764 0.2162 -0.0000
vt 0.426196 0.375000
vt 0.573804 0.375000
vt 0.573804 0.470607
vt 0.426196 0.470607
vt 0.250000 0.550379
vt 0.345607 0.550379
vt 0.345607 0.699621
vt 0.250000 0.699621
vt 0.573804 0.482361
vt 0.593635 0.470607
vt 0.357361 0.550379
vt 0.345607 0.530838
vt 0.593635 0.779393
vt 0.573804 0.767639
vt 0.357361 0.699621
vt 0.345607 0.719162
vt 0.573804 0.875000
vt 0.573804 0.779393
vt 0.593635 0.875000
vt 0.426196 0.482361
vt 0.593635 0.375000
vt 0.406365 0.470607
vt 0.406365 0.375000
vt 0.426196 0.779393
vt 0.426196 0.767639
vt 0.593635 0.550379
vt 0.593635 0.699621
vt 0.573804 0.699621
vt 0.573804 0.550379
vt 0.426196 0.550379
vt 0.426196 0.699621
vt 0.654393 0.550379
vt 0.845607 0.550379
vt 0.845607 0.699621
vt 0.654393 0.699621
vt 0.573804 0.970607
vt 0.426196 0.970607
vt 0.426196 0.279393
vt 0.573804 0.279393
vt 0.154393 0.550379
vt 0.154393 0.699621
vt 0.593635 0.279393
vt 0.573804 0.267639
vt 0.426196 0.267639
vt 0.406365 0.279393
vt 0.593635 0.050379
vt 0.593635 0.050379
vt 0.573804 0.030838
vt 0.154393 0.719162
vt 0.142639 0.699621
vt 0.593635 0.970607
vt 0.573804 0.982361
vt 0.426196 0.982361
vt 0.142639 0.550379
vt 0.593635 0.199621
vt 0.573804 0.199621
vt 0.573804 0.050379
vt 0.750000 0.550379
vt 0.750000 0.699621
vt 0.426196 0.875000
vt 0.250000 0.719162
vt 0.426196 0.050379
vt 0.426196 0.199621
vt 0.375000 0.500000
vt 0.625000 0.500000
vt 0.625000 0.750000
vt 0.375000 0.750000
vt 0.875000 0.500000
vt 0.875000 0.750000
vt 0.375000 0.250000
vt 0.625000 0.250000
vt 0.375000 0.000000
vt 0.625000 0.000000
vt 0.625000 1.000000
vt 0.375000 1.000000
vt 0.125000 0.500000
vt 0.125000 0.750000
vt 0.487719 0.857868
vt 0.501048 0.857868
vt 0.573804 0.779393
vt 0.487719 0.878646
vt 0.573804 0.970607
vt 0.501048 0.878646
s 1
usemtl dark_grey.008
f 715/1/1 714/2/1 1/3/1 5/4/1
f 716/5/2 4/6/2 9/7/2 712/8/2
f 25/9/3 1/9/3 2/10/3
f 3/11/4 4/12/4 5/12/4
f 6/13/5 7/13/5 8/14/5
f 9/7/6 10/15/6 11/16/6
f 709/17/7 7/18/7 6/13/7 710/19/7
f 5/4/8 1/3/8 25/9/8 3/20/8
f 713/21/9 2/10/9 1/3/9 714/2/9
f 715/1/10 5/4/10 4/22/10 716/23/10
f 7/18/11 11/24/11 10/25/11 8/14/11
f 2/26/12 6/27/12 8/28/12 25/29/12
f 3/11/13 10/15/13 9/7/13 4/6/13
f 15/30/14 12/29/14 20/28/14 50/31/14
f 34/32/15 42/33/15 46/34/15 38/35/15
f 41/24/16 39/18/16 47/36/16 49/37/16
f 44/38/1 43/39/1 33/3/1 37/4/1
f 45/40/2 36/6/2 40/7/2 48/41/2
f 32/9/3 33/9/3 34/10/3
f 35/11/4 36/12/4 37/12/4
f 38/13/5 39/13/5 67/14/5
f 40/7/6 71/15/6 41/16/6
f 42/42/17 43/42/17 12/43/17
f 15/44/18 44/45/18 45/45/18
f 46/46/19 20/47/19 47/48/19
f 48/41/20 49/49/20 50/50/20
f 47/36/7 39/18/7 38/13/7 46/51/7
f 41/16/21 49/49/21 48/41/21 40/7/21
f 37/4/8 33/3/8 32/9/8 35/20/8
f 42/42/9 34/10/9 33/3/9 43/39/9
f 49/37/22 47/36/22 20/52/22 50/53/22
f 50/50/23 15/54/23 45/40/23 48/41/23
f 44/38/10 37/4/10 36/22/10 45/45/10
f 39/18/11 41/24/11 71/25/11 67/14/11
f 43/39/24 44/38/24 15/44/24 12/43/24
f 34/26/12 38/27/12 67/28/12 32/29/12
f 35/11/13 71/15/13 40/7/13 36/6/13
f 46/46/25 42/55/25 12/56/25 20/57/25
f 673/58/15 72/33/15 77/34/15 670/59/15
f 671/60/16 669/17/16 78/36/16 80/37/16
f 72/42/17 73/42/17 51/43/17
f 74/44/18 75/45/18 76/45/18
f 77/46/19 58/47/19 78/48/19
f 79/41/20 80/49/20 60/50/20
f 671/61/21 80/49/21 79/41/21 672/8/21
f 80/37/22 78/36/22 58/52/22 60/53/22
f 60/50/23 74/54/23 76/40/23 79/41/23
f 73/39/24 75/38/24 74/44/24 51/43/24
f 77/46/25 72/55/25 51/56/25 58/57/25
f 124/32/15 133/33/15 138/34/15 127/35/15
f 132/24/16 128/18/16 139/36/16 141/37/16
f 136/38/1 134/39/1 123/3/1 126/4/1
f 137/40/2 125/6/2 130/7/2 140/41/2
f 157/9/3 123/9/3 124/10/3
f 158/11/4 125/12/4 126/12/4
f 127/13/5 128/13/5 129/14/5
f 130/7/6 131/15/6 132/16/6
f 133/42/17 134/42/17 135/43/17
f 107/44/18 136/45/18 137/45/18
f 138/46/19 112/47/19 139/48/19
f 140/41/20 141/49/20 142/50/20
f 139/36/7 128/18/7 127/13/7 138/51/7
f 132/16/21 141/49/21 140/41/21 130/7/21
f 126/4/8 123/3/8 157/9/8 158/20/8
f 133/42/9 124/10/9 123/3/9 134/39/9
f 141/37/22 139/36/22 112/52/22 142/53/22
f 142/50/23 107/54/23 137/40/23 140/41/23
f 136/38/10 126/4/10 125/22/10 137/45/10
f 128/18/11 132/24/11 131/25/11 129/14/11
f 134/39/24 136/38/24 107/44/24 135/43/24
f 124/26/12 127/27/12 129/28/12 157/29/12
f 158/11/13 131/15/13 130/7/13 125/6/13
f 138/46/25 133/55/25 135/56/25 112/57/25
f 158/30/14 157/29/14 129/28/14 131/31/14
f 178/32/15 186/33/15 190/34/15 181/35/15
f 185/24/16 182/18/16 191/36/16 193/37/16
f 188/38/1 187/39/1 177/3/1 180/4/1
f 189/40/2 179/6/2 183/7/2 192/41/2
f 207/9/3 177/9/3 178/10/3
f 208/11/4 179/12/4 180/12/4
f 181/13/5 182/13/5 212/14/5
f 183/7/6 184/15/6 185/16/6
f 186/42/17 187/42/17 165/43/17
f 168/44/18 188/45/18 189/45/18
f 190/46/19 173/47/19 191/48/19
f 192/41/20 193/49/20 175/50/20
f 191/36/7 182/18/7 181/13/7 190/51/7
f 185/16/21 193/49/21 192/41/21 183/7/21
f 180/4/8 177/3/8 207/9/8 208/20/8
f 186/42/9 178/10/9 177/3/9 187/39/9
f 193/37/22 191/36/22 173/52/22 175/53/22
f 175/50/23 168/54/23 189/40/23 192/41/23
f 188/38/10 180/4/10 179/22/10 189/45/10
f 182/18/11 185/24/11 184/25/11 212/14/11
f 187/39/24 188/38/24 168/44/24 165/43/24
f 178/26/12 181/27/12 212/28/12 207/29/12
f 208/11/13 184/15/13 183/7/13 179/6/13
f 190/46/25 186/55/25 165/56/25 173/57/25
f 208/30/14 207/29/14 212/28/14 184/31/14
f 268/30/14 248/29/14 255/28/14 257/31/14
f 284/30/14 269/29/14 288/28/14 292/31/14
f 272/32/15 282/33/15 287/34/15 276/35/15
f 281/24/16 277/18/16 289/36/16 291/37/16
f 285/38/1 283/39/1 271/3/1 275/4/1
f 286/40/2 274/6/2 279/7/2 290/41/2
f 270/9/3 271/9/3 272/10/3
f 273/11/4 274/12/4 275/12/4
f 276/13/5 277/13/5 278/14/5
f 279/7/6 280/15/6 281/16/6
f 282/42/34 283/42/34 269/43/34
f 284/44/35 285/45/35 286/45/35
f 287/46/36 288/47/36 289/48/36
f 290/41/37 291/49/37 292/50/37
f 289/36/7 277/18/7 276/13/7 287/51/7
f 281/16/21 291/49/21 290/41/21 279/7/21
f 275/4/8 271/3/8 270/9/8 273/20/8
f 282/42/9 272/10/9 271/3/9 283/39/9
f 291/37/38 289/36/38 288/52/38 292/53/38
f 292/50/39 284/54/39 286/40/39 290/41/39
f 285/38/10 275/4/10 274/22/10 286/45/10
f 277/18/11 281/24/11 280/25/11 278/14/11
f 283/39/40 285/38/40 284/44/40 269/43/40
f 272/26/12 276/27/12 278/28/12 270/29/12
f 273/11/13 280/15/13 279/7/13 274/6/13
f 287/46/41 282/55/41 269/56/41 288/57/41
f 273/30/14 270/29/14 278/28/14 280/31/14
f 320/32/15 330/33/15 335/34/15 324/35/15
f 329/24/16 325/18/16 336/36/16 338/37/16
f 333/38/1 331/39/1 319/3/1 323/4/1
f 334/40/2 322/6/2 327/7/2 337/41/2
f 340/9/26 319/9/26 320/10/26
f 321/11/27 322/12/27 323/12/27
f 324/13/28 325/13/28 326/14/28
f 327/7/29 328/15/29 329/16/29
f 330/42/17 331/42/17 332/43/17
f 317/44/18 333/45/18 334/45/18
f 335/46/19 318/47/19 336/48/19
f 337/41/20 338/49/20 339/50/20
f 336/36/7 325/18/7 324/13/7 335/51/7
f 329/16/21 338/49/21 337/41/21 327/7/21
f 323/4/30 319/3/30 340/9/30 321/20/30
f 330/42/9 320/10/9 319/3/9 331/39/9
f 338/37/22 336/36/22 318/52/22 339/53/22
f 339/50/23 317/54/23 334/40/23 337/41/23
f 333/38/10 323/4/10 322/22/10 334/45/10
f 325/18/31 329/24/31 328/25/31 326/14/31
f 331/39/24 333/38/24 317/44/24 332/43/24
f 320/26/32 324/27/32 326/28/32 340/29/32
f 321/11/33 328/15/33 327/7/33 322/6/33
f 335/46/25 330/55/25 332/56/25 318/57/25
f 321/30/14 340/29/14 326/28/14 328/31/14
f 341/30/14 356/29/14 360/28/14 364/31/14
f 368/30/14 365/29/14 375/28/14 376/31/14
f 432/32/15 439/33/15 444/34/15 435/35/15
f 438/24/16 436/18/16 445/36/16 447/37/16
f 442/38/1 440/39/1 431/3/1 434/4/1
f 443/40/45 433/6/45 437/7/45 446/41/45
f 463/9/3 431/9/3 432/10/3
f 464/11/4 433/12/4 434/12/4
f 435/13/5 436/13/5 468/14/5
f 437/7/6 472/15/6 438/16/6
f 439/42/17 440/42/17 441/43/17
f 413/44/18 442/45/18 443/45/18
f 444/46/19 418/47/19 445/48/19
f 446/41/20 447/49/20 448/50/20
f 445/36/7 436/18/7 435/13/7 444/51/7
f 438/16/46 447/49/46 446/41/46 437/7/46
f 434/4/8 431/3/8 463/9/8 464/20/8
f 439/42/9 432/10/9 431/3/9 440/39/9
f 447/37/22 445/36/22 418/52/22 448/53/22
f 448/50/23 413/54/23 443/40/23 446/41/23
f 442/38/47 434/4/47 433/22/47 443/45/47
f 436/18/11 438/24/11 472/25/11 468/14/11
f 440/39/24 442/38/24 413/44/24 441/43/24
f 432/26/12 435/27/12 468/28/12 463/29/12
f 464/11/13 472/15/13 437/7/13 433/6/13
f 444/46/25 439/55/25 441/56/25 418/57/25
f 484/32/15 492/33/15 497/34/15 487/35/15
f 491/24/16 488/18/16 498/36/16 500/37/16
f 495/38/1 493/39/1 483/3/1 486/4/1
f 496/40/2 485/6/2 489/7/2 499/41/2
f 514/9/3 483/9/3 484/10/3
f 515/11/4 485/12/4 486/12/4
f 487/13/5 488/13/5 519/14/5
f 489/7/6 490/15/6 491/16/6
f 492/42/17 493/42/17 473/43/17
f 494/44/18 495/45/18 496/45/18
f 497/46/19 480/47/19 498/48/19
f 499/41/20 500/49/20 501/50/20
f 498/36/7 488/18/7 487/13/7 497/51/7
f 491/16/21 500/49/21 499/41/21 489/7/21
f 486/4/8 483/3/8 514/9/8 515/20/8
f 492/42/9 484/10/9 483/3/9 493/39/9
f 500/37/22 498/36/22 480/52/22 501/53/22
f 501/50/23 494/54/23 496/40/23 499/41/23
f 495/38/10 486/4/10 485/22/10 496/45/10
f 488/18/11 491/24/11 490/25/11 519/14/11
f 493/39/24 495/38/24 494/44/24 473/43/24
f 484/26/12 487/27/12 519/28/12 514/29/12
f 515/11/13 490/15/13 489/7/13 485/6/13
f 497/46/25 492/55/25 473/56/25 480/57/25
f 515/30/14 514/29/14 519/28/14 490/31/14
f 546/30/14 523/29/14 530/28/14 532/31/14
f 556/32/15 564/33/15 569/34/15 560/35/15
f 563/24/16 561/18/16 571/36/16 573/37/16
f 567/38/1 565/39/1 555/3/1 559/4/1
f 568/40/2 558/6/2 562/7/2 572/41/2
f 585/9/3 555/9/3 556/10/3
f 557/11/4 558/12/4 559/12/4
f 560/13/5 561/13/5 589/14/5
f 562/7/6 593/15/6 563/16/6
f 564/42/17 565/42/17 553/43/17
f 566/44/18 567/45/18 568/45/18
f 569/46/19 570/47/19 571/48/19
f 572/41/20 573/49/20 554/50/20
f 571/36/7 561/18/7 560/13/7 569/51/7
f 563/16/21 573/49/21 572/41/21 562/7/21
f 559/4/8 555/3/8 585/9/8 557/20/8
f 564/42/9 556/10/9 555/3/9 565/39/9
f 573/37/22 571/36/22 570/52/22 554/53/22
f 554/50/23 566/54/23 568/40/23 572/41/23
f 567/38/10 559/4/10 558/22/10 568/45/10
f 561/18/11 563/24/11 593/25/11 589/14/11
f 565/39/24 567/38/24 566/44/24 553/43/24
f 556/26/12 560/27/12 589/28/12 585/29/12
f 557/11/13 593/15/13 562/7/13 558/6/13
f 569/46/25 564/55/25 553/56/25 570/57/25
f 557/30/14 585/29/14 589/28/14 593/31/14
f 676/23/14 675/1/14 674/2/14 673/21/14
f 673/58/14 670/59/14 672/8/14 676/5/14
f 672/8/14 670/19/14 669/17/49 671/61/49
f 75/38/10 675/1/10 676/23/10 76/45/10
f 72/42/9 673/21/9 674/2/9 73/39/9
f 553/56/48 566/54/48 554/53/48 570/57/48
f 78/36/7 669/17/7 670/19/7 77/51/7
f 76/40/2 676/5/2 672/8/2 79/41/2
f 75/38/1 73/39/1 674/2/1 675/1/1
f 332/56/48 317/54/48 339/53/48 318/57/48
f 716/23/48 713/21/48 714/2/48 715/1/48
f 713/58/48 716/5/48 712/8/48 710/59/48
f 712/8/48 711/61/48 709/17/48 710/19/48
f 11/16/21 711/61/21 712/8/21 9/7/21
f 11/24/16 7/18/16 709/17/16 711/60/16
f 2/32/15 713/58/15 710/59/15 6/35/15
f 719/64/1 720/65/1 724/66/1 723/67/1
f 724/65/50 720/68/50 718/69/50 722/66/50
f 717/70/51 718/71/51 720/65/51 719/64/51
f 730/72/2 726/73/2 728/71/2 732/70/2
f 723/67/52 724/66/52 722/74/52 721/75/52
f 725/65/15 729/68/15 731/69/15 727/66/15
f 719/72/2 723/73/2 721/71/2 717/70/2
f 732/70/48 731/71/48 729/65/48 730/64/48
f 728/76/16 727/64/16 731/67/16 732/77/16
f 730/64/1 729/65/1 725/66/1 726/67/1
f 736/76/16 735/64/16 739/67/16 740/77/16
f 721/76/16 722/64/16 718/67/16 717/77/16
f 743/64/1 744/65/1 748/66/1 747/67/1
f 747/67/53 748/66/53 746/74/53 745/75/53
f 748/65/15 744/68/15 742/69/15 746/66/15
f 738/64/1 737/65/1 733/66/1 734/67/1
f 726/67/14 725/66/14 727/74/14 728/75/14
f 740/70/48 739/71/48 737/65/48 738/64/48
f 738/72/2 734/73/2 736/71/2 740/70/2
f 743/72/2 747/73/2 745/71/2 741/70/2
f 754/72/2 750/73/2 752/71/2 756/70/2
f 745/76/16 746/64/16 742/67/16 741/77/16
f 756/70/48 755/71/48 753/65/48 754/64/48
f 754/64/1 753/65/1 749/66/1 750/67/1
f 734/67/54 733/66/54 735/74/54 736/75/54
f 750/67/55 749/66/55 751/74/55 752/75/55
f 752/76/16 751/64/16 755/67/16 756/77/16
f 733/65/15 737/68/15 739/69/15 735/66/15
f 741/70/48 742/71/48 744/65/48 743/64/48
f 749/65/15 753/68/15 755/69/15 751/66/15
f 759/64/56 760/65/56 764/66/56 763/67/56
f 764/65/57 760/68/57 758/69/57 762/66/57
f 757/70/58 758/71/58 760/65/58 759/64/58
f 763/67/59 764/66/59 762/74/59 761/75/59
f 759/72/60 763/73/60 761/71/60 757/70/60
f 761/76/61 762/64/61 758/67/61 757/77/61
f 765/64/1 766/65/1 768/66/1 767/67/1
f 777/70/62 780/71/62 766/65/62 765/64/62
f 767/67/63 768/66/63 779/74/63 778/75/63
f 765/72/64 767/73/64 778/71/64 777/70/64
f 771/64/65 772/65/65 776/66/65 775/67/65
f 776/65/66 772/68/66 770/69/66 774/66/66
f 769/70/67 770/71/67 772/65/67 771/64/67
f 775/67/68 776/66/68 774/74/68 773/75/68
f 771/72/69 775/73/69 773/71/69 769/70/69
f 773/76/70 774/64/70 770/67/70 769/77/70
f 779/64/16 780/67/16 777/77/16 778/76/16
f 786/72/2 782/73/2 784/71/2 788/70/2
f 786/64/1 785/65/1 781/66/1 782/67/1
f 782/67/71 781/66/71 783/74/71 784/75/71
f 784/76/16 783/64/16 787/67/16 788/77/16
f 781/65/15 785/68/15 787/69/15 783/66/15
f 791/64/1 795/67/1 796/66/1 792/65/1
f 796/65/72 794/66/72 790/69/72 792/68/72
f 789/70/73 791/64/73 792/65/73 790/71/73
f 802/72/2 804/70/2 800/71/2 798/73/2
f 795/67/74 793/75/74 794/74/74 796/66/74
f 797/65/15 799/66/15 803/69/15 801/68/15
f 791/72/2 789/70/2 793/71/2 795/73/2
f 804/70/14 802/64/14 801/65/14 803/71/14
f 800/76/16 804/77/16 803/67/16 799/64/16
f 802/64/1 798/67/1 797/66/1 801/65/1
f 808/76/16 812/77/16 811/67/16 807/64/16
f 793/76/16 789/77/16 790/67/16 794/64/16
f 815/64/1 819/67/1 820/66/1 816/65/1
f 819/67/75 817/75/75 818/74/75 820/66/75
f 820/65/15 818/66/15 814/69/15 816/68/15
f 810/64/1 806/67/1 805/66/1 809/65/1
f 798/67/48 800/75/48 799/74/48 797/66/48
f 812/70/14 810/64/14 809/65/14 811/71/14
f 810/72/2 812/70/2 808/71/2 806/73/2
f 815/72/2 813/70/2 817/71/2 819/73/2
f 826/72/2 828/70/2 824/71/2 822/73/2
f 817/76/16 813/77/16 814/67/16 818/64/16
f 828/70/14 826/64/14 825/65/14 827/71/14
f 826/64/1 822/67/1 821/66/1 825/65/1
f 806/67/76 808/75/76 807/74/76 805/66/76
f 822/67/77 824/75/77 823/74/77 821/66/77
f 824/76/16 828/77/16 827/67/16 823/64/16
f 805/65/15 807/66/15 811/69/15 809/68/15
f 813/70/14 815/64/14 816/65/14 814/71/14
f 821/65/15 823/66/15 827/69/15 825/68/15
f 831/64/78 835/67/78 836/66/78 832/65/78
f 836/65/79 834/66/79 830/69/79 832/68/79
f 829/70/80 831/64/80 832/65/80 830/71/80
f 835/67/81 833/75/81 834/74/81 836/66/81
f 831/72/82 829/70/82 833/71/82 835/73/82
f 833/76/83 829/77/83 830/67/83 834/64/83
f 837/64/1 839/67/1 840/66/1 838/65/1
f 849/70/84 837/64/84 838/65/84 852/71/84
f 839/67/85 850/75/85 851/74/85 840/66/85
f 837/72/86 849/70/86 850/71/86 839/73/86
f 843/64/87 847/67/87 848/66/87 844/65/87
f 848/65/88 846/66/88 842/69/88 844/68/88
f 841/70/89 843/64/89 844/65/89 842/71/89
f 847/67/90 845/75/90 846/74/90 848/66/90
f 843/72/91 841/70/91 845/71/91 847/73/91
f 845/76/92 841/77/92 842/67/92 846/64/92
f 851/64/16 850/76/16 849/77/16 852/67/16
f 786/72/2 788/70/2 856/71/2 854/73/2
f 786/64/1 854/67/1 853/66/1 785/65/1
f 854/67/93 856/75/93 855/74/93 853/66/93
f 856/76/16 788/77/16 787/67/16 855/64/16
f 853/65/15 855/66/15 787/69/15 785/68/15
f 891/24/1 889/78/1 890/79/1 892/80/1
f 891/24/1 885/37/1 887/81/1 889/78/1
f 893/79/16 881/18/16 883/82/16 895/83/16
f 882/24/16 894/78/16 896/81/16 884/37/16
f 890/79/1 888/83/1 886/82/1 892/18/1
f 882/24/16 881/80/16 893/79/16 894/78/16
f 887/81/1 885/37/1 886/36/1 888/83/1
f 896/81/16 895/83/16 883/36/16 884/37/16
usemtl grey.009
f 3/30/14 25/29/14 8/28/14 10/31/14
f 14/32/15 23/33/15 28/34/15 18/35/15
f 22/24/16 19/18/16 29/36/16 31/37/16
f 26/38/1 24/39/1 13/3/1 17/4/1
f 27/40/2 16/6/2 21/7/2 30/41/2
f 12/9/3 13/9/3 14/10/3
f 15/11/4 16/12/4 17/12/4
f 18/13/5 19/13/5 20/14/5
f 21/7/6 50/15/6 22/16/6
f 23/42/17 24/42/17 25/43/17
f 3/44/18 26/45/18 27/45/18
f 28/46/19 8/47/19 29/48/19
f 30/41/20 31/49/20 10/50/20
f 29/36/7 19/18/7 18/13/7 28/51/7
f 22/16/21 31/49/21 30/41/21 21/7/21
f 17/4/8 13/3/8 12/9/8 15/20/8
f 23/42/9 14/10/9 13/3/9 24/39/9
f 31/37/22 29/36/22 8/52/22 10/53/22
f 10/50/23 3/54/23 27/40/23 30/41/23
f 26/38/10 17/4/10 16/22/10 27/45/10
f 19/18/11 22/24/11 50/25/11 20/14/11
f 24/39/24 26/38/24 3/44/24 25/43/24
f 14/26/12 18/27/12 20/28/12 12/29/12
f 15/11/13 50/15/13 21/7/13 16/6/13
f 28/46/25 23/55/25 25/56/25 8/57/25
f 35/30/14 32/29/14 67/28/14 71/31/14
f 53/32/15 62/33/15 66/34/15 56/35/15
f 61/24/16 57/18/16 68/36/16 70/37/16
f 64/38/1 63/39/1 52/3/1 55/4/1
f 65/40/2 54/6/2 59/7/2 69/41/2
f 51/9/3 52/9/3 53/10/3
f 74/11/4 54/12/4 55/12/4
f 56/13/5 57/13/5 58/14/5
f 59/7/6 60/15/6 61/16/6
f 62/42/17 63/42/17 32/43/17
f 35/44/18 64/45/18 65/45/18
f 66/46/19 67/47/19 68/48/19
f 69/41/20 70/49/20 71/50/20
f 68/36/7 57/18/7 56/13/7 66/51/7
f 61/16/21 70/49/21 69/41/21 59/7/21
f 55/4/8 52/3/8 51/9/8 74/20/8
f 62/42/9 53/10/9 52/3/9 63/39/9
f 70/37/22 68/36/22 67/52/22 71/53/22
f 71/50/23 35/54/23 65/40/23 69/41/23
f 64/38/10 55/4/10 54/22/10 65/45/10
f 57/18/11 61/24/11 60/25/11 58/14/11
f 63/39/24 64/38/24 35/44/24 32/43/24
f 53/26/12 56/27/12 58/28/12 51/29/12
f 74/11/13 60/15/13 59/7/13 54/6/13
f 66/46/25 62/55/25 32/56/25 67/57/25
f 74/30/14 51/29/14 58/28/14 60/31/14
f 83/32/15 93/33/15 99/34/15 87/35/15
f 92/24/16 88/18/16 101/36/16 103/37/16
f 97/38/1 94/39/1 82/3/1 86/4/1
f 98/40/2 85/6/2 90/7/2 102/41/2
f 81/9/3 82/9/3 83/10/3
f 84/11/4 85/12/4 86/12/4
f 87/13/5 88/13/5 89/14/5
f 90/7/6 91/15/6 92/16/6
f 93/42/17 94/42/17 95/43/17
f 96/44/18 97/45/18 98/45/18
f 99/46/19 100/47/19 101/48/19
f 102/41/20 103/49/20 104/50/20
f 101/36/7 88/18/7 87/13/7 99/51/7
f 92/16/21 103/49/21 102/41/21 90/7/21
f 86/4/8 82/3/8 81/9/8 84/20/8
f 93/42/9 83/10/9 82/3/9 94/39/9
f 103/37/22 101/36/22 100/52/22 104/53/22
f 104/50/23 96/54/23 98/40/23 102/41/23
f 97/38/10 86/4/10 85/22/10 98/45/10
f 88/18/11 92/24/11 91/25/11 89/14/11
f 94/39/24 97/38/24 96/44/24 95/43/24
f 83/26/12 87/27/12 89/28/12 81/29/12
f 84/11/13 91/15/13 90/7/13 85/6/13
f 99/46/25 93/55/25 95/56/25 100/57/25
f 84/30/14 81/29/14 89/28/14 91/31/14
f 106/32/15 115/33/15 119/34/15 110/35/15
f 114/24/16 111/18/16 120/36/16 122/37/16
f 117/38/1 116/39/1 105/3/1 109/4/1
f 118/40/2 108/6/2 113/7/2 121/41/2
f 135/9/3 105/9/3 106/10/3
f 107/11/4 108/12/4 109/12/4
f 110/13/5 111/13/5 112/14/5
f 113/7/6 142/15/6 114/16/6
f 115/42/17 116/42/17 81/43/17
f 84/44/18 117/45/18 118/45/18
f 119/46/19 89/47/19 120/48/19
f 121/41/20 122/49/20 91/50/20
f 120/36/7 111/18/7 110/13/7 119/51/7
f 114/16/21 122/49/21 121/41/21 113/7/21
f 109/4/8 105/3/8 135/9/8 107/20/8
f 115/42/9 106/10/9 105/3/9 116/39/9
f 122/37/22 120/36/22 89/52/22 91/53/22
f 91/50/23 84/54/23 118/40/23 121/41/23
f 117/38/10 109/4/10 108/22/10 118/45/10
f 111/18/11 114/24/11 142/25/11 112/14/11
f 116/39/24 117/38/24 84/44/24 81/43/24
f 106/26/12 110/27/12 112/28/12 135/29/12
f 107/11/13 142/15/13 113/7/13 108/6/13
f 119/46/25 115/55/25 81/56/25 89/57/25
f 107/30/14 135/29/14 112/28/14 142/31/14
f 145/32/15 155/33/15 161/34/15 149/35/15
f 154/24/16 150/18/16 162/36/16 164/37/16
f 159/38/1 156/39/1 144/3/1 148/4/1
f 160/40/2 147/6/2 152/7/2 163/41/2
f 143/9/3 144/9/3 145/10/3
f 146/11/4 147/12/4 148/12/4
f 149/13/5 150/13/5 151/14/5
f 152/7/6 153/15/6 154/16/6
f 155/42/17 156/42/17 157/43/17
f 158/44/18 159/45/18 160/45/18
f 161/46/19 129/47/19 162/48/19
f 163/41/20 164/49/20 131/50/20
f 162/36/7 150/18/7 149/13/7 161/51/7
f 154/16/21 164/49/21 163/41/21 152/7/21
f 148/4/8 144/3/8 143/9/8 146/20/8
f 155/42/9 145/10/9 144/3/9 156/39/9
f 164/37/22 162/36/22 129/52/22 131/53/22
f 131/50/23 158/54/23 160/40/23 163/41/23
f 159/38/10 148/4/10 147/22/10 160/45/10
f 150/18/11 154/24/11 153/25/11 151/14/11
f 156/39/24 159/38/24 158/44/24 157/43/24
f 145/26/12 149/27/12 151/28/12 143/29/12
f 146/11/13 153/15/13 152/7/13 147/6/13
f 161/46/25 155/55/25 157/56/25 129/57/25
f 146/30/14 143/29/14 151/28/14 153/31/14
f 707/1/1 706/2/1 166/3/1 170/4/1
f 708/5/2 169/6/2 174/7/2 704/8/2
f 165/9/3 166/9/3 167/10/3
f 168/11/4 169/12/4 170/12/4
f 171/13/5 172/13/5 173/14/5
f 174/7/6 175/15/6 176/16/6
f 701/17/7 172/18/7 171/13/7 702/19/7
f 170/4/8 166/3/8 165/9/8 168/20/8
f 705/21/9 167/10/9 166/3/9 706/2/9
f 707/1/10 170/4/10 169/22/10 708/23/10
f 172/18/11 176/24/11 175/25/11 173/14/11
f 167/26/12 171/27/12 173/28/12 165/29/12
f 168/11/13 175/15/13 174/7/13 169/6/13
f 168/30/14 165/29/14 173/28/14 175/31/14
f 196/32/15 205/33/15 211/34/15 200/35/15
f 204/24/16 201/18/16 213/36/16 215/37/16
f 209/38/1 206/39/1 195/3/1 199/4/1
f 210/40/2 198/6/2 202/7/2 214/41/2
f 194/9/3 195/9/3 196/10/3
f 197/11/4 198/12/4 199/12/4
f 200/13/5 201/13/5 230/14/5
f 202/7/6 203/15/6 204/16/6
f 205/42/17 206/42/17 207/43/17
f 208/44/18 209/45/18 210/45/18
f 211/46/19 212/47/19 213/48/19
f 214/41/20 215/49/20 184/50/20
f 213/36/7 201/18/7 200/13/7 211/51/7
f 204/16/21 215/49/21 214/41/21 202/7/21
f 199/4/8 195/3/8 194/9/8 197/20/8
f 205/42/9 196/10/9 195/3/9 206/39/9
f 215/37/22 213/36/22 212/52/22 184/53/22
f 184/50/23 208/54/23 210/40/23 214/41/23
f 209/38/10 199/4/10 198/22/10 210/45/10
f 201/18/11 204/24/11 203/25/11 230/14/11
f 206/39/24 209/38/24 208/44/24 207/43/24
f 196/26/12 200/27/12 230/28/12 194/29/12
f 197/11/13 203/15/13 202/7/13 198/6/13
f 211/46/25 205/55/25 207/56/25 212/57/25
f 197/30/14 194/29/14 230/28/14 203/31/14
f 217/32/15 225/33/15 229/34/15 221/35/15
f 224/24/16 222/18/16 231/36/16 233/37/16
f 227/38/1 226/39/1 216/3/1 220/4/1
f 228/40/2 219/6/2 223/7/2 232/41/2
f 236/9/3 216/9/3 217/10/3
f 218/11/4 219/12/4 220/12/4
f 221/13/5 222/13/5 240/14/5
f 223/7/6 244/15/6 224/16/6
f 225/42/17 226/42/17 194/43/17
f 197/44/18 227/45/18 228/45/18
f 229/46/19 230/47/19 231/48/19
f 232/41/20 233/49/20 203/50/20
f 231/36/7 222/18/7 221/13/7 229/51/7
f 224/16/21 233/49/21 232/41/21 223/7/21
f 220/4/8 216/3/8 236/9/8 218/20/8
f 225/42/9 217/10/9 216/3/9 226/39/9
f 233/37/22 231/36/22 230/52/22 203/53/22
f 203/50/23 197/54/23 228/40/23 232/41/23
f 227/38/10 220/4/10 219/22/10 228/45/10
f 222/18/11 224/24/11 244/25/11 240/14/11
f 226/39/24 227/38/24 197/44/24 194/43/24
f 217/26/12 221/27/12 240/28/12 236/29/12
f 218/11/13 244/15/13 223/7/13 219/6/13
f 229/46/25 225/55/25 194/56/25 230/57/25
f 218/30/14 236/29/14 240/28/14 244/31/14
f 665/58/15 234/33/15 239/34/15 662/59/15
f 663/60/16 661/17/16 241/36/16 243/37/16
f 234/42/17 235/42/17 236/43/17
f 218/44/18 237/45/18 238/45/18
f 239/46/19 240/47/19 241/48/19
f 242/41/20 243/49/20 244/50/20
f 663/61/21 243/49/21 242/41/21 664/8/21
f 243/37/22 241/36/22 240/52/22 244/53/22
f 244/50/23 218/54/23 238/40/23 242/41/23
f 235/39/24 237/38/24 218/44/24 236/43/24
f 239/46/25 234/55/25 236/56/25 240/57/25
f 250/32/15 259/33/15 263/34/15 253/35/15
f 258/24/16 254/18/16 264/36/16 266/37/16
f 261/38/1 260/39/1 249/3/1 252/4/1
f 262/40/2 251/6/2 256/7/2 265/41/2
f 248/9/26 249/9/26 250/10/26
f 268/11/27 251/12/27 252/12/27
f 253/13/28 254/13/28 255/14/28
f 256/7/29 257/15/29 258/16/29
f 259/42/17 260/42/17 245/43/17
f 246/44/18 261/45/18 262/45/18
f 263/46/19 247/47/19 264/48/19
f 265/41/20 266/49/20 267/50/20
f 264/36/7 254/18/7 253/13/7 263/51/7
f 258/16/21 266/49/21 265/41/21 256/7/21
f 252/4/30 249/3/30 248/9/30 268/20/30
f 259/42/9 250/10/9 249/3/9 260/39/9
f 266/37/22 264/36/22 247/52/22 267/53/22
f 267/50/23 246/54/23 262/40/23 265/41/23
f 261/38/10 252/4/10 251/22/10 262/45/10
f 254/18/31 258/24/31 257/25/31 255/14/31
f 260/39/24 261/38/24 246/44/24 245/43/24
f 250/26/32 253/27/32 255/28/32 248/29/32
f 268/11/33 257/15/33 256/7/33 251/6/33
f 263/46/25 259/55/25 245/56/25 247/57/25
f 699/1/1 698/2/1 293/3/1 297/4/1
f 700/5/2 296/6/2 301/7/2 696/8/2
f 303/9/3 293/9/3 294/10/3
f 295/11/4 296/12/4 297/12/4
f 298/13/5 299/13/5 300/14/5
f 301/7/6 304/15/6 302/16/6
f 693/17/7 299/18/7 298/13/7 694/19/7
f 297/4/8 293/3/8 303/9/8 295/20/8
f 697/21/9 294/10/9 293/3/9 698/2/9
f 699/1/10 297/4/10 296/22/10 700/23/10
f 299/18/11 302/24/11 304/25/11 300/14/11
f 294/26/12 298/27/12 300/28/12 303/29/12
f 295/11/13 304/15/13 301/7/13 296/6/13
f 295/30/14 303/29/14 300/28/14 304/31/14
f 309/30/14 308/29/14 305/28/14 316/31/14
f 657/58/15 306/33/15 312/34/15 654/59/15
f 655/60/16 653/17/16 313/36/16 315/37/16
f 306/42/17 307/42/17 308/43/17
f 309/44/18 310/45/18 311/45/18
f 312/46/19 305/47/19 313/48/19
f 314/41/20 315/49/20 316/50/20
f 655/61/21 315/49/21 314/41/21 656/8/21
f 315/37/22 313/36/22 305/52/22 316/53/22
f 316/50/23 309/54/23 311/40/23 314/41/23
f 307/39/24 310/38/24 309/44/24 308/43/24
f 312/46/25 306/55/25 308/56/25 305/57/25
f 344/32/15 354/33/15 359/34/15 348/35/15
f 353/24/16 349/18/16 361/36/16 363/37/16
f 357/38/1 355/39/1 343/3/1 347/4/1
f 358/40/2 346/6/2 351/7/2 362/41/2
f 342/9/3 343/9/3 344/10/3
f 345/11/4 346/12/4 347/12/4
f 348/13/5 349/13/5 350/14/5
f 351/7/6 352/15/6 353/16/6
f 354/42/34 355/42/34 356/43/34
f 341/44/35 357/45/35 358/45/35
f 359/46/36 360/47/36 361/48/36
f 362/41/37 363/49/37 364/50/37
f 361/36/7 349/18/7 348/13/7 359/51/7
f 353/16/21 363/49/21 362/41/21 351/7/21
f 347/4/8 343/3/8 342/9/8 345/20/8
f 354/42/9 344/10/9 343/3/9 355/39/9
f 363/37/38 361/36/38 360/52/38 364/53/38
f 364/50/39 341/54/39 358/40/39 362/41/39
f 357/38/10 347/4/10 346/22/10 358/45/10
f 349/18/11 353/24/11 352/25/11 350/14/11
f 355/39/40 357/38/40 341/44/40 356/43/40
f 344/26/12 348/27/12 350/28/12 342/29/12
f 345/11/13 352/15/13 351/7/13 346/6/13
f 359/46/41 354/55/41 356/56/41 360/57/41
f 345/30/14 342/29/14 350/28/14 352/31/14
f 691/1/1 690/2/1 366/3/1 370/4/1
f 692/5/2 369/6/2 373/7/2 688/8/2
f 365/9/3 366/9/3 367/10/3
f 368/11/4 369/12/4 370/12/4
f 371/13/5 372/13/5 375/14/5
f 373/7/6 376/15/6 374/16/6
f 685/17/7 372/18/7 371/13/7 686/19/7
f 370/4/8 366/3/8 365/9/8 368/20/8
f 689/21/9 367/10/9 366/3/9 690/2/9
f 691/1/10 370/4/10 369/22/10 692/23/10
f 372/18/11 374/24/11 376/25/11 375/14/11
f 367/26/12 371/27/12 375/28/12 365/29/12
f 368/11/13 376/15/13 373/7/13 369/6/13
f 378/30/14 377/29/14 379/28/14 388/31/14
f 649/58/15 380/33/15 384/34/15 646/59/15
f 647/60/16 645/17/16 385/36/16 387/37/16
f 380/42/17 381/42/17 377/43/17
f 378/44/18 382/45/18 383/45/18
f 384/46/19 379/47/19 385/48/19
f 386/41/20 387/49/20 388/50/20
f 647/61/21 387/49/21 386/41/21 648/8/21
f 387/37/22 385/36/22 379/52/22 388/53/22
f 388/50/23 378/54/23 383/40/23 386/41/23
f 381/39/24 382/38/24 378/44/24 377/43/24
f 384/46/25 380/55/25 377/56/25 379/57/25
f 394/32/15 402/33/15 407/34/15 397/35/15
f 401/24/16 398/18/16 408/36/16 410/37/16
f 405/38/1 403/39/1 393/3/1 396/4/1
f 406/40/2 395/6/2 400/7/2 409/41/2
f 392/9/3 393/9/3 394/10/3
f 423/11/4 395/12/4 396/12/4
f 397/13/5 398/13/5 399/14/5
f 400/7/6 430/15/6 401/16/6
f 402/42/17 403/42/17 404/43/17
f 389/44/18 405/45/18 406/45/18
f 407/46/19 390/47/19 408/48/19
f 409/41/20 410/49/20 391/50/20
f 408/36/7 398/18/7 397/13/7 407/51/7
f 401/16/21 410/49/21 409/41/21 400/7/21
f 396/4/8 393/3/8 392/9/8 423/20/8
f 402/42/9 394/10/9 393/3/9 403/39/9
f 410/37/22 408/36/22 390/52/22 391/53/22
f 391/50/23 389/54/23 406/40/23 409/41/23
f 405/38/10 396/4/10 395/22/10 406/45/10
f 398/18/11 401/24/11 430/25/11 399/14/11
f 403/39/24 405/38/24 389/44/24 404/43/24
f 394/26/12 397/27/12 399/28/12 392/29/12
f 423/11/13 430/15/13 400/7/13 395/6/13
f 407/46/25 402/55/25 404/56/25 390/57/25
f 423/30/14 392/29/14 399/28/14 430/31/14
f 412/32/15 421/33/15 426/34/15 416/35/15
f 420/24/16 417/18/16 427/36/16 429/37/16
f 424/38/1 422/39/1 411/3/1 415/4/1
f 425/40/42 414/6/42 419/7/42 428/41/42
f 441/9/3 411/9/3 412/10/3
f 413/11/4 414/12/4 415/12/4
f 416/13/5 417/13/5 418/14/5
f 419/7/6 448/15/6 420/16/6
f 421/42/17 422/42/17 392/43/17
f 423/44/18 424/45/18 425/45/18
f 426/46/19 399/47/19 427/48/19
f 428/41/20 429/49/20 430/50/20
f 427/36/7 417/18/7 416/13/7 426/51/7
f 420/16/43 429/49/43 428/41/43 419/7/43
f 415/4/8 411/3/8 441/9/8 413/20/8
f 421/42/9 412/10/9 411/3/9 422/39/9
f 429/37/22 427/36/22 399/52/22 430/53/22
f 430/50/23 423/54/23 425/40/23 428/41/23
f 424/38/44 415/4/44 414/22/44 425/45/44
f 417/18/11 420/24/11 448/25/11 418/14/11
f 422/39/24 424/38/24 423/44/24 392/43/24
f 412/26/12 416/27/12 418/28/12 441/29/12
f 413/11/13 448/15/13 419/7/13 414/6/13
f 426/46/25 421/55/25 392/56/25 399/57/25
f 413/30/14 441/29/14 418/28/14 448/31/14
f 451/32/15 461/33/15 467/34/15 455/35/15
f 460/24/16 456/18/16 469/36/16 471/37/16
f 472/62/48 468/57/48 463/56/48 464/63/48
f 465/38/1 462/39/1 450/3/1 454/4/1
f 466/40/2 453/6/2 458/7/2 470/41/2
f 449/9/3 450/9/3 451/10/3
f 452/11/4 453/12/4 454/12/4
f 455/13/5 456/13/5 457/14/5
f 458/7/6 459/15/6 460/16/6
f 461/42/17 462/42/17 463/43/17
f 464/44/18 465/45/18 466/45/18
f 467/46/19 468/47/19 469/48/19
f 470/41/20 471/49/20 472/50/20
f 469/36/7 456/18/7 455/13/7 467/51/7
f 460/16/21 471/49/21 470/41/21 458/7/21
f 454/4/8 450/3/8 449/9/8 452/20/8
f 461/42/9 451/10/9 450/3/9 462/39/9
f 471/37/22 469/36/22 468/52/22 472/53/22
f 472/50/23 464/54/23 466/40/23 470/41/23
f 465/38/10 454/4/10 453/22/10 466/45/10
f 456/18/11 460/24/11 459/25/11 457/14/11
f 462/39/24 465/38/24 464/44/24 463/43/24
f 451/26/12 455/27/12 457/28/12 449/29/12
f 452/11/13 459/15/13 458/7/13 453/6/13
f 467/46/25 461/55/25 463/56/25 468/57/25
f 452/30/14 449/29/14 457/28/14 459/31/14
f 683/1/1 682/2/1 474/3/1 477/4/1
f 684/5/2 476/6/2 481/7/2 680/8/2
f 473/9/3 474/9/3 475/10/3
f 494/11/4 476/12/4 477/12/4
f 478/13/5 479/13/5 480/14/5
f 481/7/6 501/15/6 482/16/6
f 677/17/7 479/18/7 478/13/7 678/19/7
f 477/4/8 474/3/8 473/9/8 494/20/8
f 681/21/9 475/10/9 474/3/9 682/2/9
f 683/1/10 477/4/10 476/22/10 684/23/10
f 479/18/11 482/24/11 501/25/11 480/14/11
f 475/26/12 478/27/12 480/28/12 473/29/12
f 494/11/13 501/15/13 481/7/13 476/6/13
f 494/30/14 473/29/14 480/28/14 501/31/14
f 504/32/15 512/33/15 518/34/15 508/35/15
f 511/24/16 509/18/16 520/36/16 522/37/16
f 516/38/1 513/39/1 503/3/1 507/4/1
f 517/40/2 506/6/2 510/7/2 521/41/2
f 502/9/3 503/9/3 504/10/3
f 505/11/4 506/12/4 507/12/4
f 508/13/5 509/13/5 539/14/5
f 510/7/6 543/15/6 511/16/6
f 512/42/17 513/42/17 514/43/17
f 515/44/18 516/45/18 517/45/18
f 518/46/19 519/47/19 520/48/19
f 521/41/20 522/49/20 490/50/20
f 520/36/7 509/18/7 508/13/7 518/51/7
f 511/16/21 522/49/21 521/41/21 510/7/21
f 507/4/8 503/3/8 502/9/8 505/20/8
f 512/42/9 504/10/9 503/3/9 513/39/9
f 522/37/22 520/36/22 519/52/22 490/53/22
f 490/50/23 515/54/23 517/40/23 521/41/23
f 516/38/10 507/4/10 506/22/10 517/45/10
f 509/18/11 511/24/11 543/25/11 539/14/11
f 513/39/24 516/38/24 515/44/24 514/43/24
f 504/26/12 508/27/12 539/28/12 502/29/12
f 505/11/13 543/15/13 510/7/13 506/6/13
f 518/46/25 512/55/25 514/56/25 519/57/25
f 505/30/14 502/29/14 539/28/14 543/31/14
f 525/32/15 534/33/15 538/34/15 528/35/15
f 533/24/16 529/18/16 540/36/16 542/37/16
f 536/38/1 535/39/1 524/3/1 527/4/1
f 537/40/2 526/6/2 531/7/2 541/41/2
f 523/9/3 524/9/3 525/10/3
f 546/11/4 526/12/4 527/12/4
f 528/13/5 529/13/5 530/14/5
f 531/7/6 532/15/6 533/16/6
f 534/42/17 535/42/17 502/43/17
f 505/44/18 536/45/18 537/45/18
f 538/46/19 539/47/19 540/48/19
f 541/41/20 542/49/20 543/50/20
f 540/36/7 529/18/7 528/13/7 538/51/7
f 533/16/21 542/49/21 541/41/21 531/7/21
f 527/4/8 524/3/8 523/9/8 546/20/8
f 534/42/9 525/10/9 524/3/9 535/39/9
f 542/37/22 540/36/22 539/52/22 543/53/22
f 543/50/23 505/54/23 537/40/23 541/41/23
f 536/38/10 527/4/10 526/22/10 537/45/10
f 529/18/11 533/24/11 532/25/11 530/14/11
f 535/39/24 536/38/24 505/44/24 502/43/24
f 525/26/12 528/27/12 530/28/12 523/29/12
f 546/11/13 532/15/13 531/7/13 526/6/13
f 538/46/25 534/55/25 502/56/25 539/57/25
f 641/58/15 544/33/15 549/34/15 638/59/15
f 639/60/16 637/17/16 550/36/16 552/37/16
f 544/42/17 545/42/17 523/43/17
f 546/44/18 547/45/18 548/45/18
f 549/46/19 530/47/19 550/48/19
f 551/41/20 552/49/20 532/50/20
f 639/61/21 552/49/21 551/41/21 640/8/21
f 552/37/22 550/36/22 530/52/22 532/53/22
f 532/50/23 546/54/23 548/40/23 551/41/23
f 545/39/24 547/38/24 546/44/24 523/43/24
f 549/46/25 544/55/25 523/56/25 530/57/25
f 575/32/15 583/33/15 588/34/15 579/35/15
f 582/24/16 580/18/16 590/36/16 592/37/16
f 586/38/1 584/39/1 574/3/1 578/4/1
f 587/40/2 577/6/2 581/7/2 591/41/2
f 606/9/3 574/9/3 575/10/3
f 576/11/4 577/12/4 578/12/4
f 579/13/5 580/13/5 610/14/5
f 581/7/6 614/15/6 582/16/6
f 583/42/17 584/42/17 585/43/17
f 557/44/18 586/45/18 587/45/18
f 588/46/19 589/47/19 590/48/19
f 591/41/20 592/49/20 593/50/20
f 590/36/7 580/18/7 579/13/7 588/51/7
f 582/16/21 592/49/21 591/41/21 581/7/21
f 578/4/8 574/3/8 606/9/8 576/20/8
f 583/42/9 575/10/9 574/3/9 584/39/9
f 592/37/22 590/36/22 589/52/22 593/53/22
f 593/50/23 557/54/23 587/40/23 591/41/23
f 586/38/10 578/4/10 577/22/10 587/45/10
f 580/18/11 582/24/11 614/25/11 610/14/11
f 584/39/24 586/38/24 557/44/24 585/43/24
f 575/26/12 579/27/12 610/28/12 606/29/12
f 576/11/13 614/15/13 581/7/13 577/6/13
f 588/46/25 583/55/25 585/56/25 589/57/25
f 576/30/14 606/29/14 610/28/14 614/31/14
f 595/32/15 604/33/15 609/34/15 598/35/15
f 603/24/16 599/18/16 611/36/16 613/37/16
f 607/38/1 605/39/1 594/3/1 597/4/1
f 608/40/2 596/6/2 601/7/2 612/41/2
f 629/9/3 594/9/3 595/10/3
f 630/11/4 596/12/4 597/12/4
f 598/13/5 599/13/5 600/14/5
f 601/7/6 602/15/6 603/16/6
f 604/42/17 605/42/17 606/43/17
f 576/44/18 607/45/18 608/45/18
f 609/46/19 610/47/19 611/48/19
f 612/41/20 613/49/20 614/50/20
f 611/36/7 599/18/7 598/13/7 609/51/7
f 603/16/21 613/49/21 612/41/21 601/7/21
f 597/4/8 594/3/8 629/9/8 630/20/8
f 604/42/9 595/10/9 594/3/9 605/39/9
f 613/37/22 611/36/22 610/52/22 614/53/22
f 614/50/23 576/54/23 608/40/23 612/41/23
f 607/38/10 597/4/10 596/22/10 608/45/10
f 599/18/11 603/24/11 602/25/11 600/14/11
f 605/39/24 607/38/24 576/44/24 606/43/24
f 595/26/12 598/27/12 600/28/12 629/29/12
f 630/11/13 602/15/13 601/7/13 596/6/13
f 609/46/25 604/55/25 606/56/25 610/57/25
f 630/30/14 629/29/14 600/28/14 602/31/14
f 617/32/15 627/33/15 633/34/15 621/35/15
f 626/24/16 622/18/16 634/36/16 636/37/16
f 631/38/1 628/39/1 616/3/1 620/4/1
f 632/40/2 619/6/2 624/7/2 635/41/2
f 615/9/3 616/9/3 617/10/3
f 618/11/4 619/12/4 620/12/4
f 621/13/5 622/13/5 623/14/5
f 624/7/6 625/15/6 626/16/6
f 627/42/17 628/42/17 629/43/17
f 630/44/18 631/45/18 632/45/18
f 633/46/19 600/47/19 634/48/19
f 635/41/20 636/49/20 602/50/20
f 634/36/7 622/18/7 621/13/7 633/51/7
f 626/16/21 636/49/21 635/41/21 624/7/21
f 620/4/8 616/3/8 615/9/8 618/20/8
f 627/42/9 617/10/9 616/3/9 628/39/9
f 636/37/22 634/36/22 600/52/22 602/53/22
f 602/50/23 630/54/23 632/40/23 635/41/23
f 631/38/10 620/4/10 619/22/10 632/45/10
f 622/18/11 626/24/11 625/25/11 623/14/11
f 628/39/24 631/38/24 630/44/24 629/43/24
f 617/26/12 621/27/12 623/28/12 615/29/12
f 618/11/13 625/15/13 624/7/13 619/6/13
f 633/46/25 627/55/25 629/56/25 600/57/25
f 618/30/14 615/29/14 623/28/14 625/31/14
f 644/23/14 643/1/14 642/2/14 641/21/14
f 641/58/14 638/59/14 640/8/14 644/5/14
f 640/8/14 638/19/14 637/17/14 639/61/14
f 652/23/14 651/1/14 650/2/14 649/21/14
f 649/58/14 646/59/14 648/8/14 652/5/14
f 648/8/14 646/19/14 645/17/14 647/61/14
f 660/23/14 659/1/14 658/2/14 657/21/14
f 657/58/14 654/59/14 656/8/14 660/5/14
f 656/8/14 654/19/14 653/17/14 655/61/14
f 668/23/14 667/1/14 666/2/14 665/21/14
f 665/58/14 662/59/14 664/8/14 668/5/14
f 664/8/14 662/19/14 661/17/14 663/61/14
f 547/38/10 643/1/10 644/23/10 548/45/10
f 544/42/9 641/21/9 642/2/9 545/39/9
f 550/36/7 637/17/7 638/19/7 549/51/7
f 548/40/2 644/5/2 640/8/2 551/41/2
f 547/38/1 545/39/1 642/2/1 643/1/1
f 382/38/10 651/1/10 652/23/10 383/45/10
f 380/42/9 649/21/9 650/2/9 381/39/9
f 385/36/7 645/17/7 646/19/7 384/51/7
f 383/40/2 652/5/2 648/8/2 386/41/2
f 382/38/1 381/39/1 650/2/1 651/1/1
f 310/38/10 659/1/10 660/23/10 311/45/10
f 306/42/9 657/21/9 658/2/9 307/39/9
f 313/36/7 653/17/7 654/19/7 312/51/7
f 311/40/2 660/5/2 656/8/2 314/41/2
f 310/38/1 307/39/1 658/2/1 659/1/1
f 237/38/10 667/1/10 668/23/10 238/45/10
f 234/42/9 665/21/9 666/2/9 235/39/9
f 241/36/7 661/17/7 662/19/7 239/51/7
f 238/40/2 668/5/2 664/8/2 242/41/2
f 237/38/1 235/39/1 666/2/1 667/1/1
f 100/57/48 95/56/48 96/44/48 104/50/48
f 245/56/48 246/54/48 267/53/48 247/57/48
f 391/50/48 390/57/48 404/43/48 389/54/48
f 482/16/21 679/61/21 680/8/21 481/7/21
f 482/24/16 479/18/16 677/17/16 679/60/16
f 475/32/15 681/58/15 678/59/15 478/35/15
f 374/16/21 687/61/21 688/8/21 373/7/21
f 374/24/16 372/18/16 685/17/16 687/60/16
f 367/32/15 689/58/15 686/59/15 371/35/15
f 302/16/21 695/61/21 696/8/21 301/7/21
f 708/23/48 705/21/48 706/2/48 707/1/48
f 705/58/48 708/5/48 704/8/48 702/59/48
f 302/24/16 299/18/16 693/17/16 695/60/16
f 294/32/15 697/58/15 694/59/15 298/35/15
f 704/8/48 703/61/48 701/17/48 702/19/48
f 699/1/48 700/5/48 697/21/48 698/2/48
f 176/16/21 703/61/21 704/8/21 174/7/21
f 696/8/48 694/19/48 697/58/48 700/5/48
f 696/8/48 695/60/48 693/17/48 694/19/48
f 691/1/48 692/5/48 689/21/48 690/2/48
f 176/24/16 172/18/16 701/17/16 703/60/16
f 167/32/15 705/58/15 702/59/15 171/35/15
f 688/8/48 686/19/48 689/58/48 692/5/48
f 688/8/48 687/60/48 685/17/48 686/19/48
f 683/1/48 684/5/48 681/21/48 682/2/48
f 680/8/48 678/19/48 681/58/48 684/5/48
f 680/8/48 679/60/48 677/17/48 678/19/48
usemtl black.018
f 862/76/48 858/64/48 860/67/48 864/77/48
f 862/70/1 861/71/1 857/65/1 858/64/1
f 864/72/15 863/73/15 861/71/15 862/70/15
f 860/67/16 859/66/16 863/74/16 864/75/16
f 857/65/14 861/68/14 863/69/14 859/66/14
f 858/64/2 857/65/2 859/66/2 860/67/2
f 865/72/15 866/73/15 868/71/15 867/70/15
f 867/70/1 868/71/1 872/65/1 871/64/1
f 871/64/2 872/65/2 870/66/2 869/67/2
f 869/67/16 870/66/16 866/74/16 865/75/16
f 867/76/48 871/64/48 869/67/48 865/77/48
f 872/65/14 868/68/14 866/69/14 870/66/14
f 873/72/15 874/73/15 876/71/15 875/70/15
f 875/70/1 876/71/1 880/65/1 879/64/1
f 879/64/2 880/65/2 878/66/2 877/67/2
f 877/67/16 878/66/16 874/74/16 873/75/16
f 875/76/48 879/64/48 877/67/48 873/77/48
f 880/65/14 876/68/14 874/69/14 878/66/14
