# Blender 5.2.1 LTS
# www.blender.org
mtllib Wall_Door.mtl
o EXPORT_Wall_Door
v 1.062385 0.000000 0.042871
v 1.062385 2.357723 0.042871
v 1.062385 0.000000 -0.147144
v 1.062385 2.357723 -0.147144
v -1.048894 0.000000 0.042871
v -1.048894 2.357723 0.042871
v -1.048894 0.000000 -0.147144
v -1.048894 2.357723 -0.147144
v -1.062385 0.600625 0.072897
v -0.851258 0.633227 0.072897
v -1.062385 0.858097 0.072897
v -0.851258 0.825495 0.072897
v -0.640130 0.647134 0.072897
v -0.640130 0.811588 0.072897
v -0.429002 0.666100 0.072897
v -0.429002 0.792622 0.072897
v -0.217874 0.641146 0.072897
v -0.217874 0.817576 0.072897
v -0.006746 0.698782 0.072897
v -0.006746 0.759940 0.072897
v -1.062385 1.616717 0.072897
v -0.851258 1.645243 0.072897
v -1.062385 1.842005 0.072897
v -0.851258 1.813479 0.072897
v -0.640130 1.657413 0.072897
v -0.640130 1.801309 0.072897
v -0.429002 1.674008 0.072897
v -0.429002 1.784714 0.072897
v -0.217874 1.652173 0.072897
v -0.217874 1.806550 0.072897
v -0.006746 1.702604 0.072897
v -0.006746 1.756118 0.072897
v -1.062385 0.600625 -0.185234
v -0.851258 0.633227 -0.185234
v -1.062385 0.858097 -0.185234
v -0.851258 0.825495 -0.185234
v -0.640130 0.647134 -0.185234
v -0.640130 0.811588 -0.185234
v -0.429002 0.666100 -0.185234
v -0.429002 0.792622 -0.185234
v -0.217874 0.641146 -0.185234
v -0.217874 0.817576 -0.185234
v -0.006746 0.698782 -0.185234
v -0.006746 0.759940 -0.185234
v -1.062385 1.616717 -0.185234
v -0.851258 1.645243 -0.185234
v -1.062385 1.842005 -0.185234
v -0.851258 1.813479 -0.185234
v -0.640130 1.657413 -0.185234
v -0.640130 1.801309 -0.185234
v -0.429002 1.674008 -0.185234
v -0.429002 1.784714 -0.185234
v -0.217874 1.652173 -0.185234
v -0.217874 1.806550 -0.185234
v -0.006746 1.702604 -0.185234
v -0.006746 1.756118 -0.185234
v 0.501545 0.000000 -0.147144
v 0.565701 0.000000 -0.147144
v -0.026275 0.000000 -0.147144
v 0.039767 0.000000 -0.147144
v 0.039758 2.846277 -0.147144
v -0.026266 2.846277 -0.147144
v 0.565542 2.746990 -0.147144
v 0.501553 2.773268 -0.147144
v 0.039767 0.036153 0.004707
v -0.026275 0.000000 0.042871
v 0.565701 0.036153 0.004707
v 0.501545 0.000000 0.042871
v 0.486374 2.740098 0.004707
v 0.565542 2.746990 0.042871
v -0.026266 2.810124 0.004707
v 0.039758 2.846277 0.042871
v -0.552209 0.000000 -0.147144
v -0.488053 0.000000 -0.147144
v -0.488062 2.773268 -0.147144
v -0.552050 2.746990 -0.147144
v -0.488053 0.036153 0.004707
v -0.552209 0.000000 0.042871
v -0.536870 2.713820 0.004707
v -0.488062 2.773268 0.042871
v 0.486374 2.740098 -0.108980
v 0.501553 2.773268 0.042871
v 0.550362 2.713820 0.004707
v 0.550362 2.713820 -0.108980
v -0.026266 2.810124 -0.108980
v -0.026266 2.846277 0.042871
v 0.039758 2.810124 0.004707
v 0.039758 2.810124 -0.108980
v 0.039767 0.036153 -0.108980
v 0.039767 0.000000 0.042871
v -0.026275 0.036153 0.004707
v -0.026275 0.036153 -0.108980
v 0.565701 0.036153 -0.108980
v 0.565701 0.000000 0.042871
v 0.501545 0.036153 0.004707
v 0.501545 0.036153 -0.108980
v -0.536870 2.713820 -0.108980
v -0.552050 2.746990 0.042871
v -0.472882 2.740098 0.004707
v -0.472882 2.740098 -0.108980
v -0.488053 0.036153 -0.108980
v -0.488053 0.000000 0.042871
v -0.552209 0.036153 0.004707
v -0.552209 0.036153 -0.108980
v 0.803326 1.448260 -0.006879
v 0.803326 1.448260 0.082019
v 0.942797 1.371981 -0.006879
v 0.942797 1.371981 0.082019
v 0.942797 1.219422 -0.006879
v 0.942797 1.219422 0.082019
v 0.803326 1.143143 -0.006879
v 0.803326 1.143143 0.082019
v 0.663855 1.219422 -0.006879
v 0.663855 1.219422 0.082019
v 0.663855 1.371981 -0.006879
v 0.663855 1.371981 0.082019
v 0.966211 1.178374 0.119513
v 0.933351 1.178374 0.152374
v 0.900490 1.178374 0.119513
v 0.933351 1.178374 0.086653
v 0.884060 1.313164 0.119513
v 0.867630 1.286206 0.152374
v 0.851200 1.259248 0.119513
v 0.867630 1.286206 0.086653
v 0.719758 1.313164 0.119513
v 0.736188 1.286206 0.152374
v 0.752619 1.259248 0.119513
v 0.736188 1.286206 0.086653
v 0.637607 1.178374 0.119513
v 0.670468 1.178374 0.152374
v 0.703328 1.178374 0.119513
v 0.670468 1.178374 0.086653
v 0.719758 1.043584 0.119513
v 0.736188 1.070542 0.152374
v 0.752619 1.097500 0.119513
v 0.736188 1.070542 0.086653
v 0.884060 1.043584 0.119513
v 0.867630 1.070542 0.152374
v 0.851200 1.097500 0.119513
v 0.867630 1.070542 0.086653
v 0.801910 1.285187 0.053793
v 0.849667 1.285187 0.066937
v 0.801910 1.285187 0.091652
v 0.754152 1.285187 0.066937
v 0.801910 1.351220 0.086653
v 0.849667 1.338014 0.093225
v 0.801910 1.313181 0.105583
v 0.754152 1.338014 0.093225
v 0.801910 1.351220 0.152374
v 0.849668 1.338014 0.145802
v 0.801910 1.313181 0.133444
v 0.754152 1.338014 0.145802
v 0.801910 1.285187 0.185234
v 0.849668 1.285187 0.172090
v 0.801910 1.285187 0.147375
v 0.754152 1.285187 0.172090
v 0.801910 1.219153 0.152374
v 0.849667 1.232360 0.145802
v 0.801910 1.257193 0.133444
v 0.754152 1.232360 0.145802
v 0.801910 1.219153 0.086653
v 0.849667 1.232360 0.093225
v 0.801910 1.257193 0.105583
v 0.754152 1.232360 0.093225
vn -0.0000 -1.0000 -0.0000
vn 1.0000 -0.0000 -0.0000
vn -0.0000 -0.0000 -1.0000
vn -0.0000 -0.0000 1.0000
vn -0.1562 0.9877 -0.0000
vn -0.6167 0.7872 -0.0000
vn -1.0000 -0.0000 -0.0000
vn 0.6167 0.7872 -0.0000
vn 0.1562 0.9877 -0.0000
vn 0.0575 -0.9983 -0.0000
vn 0.2634 -0.9647 -0.0000
vn 0.0575 0.9983 -0.0000
vn 0.2634 0.9647 -0.0000
vn 0.2323 -0.9726 -0.0000
vn 0.0895 -0.9960 -0.0000
vn 0.1526 -0.9883 -0.0000
vn 0.2323 0.9726 -0.0000
vn 0.0895 0.9960 -0.0000
vn 0.0784 -0.9969 -0.0000
vn 0.1339 -0.9910 -0.0000
vn 0.0784 0.9969 -0.0000
vn 0.1526 0.9883 -0.0000
vn -0.1174 -0.9931 -0.0000
vn 0.1339 0.9910 -0.0000
vn -0.1174 0.9931 -0.0000
vn -0.1029 -0.9947 -0.0000
vn 0.0657 -0.9978 -0.0000
vn -0.1029 0.9947 -0.0000
vn 0.0657 0.9978 -0.0000
vn 0.3799 0.9250 -0.0000
vn -0.0000 1.0000 -0.0000
vn -0.3799 0.9250 -0.0000
vn 0.9093 -0.4161 -0.0000
vn -0.9093 0.4161 -0.0000
vn 0.9808 0.0027 -0.1950
vn -0.9808 -0.0028 0.1949
vn -0.9808 -0.0028 -0.1949
vn 0.9808 0.0027 0.1950
vn 0.9093 0.4161 -0.0000
vn -0.9093 -0.4161 -0.0000
vn 0.9808 -0.0028 0.1949
vn -0.9808 0.0027 -0.1950
vn -0.9808 0.0027 0.1950
vn 0.9808 -0.0028 -0.1949
vn 0.4798 0.8774 -0.0000
vn 0.4798 -0.8774 -0.0000
vn -0.4798 -0.8774 -0.0000
vn -0.4798 0.8774 -0.0000
vn 0.6494 0.3958 0.6494
vn -0.6494 -0.3958 0.6494
vn -0.6494 -0.3958 -0.6494
vn 0.6494 0.3958 -0.6494
vn -0.0000 0.7731 0.6343
vn -0.0000 -0.7731 0.6343
vn -0.0000 -0.7731 -0.6343
vn -0.0000 0.7731 -0.6343
vn -0.6494 0.3958 0.6494
vn 0.6494 -0.3958 0.6494
vn 0.6494 -0.3958 -0.6494
vn -0.6494 0.3958 -0.6494
vn 0.2392 0.4326 -0.8693
vn 0.4204 -0.4042 0.8123
vn -0.4204 -0.4042 0.8123
vn -0.2392 0.4326 -0.8693
vn 0.2665 0.9638 -0.0000
vn 0.4613 -0.8872 -0.0000
vn -0.4613 -0.8872 -0.0000
vn -0.2665 0.9638 -0.0000
vn 0.2392 0.4326 0.8693
vn 0.4204 -0.4042 -0.8123
vn -0.4204 -0.4042 -0.8123
vn -0.2392 0.4326 0.8693
vn 0.2392 -0.4326 0.8693
vn 0.4204 0.4042 -0.8123
vn -0.4204 0.4042 -0.8123
vn -0.2392 -0.4326 0.8693
vn 0.2665 -0.9638 -0.0000
vn 0.4613 0.8872 -0.0000
vn -0.4613 0.8872 -0.0000
vn -0.2665 -0.9638 -0.0000
vn 0.2392 -0.4326 -0.8693
vn 0.4204 0.4042 0.8123
vn -0.4204 0.4042 0.8123
vn -0.2392 -0.4326 -0.8693
vt 0.253910 0.500000
vt 0.253910 0.750000
vt 0.308590 0.750000
vt 0.308590 0.500000
vt 0.375000 0.500000
vt 0.625000 0.500000
vt 0.625000 0.750000
vt 0.375000 0.750000
vt 0.375000 0.378910
vt 0.625000 0.378909
vt 0.625000 0.433591
vt 0.375000 0.433590
vt 0.375000 0.816410
vt 0.625000 0.816409
vt 0.625000 0.871091
vt 0.375000 0.871090
vt 0.691409 0.500000
vt 0.691409 0.750000
vt 0.746091 0.750000
vt 0.746091 0.500000
vt 0.375000 0.441187
vt 0.625000 0.441168
vt 0.316187 0.500000
vt 0.316187 0.750000
vt 0.683832 0.750000
vt 0.683832 0.500000
vt 0.625000 0.441168
vt 0.375000 0.808813
vt 0.625000 0.808832
vt 0.683832 0.500000
vt 0.683832 0.750000
vt 0.625000 0.808832
vt 0.691409 0.500000
vt 0.691409 0.750000
vt 0.000000 0.000000
vt 1.000000 0.000000
vt 1.000000 1.000000
vt 0.000000 1.000000
vt 1.000000 0.500000
vt 0.833333 1.000000
vt 0.833333 0.500000
vt 0.666667 1.000000
vt 0.666667 0.500000
vt 0.500000 1.000000
vt 0.500000 0.500000
vt 0.333333 1.000000
vt 0.333333 0.500000
vt 0.457846 0.370000
vt 0.250000 0.490000
vt 0.042154 0.370000
vt 0.042154 0.130000
vt 0.250000 0.010000
vt 0.457846 0.130000
vt 0.166667 1.000000
vt 0.166667 0.500000
vt -0.000000 1.000000
vt -0.000000 0.500000
vt 0.750000 0.490000
vt 0.957846 0.370000
vt 0.957846 0.130000
vt 0.750000 0.010000
vt 0.542154 0.130000
vt 0.542154 0.370000
vt 0.500000 0.500000
vt 0.666667 0.500000
vt 0.666667 0.750000
vt 0.500000 0.750000
vt 0.666667 1.000000
vt 0.500000 1.000000
vt 0.500000 0.000000
vt 0.666667 0.000000
vt 0.666667 0.250000
vt 0.500000 0.250000
vt 0.833333 0.750000
vt 0.833333 0.000000
vt 0.833333 0.250000
vt 1.000000 0.750000
vt 1.000000 0.250000
vt -0.000000 0.500000
vt 0.166667 0.500000
vt 0.166667 0.750000
vt -0.000000 0.750000
vt 0.166667 1.000000
vt -0.000000 1.000000
vt -0.000000 0.000000
vt 0.166667 0.000000
vt 0.166667 0.250000
vt -0.000000 0.250000
vt 0.333333 0.500000
vt 0.333333 0.750000
vt 0.333333 1.000000
vt 0.333333 0.000000
vt 0.333333 0.250000
s 1
usemtl dark_grey.002
f 9/35/4 10/36/4 12/37/4 11/38/4
f 12/37/4 10/36/4 13/36/4 14/37/4
f 14/37/4 13/36/4 15/36/4 16/37/4
f 16/37/4 15/36/4 17/36/4 18/37/4
f 18/37/4 17/36/4 19/36/4 20/37/4
f 21/35/4 22/36/4 24/37/4 23/38/4
f 24/37/4 22/36/4 25/36/4 26/37/4
f 26/37/4 25/36/4 27/36/4 28/37/4
f 28/37/4 27/36/4 29/36/4 30/37/4
f 30/37/4 29/36/4 31/36/4 32/37/4
f 33/35/3 35/38/3 36/37/3 34/36/3
f 36/37/3 38/37/3 37/36/3 34/36/3
f 38/37/3 40/37/3 39/36/3 37/36/3
f 40/37/3 42/37/3 41/36/3 39/36/3
f 42/37/3 44/37/3 43/36/3 41/36/3
f 45/35/3 47/38/3 48/37/3 46/36/3
f 48/37/3 50/37/3 49/36/3 46/36/3
f 50/37/3 52/37/3 51/36/3 49/36/3
f 52/37/3 54/37/3 53/36/3 51/36/3
f 54/37/3 56/37/3 55/36/3 53/36/3
f 22/36/10 46/36/10 49/36/10 25/36/10
f 17/36/11 41/36/11 43/36/11 19/36/11
f 31/36/2 55/36/2 56/37/2 32/37/2
f 26/37/12 50/37/12 48/37/12 24/37/12
f 11/38/7 35/38/7 33/35/7 9/35/7
f 20/37/13 44/37/13 42/37/13 18/37/13
f 29/36/14 53/36/14 55/36/14 31/36/14
f 13/36/15 37/36/15 39/36/15 15/36/15
f 9/35/16 33/35/16 34/36/16 10/36/16
f 23/38/7 47/38/7 45/35/7 21/35/7
f 32/37/17 56/37/17 54/37/17 30/37/17
f 16/37/18 40/37/18 38/37/18 14/37/18
f 25/36/19 49/36/19 51/36/19 27/36/19
f 21/35/20 45/35/20 46/36/20 22/36/20
f 28/37/21 52/37/21 50/37/21 26/37/21
f 12/37/22 36/37/22 35/38/22 11/38/22
f 15/36/23 39/36/23 41/36/23 17/36/23
f 24/37/24 48/37/24 47/38/24 23/38/24
f 18/37/25 42/37/25 40/37/25 16/37/25
f 27/36/26 51/36/26 53/36/26 29/36/26
f 10/36/27 34/36/27 37/36/27 13/36/27
f 19/36/2 43/36/2 44/37/2 20/37/2
f 30/37/28 54/37/28 52/37/28 28/37/28
f 14/37/29 38/37/29 36/37/29 12/37/29
f 105/39/45 106/37/45 108/40/45 107/41/45
f 107/41/2 108/40/2 110/42/2 109/43/2
f 109/43/46 110/42/46 112/44/46 111/45/46
f 111/45/47 112/44/47 114/46/47 113/47/47
f 108/48/4 106/49/4 116/50/4 114/51/4 112/52/4 110/53/4
f 113/47/7 114/46/7 116/54/7 115/55/7
f 115/55/48 116/54/48 106/56/48 105/57/48
f 105/58/3 107/59/3 109/60/3 111/61/3 113/62/3 115/63/3
f 117/64/49 121/65/49 122/66/49 118/67/49
f 118/67/50 122/66/50 123/68/50 119/69/50
f 119/70/51 123/71/51 124/72/51 120/73/51
f 120/73/52 124/72/52 121/65/52 117/64/52
f 121/65/53 125/41/53 126/74/53 122/66/53
f 122/66/54 126/74/54 127/40/54 123/68/54
f 123/71/55 127/75/55 128/76/55 124/72/55
f 124/72/56 128/76/56 125/41/56 121/65/56
f 125/41/57 129/39/57 130/77/57 126/74/57
f 126/74/58 130/77/58 131/37/58 127/40/58
f 127/75/59 131/36/59 132/78/59 128/76/59
f 128/76/60 132/78/60 129/39/60 125/41/60
f 129/79/50 133/80/50 134/81/50 130/82/50
f 130/82/49 134/81/49 135/83/49 131/84/49
f 131/85/52 135/86/52 136/87/52 132/88/52
f 132/88/51 136/87/51 133/80/51 129/79/51
f 133/80/54 137/89/54 138/90/54 134/81/54
f 134/81/53 138/90/53 139/91/53 135/83/53
f 135/86/56 139/92/56 140/93/56 136/87/56
f 136/87/55 140/93/55 137/89/55 133/80/55
f 137/89/58 117/64/58 118/67/58 138/90/58
f 138/90/57 118/67/57 119/69/57 139/91/57
f 139/92/60 119/70/60 120/73/60 140/93/60
f 140/93/59 120/73/59 117/64/59 137/89/59
f 141/64/61 145/65/61 146/66/61 142/67/61
f 142/67/62 146/66/62 147/68/62 143/69/62
f 143/70/63 147/71/63 148/72/63 144/73/63
f 144/73/64 148/72/64 145/65/64 141/64/64
f 145/65/65 149/41/65 150/74/65 146/66/65
f 146/66/66 150/74/66 151/40/66 147/68/66
f 147/71/67 151/75/67 152/76/67 148/72/67
f 148/72/68 152/76/68 149/41/68 145/65/68
f 149/41/69 153/39/69 154/77/69 150/74/69
f 150/74/70 154/77/70 155/37/70 151/40/70
f 151/75/71 155/36/71 156/78/71 152/76/71
f 152/76/72 156/78/72 153/39/72 149/41/72
f 153/79/73 157/80/73 158/81/73 154/82/73
f 154/82/74 158/81/74 159/83/74 155/84/74
f 155/85/75 159/86/75 160/87/75 156/88/75
f 156/88/76 160/87/76 157/80/76 153/79/76
f 157/80/77 161/89/77 162/90/77 158/81/77
f 158/81/78 162/90/78 163/91/78 159/83/78
f 159/86/79 163/92/79 164/93/79 160/87/79
f 160/87/80 164/93/80 161/89/80 157/80/80
f 161/89/81 141/64/81 142/67/81 162/90/81
f 162/90/82 142/67/82 143/69/82 163/91/82
f 163/92/83 143/70/83 144/73/83 164/93/83
f 164/93/84 144/73/84 141/64/84 161/89/84
usemtl brown.002
f 59/1/1 66/2/1 102/3/1 74/4/1
f 3/5/2 4/6/2 2/7/2 1/8/2
f 60/9/3 61/10/3 64/11/3 57/12/3
f 68/13/4 82/14/4 72/15/4 90/16/4
f 75/17/5 80/18/5 86/19/5 62/20/5
f 58/21/3 63/22/3 4/6/3 3/5/3
f 73/23/1 78/24/1 5/8/1 7/5/1
f 102/13/4 66/16/4 86/15/4 80/14/4
f 60/1/1 57/4/1 68/3/1 90/2/1
f 8/6/6 6/7/6 98/25/6 76/26/6
f 7/5/7 5/8/7 6/7/7 8/6/7
f 73/21/3 7/5/3 8/6/3 76/27/3
f 5/8/4 78/28/4 98/29/4 6/7/4
f 4/6/8 63/30/8 70/31/8 2/7/8
f 59/9/3 74/12/3 75/11/3 62/10/3
f 1/8/4 2/7/4 70/32/4 94/28/4
f 64/33/9 61/20/9 72/19/9 82/34/9
f 58/23/1 3/5/1 1/8/1 94/24/1
f 69/34/33 81/33/33 64/33/33 82/34/33
f 84/30/34 83/31/34 70/31/34 63/30/34
f 71/19/2 85/20/2 62/20/2 86/19/2
f 88/20/7 87/19/7 72/19/7 61/20/7
f 65/2/7 89/1/7 60/1/7 90/2/7
f 92/1/2 91/2/2 66/2/2 59/1/2
f 67/24/7 93/23/7 58/23/7 94/24/7
f 96/4/2 95/3/2 68/3/2 57/4/2
f 95/13/35 69/14/35 82/14/35 68/13/35
f 83/32/36 67/28/36 94/28/36 70/32/36
f 91/16/2 71/15/2 86/15/2 66/16/2
f 87/15/7 65/16/7 90/16/7 72/15/7
f 89/9/7 88/10/7 61/10/7 60/9/7
f 85/10/2 92/9/2 59/9/2 62/10/2
f 93/21/37 84/22/37 63/22/37 58/21/37
f 81/11/38 96/12/38 57/12/38 64/11/38
f 79/25/39 97/26/39 76/26/39 98/25/39
f 100/17/40 99/18/40 80/18/40 75/17/40
f 77/3/7 101/4/7 74/4/7 102/3/7
f 104/23/2 103/24/2 78/24/2 73/23/2
f 103/28/41 79/29/41 98/29/41 78/28/41
f 99/14/42 77/13/42 102/13/42 80/14/42
f 101/12/43 100/11/43 75/11/43 74/12/43
f 97/27/44 104/21/44 73/21/44 76/27/44
usemtl dark_brown.002
f 81/33/30 69/34/30 83/31/30 84/30/30
f 85/20/31 71/19/31 87/19/31 88/20/31
f 89/1/1 65/2/1 91/2/1 92/1/1
f 93/23/1 67/24/1 95/3/1 96/4/1
f 69/14/4 95/13/4 67/28/4 83/32/4
f 71/15/4 91/16/4 65/16/4 87/15/4
f 88/10/3 89/9/3 92/9/3 85/10/3
f 84/22/3 93/21/3 96/12/3 81/11/3
f 97/26/32 79/25/32 99/18/32 100/17/32
f 101/4/1 77/3/1 103/24/1 104/23/1
f 79/29/4 103/28/4 77/13/4 99/14/4
f 100/11/3 101/12/3 104/21/3 97/27/3
