# Blender 5.2.1 LTS
# www.blender.org
mtllib Wall_Brick.mtl
o EXPORT_Wall_Brick
v -0.818646 0.273831 -0.156276
v -0.818646 0.306262 -0.123845
v -0.789822 0.032431 -0.123845
v -0.818646 0.000000 -0.123845
v -0.818646 0.032431 -0.156276
v -0.818646 0.306262 0.123845
v -0.818646 0.273831 0.156276
v -0.789822 0.273831 0.123845
v -0.818646 0.000000 0.123845
v -0.789822 0.032431 0.123845
v -0.818646 0.032431 0.156276
v -0.263274 0.273831 -0.123845
v -0.292097 0.273831 -0.156276
v -0.292097 0.306262 -0.123845
v -0.263274 0.032431 -0.123845
v -0.292097 0.000000 -0.123845
v -0.292097 0.032431 -0.156276
v -0.292097 0.306262 0.123845
v -0.292097 0.273831 0.156276
v -0.263274 0.273831 0.123845
v -0.292097 0.000000 0.123845
v -0.292097 0.032431 0.156276
v -0.760999 0.306262 -0.123845
v -0.760999 0.273831 -0.156276
v -0.789822 0.273831 -0.123845
v -0.760999 0.032431 -0.156276
v -0.760999 0.000000 -0.123845
v -0.760999 0.306262 0.123845
v -0.760999 0.273831 0.156276
v -0.760999 0.000000 0.123845
v -0.760999 0.032431 0.156276
v 0.263275 0.273831 -0.123845
v 0.234451 0.273831 -0.156276
v 0.234451 0.306262 -0.123845
v 0.263275 0.032431 -0.123845
v 0.234451 0.000000 -0.123845
v 0.234451 0.032431 -0.156276
v 0.234451 0.306262 0.123845
v 0.234451 0.273831 0.156276
v 0.234451 0.000000 0.123845
v 0.234451 0.032431 0.156276
v -0.234450 0.306262 -0.123845
v -0.234450 0.273831 -0.156276
v -0.234450 0.032431 -0.156276
v -0.234450 0.000000 -0.123845
v -0.234450 0.306262 0.123845
v -0.234450 0.273831 0.156276
v -0.234450 0.000000 0.123845
v -0.234450 0.032431 0.156276
v -0.263274 0.032431 0.123845
v 0.789823 0.273831 -0.123845
v 0.761000 0.273831 -0.156276
v 0.761000 0.306262 -0.123845
v 0.761000 0.000000 -0.123845
v 0.761000 0.032431 -0.156276
v 0.761000 0.306262 0.123845
v 0.761000 0.273831 0.156276
v 0.789823 0.273831 0.123845
v 0.761000 0.000000 0.123845
v 0.789823 0.032431 0.123845
v 0.761000 0.032431 0.156276
v 0.292098 0.306262 -0.123845
v 0.292098 0.273831 -0.156276
v 0.292098 0.032431 -0.156276
v 0.292098 0.000000 -0.123845
v 0.292098 0.306262 0.123845
v 0.263275 0.273831 0.123845
v 0.292098 0.273831 0.156276
v 0.292098 0.000000 0.123845
v 0.292098 0.032431 0.156276
v 0.263275 0.032431 0.123845
v 0.818647 0.306262 -0.123845
v 0.818647 0.273831 -0.156276
v 0.789823 0.032431 -0.123845
v 0.818647 0.032431 -0.156276
v 0.818647 0.000000 -0.123845
v 0.818647 0.306262 0.123845
v 0.818647 0.273831 0.156276
v 0.818647 0.000000 0.123845
v 0.818647 0.032431 0.156276
v -0.526548 0.580093 -0.123845
v -0.555372 0.580093 -0.156276
v -0.555372 0.612524 -0.123845
v -0.526548 0.338693 -0.123845
v -0.555372 0.306262 -0.123845
v -0.555372 0.338693 -0.156276
v -0.555372 0.612524 0.123845
v -0.555372 0.580093 0.156276
v -0.526548 0.580093 0.123845
v -0.555372 0.306262 0.123845
v -0.526548 0.338693 0.123845
v -0.555372 0.338693 0.156276
v -1.024273 0.612524 -0.123845
v -1.024273 0.580093 -0.156276
v -1.053097 0.580093 -0.123845
v -1.053097 0.338693 -0.123845
v -1.024273 0.338693 -0.156276
v -1.024273 0.306262 -0.123845
v -1.024273 0.612524 0.123845
v -1.053097 0.580093 0.123845
v -1.024273 0.580093 0.156276
v -1.024273 0.306262 0.123845
v -1.024273 0.338693 0.156276
v -1.053097 0.338693 0.123845
v -0.028823 0.580093 -0.156276
v -0.028823 0.612524 -0.123845
v 0.000000 0.338693 -0.123845
v -0.028823 0.306262 -0.123845
v -0.028823 0.338693 -0.156276
v -0.028823 0.612524 0.123845
v -0.028823 0.580093 0.156276
v 0.000000 0.580093 0.123845
v -0.028823 0.306262 0.123845
v -0.028823 0.338693 0.156276
v -0.497725 0.612524 -0.123845
v -0.497725 0.580093 -0.156276
v -0.497725 0.338693 -0.156276
v -0.497725 0.306262 -0.123845
v -0.497725 0.612524 0.123845
v -0.497725 0.580093 0.156276
v -0.497725 0.306262 0.123845
v -0.497725 0.338693 0.156276
v 0.497725 0.580093 -0.156276
v 0.497725 0.612524 -0.123845
v 0.497725 0.306262 -0.123845
v 0.497725 0.338693 -0.156276
v 0.497725 0.612524 0.123845
v 0.497725 0.580093 0.156276
v 0.526549 0.580093 0.123845
v 0.497725 0.306262 0.123845
v 0.526549 0.338693 0.123845
v 0.497725 0.338693 0.156276
v 0.028824 0.612524 -0.123845
v 0.028824 0.580093 -0.156276
v 0.000000 0.580093 -0.123845
v 0.028824 0.338693 -0.156276
v 0.028824 0.306262 -0.123845
v 0.028824 0.612524 0.123845
v 0.028824 0.580093 0.156276
v 0.028824 0.306262 0.123845
v 0.028824 0.338693 0.156276
v 0.000000 0.338693 0.123845
v 1.053097 0.580093 -0.123845
v 1.024274 0.580093 -0.156276
v 1.024274 0.612524 -0.123845
v 1.053097 0.338693 -0.123845
v 1.024274 0.306262 -0.123845
v 1.024274 0.338693 -0.156276
v 1.024274 0.612524 0.123845
v 1.024274 0.580093 0.156276
v 1.053097 0.580093 0.123845
v 1.024274 0.306262 0.123845
v 1.053097 0.338693 0.123845
v 1.024274 0.338693 0.156276
v 0.555372 0.612524 -0.123845
v 0.555372 0.580093 -0.156276
v 0.526549 0.580093 -0.123845
v 0.526549 0.338693 -0.123845
v 0.555372 0.338693 -0.156276
v 0.555372 0.306262 -0.123845
v 0.555372 0.612524 0.123845
v 0.555372 0.580093 0.156276
v 0.555372 0.306262 0.123845
v 0.555372 0.338693 0.156276
v -0.789823 0.886355 -0.123845
v -0.818646 0.886355 -0.156276
v -0.818646 0.918786 -0.123845
v -0.789823 0.644956 -0.123845
v -0.818646 0.612524 -0.123845
v -0.818646 0.644956 -0.156276
v -0.818646 0.918786 0.123845
v -0.818646 0.886355 0.156276
v -0.789823 0.886355 0.123845
v -0.818646 0.612524 0.123845
v -0.789823 0.644956 0.123845
v -0.818646 0.644956 0.156276
v -0.292098 0.886355 -0.156276
v -0.292098 0.918786 -0.123845
v -0.292098 0.612524 -0.123845
v -0.292098 0.644956 -0.156276
v -0.292098 0.918786 0.123845
v -0.292098 0.886355 0.156276
v -0.292098 0.612524 0.123845
v -0.263274 0.644956 0.123845
v -0.292098 0.644956 0.156276
v -0.760999 0.918786 -0.123845
v -0.760999 0.886355 -0.156276
v -0.760999 0.644956 -0.156276
v -0.760999 0.612524 -0.123845
v -0.760999 0.918786 0.123845
v -0.760999 0.886355 0.156276
v -0.760999 0.612524 0.123845
v -0.760999 0.644956 0.156276
v 0.263275 0.886355 -0.123845
v 0.234451 0.886355 -0.156276
v 0.234451 0.918786 -0.123845
v 0.263275 0.644956 -0.123845
v 0.234451 0.612524 -0.123845
v 0.234451 0.644956 -0.156276
v 0.234451 0.918786 0.123845
v 0.234451 0.886355 0.156276
v 0.234451 0.612524 0.123845
v 0.263275 0.644956 0.123845
v 0.234451 0.644956 0.156276
v -0.234450 0.918786 -0.123845
v -0.234450 0.886355 -0.156276
v -0.263274 0.886355 -0.123845
v -0.263274 0.644956 -0.123845
v -0.234450 0.644956 -0.156276
v -0.234450 0.612524 -0.123845
v -0.234450 0.918786 0.123845
v -0.263274 0.886355 0.123845
v -0.234450 0.886355 0.156276
v -0.234450 0.612524 0.123845
v -0.234450 0.644956 0.156276
v 0.761000 0.886355 -0.156276
v 0.761000 0.918786 -0.123845
v 0.789823 0.644956 -0.123845
v 0.761000 0.612524 -0.123845
v 0.761000 0.644956 -0.156276
v 0.761000 0.918786 0.123845
v 0.761000 0.886355 0.156276
v 0.761000 0.612524 0.123845
v 0.761000 0.644956 0.156276
v 0.292098 0.918786 -0.123845
v 0.292098 0.886355 -0.156276
v 0.292098 0.644956 -0.156276
v 0.292098 0.612524 -0.123845
v 0.292098 0.918786 0.123845
v 0.263275 0.886355 0.123845
v 0.292098 0.886355 0.156276
v 0.292098 0.612524 0.123845
v 0.292098 0.644956 0.156276
v 0.818647 0.918786 -0.123845
v 0.818647 0.886355 -0.156276
v 0.789823 0.886355 -0.123845
v 0.818647 0.644956 -0.156276
v 0.818647 0.612524 -0.123845
v 0.818647 0.918786 0.123845
v 0.789823 0.886355 0.123845
v 0.818647 0.886355 0.156276
v 0.818647 0.612524 0.123845
v 0.818647 0.644956 0.156276
v 0.789823 0.644956 0.123845
v -1.053097 1.192617 -0.123845
v -1.053097 0.951218 -0.123845
v -1.053097 1.192617 0.123845
v -0.526549 1.192617 -0.123845
v -0.555372 1.192617 -0.156276
v -0.555372 1.225049 -0.123845
v -0.555372 0.918787 -0.123845
v -0.555372 0.951218 -0.156276
v -0.555372 1.225049 0.123845
v -0.555372 1.192617 0.156276
v -0.526549 1.192617 0.123845
v -0.555372 0.918787 0.123845
v -0.526549 0.951218 0.123845
v -0.555372 0.951218 0.156276
v -1.024274 1.225049 -0.123845
v -1.024274 1.192617 -0.156276
v -1.024274 0.951218 -0.156276
v -1.024274 0.918787 -0.123845
v -1.024274 1.225049 0.123845
v -1.024274 1.192617 0.156276
v -1.024274 0.918787 0.123845
v -1.024274 0.951218 0.156276
v -1.053097 0.951218 0.123845
v -0.028823 1.192617 -0.156276
v -0.028823 1.225049 -0.123845
v -0.028823 0.918787 -0.123845
v -0.028823 0.951218 -0.156276
v -0.028823 1.225049 0.123845
v -0.028823 1.192617 0.156276
v 0.000000 1.192617 0.123845
v -0.028823 0.918787 0.123845
v -0.028823 0.951218 0.156276
v -0.497725 1.225049 -0.123845
v -0.497725 1.192617 -0.156276
v -0.526549 0.951218 -0.123845
v -0.497725 0.951218 -0.156276
v -0.497725 0.918787 -0.123845
v -0.497725 1.225049 0.123845
v -0.497725 1.192617 0.156276
v -0.497725 0.918787 0.123845
v -0.497725 0.951218 0.156276
v 0.526549 1.192617 -0.123845
v 0.497725 1.192617 -0.156276
v 0.497725 1.225049 -0.123845
v 0.497725 0.918787 -0.123845
v 0.497725 0.951218 -0.156276
v 0.497725 1.225049 0.123845
v 0.497725 1.192617 0.156276
v 0.497725 0.918787 0.123845
v 0.497725 0.951218 0.156276
v 0.028824 1.225049 -0.123845
v 0.028824 1.192617 -0.156276
v 0.000000 1.192617 -0.123845
v 0.000000 0.951218 -0.123845
v 0.028824 0.951218 -0.156276
v 0.028824 0.918787 -0.123845
v 0.028824 1.225049 0.123845
v 0.028824 1.192617 0.156276
v 0.028824 0.918787 0.123845
v 0.028824 0.951218 0.156276
v 0.000000 0.951218 0.123845
v 1.053097 1.192617 -0.123845
v 1.024274 1.192617 -0.156276
v 1.024274 1.225049 -0.123845
v 1.053097 0.951218 -0.123845
v 1.024274 0.918787 -0.123845
v 1.024274 0.951218 -0.156276
v 1.024274 1.225049 0.123845
v 1.024274 1.192617 0.156276
v 1.053097 1.192617 0.123845
v 1.024274 0.918787 0.123845
v 1.053097 0.951218 0.123845
v 1.024274 0.951218 0.156276
v 0.555372 1.225049 -0.123845
v 0.555372 1.192617 -0.156276
v 0.526549 0.951218 -0.123845
v 0.555372 0.951218 -0.156276
v 0.555372 0.918787 -0.123845
v 0.555372 1.225049 0.123845
v 0.526549 1.192617 0.123845
v 0.555372 1.192617 0.156276
v 0.555372 0.918787 0.123845
v 0.555372 0.951218 0.156276
v 0.526549 0.951218 0.123845
v -0.818646 1.498880 -0.156276
v -0.818646 1.531311 -0.123845
v -0.789823 1.257480 -0.123845
v -0.818646 1.225049 -0.123845
v -0.818646 1.257480 -0.156276
v -0.818646 1.531311 0.123845
v -0.818646 1.498880 0.156276
v -0.789823 1.498880 0.123845
v -0.818646 1.225049 0.123845
v -0.818646 1.257480 0.156276
v -0.263274 1.498880 -0.123845
v -0.292098 1.498880 -0.156276
v -0.292098 1.531311 -0.123845
v -0.263274 1.257480 -0.123845
v -0.292098 1.225049 -0.123845
v -0.292098 1.257480 -0.156276
v -0.292098 1.531311 0.123845
v -0.292098 1.498880 0.156276
v -0.263274 1.498880 0.123845
v -0.292098 1.225049 0.123845
v -0.292098 1.257480 0.156276
v -0.760999 1.531311 -0.123845
v -0.760999 1.498880 -0.156276
v -0.789823 1.498880 -0.123845
v -0.760999 1.257480 -0.156276
v -0.760999 1.225049 -0.123845
v -0.760999 1.531311 0.123845
v -0.760999 1.498880 0.156276
v -0.760999 1.225049 0.123845
v -0.760999 1.257480 0.156276
v -0.789823 1.257480 0.123845
v 0.263274 1.498880 -0.123845
v 0.234451 1.498880 -0.156276
v 0.234451 1.531311 -0.123845
v 0.234451 1.225049 -0.123845
v 0.234451 1.257480 -0.156276
v 0.234451 1.531311 0.123845
v 0.234451 1.498880 0.156276
v 0.263274 1.498880 0.123845
v 0.234451 1.225049 0.123845
v 0.263274 1.257480 0.123845
v 0.234451 1.257480 0.156276
v -0.234451 1.531311 -0.123845
v -0.234451 1.498880 -0.156276
v -0.234451 1.257480 -0.156276
v -0.234451 1.225049 -0.123845
v -0.234451 1.531311 0.123845
v -0.234451 1.498880 0.156276
v -0.234451 1.225049 0.123845
v -0.234451 1.257480 0.156276
v -0.263274 1.257480 0.123845
v 0.761000 1.498880 -0.156276
v 0.761000 1.531311 -0.123845
v 0.761000 1.225049 -0.123845
v 0.761000 1.257480 -0.156276
v 0.761000 1.531311 0.123845
v 0.761000 1.498880 0.156276
v 0.789823 1.498880 0.123845
v 0.761000 1.225049 0.123845
v 0.761000 1.257480 0.156276
v 0.292098 1.531311 -0.123845
v 0.292098 1.498880 -0.156276
v 0.263275 1.257480 -0.123845
v 0.292098 1.257480 -0.156276
v 0.292098 1.225049 -0.123845
v 0.292098 1.531311 0.123845
v 0.292098 1.498880 0.156276
v 0.292098 1.225049 0.123845
v 0.292098 1.257480 0.156276
v 0.818646 1.531311 -0.123845
v 0.818646 1.498880 -0.156276
v 0.789823 1.498880 -0.123845
v 0.789823 1.257480 -0.123845
v 0.818646 1.257480 -0.156276
v 0.818646 1.225049 -0.123845
v 0.818646 1.531311 0.123845
v 0.818646 1.498880 0.156276
v 0.818646 1.225049 0.123845
v 0.818646 1.257480 0.156276
v 0.789823 1.257480 0.123845
v -1.053097 1.563742 -0.123845
v -1.053097 1.805142 0.123845
v -0.555372 1.805142 -0.156276
v -0.555372 1.837573 -0.123845
v -0.526549 1.563742 -0.123845
v -0.555372 1.531311 -0.123845
v -0.555372 1.563742 -0.156276
v -0.555372 1.837573 0.123845
v -0.555372 1.805142 0.156276
v -0.526549 1.805142 0.123845
v -0.555372 1.531311 0.123845
v -0.526549 1.563742 0.123845
v -0.555372 1.563742 0.156276
v -1.024274 1.837573 -0.123845
v -1.024274 1.805142 -0.156276
v -1.053097 1.805142 -0.123845
v -1.024274 1.563742 -0.156276
v -1.024274 1.531311 -0.123845
v -1.024274 1.837573 0.123845
v -1.024274 1.805142 0.156276
v -1.024274 1.531311 0.123845
v -1.024274 1.563742 0.156276
v -1.053097 1.563742 0.123845
v 0.000000 1.805142 -0.123845
v -0.028824 1.805142 -0.156276
v -0.028824 1.837573 -0.123845
v 0.000000 1.563742 -0.123845
v -0.028824 1.531311 -0.123845
v -0.028824 1.563742 -0.156276
v -0.028824 1.837573 0.123845
v -0.028824 1.805142 0.156276
v 0.000000 1.805142 0.123845
v -0.028824 1.531311 0.123845
v -0.028824 1.563742 0.156276
v -0.497725 1.837573 -0.123845
v -0.497725 1.805142 -0.156276
v -0.526549 1.805142 -0.123845
v -0.497725 1.563742 -0.156276
v -0.497725 1.531311 -0.123845
v -0.497725 1.837573 0.123845
v -0.497725 1.805142 0.156276
v -0.497725 1.531311 0.123845
v -0.497725 1.563742 0.156276
v 0.497725 1.805142 -0.156276
v 0.497725 1.837573 -0.123845
v 0.526549 1.563742 -0.123845
v 0.497725 1.531311 -0.123845
v 0.497725 1.563742 -0.156276
v 0.497725 1.837573 0.123845
v 0.497725 1.805142 0.156276
v 0.497725 1.531311 0.123845
v 0.497725 1.563742 0.156276
v 0.028823 1.837573 -0.123845
v 0.028823 1.805142 -0.156276
v 0.028823 1.563742 -0.156276
v 0.028823 1.531311 -0.123845
v 0.028823 1.837573 0.123845
v 0.028823 1.805142 0.156276
v 0.028823 1.531311 0.123845
v 0.028823 1.563742 0.156276
v 0.000000 1.563742 0.123845
v 1.053097 1.805142 -0.123845
v 1.024274 1.805142 -0.156276
v 1.024274 1.837573 -0.123845
v 1.053097 1.563742 -0.123845
v 1.024274 1.531311 -0.123845
v 1.024274 1.563742 -0.156276
v 1.024274 1.837573 0.123845
v 1.024274 1.805142 0.156276
v 1.053097 1.805142 0.123845
v 1.024274 1.531311 0.123845
v 1.053097 1.563742 0.123845
v 1.024274 1.563742 0.156276
v 0.555372 1.837573 -0.123845
v 0.555372 1.805142 -0.156276
v 0.526549 1.805142 -0.123845
v 0.555372 1.563742 -0.156276
v 0.555372 1.531311 -0.123845
v 0.555372 1.837573 0.123845
v 0.526549 1.805142 0.123845
v 0.555372 1.805142 0.156276
v 0.555372 1.531311 0.123845
v 0.555372 1.563742 0.156276
v 0.526549 1.563742 0.123845
v -0.789823 2.111404 -0.123845
v -0.818646 2.111404 -0.156276
v -0.818646 2.143835 -0.123845
v -0.789823 1.870004 -0.123845
v -0.818646 1.837573 -0.123845
v -0.818646 1.870004 -0.156276
v -0.818646 2.143835 0.123845
v -0.818646 2.111404 0.156276
v -0.818646 1.837573 0.123845
v -0.818646 1.870004 0.156276
v -0.263274 2.111404 -0.123845
v -0.292098 2.111404 -0.156276
v -0.292098 2.143835 -0.123845
v -0.263274 1.870004 -0.123845
v -0.292098 1.837573 -0.123845
v -0.292098 1.870004 -0.156276
v -0.292098 2.143835 0.123845
v -0.292098 2.111404 0.156276
v -0.263274 2.111404 0.123845
v -0.292098 1.837573 0.123845
v -0.292098 1.870004 0.156276
v -0.760999 2.143835 -0.123845
v -0.760999 2.111404 -0.156276
v -0.760999 1.870004 -0.156276
v -0.760999 1.837573 -0.123845
v -0.760999 2.143835 0.123845
v -0.789823 2.111404 0.123845
v -0.760999 2.111404 0.156276
v -0.760999 1.837573 0.123845
v -0.760999 1.870004 0.156276
v -0.789823 1.870004 0.123845
v 0.234451 2.111404 -0.156276
v 0.234451 2.143835 -0.123845
v 0.263274 1.870004 -0.123845
v 0.234451 1.837573 -0.123845
v 0.234451 1.870004 -0.156276
v 0.234451 2.143835 0.123845
v 0.234451 2.111404 0.156276
v 0.234451 1.837573 0.123845
v 0.234451 1.870004 0.156276
v -0.234451 2.143835 -0.123845
v -0.234451 2.111404 -0.156276
v -0.234451 1.870004 -0.156276
v -0.234451 1.837573 -0.123845
v -0.234451 2.143835 0.123845
v -0.234451 2.111404 0.156276
v -0.234451 1.837573 0.123845
v -0.234451 1.870004 0.156276
v -0.263274 1.870004 0.123845
v 0.789823 2.111404 -0.123845
v 0.760999 2.111404 -0.156276
v 0.760999 2.143835 -0.123845
v 0.789823 1.870004 -0.123845
v 0.760999 1.837573 -0.123845
v 0.760999 1.870004 -0.156276
v 0.760999 2.143835 0.123845
v 0.760999 2.111404 0.156276
v 0.789823 2.111404 0.123845
v 0.760999 1.837573 0.123845
v 0.760999 1.870004 0.156276
v 0.292098 2.143835 -0.123845
v 0.292098 2.111404 -0.156276
v 0.263274 2.111404 -0.123845
v 0.292098 1.870004 -0.156276
v 0.292098 1.837573 -0.123845
v 0.292098 2.143835 0.123845
v 0.263274 2.111404 0.123845
v 0.292098 2.111404 0.156276
v 0.292098 1.837573 0.123845
v 0.292098 1.870004 0.156276
v 0.263274 1.870004 0.123845
v 0.818646 2.143835 -0.123845
v 0.818646 2.111404 -0.156276
v 0.818646 1.870004 -0.156276
v 0.818646 1.837573 -0.123845
v 0.818646 2.143835 0.123845
v 0.818646 2.111404 0.156276
v 0.818646 1.837573 0.123845
v 0.818646 1.870004 0.156276
v 0.789823 1.870004 0.123845
v -1.053097 2.176266 -0.123845
v -1.053097 2.417666 0.123845
v -1.053097 2.176266 0.123845
v -0.526549 2.417666 -0.123845
v -0.555372 2.417666 -0.156276
v -0.555372 2.450097 -0.123845
v -0.555372 2.143835 -0.123845
v -0.555372 2.176266 -0.156276
v -0.555372 2.450097 0.123845
v -0.555372 2.417666 0.156276
v -0.526549 2.417666 0.123845
v -0.555372 2.143835 0.123845
v -0.555372 2.176266 0.156276
v -1.024274 2.450097 -0.123845
v -1.024274 2.417666 -0.156276
v -1.053097 2.417666 -0.123845
v -1.024274 2.176266 -0.156276
v -1.024274 2.143835 -0.123845
v -1.024274 2.450097 0.123845
v -1.024274 2.417666 0.156276
v -1.024274 2.143835 0.123845
v -1.024274 2.176266 0.156276
v -0.028824 2.417666 -0.156276
v -0.028824 2.450097 -0.123845
v -0.000000 2.176266 -0.123845
v -0.028824 2.143835 -0.123845
v -0.028824 2.176266 -0.156276
v -0.028824 2.450097 0.123845
v -0.028824 2.417666 0.156276
v -0.000000 2.417666 0.123845
v -0.028824 2.143835 0.123845
v -0.028824 2.176266 0.156276
v -0.497725 2.450097 -0.123845
v -0.497725 2.417666 -0.156276
v -0.526549 2.176266 -0.123845
v -0.497725 2.176266 -0.156276
v -0.497725 2.143835 -0.123845
v -0.497725 2.450097 0.123845
v -0.497725 2.417666 0.156276
v -0.497725 2.143835 0.123845
v -0.497725 2.176266 0.156276
v -0.526549 2.176266 0.123845
v 0.497725 2.417666 -0.156276
v 0.497725 2.450097 -0.123845
v 0.497725 2.143835 -0.123845
v 0.497725 2.176266 -0.156276
v 0.497725 2.450097 0.123845
v 0.497725 2.417666 0.156276
v 0.497725 2.143835 0.123845
v 0.497725 2.176266 0.156276
v 0.028823 2.450097 -0.123845
v 0.028823 2.417666 -0.156276
v -0.000000 2.417666 -0.123845
v 0.028823 2.176266 -0.156276
v 0.028823 2.143835 -0.123845
v 0.028823 2.450097 0.123845
v 0.028823 2.417666 0.156276
v 0.028823 2.143835 0.123845
v 0.028823 2.176266 0.156276
v -0.000000 2.176266 0.123845
v 1.053097 2.417666 -0.123845
v 1.024273 2.417666 -0.156276
v 1.024273 2.450097 -0.123845
v 1.053097 2.176266 -0.123845
v 1.024273 2.143835 -0.123845
v 1.024273 2.176266 -0.156276
v 1.024273 2.450097 0.123845
v 1.024273 2.417666 0.156276
v 1.053097 2.417666 0.123845
v 1.024273 2.143835 0.123845
v 1.053097 2.176266 0.123845
v 1.024273 2.176266 0.156276
v 0.555372 2.450097 -0.123845
v 0.555372 2.417666 -0.156276
v 0.526548 2.417666 -0.123845
v 0.526548 2.176266 -0.123845
v 0.555372 2.176266 -0.156276
v 0.555372 2.143835 -0.123845
v 0.555372 2.450097 0.123845
v 0.526548 2.417666 0.123845
v 0.555372 2.417666 0.156276
v 0.555372 2.143835 0.123845
v 0.555372 2.176266 0.156276
v 0.526548 2.176266 0.123845
v -0.789823 2.723928 -0.123845
v -0.818647 2.723928 -0.156276
v -0.818647 2.756359 -0.123845
v -0.818647 2.450097 -0.123845
v -0.818647 2.482528 -0.156276
v -0.818647 2.756359 0.123845
v -0.818647 2.723928 0.156276
v -0.789823 2.723928 0.123845
v -0.818647 2.450097 0.123845
v -0.818647 2.482528 0.156276
v -0.292098 2.723928 -0.156276
v -0.292098 2.756359 -0.123845
v -0.292098 2.450097 -0.123845
v -0.292098 2.482528 -0.156276
v -0.292098 2.756359 0.123845
v -0.292098 2.723928 0.156276
v -0.292098 2.450097 0.123845
v -0.263275 2.482528 0.123845
v -0.292098 2.482528 0.156276
v -0.761000 2.756359 -0.123845
v -0.761000 2.723928 -0.156276
v -0.789823 2.482528 -0.123845
v -0.761000 2.482528 -0.156276
v -0.761000 2.450097 -0.123845
v -0.761000 2.756359 0.123845
v -0.761000 2.723928 0.156276
v -0.761000 2.450097 0.123845
v -0.761000 2.482528 0.156276
v -0.789823 2.482528 0.123845
v 0.263274 2.723928 -0.123845
v 0.234450 2.723928 -0.156276
v 0.234450 2.756359 -0.123845
v 0.263274 2.482528 -0.123845
v 0.234450 2.450097 -0.123845
v 0.234450 2.482528 -0.156276
v 0.234450 2.756359 0.123845
v 0.234450 2.723928 0.156276
v 0.234450 2.450097 0.123845
v 0.234450 2.482528 0.156276
v -0.234451 2.756359 -0.123845
v -0.234451 2.723928 -0.156276
v -0.263275 2.723928 -0.123845
v -0.263275 2.482528 -0.123845
v -0.234451 2.482528 -0.156276
v -0.234451 2.450097 -0.123845
v -0.234451 2.756359 0.123845
v -0.263275 2.723928 0.123845
v -0.234451 2.723928 0.156276
v -0.234451 2.450097 0.123845
v -0.234451 2.482528 0.156276
v 0.789823 2.723928 -0.123845
v 0.760999 2.723928 -0.156276
v 0.760999 2.756359 -0.123845
v 0.760999 2.450097 -0.123845
v 0.760999 2.482528 -0.156276
v 0.760999 2.756359 0.123845
v 0.760999 2.723928 0.156276
v 0.789823 2.723928 0.123845
v 0.760999 2.450097 0.123845
v 0.789823 2.482528 0.123845
v 0.760999 2.482528 0.156276
v 0.292098 2.756359 -0.123845
v 0.292098 2.723928 -0.156276
v 0.292098 2.482528 -0.156276
v 0.292098 2.450097 -0.123845
v 0.292098 2.756359 0.123845
v 0.263274 2.723928 0.123845
v 0.292098 2.723928 0.156276
v 0.292098 2.450097 0.123845
v 0.292098 2.482528 0.156276
v 0.263274 2.482528 0.123845
v 0.818646 2.756359 -0.123845
v 0.818646 2.723928 -0.156276
v 0.789823 2.482528 -0.123845
v 0.818646 2.482528 -0.156276
v 0.818646 2.450097 -0.123845
v 0.818646 2.756359 0.123845
v 0.818646 2.723928 0.156276
v 0.818646 2.450097 0.123845
v 0.818646 2.482528 0.156276
v -1.053098 3.030190 -0.123845
v -1.053098 2.788791 0.123845
v -0.555373 3.030190 -0.156276
v -0.555373 3.062622 -0.123845
v -0.526549 2.788791 -0.123845
v -0.555373 2.756359 -0.123845
v -0.555373 2.788791 -0.156276
v -0.555373 3.062622 0.123845
v -0.555373 3.030190 0.156276
v -0.555373 2.756359 0.123845
v -0.555373 2.788791 0.156276
v -1.024274 3.062622 -0.123845
v -1.024274 3.030190 -0.156276
v -1.053098 2.788791 -0.123845
v -1.024274 2.788791 -0.156276
v -1.024274 2.756359 -0.123845
v -1.024274 3.062622 0.123845
v -1.053098 3.030190 0.123845
v -1.024274 3.030190 0.156276
v -1.024274 2.756359 0.123845
v -1.024274 2.788791 0.156276
v -0.028824 3.030190 -0.156276
v -0.028824 3.062622 -0.123845
v -0.000000 2.788791 -0.123845
v -0.028824 2.756359 -0.123845
v -0.028824 2.788791 -0.156276
v -0.028824 3.062622 0.123845
v -0.028824 3.030190 0.156276
v -0.028824 2.756359 0.123845
v -0.028824 2.788791 0.156276
v -0.497725 3.062622 -0.123845
v -0.497725 3.030190 -0.156276
v -0.526549 3.030190 -0.123845
v -0.497725 2.788791 -0.156276
v -0.497725 2.756359 -0.123845
v -0.497725 3.062622 0.123845
v -0.526549 3.030190 0.123845
v -0.497725 3.030190 0.156276
v -0.497725 2.756359 0.123845
v -0.497725 2.788791 0.156276
v -0.526549 2.788791 0.123845
v 0.497725 3.030190 -0.156276
v 0.497725 3.062620 -0.123845
v 0.497725 2.756359 -0.123845
v 0.497725 2.788791 -0.156276
v 0.497725 3.062620 0.123845
v 0.497725 3.030190 0.156276
v 0.526548 3.030190 0.123845
v 0.497725 2.756359 0.123845
v 0.526548 2.788791 0.123845
v 0.497725 2.788791 0.156276
v 0.028823 3.062620 -0.123845
v 0.028823 3.030190 -0.156276
v -0.000000 3.030190 -0.123845
v 0.028823 2.788791 -0.156276
v 0.028823 2.756359 -0.123845
v 0.028823 3.062620 0.123845
v -0.000000 3.030190 0.123845
v 0.028823 3.030190 0.156276
v 0.028823 2.756359 0.123845
v 0.028823 2.788791 0.156276
v -0.000000 2.788791 0.123845
v 1.053097 3.030190 -0.123845
v 1.024273 3.030190 -0.156276
v 1.024273 3.062622 -0.123845
v 1.053097 2.788791 -0.123845
v 1.024273 2.756359 -0.123845
v 1.024273 2.788791 -0.156276
v 1.024273 3.062621 0.123845
v 1.024273 3.030190 0.156276
v 1.053097 3.030190 0.123845
v 1.024273 2.756359 0.123845
v 1.053097 2.788791 0.123845
v 1.024273 2.788791 0.156276
v 0.555372 3.062622 -0.123845
v 0.555372 3.030190 -0.156276
v 0.526548 3.030190 -0.123845
v 0.526548 2.788791 -0.123845
v 0.555372 2.788791 -0.156276
v 0.555372 2.756359 -0.123845
v 0.555372 3.062622 0.123845
v 0.555372 3.030190 0.156276
v 0.555372 2.756359 0.123845
v 0.555372 2.788791 0.156276
v 1.053097 2.723928 0.156276
v 1.053097 2.756359 0.123845
v 1.053097 2.482528 0.156276
v 1.053097 2.450097 0.123845
v 1.053097 2.756359 -0.123845
v 1.053097 2.723928 -0.156276
v 1.053097 2.482528 -0.156276
v 1.053097 2.450097 -0.123845
v 1.053097 2.111404 0.156276
v 1.053097 2.143835 0.123845
v 1.053097 1.870004 0.156276
v 1.053097 1.837573 0.123845
v 1.053097 2.143835 -0.123845
v 1.053097 2.111404 -0.156276
v 1.053097 1.870004 -0.156276
v 1.053097 1.837573 -0.123845
v 1.053097 1.498880 0.156276
v 1.053097 1.531311 0.123845
v 1.053097 1.257480 0.156276
v 1.053097 1.225049 0.123845
v 1.053097 1.531311 -0.123845
v 1.053097 1.498880 -0.156276
v 1.053097 1.257480 -0.156276
v 1.053097 1.225049 -0.123845
v 1.053097 0.886355 0.156276
v 1.053097 0.918786 0.123845
v 1.053097 0.644956 0.156276
v 1.053097 0.612524 0.123845
v 1.053097 0.918786 -0.123845
v 1.053097 0.886355 -0.156276
v 1.053097 0.644956 -0.156276
v 1.053097 0.612524 -0.123845
v 1.053098 0.273831 0.156276
v 1.053094 0.306262 0.123845
v 1.053098 0.032431 0.156276
v 1.053098 0.000000 0.123845
v 1.053098 0.306262 -0.123845
v 1.053098 0.273831 -0.156276
v 1.053098 0.032431 -0.156276
v 1.053098 0.000000 -0.123845
v -1.053097 2.723928 0.156276
v -1.053097 2.756359 0.123845
v -1.053097 2.482528 0.156276
v -1.053097 2.450097 0.123845
v -1.053097 2.756359 -0.123845
v -1.053097 2.723928 -0.156276
v -1.053097 2.482528 -0.156276
v -1.053097 2.450097 -0.123845
v -1.053097 2.111404 0.156276
v -1.053097 2.143835 0.123845
v -1.053097 1.870004 0.156276
v -1.053097 1.837573 0.123845
v -1.053097 2.143835 -0.123845
v -1.053097 2.111404 -0.156276
v -1.053097 1.870004 -0.156276
v -1.053097 1.837573 -0.123845
v -1.053097 1.498880 0.156276
v -1.053097 1.531311 0.123845
v -1.053097 1.257480 0.156276
v -1.053097 1.225049 0.123845
v -1.053097 1.531311 -0.123845
v -1.053097 1.498880 -0.156276
v -1.053097 1.257480 -0.156276
v -1.053097 1.225049 -0.123845
v -1.053097 0.886355 0.156276
v -1.053097 0.918786 0.123845
v -1.053097 0.644956 0.156276
v -1.053097 0.612524 0.123845
v -1.053097 0.918786 -0.123845
v -1.053097 0.886355 -0.156276
v -1.053097 0.644956 -0.156276
v -1.053097 0.612524 -0.123845
v -1.053097 0.273831 0.156276
v -1.053097 0.306262 0.123845
v -1.053097 0.032431 0.156276
v -1.053097 0.000000 0.123845
v -1.053097 0.306262 -0.123845
v -1.053097 0.273831 -0.156276
v -1.053097 0.032431 -0.156276
v -1.053097 0.000000 -0.123845
v 1.053096 3.062621 0.013137
v 1.053097 0.000000 0.013137
v -1.053097 3.062622 0.013137
v -1.053097 0.000000 0.013137
v -1.053097 3.062621 -0.001037
v -1.053098 0.000000 -0.001037
v 1.053097 3.062622 -0.001037
v 1.053096 0.000000 -0.001037
vn -0.0000 -0.0000 -1.0000
vn -0.0000 -1.0000 -0.0000
vn 0.6226 0.5533 -0.5533
vn 0.6226 -0.5533 -0.5533
vn 0.6226 0.5533 0.5533
vn 0.6226 -0.5533 0.5533
vn -0.0000 0.7071 0.7071
vn 0.7475 -0.0000 -0.6643
vn -0.0000 0.7071 -0.7071
vn -0.0000 -0.7071 -0.7071
vn 0.7475 -0.0000 0.6643
vn 0.7475 0.6643 -0.0000
vn 0.7475 -0.6643 -0.0000
vn 1.0000 -0.0000 -0.0000
vn -0.0000 1.0000 -0.0000
vn -0.0000 -0.0000 1.0000
vn -0.6226 0.5533 -0.5533
vn -0.6226 -0.5533 -0.5533
vn -0.6226 0.5533 0.5533
vn -0.6226 -0.5533 0.5533
vn -0.0000 -0.7071 0.7071
vn -0.7475 -0.0000 0.6643
vn -0.7475 -0.6643 -0.0000
vn -0.7475 -0.0000 -0.6643
vn -0.7475 0.6643 -0.0000
vn -1.0000 -0.0000 -0.0000
vn 0.6226 0.5534 -0.5533
vn 0.6226 0.5534 0.5533
vn -0.6226 0.5534 -0.5533
vn -0.6226 0.5534 0.5533
vn 0.7474 0.6643 -0.0000
vn -0.7474 0.6643 -0.0000
vn 1.0000 -0.0000 -0.0001
vt 0.426196 0.375000
vt 0.573804 0.375000
vt 0.573804 0.470607
vt 0.426196 0.470607
vt 0.250000 0.550379
vt 0.345607 0.550379
vt 0.345607 0.699621
vt 0.250000 0.699621
vt 0.573804 0.482361
vt 0.593635 0.470607
vt 0.357361 0.550379
vt 0.345607 0.530838
vt 0.593635 0.779393
vt 0.573804 0.767639
vt 0.357361 0.699621
vt 0.345607 0.719162
vt 0.573804 0.875000
vt 0.573804 0.779393
vt 0.593635 0.875000
vt 0.426196 0.482361
vt 0.593635 0.375000
vt 0.406365 0.470607
vt 0.406365 0.375000
vt 0.426196 0.779393
vt 0.426196 0.767639
vt 0.593635 0.550379
vt 0.593635 0.699621
vt 0.573804 0.699621
vt 0.573804 0.550379
vt 0.426196 0.550379
vt 0.426196 0.699621
vt 0.654393 0.550379
vt 0.845607 0.550379
vt 0.845607 0.699621
vt 0.654393 0.699621
vt 0.573804 0.970607
vt 0.426196 0.970607
vt 0.426196 0.279393
vt 0.573804 0.279393
vt 0.154393 0.550379
vt 0.154393 0.699621
vt 0.593635 0.279393
vt 0.573804 0.267639
vt 0.426196 0.267639
vt 0.406365 0.279393
vt 0.593635 0.050379
vt 0.593635 0.050379
vt 0.573804 0.030838
vt 0.154393 0.719162
vt 0.142639 0.699621
vt 0.593635 0.970607
vt 0.573804 0.982361
vt 0.426196 0.982361
vt 0.142639 0.550379
vt 0.593635 0.199621
vt 0.573804 0.199621
vt 0.573804 0.050379
vt 0.750000 0.550379
vt 0.750000 0.699621
vt 0.426196 0.875000
vt 0.250000 0.719162
vt 0.426196 0.050379
vt 0.426196 0.199621
s 1
usemtl dark_grey.002
f 899/1/1 898/2/1 1/3/1 5/4/1
f 900/5/2 4/6/2 9/7/2 896/8/2
f 25/9/3 1/9/3 2/10/3
f 3/11/4 4/12/4 5/12/4
f 6/13/5 7/13/5 8/14/5
f 9/7/6 10/15/6 11/16/6
f 893/17/7 7/18/7 6/13/7 894/19/7
f 5/4/8 1/3/8 25/9/8 3/20/8
f 897/21/9 2/10/9 1/3/9 898/2/9
f 899/1/10 5/4/10 4/22/10 900/23/10
f 7/18/11 11/24/11 10/25/11 8/14/11
f 2/26/12 6/27/12 8/28/12 25/29/12
f 3/11/13 10/15/13 9/7/13 4/6/13
f 15/30/14 12/29/14 20/28/14 50/31/14
f 34/32/15 42/33/15 46/34/15 38/35/15
f 41/24/16 39/18/16 47/36/16 49/37/16
f 44/38/1 43/39/1 33/3/1 37/4/1
f 45/40/2 36/6/2 40/7/2 48/41/2
f 32/9/3 33/9/3 34/10/3
f 35/11/4 36/12/4 37/12/4
f 38/13/5 39/13/5 67/14/5
f 40/7/6 71/15/6 41/16/6
f 42/42/17 43/42/17 12/43/17
f 15/44/18 44/45/18 45/45/18
f 46/46/19 20/47/19 47/48/19
f 48/41/20 49/49/20 50/50/20
f 47/36/7 39/18/7 38/13/7 46/51/7
f 41/16/21 49/49/21 48/41/21 40/7/21
f 37/4/8 33/3/8 32/9/8 35/20/8
f 42/42/9 34/10/9 33/3/9 43/39/9
f 49/37/22 47/36/22 20/52/22 50/53/22
f 50/50/23 15/54/23 45/40/23 48/41/23
f 44/38/10 37/4/10 36/22/10 45/45/10
f 39/18/11 41/24/11 71/25/11 67/14/11
f 43/39/24 44/38/24 15/44/24 12/43/24
f 34/26/12 38/27/12 67/28/12 32/29/12
f 35/11/13 71/15/13 40/7/13 36/6/13
f 46/46/25 42/55/25 12/56/25 20/57/25
f 857/58/15 72/33/15 77/34/15 854/59/15
f 855/60/16 853/17/16 78/36/16 80/37/16
f 72/42/17 73/42/17 51/43/17
f 74/44/18 75/45/18 76/45/18
f 77/46/19 58/47/19 78/48/19
f 79/41/20 80/49/20 60/50/20
f 855/61/21 80/49/21 79/41/21 856/8/21
f 80/37/22 78/36/22 58/52/22 60/53/22
f 60/50/23 74/54/23 76/40/23 79/41/23
f 73/39/24 75/38/24 74/44/24 51/43/24
f 77/46/25 72/55/25 51/56/25 58/57/25
f 124/32/15 133/33/15 138/34/15 127/35/15
f 132/24/16 128/18/16 139/36/16 141/37/16
f 136/38/1 134/39/1 123/3/1 126/4/1
f 137/40/2 125/6/2 130/7/2 140/41/2
f 157/9/3 123/9/3 124/10/3
f 158/11/4 125/12/4 126/12/4
f 127/13/5 128/13/5 129/14/5
f 130/7/6 131/15/6 132/16/6
f 133/42/17 134/42/17 135/43/17
f 107/44/18 136/45/18 137/45/18
f 138/46/19 112/47/19 139/48/19
f 140/41/20 141/49/20 142/50/20
f 139/36/7 128/18/7 127/13/7 138/51/7
f 132/16/21 141/49/21 140/41/21 130/7/21
f 126/4/8 123/3/8 157/9/8 158/20/8
f 133/42/9 124/10/9 123/3/9 134/39/9
f 141/37/22 139/36/22 112/52/22 142/53/22
f 142/50/23 107/54/23 137/40/23 140/41/23
f 136/38/10 126/4/10 125/22/10 137/45/10
f 128/18/11 132/24/11 131/25/11 129/14/11
f 134/39/24 136/38/24 107/44/24 135/43/24
f 124/26/12 127/27/12 129/28/12 157/29/12
f 158/11/13 131/15/13 130/7/13 125/6/13
f 138/46/25 133/55/25 135/56/25 112/57/25
f 158/30/14 157/29/14 129/28/14 131/31/14
f 178/32/15 186/33/15 190/34/15 181/35/15
f 185/24/16 182/18/16 191/36/16 193/37/16
f 188/38/1 187/39/1 177/3/1 180/4/1
f 189/40/2 179/6/2 183/7/2 192/41/2
f 207/9/3 177/9/3 178/10/3
f 208/11/4 179/12/4 180/12/4
f 181/13/5 182/13/5 212/14/5
f 183/7/6 184/15/6 185/16/6
f 186/42/17 187/42/17 165/43/17
f 168/44/18 188/45/18 189/45/18
f 190/46/19 173/47/19 191/48/19
f 192/41/20 193/49/20 175/50/20
f 191/36/7 182/18/7 181/13/7 190/51/7
f 185/16/21 193/49/21 192/41/21 183/7/21
f 180/4/8 177/3/8 207/9/8 208/20/8
f 186/42/9 178/10/9 177/3/9 187/39/9
f 193/37/22 191/36/22 173/52/22 175/53/22
f 175/50/23 168/54/23 189/40/23 192/41/23
f 188/38/10 180/4/10 179/22/10 189/45/10
f 182/18/11 185/24/11 184/25/11 212/14/11
f 187/39/24 188/38/24 168/44/24 165/43/24
f 178/26/12 181/27/12 212/28/12 207/29/12
f 208/11/13 184/15/13 183/7/13 179/6/13
f 190/46/25 186/55/25 165/56/25 173/57/25
f 208/30/14 207/29/14 212/28/14 184/31/14
f 279/30/14 248/29/14 255/28/14 257/31/14
f 288/32/15 295/33/15 301/34/15 291/35/15
f 294/24/16 292/18/16 302/36/16 304/37/16
f 299/38/1 296/39/1 287/3/1 290/4/1
f 300/40/2 289/6/2 293/7/2 303/41/2
f 286/9/3 287/9/3 288/10/3
f 320/11/4 289/12/4 290/12/4
f 291/13/5 292/13/5 324/14/5
f 293/7/6 328/15/6 294/16/6
f 295/42/17 296/42/17 297/43/17
f 298/44/18 299/45/18 300/45/18
f 301/46/19 274/47/19 302/48/19
f 303/41/20 304/49/20 305/50/20
f 302/36/7 292/18/7 291/13/7 301/51/7
f 294/16/21 304/49/21 303/41/21 293/7/21
f 290/4/8 287/3/8 286/9/8 320/20/8
f 295/42/9 288/10/9 287/3/9 296/39/9
f 304/37/22 302/36/22 274/52/22 305/53/22
f 305/50/23 298/54/23 300/40/23 303/41/23
f 299/38/10 290/4/10 289/22/10 300/45/10
f 292/18/11 294/24/11 328/25/11 324/14/11
f 296/39/24 299/38/24 298/44/24 297/43/24
f 288/26/12 291/27/12 324/28/12 286/29/12
f 320/11/13 328/15/13 293/7/13 289/6/13
f 301/46/25 295/55/25 297/56/25 274/57/25
f 320/30/14 286/29/14 324/28/14 328/31/14
f 308/32/15 318/33/15 323/34/15 312/35/15
f 322/40/2 310/6/2 315/7/2 326/41/2
f 309/30/14 306/29/14 314/28/14 316/31/14
f 341/32/15 350/33/15 355/34/15 345/35/15
f 349/24/16 346/18/16 356/36/16 358/37/16
f 353/38/1 351/39/1 340/3/1 344/4/1
f 354/40/2 343/6/2 348/7/2 357/41/2
f 339/9/3 340/9/3 341/10/3
f 342/11/4 343/12/4 344/12/4
f 345/13/5 346/13/5 347/14/5
f 348/7/6 379/15/6 349/16/6
f 350/42/17 351/42/17 352/43/17
f 331/44/18 353/45/18 354/45/18
f 355/46/19 336/47/19 356/48/19
f 357/41/20 358/49/20 359/50/20
f 356/36/7 346/18/7 345/13/7 355/51/7
f 349/16/21 358/49/21 357/41/21 348/7/21
f 344/4/8 340/3/8 339/9/8 342/20/8
f 350/42/9 341/10/9 340/3/9 351/39/9
f 358/37/22 356/36/22 336/52/22 359/53/22
f 359/50/23 331/54/23 354/40/23 357/41/23
f 353/38/10 344/4/10 343/22/10 354/45/10
f 346/18/11 349/24/11 379/25/11 347/14/11
f 351/39/24 353/38/24 331/44/24 352/43/24
f 341/26/12 345/27/12 347/28/12 339/29/12
f 342/11/13 379/15/13 348/7/13 343/6/13
f 355/46/25 350/55/25 352/56/25 336/57/25
f 342/30/14 339/29/14 347/28/14 379/31/14
f 412/32/15 422/33/15 427/34/15 416/35/15
f 421/24/16 417/18/16 428/36/16 430/37/16
f 425/38/1 423/39/1 411/3/1 415/4/1
f 426/40/2 414/6/2 419/7/2 429/41/2
f 445/9/3 411/9/3 412/10/3
f 413/11/4 414/12/4 415/12/4
f 416/13/5 417/13/5 418/14/5
f 419/7/6 420/15/6 421/16/6
f 422/42/17 423/42/17 424/43/17
f 409/44/18 425/45/18 426/45/18
f 427/46/19 410/47/19 428/48/19
f 429/41/20 430/49/20 431/50/20
f 428/36/7 417/18/7 416/13/7 427/51/7
f 421/16/21 430/49/21 429/41/21 419/7/21
f 415/4/8 411/3/8 445/9/8 413/20/8
f 422/42/9 412/10/9 411/3/9 423/39/9
f 430/37/22 428/36/22 410/52/22 431/53/22
f 431/50/23 409/54/23 426/40/23 429/41/23
f 425/38/10 415/4/10 414/22/10 426/45/10
f 417/18/11 421/24/11 420/25/11 418/14/11
f 423/39/24 425/38/24 409/44/24 424/43/24
f 412/26/12 416/27/12 418/28/12 445/29/12
f 413/11/13 420/15/13 419/7/13 414/6/13
f 427/46/25 422/55/25 424/56/25 410/57/25
f 413/30/14 445/29/14 418/28/14 420/31/14
f 454/30/14 484/29/14 488/28/14 492/31/14
f 496/30/14 493/29/14 519/28/14 523/31/14
f 525/32/15 533/33/15 537/34/15 529/35/15
f 532/24/16 530/18/16 538/36/16 540/37/16
f 535/38/1 534/39/1 524/3/1 528/4/1
f 536/40/2 527/6/2 531/7/2 539/41/2
f 555/9/3 524/9/3 525/10/3
f 526/11/4 527/12/4 528/12/4
f 529/13/5 530/13/5 559/14/5
f 531/7/6 563/15/6 532/16/6
f 533/42/17 534/42/17 503/43/17
f 506/44/18 535/45/18 536/45/18
f 537/46/19 511/47/19 538/48/19
f 539/41/20 540/49/20 541/50/20
f 538/36/7 530/18/7 529/13/7 537/51/7
f 532/16/21 540/49/21 539/41/21 531/7/21
f 528/4/8 524/3/8 555/9/8 526/20/8
f 533/42/9 525/10/9 524/3/9 534/39/9
f 540/37/22 538/36/22 511/52/22 541/53/22
f 541/50/23 506/54/23 536/40/23 539/41/23
f 535/38/10 528/4/10 527/22/10 536/45/10
f 530/18/11 532/24/11 563/25/11 559/14/11
f 534/39/24 535/38/24 506/44/24 503/43/24
f 525/26/12 529/27/12 559/28/12 555/29/12
f 526/11/13 563/15/13 531/7/13 527/6/13
f 537/46/25 533/55/25 503/56/25 511/57/25
f 526/30/14 555/29/14 559/28/14 563/31/14
f 616/32/15 623/33/15 628/34/15 619/35/15
f 622/24/16 620/18/16 629/36/16 631/37/16
f 626/38/1 624/39/1 615/3/1 618/4/1
f 627/40/2 617/6/2 621/7/2 630/41/2
f 647/9/3 615/9/3 616/10/3
f 648/11/4 617/12/4 618/12/4
f 619/13/5 620/13/5 652/14/5
f 621/7/6 656/15/6 622/16/6
f 623/42/17 624/42/17 625/43/17
f 597/44/18 626/45/18 627/45/18
f 628/46/19 602/47/19 629/48/19
f 630/41/20 631/49/20 632/50/20
f 629/36/7 620/18/7 619/13/7 628/51/7
f 622/16/21 631/49/21 630/41/21 621/7/21
f 618/4/8 615/3/8 647/9/8 648/20/8
f 623/42/9 616/10/9 615/3/9 624/39/9
f 631/37/22 629/36/22 602/52/22 632/53/22
f 632/50/23 597/54/23 627/40/23 630/41/23
f 626/38/10 618/4/10 617/22/10 627/45/10
f 620/18/11 622/24/11 656/25/11 652/14/11
f 624/39/24 626/38/24 597/44/24 625/43/24
f 616/26/12 619/27/12 652/28/12 647/29/12
f 648/11/13 656/15/13 621/7/13 617/6/13
f 628/46/25 623/55/25 625/56/25 602/57/25
f 668/32/15 676/33/15 681/34/15 671/35/15
f 675/24/16 672/18/16 682/36/16 684/37/16
f 679/38/1 677/39/1 667/3/1 670/4/1
f 680/40/2 669/6/2 673/7/2 683/41/2
f 698/9/3 667/9/3 668/10/3
f 699/11/4 669/12/4 670/12/4
f 671/13/5 672/13/5 703/14/5
f 673/7/6 674/15/6 675/16/6
f 676/42/17 677/42/17 657/43/17
f 678/44/18 679/45/18 680/45/18
f 681/46/19 664/47/19 682/48/19
f 683/41/20 684/49/20 685/50/20
f 682/36/7 672/18/7 671/13/7 681/51/7
f 675/16/21 684/49/21 683/41/21 673/7/21
f 670/4/8 667/3/8 698/9/8 699/20/8
f 676/42/9 668/10/9 667/3/9 677/39/9
f 684/37/22 682/36/22 664/52/22 685/53/22
f 685/50/23 678/54/23 680/40/23 683/41/23
f 679/38/10 670/4/10 669/22/10 680/45/10
f 672/18/11 675/24/11 674/25/11 703/14/11
f 677/39/24 679/38/24 678/44/24 657/43/24
f 668/26/12 671/27/12 703/28/12 698/29/12
f 699/11/13 674/15/13 673/7/13 669/6/13
f 681/46/25 676/55/25 657/56/25 664/57/25
f 699/30/14 698/29/14 703/28/14 674/31/14
f 730/30/14 707/29/14 714/28/14 716/31/14
f 740/32/15 748/33/15 753/34/15 744/35/15
f 752/40/2 742/6/2 746/7/2 756/41/2
f 741/30/14 769/29/14 773/28/14 777/31/14
f 787/24/16 783/18/16 795/36/16 797/37/16
f 791/38/1 789/39/1 778/3/1 781/4/1
f 813/9/27 778/9/27 779/10/27
f 814/11/4 780/12/4 781/12/4
f 782/13/28 783/13/28 784/14/28
f 785/7/6 786/15/6 787/16/6
f 788/42/29 789/42/29 790/43/29
f 760/44/18 791/45/18 792/45/18
f 793/46/30 794/47/30 795/48/30
f 796/41/20 797/49/20 798/50/20
f 795/36/7 783/18/7 782/13/7 793/51/7
f 787/16/21 797/49/21 796/41/21 785/7/21
f 781/4/8 778/3/8 813/9/8 814/20/8
f 788/42/9 779/10/9 778/3/9 789/39/9
f 797/37/22 795/36/22 794/52/22 798/53/22
f 798/50/23 760/54/23 792/40/23 796/41/23
f 791/38/10 781/4/10 780/22/10 792/45/10
f 783/18/11 787/24/11 786/25/11 784/14/11
f 789/39/24 791/38/24 760/44/24 790/43/24
f 779/26/31 782/27/31 784/28/31 813/29/31
f 814/11/13 786/15/13 785/7/13 780/6/13
f 793/46/32 788/55/32 790/56/32 794/57/32
f 860/23/14 859/1/14 858/2/14 857/21/14
f 857/58/14 854/59/14 856/8/14 860/5/14
f 856/8/14 854/19/14 853/17/33 855/61/33
f 75/38/10 859/1/10 860/23/10 76/45/10
f 72/42/9 857/21/9 858/2/9 73/39/9
f 78/36/7 853/17/7 854/19/7 77/51/7
f 76/40/2 860/5/2 856/8/2 79/41/2
f 75/38/1 73/39/1 858/2/1 859/1/1
f 424/56/26 409/54/26 431/53/26 410/57/26
f 900/23/26 897/21/26 898/2/26 899/1/26
f 897/58/26 900/5/26 896/8/26 894/59/26
f 896/8/26 895/61/26 893/17/26 894/19/26
f 11/16/21 895/61/21 896/8/21 9/7/21
f 11/24/16 7/18/16 893/17/16 895/60/16
f 2/32/15 897/58/15 894/59/15 6/35/15
f 902/24/16 901/18/16 903/36/16 904/37/16
f 906/24/1 905/18/1 907/36/1 908/37/1
usemtl grey.002
f 3/30/14 25/29/14 8/28/14 10/31/14
f 14/32/15 23/33/15 28/34/15 18/35/15
f 22/24/16 19/18/16 29/36/16 31/37/16
f 26/38/1 24/39/1 13/3/1 17/4/1
f 27/40/2 16/6/2 21/7/2 30/41/2
f 12/9/3 13/9/3 14/10/3
f 15/11/4 16/12/4 17/12/4
f 18/13/5 19/13/5 20/14/5
f 21/7/6 50/15/6 22/16/6
f 23/42/17 24/42/17 25/43/17
f 3/44/18 26/45/18 27/45/18
f 28/46/19 8/47/19 29/48/19
f 30/41/20 31/49/20 10/50/20
f 29/36/7 19/18/7 18/13/7 28/51/7
f 22/16/21 31/49/21 30/41/21 21/7/21
f 17/4/8 13/3/8 12/9/8 15/20/8
f 23/42/9 14/10/9 13/3/9 24/39/9
f 31/37/22 29/36/22 8/52/22 10/53/22
f 10/50/23 3/54/23 27/40/23 30/41/23
f 26/38/10 17/4/10 16/22/10 27/45/10
f 19/18/11 22/24/11 50/25/11 20/14/11
f 24/39/24 26/38/24 3/44/24 25/43/24
f 14/26/12 18/27/12 20/28/12 12/29/12
f 15/11/13 50/15/13 21/7/13 16/6/13
f 28/46/25 23/55/25 25/56/25 8/57/25
f 35/30/14 32/29/14 67/28/14 71/31/14
f 53/32/15 62/33/15 66/34/15 56/35/15
f 61/24/16 57/18/16 68/36/16 70/37/16
f 64/38/1 63/39/1 52/3/1 55/4/1
f 65/40/2 54/6/2 59/7/2 69/41/2
f 51/9/3 52/9/3 53/10/3
f 74/11/4 54/12/4 55/12/4
f 56/13/5 57/13/5 58/14/5
f 59/7/6 60/15/6 61/16/6
f 62/42/17 63/42/17 32/43/17
f 35/44/18 64/45/18 65/45/18
f 66/46/19 67/47/19 68/48/19
f 69/41/20 70/49/20 71/50/20
f 68/36/7 57/18/7 56/13/7 66/51/7
f 61/16/21 70/49/21 69/41/21 59/7/21
f 55/4/8 52/3/8 51/9/8 74/20/8
f 62/42/9 53/10/9 52/3/9 63/39/9
f 70/37/22 68/36/22 67/52/22 71/53/22
f 71/50/23 35/54/23 65/40/23 69/41/23
f 64/38/10 55/4/10 54/22/10 65/45/10
f 57/18/11 61/24/11 60/25/11 58/14/11
f 63/39/24 64/38/24 35/44/24 32/43/24
f 53/26/12 56/27/12 58/28/12 51/29/12
f 74/11/13 60/15/13 59/7/13 54/6/13
f 66/46/25 62/55/25 32/56/25 67/57/25
f 74/30/14 51/29/14 58/28/14 60/31/14
f 83/32/15 93/33/15 99/34/15 87/35/15
f 92/24/16 88/18/16 101/36/16 103/37/16
f 97/38/1 94/39/1 82/3/1 86/4/1
f 98/40/2 85/6/2 90/7/2 102/41/2
f 81/9/3 82/9/3 83/10/3
f 84/11/4 85/12/4 86/12/4
f 87/13/5 88/13/5 89/14/5
f 90/7/6 91/15/6 92/16/6
f 93/42/17 94/42/17 95/43/17
f 96/44/18 97/45/18 98/45/18
f 99/46/19 100/47/19 101/48/19
f 102/41/20 103/49/20 104/50/20
f 101/36/7 88/18/7 87/13/7 99/51/7
f 92/16/21 103/49/21 102/41/21 90/7/21
f 86/4/8 82/3/8 81/9/8 84/20/8
f 93/42/9 83/10/9 82/3/9 94/39/9
f 103/37/22 101/36/22 100/52/22 104/53/22
f 104/50/23 96/54/23 98/40/23 102/41/23
f 97/38/10 86/4/10 85/22/10 98/45/10
f 88/18/11 92/24/11 91/25/11 89/14/11
f 94/39/24 97/38/24 96/44/24 95/43/24
f 83/26/12 87/27/12 89/28/12 81/29/12
f 84/11/13 91/15/13 90/7/13 85/6/13
f 99/46/25 93/55/25 95/56/25 100/57/25
f 84/30/14 81/29/14 89/28/14 91/31/14
f 106/32/15 115/33/15 119/34/15 110/35/15
f 114/24/16 111/18/16 120/36/16 122/37/16
f 117/38/1 116/39/1 105/3/1 109/4/1
f 118/40/2 108/6/2 113/7/2 121/41/2
f 135/9/3 105/9/3 106/10/3
f 107/11/4 108/12/4 109/12/4
f 110/13/5 111/13/5 112/14/5
f 113/7/6 142/15/6 114/16/6
f 115/42/17 116/42/17 81/43/17
f 84/44/18 117/45/18 118/45/18
f 119/46/19 89/47/19 120/48/19
f 121/41/20 122/49/20 91/50/20
f 120/36/7 111/18/7 110/13/7 119/51/7
f 114/16/21 122/49/21 121/41/21 113/7/21
f 109/4/8 105/3/8 135/9/8 107/20/8
f 115/42/9 106/10/9 105/3/9 116/39/9
f 122/37/22 120/36/22 89/52/22 91/53/22
f 91/50/23 84/54/23 118/40/23 121/41/23
f 117/38/10 109/4/10 108/22/10 118/45/10
f 111/18/11 114/24/11 142/25/11 112/14/11
f 116/39/24 117/38/24 84/44/24 81/43/24
f 106/26/12 110/27/12 112/28/12 135/29/12
f 107/11/13 142/15/13 113/7/13 108/6/13
f 119/46/25 115/55/25 81/56/25 89/57/25
f 107/30/14 135/29/14 112/28/14 142/31/14
f 145/32/15 155/33/15 161/34/15 149/35/15
f 154/24/16 150/18/16 162/36/16 164/37/16
f 159/38/1 156/39/1 144/3/1 148/4/1
f 160/40/2 147/6/2 152/7/2 163/41/2
f 143/9/3 144/9/3 145/10/3
f 146/11/4 147/12/4 148/12/4
f 149/13/5 150/13/5 151/14/5
f 152/7/6 153/15/6 154/16/6
f 155/42/17 156/42/17 157/43/17
f 158/44/18 159/45/18 160/45/18
f 161/46/19 129/47/19 162/48/19
f 163/41/20 164/49/20 131/50/20
f 162/36/7 150/18/7 149/13/7 161/51/7
f 154/16/21 164/49/21 163/41/21 152/7/21
f 148/4/8 144/3/8 143/9/8 146/20/8
f 155/42/9 145/10/9 144/3/9 156/39/9
f 164/37/22 162/36/22 129/52/22 131/53/22
f 131/50/23 158/54/23 160/40/23 163/41/23
f 159/38/10 148/4/10 147/22/10 160/45/10
f 150/18/11 154/24/11 153/25/11 151/14/11
f 156/39/24 159/38/24 158/44/24 157/43/24
f 145/26/12 149/27/12 151/28/12 143/29/12
f 146/11/13 153/15/13 152/7/13 147/6/13
f 161/46/25 155/55/25 157/56/25 129/57/25
f 146/30/14 143/29/14 151/28/14 153/31/14
f 891/1/1 890/2/1 166/3/1 170/4/1
f 892/5/2 169/6/2 174/7/2 888/8/2
f 165/9/3 166/9/3 167/10/3
f 168/11/4 169/12/4 170/12/4
f 171/13/5 172/13/5 173/14/5
f 174/7/6 175/15/6 176/16/6
f 885/17/7 172/18/7 171/13/7 886/19/7
f 170/4/8 166/3/8 165/9/8 168/20/8
f 889/21/9 167/10/9 166/3/9 890/2/9
f 891/1/10 170/4/10 169/22/10 892/23/10
f 172/18/11 176/24/11 175/25/11 173/14/11
f 167/26/12 171/27/12 173/28/12 165/29/12
f 168/11/13 175/15/13 174/7/13 169/6/13
f 168/30/14 165/29/14 173/28/14 175/31/14
f 196/32/15 205/33/15 211/34/15 200/35/15
f 204/24/16 201/18/16 213/36/16 215/37/16
f 209/38/1 206/39/1 195/3/1 199/4/1
f 210/40/2 198/6/2 202/7/2 214/41/2
f 194/9/3 195/9/3 196/10/3
f 197/11/4 198/12/4 199/12/4
f 200/13/5 201/13/5 230/14/5
f 202/7/6 203/15/6 204/16/6
f 205/42/17 206/42/17 207/43/17
f 208/44/18 209/45/18 210/45/18
f 211/46/19 212/47/19 213/48/19
f 214/41/20 215/49/20 184/50/20
f 213/36/7 201/18/7 200/13/7 211/51/7
f 204/16/21 215/49/21 214/41/21 202/7/21
f 199/4/8 195/3/8 194/9/8 197/20/8
f 205/42/9 196/10/9 195/3/9 206/39/9
f 215/37/22 213/36/22 212/52/22 184/53/22
f 184/50/23 208/54/23 210/40/23 214/41/23
f 209/38/10 199/4/10 198/22/10 210/45/10
f 201/18/11 204/24/11 203/25/11 230/14/11
f 206/39/24 209/38/24 208/44/24 207/43/24
f 196/26/12 200/27/12 230/28/12 194/29/12
f 197/11/13 203/15/13 202/7/13 198/6/13
f 211/46/25 205/55/25 207/56/25 212/57/25
f 197/30/14 194/29/14 230/28/14 203/31/14
f 217/32/15 225/33/15 229/34/15 221/35/15
f 224/24/16 222/18/16 231/36/16 233/37/16
f 227/38/1 226/39/1 216/3/1 220/4/1
f 228/40/2 219/6/2 223/7/2 232/41/2
f 236/9/3 216/9/3 217/10/3
f 218/11/4 219/12/4 220/12/4
f 221/13/5 222/13/5 240/14/5
f 223/7/6 244/15/6 224/16/6
f 225/42/17 226/42/17 194/43/17
f 197/44/18 227/45/18 228/45/18
f 229/46/19 230/47/19 231/48/19
f 232/41/20 233/49/20 203/50/20
f 231/36/7 222/18/7 221/13/7 229/51/7
f 224/16/21 233/49/21 232/41/21 223/7/21
f 220/4/8 216/3/8 236/9/8 218/20/8
f 225/42/9 217/10/9 216/3/9 226/39/9
f 233/37/22 231/36/22 230/52/22 203/53/22
f 203/50/23 197/54/23 228/40/23 232/41/23
f 227/38/10 220/4/10 219/22/10 228/45/10
f 222/18/11 224/24/11 244/25/11 240/14/11
f 226/39/24 227/38/24 197/44/24 194/43/24
f 217/26/12 221/27/12 240/28/12 236/29/12
f 218/11/13 244/15/13 223/7/13 219/6/13
f 229/46/25 225/55/25 194/56/25 230/57/25
f 218/30/14 236/29/14 240/28/14 244/31/14
f 849/58/15 234/33/15 239/34/15 846/59/15
f 847/60/16 845/17/16 241/36/16 243/37/16
f 234/42/17 235/42/17 236/43/17
f 218/44/18 237/45/18 238/45/18
f 239/46/19 240/47/19 241/48/19
f 242/41/20 243/49/20 244/50/20
f 847/61/21 243/49/21 242/41/21 848/8/21
f 243/37/22 241/36/22 240/52/22 244/53/22
f 244/50/23 218/54/23 238/40/23 242/41/23
f 235/39/24 237/38/24 218/44/24 236/43/24
f 239/46/25 234/55/25 236/56/25 240/57/25
f 250/32/15 259/33/15 263/34/15 253/35/15
f 258/24/16 254/18/16 264/36/16 266/37/16
f 261/38/1 260/39/1 249/3/1 252/4/1
f 262/40/2 251/6/2 256/7/2 265/41/2
f 248/9/3 249/9/3 250/10/3
f 279/11/4 251/12/4 252/12/4
f 253/13/5 254/13/5 255/14/5
f 256/7/6 257/15/6 258/16/6
f 259/42/17 260/42/17 245/43/17
f 246/44/18 261/45/18 262/45/18
f 263/46/19 247/47/19 264/48/19
f 265/41/20 266/49/20 267/50/20
f 264/36/7 254/18/7 253/13/7 263/51/7
f 258/16/21 266/49/21 265/41/21 256/7/21
f 252/4/8 249/3/8 248/9/8 279/20/8
f 259/42/9 250/10/9 249/3/9 260/39/9
f 266/37/22 264/36/22 247/52/22 267/53/22
f 267/50/23 246/54/23 262/40/23 265/41/23
f 261/38/10 252/4/10 251/22/10 262/45/10
f 254/18/11 258/24/11 257/25/11 255/14/11
f 260/39/24 261/38/24 246/44/24 245/43/24
f 250/26/12 253/27/12 255/28/12 248/29/12
f 279/11/13 257/15/13 256/7/13 251/6/13
f 263/46/25 259/55/25 245/56/25 247/57/25
f 269/32/15 277/33/15 282/34/15 272/35/15
f 276/24/16 273/18/16 283/36/16 285/37/16
f 280/38/1 278/39/1 268/3/1 271/4/1
f 281/40/2 270/6/2 275/7/2 284/41/2
f 297/9/3 268/9/3 269/10/3
f 298/11/4 270/12/4 271/12/4
f 272/13/5 273/13/5 274/14/5
f 275/7/6 305/15/6 276/16/6
f 277/42/17 278/42/17 248/43/17
f 279/44/18 280/45/18 281/45/18
f 282/46/19 255/47/19 283/48/19
f 284/41/20 285/49/20 257/50/20
f 283/36/7 273/18/7 272/13/7 282/51/7
f 276/16/21 285/49/21 284/41/21 275/7/21
f 271/4/8 268/3/8 297/9/8 298/20/8
f 277/42/9 269/10/9 268/3/9 278/39/9
f 285/37/22 283/36/22 255/52/22 257/53/22
f 257/50/23 279/54/23 281/40/23 284/41/23
f 280/38/10 271/4/10 270/22/10 281/45/10
f 273/18/11 276/24/11 305/25/11 274/14/11
f 278/39/24 280/38/24 279/44/24 248/43/24
f 269/26/12 272/27/12 274/28/12 297/29/12
f 298/11/13 305/15/13 275/7/13 270/6/13
f 282/46/25 277/55/25 248/56/25 255/57/25
f 298/30/14 297/29/14 274/28/14 305/31/14
f 317/24/16 313/18/16 325/36/16 327/37/16
f 321/38/1 319/39/1 307/3/1 311/4/1
f 306/9/3 307/9/3 308/10/3
f 309/11/4 310/12/4 311/12/4
f 312/13/5 313/13/5 314/14/5
f 315/7/6 316/15/6 317/16/6
f 318/42/17 319/42/17 286/43/17
f 320/44/18 321/45/18 322/45/18
f 323/46/19 324/47/19 325/48/19
f 326/41/20 327/49/20 328/50/20
f 325/36/7 313/18/7 312/13/7 323/51/7
f 317/16/21 327/49/21 326/41/21 315/7/21
f 311/4/8 307/3/8 306/9/8 309/20/8
f 318/42/9 308/10/9 307/3/9 319/39/9
f 327/37/22 325/36/22 324/52/22 328/53/22
f 328/50/23 320/54/23 322/40/23 326/41/23
f 321/38/10 311/4/10 310/22/10 322/45/10
f 313/18/11 317/24/11 316/25/11 314/14/11
f 319/39/24 321/38/24 320/44/24 286/43/24
f 308/26/12 312/27/12 314/28/12 306/29/12
f 309/11/13 316/15/13 315/7/13 310/6/13
f 323/46/25 318/55/25 286/56/25 324/57/25
f 883/1/1 882/2/1 329/3/1 333/4/1
f 884/5/2 332/6/2 337/7/2 880/8/2
f 352/9/3 329/9/3 330/10/3
f 331/11/4 332/12/4 333/12/4
f 334/13/5 335/13/5 336/14/5
f 337/7/6 359/15/6 338/16/6
f 877/17/7 335/18/7 334/13/7 878/19/7
f 333/4/8 329/3/8 352/9/8 331/20/8
f 881/21/9 330/10/9 329/3/9 882/2/9
f 883/1/10 333/4/10 332/22/10 884/23/10
f 335/18/11 338/24/11 359/25/11 336/14/11
f 330/26/12 334/27/12 336/28/12 352/29/12
f 331/11/13 359/15/13 337/7/13 332/6/13
f 331/30/14 352/29/14 336/28/14 359/31/14
f 362/32/15 371/33/15 375/34/15 365/35/15
f 370/24/16 366/18/16 376/36/16 378/37/16
f 373/38/1 372/39/1 361/3/1 364/4/1
f 374/40/2 363/6/2 368/7/2 377/41/2
f 360/9/3 361/9/3 362/10/3
f 391/11/4 363/12/4 364/12/4
f 365/13/5 366/13/5 367/14/5
f 368/7/6 369/15/6 370/16/6
f 371/42/17 372/42/17 339/43/17
f 342/44/18 373/45/18 374/45/18
f 375/46/19 347/47/19 376/48/19
f 377/41/20 378/49/20 379/50/20
f 376/36/7 366/18/7 365/13/7 375/51/7
f 370/16/21 378/49/21 377/41/21 368/7/21
f 364/4/8 361/3/8 360/9/8 391/20/8
f 371/42/9 362/10/9 361/3/9 372/39/9
f 378/37/22 376/36/22 347/52/22 379/53/22
f 379/50/23 342/54/23 374/40/23 377/41/23
f 373/38/10 364/4/10 363/22/10 374/45/10
f 366/18/11 370/24/11 369/25/11 367/14/11
f 372/39/24 373/38/24 342/44/24 339/43/24
f 362/26/12 365/27/12 367/28/12 360/29/12
f 391/11/13 369/15/13 368/7/13 363/6/13
f 375/46/25 371/55/25 339/56/25 347/57/25
f 391/30/14 360/29/14 367/28/14 369/31/14
f 381/32/15 389/33/15 394/34/15 384/35/15
f 388/24/16 385/18/16 395/36/16 397/37/16
f 392/38/1 390/39/1 380/3/1 383/4/1
f 393/40/2 382/6/2 387/7/2 396/41/2
f 400/9/3 380/9/3 381/10/3
f 401/11/4 382/12/4 383/12/4
f 384/13/5 385/13/5 386/14/5
f 387/7/6 408/15/6 388/16/6
f 389/42/17 390/42/17 360/43/17
f 391/44/18 392/45/18 393/45/18
f 394/46/19 367/47/19 395/48/19
f 396/41/20 397/49/20 369/50/20
f 395/36/7 385/18/7 384/13/7 394/51/7
f 388/16/21 397/49/21 396/41/21 387/7/21
f 383/4/8 380/3/8 400/9/8 401/20/8
f 389/42/9 381/10/9 380/3/9 390/39/9
f 397/37/22 395/36/22 367/52/22 369/53/22
f 369/50/23 391/54/23 393/40/23 396/41/23
f 392/38/10 383/4/10 382/22/10 393/45/10
f 385/18/11 388/24/11 408/25/11 386/14/11
f 390/39/24 392/38/24 391/44/24 360/43/24
f 381/26/12 384/27/12 386/28/12 400/29/12
f 401/11/13 408/15/13 387/7/13 382/6/13
f 394/46/25 389/55/25 360/56/25 367/57/25
f 401/30/14 400/29/14 386/28/14 408/31/14
f 841/58/15 398/33/15 404/34/15 838/59/15
f 839/60/16 837/17/16 405/36/16 407/37/16
f 398/42/17 399/42/17 400/43/17
f 401/44/18 402/45/18 403/45/18
f 404/46/19 386/47/19 405/48/19
f 406/41/20 407/49/20 408/50/20
f 839/61/21 407/49/21 406/41/21 840/8/21
f 407/37/22 405/36/22 386/52/22 408/53/22
f 408/50/23 401/54/23 403/40/23 406/41/23
f 399/39/24 402/38/24 401/44/24 400/43/24
f 404/46/25 398/55/25 400/56/25 386/57/25
f 434/32/15 443/33/15 448/34/15 438/35/15
f 442/24/16 439/18/16 449/36/16 451/37/16
f 446/38/1 444/39/1 433/3/1 437/4/1
f 447/40/2 436/6/2 441/7/2 450/41/2
f 432/9/3 433/9/3 434/10/3
f 435/11/4 436/12/4 437/12/4
f 438/13/5 439/13/5 440/14/5
f 441/7/6 469/15/6 442/16/6
f 443/42/17 444/42/17 445/43/17
f 413/44/18 446/45/18 447/45/18
f 448/46/19 418/47/19 449/48/19
f 450/41/20 451/49/20 420/50/20
f 449/36/7 439/18/7 438/13/7 448/51/7
f 442/16/21 451/49/21 450/41/21 441/7/21
f 437/4/8 433/3/8 432/9/8 435/20/8
f 443/42/9 434/10/9 433/3/9 444/39/9
f 451/37/22 449/36/22 418/52/22 420/53/22
f 420/50/23 413/54/23 447/40/23 450/41/23
f 446/38/10 437/4/10 436/22/10 447/45/10
f 439/18/11 442/24/11 469/25/11 440/14/11
f 444/39/24 446/38/24 413/44/24 445/43/24
f 434/26/12 438/27/12 440/28/12 432/29/12
f 435/11/13 469/15/13 441/7/13 436/6/13
f 448/46/25 443/55/25 445/56/25 418/57/25
f 435/30/14 432/29/14 440/28/14 469/31/14
f 453/32/15 461/33/15 465/34/15 457/35/15
f 460/24/16 458/18/16 466/36/16 468/37/16
f 463/38/1 462/39/1 452/3/1 456/4/1
f 464/40/2 455/6/2 459/7/2 467/41/2
f 484/9/3 452/9/3 453/10/3
f 454/11/4 455/12/4 456/12/4
f 457/13/5 458/13/5 488/14/5
f 459/7/6 492/15/6 460/16/6
f 461/42/17 462/42/17 432/43/17
f 435/44/18 463/45/18 464/45/18
f 465/46/19 440/47/19 466/48/19
f 467/41/20 468/49/20 469/50/20
f 466/36/7 458/18/7 457/13/7 465/51/7
f 460/16/21 468/49/21 467/41/21 459/7/21
f 456/4/8 452/3/8 484/9/8 454/20/8
f 461/42/9 453/10/9 452/3/9 462/39/9
f 468/37/22 466/36/22 440/52/22 469/53/22
f 469/50/23 435/54/23 464/40/23 467/41/23
f 463/38/10 456/4/10 455/22/10 464/45/10
f 458/18/11 460/24/11 492/25/11 488/14/11
f 462/39/24 463/38/24 435/44/24 432/43/24
f 453/26/12 457/27/12 488/28/12 484/29/12
f 454/11/13 492/15/13 459/7/13 455/6/13
f 465/46/25 461/55/25 432/56/25 440/57/25
f 472/32/15 482/33/15 487/34/15 476/35/15
f 481/24/16 477/18/16 489/36/16 491/37/16
f 485/38/1 483/39/1 471/3/1 475/4/1
f 486/40/2 474/6/2 479/7/2 490/41/2
f 470/9/3 471/9/3 472/10/3
f 473/11/4 474/12/4 475/12/4
f 476/13/5 477/13/5 478/14/5
f 479/7/6 480/15/6 481/16/6
f 482/42/17 483/42/17 484/43/17
f 454/44/18 485/45/18 486/45/18
f 487/46/19 488/47/19 489/48/19
f 490/41/20 491/49/20 492/50/20
f 489/36/7 477/18/7 476/13/7 487/51/7
f 481/16/21 491/49/21 490/41/21 479/7/21
f 475/4/8 471/3/8 470/9/8 473/20/8
f 482/42/9 472/10/9 471/3/9 483/39/9
f 491/37/22 489/36/22 488/52/22 492/53/22
f 492/50/23 454/54/23 486/40/23 490/41/23
f 485/38/10 475/4/10 474/22/10 486/45/10
f 477/18/11 481/24/11 480/25/11 478/14/11
f 483/39/24 485/38/24 454/44/24 484/43/24
f 472/26/12 476/27/12 478/28/12 470/29/12
f 473/11/13 480/15/13 479/7/13 474/6/13
f 487/46/25 482/55/25 484/56/25 488/57/25
f 473/30/14 470/29/14 478/28/14 480/31/14
f 875/1/1 874/2/1 494/3/1 498/4/1
f 876/5/2 497/6/2 501/7/2 872/8/2
f 493/9/3 494/9/3 495/10/3
f 496/11/4 497/12/4 498/12/4
f 499/13/5 500/13/5 519/14/5
f 501/7/6 523/15/6 502/16/6
f 869/17/7 500/18/7 499/13/7 870/19/7
f 498/4/8 494/3/8 493/9/8 496/20/8
f 873/21/9 495/10/9 494/3/9 874/2/9
f 875/1/10 498/4/10 497/22/10 876/23/10
f 500/18/11 502/24/11 523/25/11 519/14/11
f 495/26/12 499/27/12 519/28/12 493/29/12
f 496/11/13 523/15/13 501/7/13 497/6/13
f 505/32/15 514/33/15 518/34/15 509/35/15
f 513/24/16 510/18/16 520/36/16 522/37/16
f 516/38/1 515/39/1 504/3/1 508/4/1
f 517/40/2 507/6/2 512/7/2 521/41/2
f 503/9/3 504/9/3 505/10/3
f 506/11/4 507/12/4 508/12/4
f 509/13/5 510/13/5 511/14/5
f 512/7/6 541/15/6 513/16/6
f 514/42/17 515/42/17 493/43/17
f 496/44/18 516/45/18 517/45/18
f 518/46/19 519/47/19 520/48/19
f 521/41/20 522/49/20 523/50/20
f 520/36/7 510/18/7 509/13/7 518/51/7
f 513/16/21 522/49/21 521/41/21 512/7/21
f 508/4/8 504/3/8 503/9/8 506/20/8
f 514/42/9 505/10/9 504/3/9 515/39/9
f 522/37/22 520/36/22 519/52/22 523/53/22
f 523/50/23 496/54/23 517/40/23 521/41/23
f 516/38/10 508/4/10 507/22/10 517/45/10
f 510/18/11 513/24/11 541/25/11 511/14/11
f 515/39/24 516/38/24 496/44/24 493/43/24
f 505/26/12 509/27/12 511/28/12 503/29/12
f 506/11/13 541/15/13 512/7/13 507/6/13
f 518/46/25 514/55/25 493/56/25 519/57/25
f 506/30/14 503/29/14 511/28/14 541/31/14
f 544/32/15 553/33/15 558/34/15 548/35/15
f 552/24/16 549/18/16 560/36/16 562/37/16
f 556/38/1 554/39/1 543/3/1 547/4/1
f 557/40/2 546/6/2 551/7/2 561/41/2
f 542/9/3 543/9/3 544/10/3
f 545/11/4 546/12/4 547/12/4
f 548/13/5 549/13/5 550/14/5
f 551/7/6 572/15/6 552/16/6
f 553/42/17 554/42/17 555/43/17
f 526/44/18 556/45/18 557/45/18
f 558/46/19 559/47/19 560/48/19
f 561/41/20 562/49/20 563/50/20
f 560/36/7 549/18/7 548/13/7 558/51/7
f 552/16/21 562/49/21 561/41/21 551/7/21
f 547/4/8 543/3/8 542/9/8 545/20/8
f 553/42/9 544/10/9 543/3/9 554/39/9
f 562/37/22 560/36/22 559/52/22 563/53/22
f 563/50/23 526/54/23 557/40/23 561/41/23
f 556/38/10 547/4/10 546/22/10 557/45/10
f 549/18/11 552/24/11 572/25/11 550/14/11
f 554/39/24 556/38/24 526/44/24 555/43/24
f 544/26/12 548/27/12 550/28/12 542/29/12
f 545/11/13 572/15/13 551/7/13 546/6/13
f 558/46/25 553/55/25 555/56/25 559/57/25
f 545/30/14 542/29/14 550/28/14 572/31/14
f 833/58/15 564/33/15 568/34/15 830/59/15
f 831/60/16 829/17/16 569/36/16 571/37/16
f 564/42/17 565/42/17 542/43/17
f 545/44/18 566/45/18 567/45/18
f 568/46/19 550/47/19 569/48/19
f 570/41/20 571/49/20 572/50/20
f 831/61/21 571/49/21 570/41/21 832/8/21
f 571/37/22 569/36/22 550/52/22 572/53/22
f 572/50/23 545/54/23 567/40/23 570/41/23
f 565/39/24 566/38/24 545/44/24 542/43/24
f 568/46/25 564/55/25 542/56/25 550/57/25
f 578/32/15 586/33/15 591/34/15 581/35/15
f 585/24/16 582/18/16 592/36/16 594/37/16
f 589/38/1 587/39/1 577/3/1 580/4/1
f 590/40/2 579/6/2 584/7/2 593/41/2
f 576/9/3 577/9/3 578/10/3
f 607/11/4 579/12/4 580/12/4
f 581/13/5 582/13/5 583/14/5
f 584/7/6 614/15/6 585/16/6
f 586/42/17 587/42/17 588/43/17
f 573/44/18 589/45/18 590/45/18
f 591/46/19 574/47/19 592/48/19
f 593/41/20 594/49/20 575/50/20
f 592/36/7 582/18/7 581/13/7 591/51/7
f 585/16/21 594/49/21 593/41/21 584/7/21
f 580/4/8 577/3/8 576/9/8 607/20/8
f 586/42/9 578/10/9 577/3/9 587/39/9
f 594/37/22 592/36/22 574/52/22 575/53/22
f 575/50/23 573/54/23 590/40/23 593/41/23
f 589/38/10 580/4/10 579/22/10 590/45/10
f 582/18/11 585/24/11 614/25/11 583/14/11
f 587/39/24 589/38/24 573/44/24 588/43/24
f 578/26/12 581/27/12 583/28/12 576/29/12
f 607/11/13 614/15/13 584/7/13 579/6/13
f 591/46/25 586/55/25 588/56/25 574/57/25
f 607/30/14 576/29/14 583/28/14 614/31/14
f 596/32/15 605/33/15 610/34/15 600/35/15
f 604/24/16 601/18/16 611/36/16 613/37/16
f 608/38/1 606/39/1 595/3/1 599/4/1
f 609/40/2 598/6/2 603/7/2 612/41/2
f 625/9/3 595/9/3 596/10/3
f 597/11/4 598/12/4 599/12/4
f 600/13/5 601/13/5 602/14/5
f 603/7/6 632/15/6 604/16/6
f 605/42/17 606/42/17 576/43/17
f 607/44/18 608/45/18 609/45/18
f 610/46/19 583/47/19 611/48/19
f 612/41/20 613/49/20 614/50/20
f 611/36/7 601/18/7 600/13/7 610/51/7
f 604/16/21 613/49/21 612/41/21 603/7/21
f 599/4/8 595/3/8 625/9/8 597/20/8
f 605/42/9 596/10/9 595/3/9 606/39/9
f 613/37/22 611/36/22 583/52/22 614/53/22
f 614/50/23 607/54/23 609/40/23 612/41/23
f 608/38/10 599/4/10 598/22/10 609/45/10
f 601/18/11 604/24/11 632/25/11 602/14/11
f 606/39/24 608/38/24 607/44/24 576/43/24
f 596/26/12 600/27/12 602/28/12 625/29/12
f 597/11/13 632/15/13 603/7/13 598/6/13
f 610/46/25 605/55/25 576/56/25 583/57/25
f 597/30/14 625/29/14 602/28/14 632/31/14
f 635/32/15 645/33/15 651/34/15 639/35/15
f 644/24/16 640/18/16 653/36/16 655/37/16
f 656/62/26 652/57/26 647/56/26 648/63/26
f 649/38/1 646/39/1 634/3/1 638/4/1
f 650/40/2 637/6/2 642/7/2 654/41/2
f 633/9/3 634/9/3 635/10/3
f 636/11/4 637/12/4 638/12/4
f 639/13/5 640/13/5 641/14/5
f 642/7/6 643/15/6 644/16/6
f 645/42/17 646/42/17 647/43/17
f 648/44/18 649/45/18 650/45/18
f 651/46/19 652/47/19 653/48/19
f 654/41/20 655/49/20 656/50/20
f 653/36/7 640/18/7 639/13/7 651/51/7
f 644/16/21 655/49/21 654/41/21 642/7/21
f 638/4/8 634/3/8 633/9/8 636/20/8
f 645/42/9 635/10/9 634/3/9 646/39/9
f 655/37/22 653/36/22 652/52/22 656/53/22
f 656/50/23 648/54/23 650/40/23 654/41/23
f 649/38/10 638/4/10 637/22/10 650/45/10
f 640/18/11 644/24/11 643/25/11 641/14/11
f 646/39/24 649/38/24 648/44/24 647/43/24
f 635/26/12 639/27/12 641/28/12 633/29/12
f 636/11/13 643/15/13 642/7/13 637/6/13
f 651/46/25 645/55/25 647/56/25 652/57/25
f 636/30/14 633/29/14 641/28/14 643/31/14
f 867/1/1 866/2/1 658/3/1 661/4/1
f 868/5/2 660/6/2 665/7/2 864/8/2
f 657/9/3 658/9/3 659/10/3
f 678/11/4 660/12/4 661/12/4
f 662/13/5 663/13/5 664/14/5
f 665/7/6 685/15/6 666/16/6
f 861/17/7 663/18/7 662/13/7 862/19/7
f 661/4/8 658/3/8 657/9/8 678/20/8
f 865/21/9 659/10/9 658/3/9 866/2/9
f 867/1/10 661/4/10 660/22/10 868/23/10
f 663/18/11 666/24/11 685/25/11 664/14/11
f 659/26/12 662/27/12 664/28/12 657/29/12
f 678/11/13 685/15/13 665/7/13 660/6/13
f 678/30/14 657/29/14 664/28/14 685/31/14
f 688/32/15 696/33/15 702/34/15 692/35/15
f 695/24/16 693/18/16 704/36/16 706/37/16
f 700/38/1 697/39/1 687/3/1 691/4/1
f 701/40/2 690/6/2 694/7/2 705/41/2
f 686/9/3 687/9/3 688/10/3
f 689/11/4 690/12/4 691/12/4
f 692/13/5 693/13/5 723/14/5
f 694/7/6 727/15/6 695/16/6
f 696/42/17 697/42/17 698/43/17
f 699/44/18 700/45/18 701/45/18
f 702/46/19 703/47/19 704/48/19
f 705/41/20 706/49/20 674/50/20
f 704/36/7 693/18/7 692/13/7 702/51/7
f 695/16/21 706/49/21 705/41/21 694/7/21
f 691/4/8 687/3/8 686/9/8 689/20/8
f 696/42/9 688/10/9 687/3/9 697/39/9
f 706/37/22 704/36/22 703/52/22 674/53/22
f 674/50/23 699/54/23 701/40/23 705/41/23
f 700/38/10 691/4/10 690/22/10 701/45/10
f 693/18/11 695/24/11 727/25/11 723/14/11
f 697/39/24 700/38/24 699/44/24 698/43/24
f 688/26/12 692/27/12 723/28/12 686/29/12
f 689/11/13 727/15/13 694/7/13 690/6/13
f 702/46/25 696/55/25 698/56/25 703/57/25
f 689/30/14 686/29/14 723/28/14 727/31/14
f 709/32/15 718/33/15 722/34/15 712/35/15
f 717/24/16 713/18/16 724/36/16 726/37/16
f 720/38/1 719/39/1 708/3/1 711/4/1
f 721/40/2 710/6/2 715/7/2 725/41/2
f 707/9/3 708/9/3 709/10/3
f 730/11/4 710/12/4 711/12/4
f 712/13/5 713/13/5 714/14/5
f 715/7/6 716/15/6 717/16/6
f 718/42/17 719/42/17 686/43/17
f 689/44/18 720/45/18 721/45/18
f 722/46/19 723/47/19 724/48/19
f 725/41/20 726/49/20 727/50/20
f 724/36/7 713/18/7 712/13/7 722/51/7
f 717/16/21 726/49/21 725/41/21 715/7/21
f 711/4/8 708/3/8 707/9/8 730/20/8
f 718/42/9 709/10/9 708/3/9 719/39/9
f 726/37/22 724/36/22 723/52/22 727/53/22
f 727/50/23 689/54/23 721/40/23 725/41/23
f 720/38/10 711/4/10 710/22/10 721/45/10
f 713/18/11 717/24/11 716/25/11 714/14/11
f 719/39/24 720/38/24 689/44/24 686/43/24
f 709/26/12 712/27/12 714/28/12 707/29/12
f 730/11/13 716/15/13 715/7/13 710/6/13
f 722/46/25 718/55/25 686/56/25 723/57/25
f 825/58/15 728/33/15 733/34/15 822/59/15
f 823/60/16 821/17/16 734/36/16 736/37/16
f 728/42/17 729/42/17 707/43/17
f 730/44/18 731/45/18 732/45/18
f 733/46/19 714/47/19 734/48/19
f 735/41/20 736/49/20 716/50/20
f 823/61/21 736/49/21 735/41/21 824/8/21
f 736/37/22 734/36/22 714/52/22 716/53/22
f 716/50/23 730/54/23 732/40/23 735/41/23
f 729/39/24 731/38/24 730/44/24 707/43/24
f 733/46/25 728/55/25 707/56/25 714/57/25
f 747/24/16 745/18/16 755/36/16 757/37/16
f 751/38/1 749/39/1 739/3/1 743/4/1
f 769/9/3 739/9/3 740/10/3
f 741/11/4 742/12/4 743/12/4
f 744/13/5 745/13/5 773/14/5
f 746/7/6 777/15/6 747/16/6
f 748/42/17 749/42/17 737/43/17
f 750/44/18 751/45/18 752/45/18
f 753/46/19 754/47/19 755/48/19
f 756/41/20 757/49/20 738/50/20
f 755/36/7 745/18/7 744/13/7 753/51/7
f 747/16/21 757/49/21 756/41/21 746/7/21
f 743/4/8 739/3/8 769/9/8 741/20/8
f 748/42/9 740/10/9 739/3/9 749/39/9
f 757/37/22 755/36/22 754/52/22 738/53/22
f 738/50/23 750/54/23 752/40/23 756/41/23
f 751/38/10 743/4/10 742/22/10 752/45/10
f 745/18/11 747/24/11 777/25/11 773/14/11
f 749/39/24 751/38/24 750/44/24 737/43/24
f 740/26/12 744/27/12 773/28/12 769/29/12
f 741/11/13 777/15/13 746/7/13 742/6/13
f 753/46/25 748/55/25 737/56/25 754/57/25
f 759/32/15 767/33/15 772/34/15 763/35/15
f 766/24/16 764/18/16 774/36/16 776/37/16
f 770/38/1 768/39/1 758/3/1 762/4/1
f 771/40/2 761/6/2 765/7/2 775/41/2
f 790/9/3 758/9/3 759/10/3
f 760/11/4 761/12/4 762/12/4
f 763/13/5 764/13/5 794/14/5
f 765/7/6 798/15/6 766/16/6
f 767/42/17 768/42/17 769/43/17
f 741/44/18 770/45/18 771/45/18
f 772/46/19 773/47/19 774/48/19
f 775/41/20 776/49/20 777/50/20
f 774/36/7 764/18/7 763/13/7 772/51/7
f 766/16/21 776/49/21 775/41/21 765/7/21
f 762/4/8 758/3/8 790/9/8 760/20/8
f 767/42/9 759/10/9 758/3/9 768/39/9
f 776/37/22 774/36/22 773/52/22 777/53/22
f 777/50/23 741/54/23 771/40/23 775/41/23
f 770/38/10 762/4/10 761/22/10 771/45/10
f 764/18/11 766/24/11 798/25/11 794/14/11
f 768/39/24 770/38/24 741/44/24 769/43/24
f 759/26/12 763/27/12 794/28/12 790/29/12
f 760/11/13 798/15/13 765/7/13 761/6/13
f 772/46/25 767/55/25 769/56/25 773/57/25
f 760/30/14 790/29/14 794/28/14 798/31/14
f 779/32/15 788/33/15 793/34/15 782/35/15
f 792/40/2 780/6/2 785/7/2 796/41/2
f 814/30/14 813/29/14 784/28/14 786/31/14
f 801/32/15 811/33/15 817/34/15 805/35/15
f 810/24/16 806/18/16 818/36/16 820/37/16
f 815/38/1 812/39/1 800/3/1 804/4/1
f 816/40/2 803/6/2 808/7/2 819/41/2
f 799/9/3 800/9/3 801/10/3
f 802/11/4 803/12/4 804/12/4
f 805/13/5 806/13/5 807/14/5
f 808/7/6 809/15/6 810/16/6
f 811/42/17 812/42/17 813/43/17
f 814/44/18 815/45/18 816/45/18
f 817/46/19 784/47/19 818/48/19
f 819/41/20 820/49/20 786/50/20
f 818/36/7 806/18/7 805/13/7 817/51/7
f 810/16/21 820/49/21 819/41/21 808/7/21
f 804/4/8 800/3/8 799/9/8 802/20/8
f 811/42/9 801/10/9 800/3/9 812/39/9
f 820/37/22 818/36/22 784/52/22 786/53/22
f 786/50/23 814/54/23 816/40/23 819/41/23
f 815/38/10 804/4/10 803/22/10 816/45/10
f 806/18/11 810/24/11 809/25/11 807/14/11
f 812/39/24 815/38/24 814/44/24 813/43/24
f 801/26/12 805/27/12 807/28/12 799/29/12
f 802/11/13 809/15/13 808/7/13 803/6/13
f 817/46/25 811/55/25 813/56/25 784/57/25
f 802/30/14 799/29/14 807/28/14 809/31/14
f 828/23/14 827/1/14 826/2/14 825/21/14
f 825/58/14 822/59/14 824/8/14 828/5/14
f 824/8/14 822/19/14 821/17/14 823/61/14
f 836/23/14 835/1/14 834/2/14 833/21/14
f 833/58/14 830/59/14 832/8/14 836/5/14
f 832/8/14 830/19/14 829/17/14 831/61/14
f 844/23/14 843/1/14 842/2/14 841/21/14
f 841/58/14 838/59/14 840/8/14 844/5/14
f 840/8/14 838/19/14 837/17/14 839/61/14
f 852/23/14 851/1/14 850/2/14 849/21/14
f 849/58/14 846/59/14 848/8/14 852/5/14
f 848/8/14 846/19/14 845/17/14 847/61/14
f 731/38/10 827/1/10 828/23/10 732/45/10
f 728/42/9 825/21/9 826/2/9 729/39/9
f 734/36/7 821/17/7 822/19/7 733/51/7
f 732/40/2 828/5/2 824/8/2 735/41/2
f 731/38/1 729/39/1 826/2/1 827/1/1
f 566/38/10 835/1/10 836/23/10 567/45/10
f 564/42/9 833/21/9 834/2/9 565/39/9
f 569/36/7 829/17/7 830/19/7 568/51/7
f 567/40/2 836/5/2 832/8/2 570/41/2
f 566/38/1 565/39/1 834/2/1 835/1/1
f 402/38/10 843/1/10 844/23/10 403/45/10
f 398/42/9 841/21/9 842/2/9 399/39/9
f 405/36/7 837/17/7 838/19/7 404/51/7
f 403/40/2 844/5/2 840/8/2 406/41/2
f 402/38/1 399/39/1 842/2/1 843/1/1
f 237/38/10 851/1/10 852/23/10 238/45/10
f 234/42/9 849/21/9 850/2/9 235/39/9
f 241/36/7 845/17/7 846/19/7 239/51/7
f 238/40/2 852/5/2 848/8/2 242/41/2
f 237/38/1 235/39/1 850/2/1 851/1/1
f 100/57/26 95/56/26 96/44/26 104/50/26
f 245/56/26 246/54/26 267/53/26 247/57/26
f 737/56/26 750/54/26 738/53/26 754/57/26
f 575/50/26 574/57/26 588/43/26 573/54/26
f 666/16/21 863/61/21 864/8/21 665/7/21
f 666/24/16 663/18/16 861/17/16 863/60/16
f 659/32/15 865/58/15 862/59/15 662/35/15
f 502/16/21 871/61/21 872/8/21 501/7/21
f 502/24/16 500/18/16 869/17/16 871/60/16
f 495/32/15 873/58/15 870/59/15 499/35/15
f 338/16/21 879/61/21 880/8/21 337/7/21
f 892/23/26 889/21/26 890/2/26 891/1/26
f 889/58/26 892/5/26 888/8/26 886/59/26
f 338/24/16 335/18/16 877/17/16 879/60/16
f 330/32/15 881/58/15 878/59/15 334/35/15
f 888/8/26 887/61/26 885/17/26 886/19/26
f 883/1/26 884/5/26 881/21/26 882/2/26
f 176/16/21 887/61/21 888/8/21 174/7/21
f 880/8/26 878/19/26 881/58/26 884/5/26
f 880/8/26 879/60/26 877/17/26 878/19/26
f 875/1/26 876/5/26 873/21/26 874/2/26
f 176/24/16 172/18/16 885/17/16 887/60/16
f 167/32/15 889/58/15 886/59/15 171/35/15
f 872/8/26 870/19/26 873/58/26 876/5/26
f 872/8/26 871/60/26 869/17/26 870/19/26
f 867/1/26 868/5/26 865/21/26 866/2/26
f 864/8/26 862/19/26 865/58/26 868/5/26
f 864/8/26 863/60/26 861/17/26 862/19/26
