# Blender 5.2.1 LTS
# www.blender.org
mtllib Wall_Smooth.mtl
o EXPORT_Wall_Smooth
v -1.053095 3.062621 -0.156276
v -1.053095 0.000000 -0.156276
v -1.053095 3.062621 0.156276
v -1.053095 0.000000 0.156276
v 1.053095 3.062621 -0.156276
v 1.053095 0.000000 -0.156276
v 1.053095 3.062621 0.156276
v 1.053095 0.000000 0.156276
vn -0.0000 -0.0000 -1.0000
vn -0.0000 -1.0000 -0.0000
vn -0.0000 -0.0000 1.0000
vn -1.0000 -0.0000 -0.0000
vn -0.0000 1.0000 -0.0000
vn 1.0000 -0.0000 -0.0000
vt 0.406365 0.267639
vt 0.593635 0.267639
vt 0.593635 1.341248
vt 0.406365 1.341248
vt 0.142639 0.530838
vt 1.216247 0.530838
vt 1.216248 0.719163
vt 0.142639 0.719162
vt 0.406365 -0.091248
vt 0.593635 -0.091248
vt 0.593635 0.982361
vt 0.406365 0.982361
vt 0.406365 0.030838
vt 0.593635 0.030838
vt 0.593635 0.219162
vt 0.406365 0.219162
vt -0.216248 0.530837
vt 0.857361 0.530838
vt 0.857361 0.719162
vt -0.216248 0.719162
vt 0.406365 0.530838
vt 0.593635 0.530838
vt 0.593635 0.719162
vt 0.406365 0.719162
s 1
usemtl grey.002
f 2/1/1 1/2/1 5/3/1 6/4/1
f 2/5/2 6/6/2 8/7/2 4/8/2
f 8/9/3 7/10/3 3/11/3 4/12/3
f 4/13/4 3/14/4 1/15/4 2/16/4
f 5/17/5 1/18/5 3/19/5 7/20/5
f 6/21/6 5/22/6 7/23/6 8/24/6
