# Blender 5.2.1 LTS
# www.blender.org
mtllib Wall_Railing.mtl
o EXPORT_Wall_Railing
v -0.783803 0.020523 -0.064261
v -0.783803 0.938357 -0.064261
v -0.728151 0.020523 -0.032130
v -0.728151 0.938357 -0.032130
v -0.728151 0.020523 0.032131
v -0.728151 0.938357 0.032131
v -0.783803 0.020523 0.064261
v -0.783803 0.938357 0.064261
v -0.839455 0.020523 0.032131
v -0.839455 0.938357 0.032131
v -0.839455 0.020523 -0.032130
v -0.839455 0.938357 -0.032130
v -0.257761 0.020523 -0.064261
v -0.257761 0.938357 -0.064261
v -0.202109 0.020523 -0.032130
v -0.202109 0.938357 -0.032130
v -0.202109 0.020523 0.032131
v -0.202109 0.938357 0.032131
v -0.257761 0.020523 0.064261
v -0.257761 0.938357 0.064261
v -0.313412 0.020523 0.032131
v -0.313412 0.938357 0.032131
v -0.313412 0.020523 -0.032130
v -0.313412 0.938357 -0.032130
v 0.268281 0.020523 -0.064261
v 0.268281 0.938357 -0.064261
v 0.323933 0.020523 -0.032130
v 0.323933 0.938357 -0.032130
v 0.323933 0.020523 0.032131
v 0.323933 0.938357 0.032131
v 0.268281 0.020523 0.064261
v 0.268281 0.938357 0.064261
v 0.212630 0.020523 0.032131
v 0.212630 0.938357 0.032131
v 0.212630 0.020523 -0.032130
v 0.212630 0.938357 -0.032130
v 0.794324 0.020523 -0.064261
v 0.794324 0.938357 -0.064261
v 0.849975 0.020523 -0.032130
v 0.849975 0.938357 -0.032130
v 0.849975 0.020523 0.032131
v 0.849975 0.938357 0.032131
v 0.794324 0.020523 0.064261
v 0.794324 0.938357 0.064261
v 0.738672 0.020523 0.032131
v 0.738672 0.938357 0.032131
v 0.738672 0.020523 -0.032130
v 0.738672 0.938357 -0.032130
v -1.052085 0.000000 -0.131511
v -1.052085 0.000000 0.131511
v -1.052085 0.978575 -0.131511
v -1.052085 0.978575 0.131511
v 1.052085 0.000000 -0.131511
v 1.052085 0.000000 0.131511
v 1.052085 0.978575 -0.131511
v 1.052085 0.978575 0.131511
v -1.052085 0.857499 -0.131511
v -1.052085 0.101381 -0.131511
v -1.052085 0.101381 0.131511
v -1.052085 0.857499 0.131511
v 1.052085 0.101381 -0.131511
v 1.052085 0.857499 -0.131511
v 1.052085 0.857499 0.131511
v 1.052085 0.101381 0.131511
vn 0.5000 -0.0000 -0.8660
vn 1.0000 -0.0000 -0.0000
vn 0.5000 -0.0000 0.8660
vn -0.5000 -0.0000 0.8660
vn -0.0000 1.0000 -0.0000
vn -1.0000 -0.0000 -0.0000
vn -0.5000 -0.0000 -0.8660
vn -0.0000 -1.0000 -0.0000
vn -0.0000 -0.0000 -1.0000
vn -0.0000 -0.0000 1.0000
vt 0.076745 0.197902
vt 0.076745 0.197902
vt 0.061981 0.187980
s 1
usemtl grey.002
f 1/1/1 2/1/1 4/1/1 3/1/1
f 3/1/2 4/1/2 6/1/2 5/1/2
f 5/1/3 6/1/3 8/1/3 7/1/3
f 7/1/4 8/1/4 10/1/4 9/1/4
f 4/1/5 2/1/5 12/1/5 10/1/5 8/1/5 6/1/5
f 9/1/6 10/1/6 12/1/6 11/1/6
f 11/1/7 12/1/7 2/2/7 1/2/7
f 1/1/8 3/1/8 5/1/8 7/1/8 9/1/8 11/1/8
f 13/1/1 14/1/1 16/1/1 15/1/1
f 15/1/2 16/1/2 18/1/2 17/1/2
f 17/1/3 18/1/3 20/1/3 19/1/3
f 19/1/4 20/1/4 22/1/4 21/1/4
f 16/1/5 14/1/5 24/1/5 22/1/5 20/1/5 18/1/5
f 21/1/6 22/1/6 24/1/6 23/1/6
f 23/1/7 24/1/7 14/2/7 13/2/7
f 13/1/8 15/1/8 17/1/8 19/1/8 21/1/8 23/1/8
f 25/1/1 26/1/1 28/1/1 27/1/1
f 27/1/2 28/1/2 30/1/2 29/1/2
f 29/1/3 30/1/3 32/1/3 31/1/3
f 31/1/4 32/1/4 34/1/4 33/1/4
f 28/1/5 26/1/5 36/1/5 34/1/5 32/1/5 30/1/5
f 33/1/6 34/1/6 36/1/6 35/1/6
f 35/1/7 36/1/7 26/2/7 25/2/7
f 25/1/8 27/1/8 29/1/8 31/1/8 33/1/8 35/1/8
f 37/1/1 38/1/1 40/1/1 39/1/1
f 39/1/2 40/1/2 42/1/2 41/1/2
f 41/1/3 42/1/3 44/1/3 43/1/3
f 43/1/4 44/1/4 46/1/4 45/1/4
f 40/1/5 38/1/5 48/1/5 46/1/5 44/1/5 42/1/5
f 45/1/6 46/1/6 48/1/6 47/1/6
f 47/1/7 48/1/7 38/2/7 37/2/7
f 37/1/8 39/1/8 41/1/8 43/1/8 45/1/8 47/1/8
f 57/3/6 60/3/6 52/3/6 51/3/6
f 51/3/5 52/3/5 56/3/5 55/3/5
f 61/3/2 64/3/2 54/3/2 53/3/2
f 53/3/8 54/3/8 50/3/8 49/3/8
f 58/3/9 61/3/9 53/3/9 49/3/9
f 64/3/10 59/3/10 50/3/10 54/3/10
f 56/3/10 52/3/10 60/3/10 63/3/10
f 51/3/9 55/3/9 62/3/9 57/3/9
f 55/3/2 56/3/2 63/3/2 62/3/2
f 59/3/5 64/3/5 61/3/5 58/3/5
f 49/3/6 50/3/6 59/3/6 58/3/6
f 60/3/8 57/3/8 62/3/8 63/3/8
